<svg width="183" height="533" viewBox="0 0 183 533" fill="none" xmlns="http://www.w3.org/2000/svg">
<path d="M132.234 20.7687L125.706 25.3837L124.692 27.1331L122.854 34.1734L122.633 36.1721L120.531 39.8614L118.546 43.962L116.238 45.5494L112.798 46.8134L110.842 48.0626L108.372 47.4306L105.255 47.5337L103.697 48.93L103.77 50.003L104.696 51.223L107.431 53.1042L110.474 54.7943L110.136 56.279L108.504 57.9543L98.1684 62.1284L95.0959 64.6421L94.0227 66.303L95.1251 69.0809L103.373 77.3852L104.77 78.2962L105.99 83.132L113.268 85.1455L116.252 88.1588L118.811 88.8787L124.383 88.6141L126.618 89.7462L127.882 88.8787L128.617 87.2913L133.307 83.2055L134.851 81.4122L133.924 78.9282L132.925 77.0322L135.777 73.255L139.232 69.5218L140.967 69.6393L143.922 71.9323L146.363 75.1214L146.686 77.5906L147.142 79.3839L149.45 83.2055L150.935 84.5283L154.934 85.2926L155.875 86.7916L155.155 92.3181L155.758 94.1554L159.948 94.2437L164.402 93.8024L165.961 94.0082L167.563 92.8474L170.033 91.5978L173.577 92.0243L175.311 94.4936L176.091 97.0359L173.047 97.9913L169.872 97.4768L168.328 99.1378L168.225 102.342L169.298 106.472L171.43 109.397L173.121 115.982L174.532 123.272L176.708 127.667L177.164 133.105L176.84 135.78L177.238 140.586L176.311 142.276L177.002 146.774L179.575 156.048L180.707 161.207L181.428 172.436L179.604 176.625L177.164 180.608L175.561 185.312L174.341 190.382L173.591 198.54L168.299 208.064L166.049 210.43L163.432 211.886L169.137 218.529L164.476 221.483L159.404 222.409L153.787 220.748L150.288 220.954L147.083 223.1L145.833 224.393L144.819 223.776L142.717 218.338L141.173 223.952L137.938 225.746L132.395 225.363L123.133 226.862L119.56 228.45L118.075 230.949L116.973 233.829L115.517 235.52L113.885 236.416L106.725 238.533L105.314 239.385L101.991 244.015L97.6543 246.69L94.0518 247.498L90.8617 244.809L89.5529 243.192L88.0683 242.369L83.1575 242.501L84.7014 243.339L85.701 245.235L86.1865 248.88L85.6275 252.451L83.2019 254.259L80.32 254.597L75.7624 258.286L69.7344 259.286L66.4707 262.681L46.5342 268.413L45.4022 268.472L42.6527 267.017L39.6685 266.371L36.6983 266.826L28.3475 270.03L24.3045 269.398L29.4651 261.432L36.3896 257.405L37.1102 256.303L34.8461 255.759L21.673 258.551L17.1005 260.932L12.528 261.623L14.6449 257.978L20.5405 252.995L23.7019 250.644L25.6276 249.703L27.8329 246.763L34.052 243.427L14.0275 250.306L8.76406 249.468L7.5293 247.557L3.44185 248.468L1.88359 243.809L7.95554 236.769L11.4987 233.726L15.7038 232.08L19.7468 229.714L21.2463 226.833L19.3497 225.907L7.23497 226.642L1.42773 226.025L1.73642 223.732L2.80966 221.189L8.82284 216.838L12.087 216.148L14.9832 216.559L17.8063 217.676L20.1143 219.131L26.9364 218.293L24.0842 215.516L23.5839 209.857L21.4082 207.961L24.1869 205.33L27.3774 203.743L32.6997 198.29L34.5962 197.452L45.1231 196.129L56.4728 193.263L67.7203 189.295L61.9422 187.075L59.1784 184.136L54.7383 190.059L51.5329 192.322L42.506 193.542L39.6537 192.881L35.625 191.044L34.3755 191.735L33.2138 193.145L27.2303 196.041L20.9524 196.732L28.2595 191.411L37.5364 182.372L39.5949 179.52L42.5351 174.538L41.6239 172.319L39.7125 171.055L46.4314 160.766L48.7987 158.9L53.0916 158.591L56.2525 156.96H57.6493L58.8988 156.342L61.6631 153.255L57.3994 151.286L52.9884 150.272L39.3594 151.345L37.566 151.11L35.875 150.154L34.7725 148.788L33.9492 145.275L32.9496 144.481H29.8766L26.8332 145.554L24.7163 145.451L22.643 143.908L25.9659 140.306L21.6873 139.454L17.3652 140.16L13.7628 139.057L13.66 136.794L15.2919 134.531L13.1454 132.384L12.7043 129.665L14.9832 128.328L17.468 128.769L22.5403 126.755L29.0533 125.785L23.4663 123.801L21.2463 122.096L21.1435 119.494L21.5846 117.26L28.0388 113.483L34.9197 111.822L34.4051 109.338L34.8901 106.634L27.9361 105.855L21.0699 107.751L21.8049 102.592L23.4515 97.9182L23.775 94.8461L23.4515 91.539L20.2318 92.9501L19.8643 88.2907L18.4824 85.1015L13.704 87.3061L13.8216 83.0732L15.2039 80.1186L17.6883 78.8403L20.1582 79.3987L24.7603 79.3548L29.2004 77.1206L35.5959 76.5473L45.7696 77.2381L52.7681 83.5141L54.5763 82.3972L57.3697 78.4285L58.6785 77.9876L69.2346 79.7221L75.7772 82.0003L77.5266 81.2947L76.5857 76.8999L74.3365 73.8431L77.1591 69.8452L80.5996 67.1261L82.9076 65.7738L88.2154 64.0836L90.5382 62.4963L92.0821 57.3223L94.5373 53.0158L81.2021 55.25L68.514 50.1353L70.5286 46.5196L73.204 44.4617L77.8209 42.8891L78.262 40.9931L80.5996 39.4205L84.4663 35.2755L83.0399 29.8521L83.8045 25.8839L86.5831 23.2967L87.4509 19.5782L88.6856 16.8296L94.3314 15.845L99.7563 13.3022L101.712 13.552L108.137 12.964L110.298 13.993L109.798 9.48062L113.738 8.89302L115.268 9.78966L115.944 12.9936L117.738 15.0367L118.296 18.5789L117.091 21.3128L115.076 23.4146L116.914 25.5605L114.076 29.4552L117.134 27.7942L121.501 23.9874L121.266 20.8862L120.531 16.9619L119.311 13.4197L119.869 9.51022L122.324 7.07059L128.779 5.83575L126.132 1.39696L128.485 1L131.043 1.92624L134.807 5.38003L138.732 8.0991L142.79 10.2449L138.879 14.5371L134.072 17.5208L132.234 20.7687ZM19.6144 104.326L19.4381 106.325L16.3799 103.812L14.8952 101.063L6.51484 99.8142L9.99927 97.0655L11.7047 97.8738L17.6295 97.9913L19.2909 99.1378L19.6144 104.326Z" fill="white" fill-opacity="0.2" stroke="white" strokeWidth="0.5"/>
</svg>
