<svg width="183" height="533" viewBox="0 0 183 533" fill="none" xmlns="http://www.w3.org/2000/svg">
<path d="M108.833 5.37549L109.05 6.92826L110.336 7.57954L114.83 7.24574L117.101 4.42354L118.905 2.65317L120.241 3.85584L120.893 7.32881L122.129 11.8378L127.491 16.8809L132.018 18.317L137.597 17.3314L139.802 16.4299L141.305 17.1816L142.792 19.8529L145.982 22.8922L152.73 25.0631L154.785 26.2821L156.222 28.3363L155.804 31.2416L152.597 38.5055L152.179 40.6433L152.614 41.3614L151.979 42.6971L147.803 47.5567L147.435 49.2598L148.822 52.0484L149.974 54.3528L150.008 53.9018L156.405 51.8144L159.295 56.006L164.039 56.1563L164.607 57.5088L169.935 61.4165L171.572 64.5057L175.397 67.4951L172.224 71.2687L172.708 72.9555L173.844 74.6754L178.154 75.6773L180.308 78.1489L180.442 81.9394L181.428 88.0842L172.541 94.1964L170.019 101.009L169.785 102.345L169.484 102.145L168.516 99.8903L166.895 99.9239L163.22 98.9719L158.092 105.117L155.771 110.227L154.401 113.968L152.33 116.99L151.912 120.18L152.179 121.532L151.478 123.252L151.444 125.072L154.384 128.629L155.136 130.566L158.727 136.895L157.608 139.183L156.723 141.671L155.687 143.441L154.468 144.56L150.76 144.493L146.049 145.278L142.875 146.53H141.238L137.831 143.391L134.022 138.682L131.617 136.428L130.515 134.491L127.524 133.672L123.265 131.351L120.309 128.813L117.77 127.227L114.195 126.442L111.238 126.525L110.386 122.25L110.019 117.374L107.614 114.084L110.921 101.26L108.95 100.007L106.812 101.026L103.705 104.099L102.218 107.739L101.333 110.978L96.1211 114.034L87.8528 115.153L78.8163 114.034L77.5801 113.216L76.9954 112.281V111.162L77.6133 109.426L79.1838 107.305L79.5845 104.299L77.9645 101.694L76.9118 100.676L77.3293 98.154L78.5155 94.9975L78.7658 93.1777L72.636 87.7173L68.2092 86.6481L63.9165 86.4478L60.6592 85.8302L58.7547 86.0972L57.4018 87.6836L56.0153 88.8359L54.98 87.4666L53.0755 77.7478L51.6059 76.2786L46.0602 74.6418L38.5102 74.0573L36.5053 72.2874L35.4032 67.8956L34.7017 62.6186L32.2294 57.5424L30.9596 56.2567L28.7049 54.019L24.763 54.9373L20.0355 57.893L17.2461 58.6946L16.1771 59.0116L12.4186 56.1395L8.17592 51.6478L4.78501 46.8718L3.96633 44.2167L5.00216 40.994L3.766 38.5224L1.94514 33.9971L1.42773 30.4568L21.8227 17.8996L34.2506 11.4536L40.1133 9.49974L41.5167 15.9789L42.5857 18.0331L43.9722 19.3688L45.8094 19.6358L47.931 18.0331L50.9039 16.3463L55.6646 17.1311L59.1223 18.6844L60.3416 20.3039L62.6467 21.8404L65.9877 22.2078L72.452 19.2689L78.6659 14.7935L80.4868 11.6707L81.1714 8.84846L84.8462 10.7187L88.0868 11.1198L89.5233 10.2845L88.6047 5.75922L91.2437 3.33808L94.1672 2.2358L95.4864 4.18963L98.1759 6.19341L100.297 6.21022L105.993 1L107.33 2.03552L108.566 3.88896L108.833 5.37549Z" fill="white" fill-opacity="0.2" stroke="white" strokeWidth="0.5"/>
</svg>
