<svg width="183" height="533" viewBox="0 0 183 533" fill="none" xmlns="http://www.w3.org/2000/svg">
<path d="M92.6573 17.8513L90.8212 27.6122L91.1548 49.3873L97.7481 71.1598L113.438 92.6827L125.369 108.2L141.477 120.632L168.68 132.394L179.529 134.896L181.031 150.831L178.943 167.682L169.515 176.942L160.668 190.374L153.993 206.64L147.067 237.923L146.066 259.53L130.376 250.605L122.114 244.515L107.761 242.847L93.4926 247.852L82.8119 258.779L68.0413 262.117L55.9396 258.779L48.7632 250.605L42.338 246.182L24.0632 240.678L16.1355 228.748L22.227 223.157L27.4018 214.315L31.8228 201.886L37.4153 190.455L19.4741 158.838L15.7178 149.161L1.03125 131.393L1.19933 122.299L4.70352 113.707L3.36908 106.95L5.45479 91.0152L15.8018 75.9155L22.6447 57.2286L34.2447 31.7009L59.8615 1L78.2203 5.75573L86.3161 5.5877L91.1548 16.8507L92.6573 17.8513Z" fill="white" fill-opacity="0.2" stroke="white" stroke-width="0.5"/>
</svg>
