<svg width="183" height="533" viewBox="0 0 183 533" fill="none" xmlns="http://www.w3.org/2000/svg">
<path d="M89.4854 20.4368L87.5008 19.3533L98.0226 16.2359L104.675 15.2856L105.86 15.7028L93.8372 19.803L89.4854 20.4368ZM112.846 15.369L122.084 14.0856L122.034 13.6023L119.599 12.8189L111.729 12.9522L109.211 13.5021L109.728 14.4188L112.846 15.369ZM140.992 10.0184L139.008 9.68471L133.239 11.3518L132.838 12.1184L134.439 12.6856L140.992 10.0184ZM83.6823 25.8877L79.8643 25.7208L74.2948 30.7052L75.0286 31.6219L83.6823 25.8877ZM162.87 1H160.702L156.683 2.56683L155.432 4.65051L159.768 4.38394L162.87 1ZM32.3254 172.012L26.3559 175.112L18.5525 174.029L12.6161 171.762L4.9628 172.195L1.42773 173.379L2.82812 179.846L3.89572 181.897L5.27932 183.23L7.11377 183.497L9.23114 181.897L12.1825 180.213L16.9348 180.997L20.3864 182.547L21.6204 184.164L23.9047 185.698L27.2398 186.064L33.6927 183.13L39.8957 178.646L41.7129 175.529L42.3968 172.712L37.0278 174.645L32.3254 172.012ZM181.428 27.9047L174.908 26.4874L170.706 24.4038L168.088 20.6367L163.586 15.4861L151.764 16.0192L141.926 17.5026L128.303 18.1364L119.482 20.6367L103.509 28.9715L99.4896 33.2223L95.3882 42.3735L81.4815 52.9089L73.3779 56.9592L71.0936 55.4092L67.8084 54.3923L65.1908 59.7434L63.5731 64.5609L58.1374 92.7821L54.4354 102.984L49.4501 111.552L41.6131 122.02L38.0114 125.587L35.8101 126.937L33.0591 131.972L30.8578 138.006L29.3572 140.823L38.1447 151.192L39.2454 154.159L40.3959 155.892L32.075 156.976L35.6101 160.327L40.0621 162.727L43.0471 163.877L44.6811 166.294L41.4798 167.411L38.4617 167.478L26.5228 158.593L19.8862 156.96L10.7486 157.476L8.44749 158.409L6.07976 161.11L9.43163 165.211L12.5326 167.628L17.5185 167.945L23.521 170.978L32.1585 168.445L38.3615 171.562L42.4466 172.679L46.115 174.546L49.3499 174.946L50.7671 174.112L49.8669 169.595L52.5013 167.178L55.4196 166.061L56.7365 168.028L59.4213 170.028L61.5224 170.045L67.2247 164.844L68.5589 165.877L69.7929 167.728L70.0596 169.211L70.2763 170.778L71.5602 171.428L76.0458 171.095L78.3301 168.278L80.1142 166.511L81.4484 167.711L82.0982 171.179L83.3322 175.696L88.685 180.73L93.2037 182.164L98.7564 181.18L100.957 180.28L102.441 181.03L103.925 183.697L107.127 186.748L113.847 188.898L115.914 190.115L117.348 192.165L116.931 195.082L113.73 202.334L113.313 204.467L113.746 205.184L113.113 206.518L108.944 211.368L108.577 213.085L109.962 215.869L111.112 218.17L113.613 219.286L115.964 219.653L120.416 219.803L125.168 219.953L127.72 208.535L125.769 205.201L123.351 203.501L120.533 202.667L119.232 201.083L118.782 199.267L119.282 198.149L122.601 198.483L123.635 197.299L131.538 190.565L131.872 189.265L130.771 188.531L129.337 188.148L128.97 186.731L129.02 184.864L133.239 175.112L134.49 170.945L134.773 167.995L134.506 165.078L132.072 160.493L129.721 156.826L129.637 153.909L127.92 152.375L123.051 144.524V141.49L125.802 139.123L129.654 137.623L130.938 136.373L133.239 135.589L139.359 137.856L142.093 139.823L142.86 139.423L145.328 137.289L149.663 137.623L160.151 133.322L161.719 131.255L162.886 129.055L162.986 128.088L158.918 123.837L158.801 122.27L159.334 120.503L160.485 119.103L162.886 118.153L165.437 116.286L171.156 110.985L173.141 106.384L173.758 101.383L173.875 97.6495L172.307 94.6822L170.723 92.7653L168.572 93.0655L164.387 92.9154L160.468 91.2484L158.317 88.5481L157.783 86.1811L158.768 84.6809L159.068 82.847L158.434 80.9968L158.684 79.4463L160.451 78.1964L172.841 78.2294L173.774 76.8625L174.608 69.6617L177.709 58.6761L180.628 52.5421L181.111 49.9583L181.061 35.3726L181.428 27.9047ZM19.2527 150.825L23.3378 149.641L29.5241 154.675L35.3266 153.042L34.9765 151.642L33.9929 150.325L29.4238 146.207L21.9374 145.691L17.7017 146.958L17.7185 148.441L19.2527 150.825ZM68.6424 49.8749L73.2776 44.3742V35.6224L66.4248 42.7738L64.9903 47.0745L65.8075 48.3579L68.6424 49.8749Z" fill="white" fill-opacity="0.2" stroke="white" strokeWidth="0.5"/>
</svg>
