<svg width="182" height="533" viewBox="0 0 182 533" fill="none" xmlns="http://www.w3.org/2000/svg">
<path d="M129.823 330.464L128.3 331.449L127.82 332.61L127.45 333.063L126.446 333.361L125.447 333.368L121.648 331.048L120.773 331.151L121.642 330.089L124.002 329.22L125.331 328.073L128.397 329.181L129.823 330.464ZM72.8508 252.886L73.6159 253.45L75.5348 253.359L74.8995 254.617L72.7861 256.016L71.3662 257.397L69.6483 258.551L68.8185 257.222L67.8524 257.274L66.3743 254.72L66.1086 250.897L68.0404 249.898L70.7115 249.957L72.8508 252.886ZM33.2204 193.183L35.7877 193.98L37.7001 193.967L39.3986 196.281L40.3063 199.923L42.4262 203.514L45.201 206.624L45.3112 208.523L44.3192 209.541L42.2511 210.805L42.2576 212.159L43.6255 211.479L44.8055 211.168L47.6449 211.466L48.6369 212.84L49.324 214.894L49.6871 216.579L49.4408 218.407L48.6757 217.824L47.8978 216.19L47.0356 215.439L46.0307 215.03L46.4846 217.279L46.303 220.28L46.7374 220.559L48.0859 220.611L47.1976 223.67L45.3499 224.499L43.2041 224.81L42.6856 225.893L42.2966 227.286L41.175 229.36L39.6969 230.533L37.8686 230.293L36.0793 229.366L34.5169 229.178L33.4278 229.729L32.7211 230.241L32.034 230.151L30.0696 230.345L28.2219 230.306L27.9562 229.496L28.2739 227.059L27.8588 226.398L26.0957 226.061L25.4408 225.478L24.4229 223.793L24.2221 223.002L24.0794 221.913L23.0031 220.507L21.7001 219.496L20.9351 219.444L19.4117 221.09L18.154 222.756L18.5948 223.592L19.0031 224.687L18.3225 225.478L16.2544 227.28L15.9302 227.979L15.3727 228.362L14.3874 227.863L11.9301 227.979L10.8022 227.662L9.48617 226.333L6.27712 225.445L5.73898 223.313L5.12309 222.911L1.48611 219.249L1 218.025L1.47325 217.292L2.82809 216.184L7.38565 214.343L8.10521 213.605L8.25438 212.95L6.9124 212.205L5.70654 211.375L5.29818 210.837L5.26574 210.364L5.95285 209.748L7.32728 209.703L8.41642 209.982L9.27863 209.431L10.7957 208.873L11.8136 208.173L12.6887 206.365L13.6158 204.738L13.7131 203.857L14.5235 200.753L14.9708 199.981L17.8493 197.946L18.5754 199.061L19.9951 199.333L21.2657 198.309L22.7893 195.075L23.846 194.874L25.0128 195.14L27.3078 194.732L31.3791 193.222L33.2204 193.183ZM56.3193 186.572L54.0243 186.598L53.1945 186.319L52.2025 185.542L51.0874 181.134L51.4895 179.573L51.9433 178.808L52.4488 178.212L53.6612 177.965L54.8671 178.801L55.3209 179.579L56.3321 182.56L56.5203 185.114L56.3193 186.572ZM37.7001 171.056L38.3549 175.211L38.9967 177.777L39.042 178.652L38.4392 179.871L35.4375 181.491L34.491 181.497L34.452 181.102L35.1263 179.456L34.5428 177.583L34.8281 176.157L34.5494 175.898L33.9659 176.099L31.8136 178.36L31.094 178.581L31.0161 178.121L31.5477 176.267L31.6126 174.997L31.9303 174.219L32.5137 173.5L33.2074 172.962L33.7714 172.884L34.3678 173.441L36.1052 171.886L37.7001 171.056ZM40.5916 174.815L40.2089 175.159L39.2884 175.062L38.9449 174.537L38.7567 173.733L38.7374 172.262L39.2949 171.205L41.6548 169.611L40.585 169.047L40.5461 168.645L41.1556 167.317L43.6904 165.249L44.3712 164.873L45.0452 164.932L43.7357 168.6L40.5916 174.815ZM44.0859 157.582L36.8378 159.403L34.3418 159.242L34.1151 158.347L34.6143 157.751L36.6823 157.174L37.5186 152.786L34.3939 150.758L34.2316 150.194L34.4781 149.228L34.8412 148.794L36.7342 147.77L37.5315 147.543L38.1798 147.679L39.5153 148.865L41.0193 151.347L43.0355 151.743L44.4034 152.793L44.0859 157.582ZM28.987 149.675L27.9562 149.857L27.8784 149.39L29.6741 147.161L30.8346 146.791L31.243 147.012L30.4002 148.308L28.987 149.675ZM14.2641 137.07L12.6628 137.523L12.0728 137.258L11.9691 136.836L12.3322 135.689L13.5574 135.281L14.4455 135.903L14.5882 136.467L14.2641 137.07ZM34.9708 137.096L34.4326 137.523L33.7521 137.439L33.0778 136.888L32.1831 135.32L34.1929 134.231L34.9967 134.873L35.3014 135.605L35.3144 136.415L34.9708 137.096ZM17.3046 132.066L16.5332 132.254L15.5284 132.073L14.9059 131.554L14.277 129.5L14.1605 128.256L14.4392 125.935L14.3743 123.155L16.4489 123.071L16.9869 123.472L17.3436 131.71L17.3046 132.066ZM37.4148 118.975L37.3888 120.465L37.0648 122.222L37.4797 124.082L37.577 125.41L38.3419 125.832L38.8088 126.441L42.2188 127.121L45.3889 126.927L45.9983 127.471L46.0697 128.34L45.5705 129.293L43.7616 131.029L41.6093 133.836L40.9675 134.419L40.2738 134.445L39.7747 134.192L39.4181 129.202L37.0842 129.843L35.2042 129.772L34.1733 129.163L33.4537 127.99L31.995 124.97L27.7552 123.777L26.5558 122.105L26.1928 121.094L26.342 120.537L27.2236 119.292L28.3258 119.733L29.0063 119.461L29.4212 118.903L29.4149 118.443L28.8378 117.361L28.8119 117.024L33.149 115.65L33.5315 113.498L34.4716 113.323L35.5477 114.03L37.0195 116.266L37.4148 118.975ZM18.1085 112.947L20.1637 114.853L18.5299 118.015L16.021 118.003L12.4877 115.695L12.4748 115.222L12.7666 114.529L13.298 113.978L13.8492 113.848L14.7243 114.224L15.9432 113.615L16.9156 113.809L18.1085 112.947ZM36.4295 89.622L34.1151 95.6428L33.2074 95.7919L32.4101 97.2955L29.9465 98.9482L32.0989 98.9806L32.7017 99.5315L32.7148 100.718L32.3062 101.405L29.5251 104.139L27.6125 105.176L25.551 108.028L24.5072 108.061L23.4764 109.869L22.6336 110.666H22.154L21.6093 110.264L20.3322 108.495L22.6531 106.751L22.867 105.773L24.4553 104.749L24.3192 104.431L21.7973 102.992L20.8055 102.027L20.8963 101.521L22.1085 100.406L21.5381 100.264L21.1491 99.661L20.449 99.4278L20.2349 98.8705L20.1053 97.3928L20.2933 95.8827L21.0259 95.2152L21.324 94.5022L21.6224 94.2818L22.7568 94.6642L23.9109 95.8762L25.2592 95.4096L26.8217 95.6363L26.854 95.3576L25.7065 92.3829L25.914 91.7737L26.5365 91.0803L30.141 88.9479L34.6337 85.3573L35.7228 84.7936L36.0534 85.2861L36.5072 87.1461L36.4295 89.622ZM92.6303 84.3399L92.786 87.1786L92.5722 88.0405L92.1377 89.1034L90.7633 91.0803L87.1459 93.8995L80.5268 100.355L76.611 103.543L76.0729 105.073L75.7811 107.199L78.1216 107.62L79.0291 108.339L78.4716 109.415L75.0031 113.155L73.9854 116.525L76.6435 116.402L78.8346 115.753L83.1977 113.654L87.3014 112.092L89.2723 112.027L93.1038 113.271L93.9723 113.31L95.5996 112.733L97.2463 112.63L108.384 113.019L111.483 112.286L113.532 113.161L115.243 115.339L116.87 119.351L116.818 120.018L115.833 121.839L114.018 124.121L112.455 127.257L112.002 128.942L111.697 130.79L111.204 132.494L108.099 140.466L105.071 144.86L103.723 147.971L102.057 150.44L100.449 151.996L98.7374 153.033L93.7844 154.134L92.3971 154.925L90.7439 156.28L89.0064 156.954L91.042 156.869L93.0583 156.117L96.7342 155.845L100.961 158.438L100.566 160.557L98.867 162.229L95.0033 162.495L91.3922 166.209L89.765 167.349L88.0405 167.913L85.8882 167.745L81.979 166.753L80.2674 165.716L81.8104 167.407L83.5673 168.289L93.7391 170.369L94.355 170.149L97.5965 167.959L101.921 167.926L110.148 171.957L112.514 175.036L115.911 179.423L117.758 181.134L119.094 182.683L119.917 184.997L121.512 192.619L123.334 200.02L125.713 207.992L126.796 210.196L128.216 211.738L135.399 215.277L137 216.45L139.788 219.846L142.478 223.456L144.981 226.223L147.684 228.459L146.374 229.619L145.48 231.44L146.154 233.91L147.25 236.262L149.409 240.021L151.314 244.111L150.614 243.495L149.875 243.158L148.864 243.262L147.878 243.067L146.057 241.784L144.306 240.209L140.825 240.844L138.893 240.559L137.214 240.605L140.397 241.512L143.879 241.577L151.554 248.427L154.147 252.471L155.69 257.792L154.64 260.177L153.007 261.72L151.483 263.476L150.05 265.466L154.31 268.376L155.23 268.292L156.17 267.883L157.078 266.892L158.601 264.474L159.386 263.619L162.037 263.308L164.261 263.496L166.472 264.034L168.423 263.865L172.345 264.902L174.362 265.835L179.36 270.029L180.442 272.323L180.942 275.278L181 278.545L180.157 281.519L179.191 284.203L178.595 287.657L178.173 288.901L177.583 289.873L174.938 292.589L173.182 293.704L172.442 293.218L171.645 293.283L171.561 293.937L172.397 295.318L172.404 296.983L170.841 298.215L169.253 298.74L166.595 298.085L162.906 300.379L165.558 301.559L166.096 302.81L165.434 305.007L163.768 305.986L161.914 306.42L160.021 306.523L158.452 307.061L156.948 308.098L158.835 307.554L160.144 308.033L160.968 309.874L161.713 310.405L165.408 311.19L167.69 311.183L172.099 310.736L174.219 310.742L174.971 311.079L174.984 312.603L174.66 316.336L174.076 317.107L168.235 320.231L167.036 322.408L166.705 323.724L163.289 323.491L161.687 324.884L158.919 325.811L156.78 326.79L154.686 328.028L152.961 328.397L145.525 326.926L141.032 327.049L134.945 328.332L133.376 328.118L131.029 326.893L128.618 326.064L125.849 325.701L123.457 324.56L124.948 326.744L121.635 328.851L120.105 329.265L118.517 329.201L115.275 329.771L112.261 329.46L112.715 330.95L113.519 332.253L112.864 332.817L112.177 332.96L106.459 331.981L105.648 332.162L104.942 333.07L102.861 332.584L100.838 331.061L98.6921 330.03L96.4359 329.544L94.6466 329.712L87.2755 332.124L85.8039 334.535L85.0648 337.95L84.0015 340.977L82.2641 343.303L80.196 343.608L78.2512 341.994L74.5558 340.218L73.2981 339.013L72.8963 338.942L72.4814 339.369L71.0292 339.914L69.5315 339.94L67.2171 340.419L63.1912 341.864L61.5639 342.843L58.0696 345.546L57.3566 346.291L56.0858 349.007L54.1475 349.486L52.3711 347.749L50.3485 347.14L48.2155 347.73L46.9254 348.657L46.3225 347.905L46.303 346.362L47.859 344.522L52.0145 343.128L55.6644 339.505L57.4537 337.295L58.1669 336.045L59.042 335.247L60.1832 334.949L60.7731 333.569L65.8362 328.008L66.2513 326.731L66.5039 324.437L66.919 322.227L71.0421 320.795L73.013 316.135L73.5575 315.765L79.3079 314.91L83.5738 314.981L87.8136 315.895L89.9854 315.979L92.1636 315.662L93.8752 314.398L96.7989 309.835L98.4456 307.82L100.332 305.998L102.096 303.918L104.955 300.055L103.023 301.39L100.689 303.503L99.3339 304.728L95.0292 305.96L93.175 307.217L89.927 310.049L89.3048 310.282L84.4035 309.602L80.76 305.927L78.4328 304.424L77.4732 304.249L76.4749 304.696L74.3485 305.156L72.1831 305.078L73.2918 303.374L74.7958 302.421L71.4245 301.76L70.4846 301.241L69.4148 300.042L66.7698 299.841L65.5121 300.146L63.3857 301.727L60.0275 303.406L55.9756 301.079L55.1848 300.062L55.2042 298.085L54.5948 296.517L53.4733 295.966L54.906 293.924L56.6433 292.563L60.4554 291.209L66.2317 287.988L69.4732 286.614L72.4814 284.241L73.7261 282.79L74.6272 280.8L75.5219 278.363L76.799 276.374L75.5607 275.9L75.0031 274.403L75.1523 272.88L75.7229 271.526L75.2107 269.828L74.2966 268.052L74.3485 266.665L74.5948 265.181L72.2739 265.259L69.9595 265.725L67.859 266.775L65.8233 268.201L64.0146 268.467L64.0406 267.326L64.825 265.913L66.8735 263.891L69.0648 262.212L69.8428 260.936L70.4586 259.451L71.5478 258.259L74.4132 256.004L79.9044 253.463L80.7213 253.314L82.8736 253.612L84.9935 253.223L86.8475 252.309L88.6952 252.115L92.8573 254.753L91.6192 250.67L93.4538 249.691L96.1118 253.385L97.0973 253.774L99.1848 253.236L98.3809 252.614L97.4408 252.575L96.209 252.018L95.1719 250.832L93.4472 247.06L93.5446 244.817L94.7049 242.484L95.9886 240.332L94.9125 239.905L94.0503 239.082L93.804 236.923L94.1409 235.011L96.449 233.326L97.1295 230.76L97.4148 227.928L97.0324 226.625L94.7374 226.832L93.6223 227.364L92.624 228.2L91.5996 228.148L88.7666 225.011L87.1524 222.633L84.2544 217.59L83.846 214.564L86.1604 208.018L89.739 203.812L93.9529 202.34L93.136 202.062L86.7114 202.003L84.5915 202.522L82.6271 204.246L81.5186 204.777L80.3517 204.972L79.2885 205.827L78.2512 207.013L77.1686 207.778L75.0227 207.577L73.9854 207.83L73.2397 207.143L72.611 206.009L71.7941 205.704L70.8801 206.054L68.9481 207.584L66.9902 208.484L64.624 207.519L61.5186 205.717L60.9093 206.378L60.2219 208.05L59.8265 210.649L57.6223 208.387L55.7487 205.361L55.1134 203.455L55.0681 201.303L56.0858 200.467L57.1945 201.232L58.8412 196.119L62.1215 189.43L63.282 187.466L64.0924 184.893L63.9563 183.208L63.2365 181.783L60.1832 178.542L60.2219 175.891L60.5462 172.897L61.376 171.095L61.726 170.752L65.7778 170.797L64.1961 169.864L61.0454 167.148L61.1037 166.183L61.8427 163.661L61.4992 163.914L60.825 165.081L59.5348 167.9L58.7504 168.555L56.5203 169.222L56.1117 170.603L55.7552 170.966L54.6467 171.121L54.303 172.411L54.0567 172.495L53.739 171.108L53.7065 168.801L54.1475 166.675L54.9901 165.01L58.2577 161.218L56.6692 162.391L53.0647 165.897L51.2236 168.198L50.7309 168.976L50.5817 169.631L50.5883 170.382L51.4117 174.407L51.1717 176.267L48.0663 188.484L47.4764 189.702L46.9384 190.337L46.4262 190.487L44.8963 190.253L44.2155 189.339L44.222 188.309L44.5073 186.76L45.7973 180.972L46.355 179.359L47.1847 177.855L49.0128 175.224L48.9675 175.049L47.7488 175.567L47.2301 175.399L46.8541 174.874L47.0939 167.025L48.0859 164.433L48.4553 160.654L49.3112 157.407L50.303 155.035L51.0615 151.996L52.196 150.641L52.5008 148.567L53.7779 146.318L54.7634 143.965L54.2318 144.199L47.9237 150.317L46.316 151.425L44.1247 151.127L42.4521 150.44L41.1426 148.995L40.5591 146.215L38.9449 146.143L37.5639 145.664L37.577 145.288L39.3598 143.771L42.2188 143.253L44.8963 140.816L42.517 139.17L42.718 138.645L44.7924 137.238L47.4311 132.513L47.9627 128.152L46.705 126.097L46.2511 124.749L43.7292 123.246L43.308 121.321L43.5996 120.238L44.423 119.182L45.6611 118.365L47.6062 117.575L45.8428 116.732L45.1816 115.734L44.6822 114.289L44.6369 113.453L45.5509 109.72L46.0826 108.177L47.1264 106.207L51.846 106.317L52.3906 105.449L52.9286 105.416L55.3403 106.213L54.9838 105.358L51.0356 100.659L50.6791 99.7649L51.807 97.2243L51.8849 96.09L51.7227 94.8782L52.047 93.9513L53.2982 93.517L57.1102 93.556L58.0502 93.1282L57.6223 91.8967L56.7341 90.2765L56.559 88.9155L56.7666 87.71L56.8119 85.2796L56.987 84.2038L57.8947 82.5899L58.6402 82.1105L59.5673 81.8318L61.6613 82.3696L62.4586 83.0177L63.3792 84.5537L64.0534 84.4307L66.6596 82.7584L67.4441 82.5187L68.5138 84.4566L72.9675 82.9141L78.9513 82.227L82.5493 81.2096L86.3355 80.8401L89.8686 79.6801L93.6158 80.2115L93.7456 80.8854L93.5511 81.8187L92.6303 84.3399ZM95.9173 76.4524L95.7422 76.5561L95.0745 75.9144L93.9854 73.6138L95.7035 73.1535L96.5138 73.4387L96.209 74.4174L95.9173 76.4524ZM91.6255 74.6118L90.5819 75.0784L89.5511 75.046L87.9432 73.0175L87.3338 71.5398L87.444 70.5612L88.1183 70.2307L89.6741 70.7103L90.4782 72.4018L90.5819 73.4971L90.7698 73.9249L91.7359 74.359L91.6255 74.6118ZM93.5834 66.3355L93.337 67.2039L94.718 67.1846L96.7212 67.9233L97.9336 68.0141L98.945 68.9344L98.3872 70.6519L97.7844 71.1379L97.1036 71.2352L94.718 69.5176L91.5932 70.2307L90.9708 70.0103L90.5625 69.5372L90.3939 68.9474V67.7419L90.2253 67.3855L89.0907 68.5261L88.5981 68.3901L88.3193 67.8456L88.196 66.718L88.3193 65.0912L88.987 62.7644L90.1086 62.2979L91.7812 62.57L93.7001 63.8857L94.2772 64.6958L94.2641 65.344L93.5834 66.3355ZM102.835 59.1934L100.78 59.2324L101.843 57.1324L103.081 56.601L105.421 56.8343L105.007 57.7805L102.835 59.1934ZM99.5543 60.7747L97.9919 61.6562L97.3242 60.9304L97.1491 58.6489L95.2884 57.6704L94.3809 57.0612L93.6807 55.9075L93.8558 55.5511L95.068 55.078L97.1426 57.1713L97.9919 58.8564L99.5284 59.3554L99.7229 59.6147L99.5543 60.7747ZM125.409 11.9206L125.784 14.5195L126.724 13.8455L128.144 16.3342H128.87L130.063 15.3491L129.823 17.6628L128.585 24.0596L128.235 25.142L128.002 27.0798L127.755 27.4622L127.392 31.3702L126.556 32.6535L125.856 35.7125L125.571 36.0107L124.546 34.8376L125.571 30.1647L125.992 27.4427L125.72 26.0298L125.143 24.7531L123.574 24.7142L122.251 25.3039L121.972 24.5522L121.934 23.5411L121.616 23.2042L119.859 23.2754L119.34 22.9967L118.997 22.0634L118.932 21.3182L120.52 20.7348L122.011 20.9552L124.19 19.471L122.828 14.4871L121.02 14.0139L120.604 13.5279L120.955 12.6789L121.946 12.2187L123.47 9.67163L124.384 9.26983L125.519 9.34113L125.409 11.9206ZM130.245 12.7956L129.784 13.2168L128.008 9.46425L129.324 5.1544L130.919 5.29047L131.172 6.41815L131.016 7.46167L130.206 7.55236L130.134 7.8699L130.387 9.87258L130.4 12.1928L130.245 12.7956ZM135.12 1.73883V2.16664L134.173 5.30343L134.186 6.50241L132.663 6.38581L132.423 6.00339L132.138 4.20809L132.332 2.29619L132.546 1.79718L132.987 1.59623L133.467 1.97222L134.225 1L134.621 1.01948L135.12 1.73883Z" fill="white" fillOpacity="0.2" stroke="white" strokeWidth="0.5"/>
</svg>
