<svg width="1084" height="611" viewBox="0 0 1084 611" fill="none" xmlns="http://www.w3.org/2000/svg">
<path d="M873.882 318.046C873.44 318.046 872.999 318.046 862.689 317.984C852.38 317.922 832.216 317.798 820.872 317.548C807.598 317.255 804.318 315.919 802.09 314.792C800.632 314.054 799.996 312.286 799.771 309.969C799.578 307.984 802.356 305.762 806.722 302.884C809.307 301.181 813.296 299.758 818.138 298.243C822.979 296.727 828.719 295.361 845.511 294.346C862.304 293.332 889.974 292.71 907.982 293.136C925.989 293.561 933.495 295.052 938.245 296.131C947.721 298.282 949.846 300.597 950.738 301.911C951.173 302.552 951.041 303.349 950.526 304.23C949.329 306.278 945.123 308.495 938.384 311.498C934.498 313.229 929.437 314.997 923.106 316.702C916.775 318.408 909.268 319.899 896.202 321.163C883.137 322.428 864.739 323.422 851.729 323.81C838.719 324.198 831.654 323.949 825.218 323.449C818.782 322.948 813.189 322.203 808.615 321.259C804.042 320.316 800.656 319.198 797.146 317.691C789.931 314.591 785.876 311.778 784.837 310.527C784.092 309.275 783.788 308.014 784.156 306.638C784.524 305.883 785.26 305.013 786.018 304.117" stroke="#8BC3DE" strokeWidth="2" strokeLinecap="round"/>
<path d="M546.794 405.382C547.338 403.205 553.435 404.251 555.02 404.251C570.968 404.251 586.916 404.251 602.864 404.251C615.966 404.251 629.068 404.251 642.17 404.251C657.944 404.251 610.544 404.313 594.89 406.261C569.296 409.445 543.563 420.074 517.66 420.074C479.674 420.074 593.352 413.173 631.308 411.66C715.977 408.286 763.742 410.652 848.474 411.66" stroke="#8BC3DE" strokeWidth="2" strokeLinecap="round"/>
<path d="M536.23 134C534.981 134 533.954 133.627 533.148 132.882C532.383 132.098 532 131.098 532 129.882C532 128.353 532.645 126.686 533.934 124.882C535.263 123.039 537.015 121.412 539.19 120L540.097 120.882C539.251 121.745 538.586 122.549 538.103 123.294C537.619 124.039 537.378 124.647 537.378 125.118C537.378 125.392 537.458 125.647 537.619 125.882C537.821 126.118 538.103 126.373 538.465 126.647C539.029 127.078 539.472 127.529 539.795 128C540.117 128.471 540.278 129.098 540.278 129.882C540.278 131.098 539.895 132.098 539.13 132.882C538.365 133.627 537.398 134 536.23 134ZM547.952 134C546.703 134 545.676 133.627 544.87 132.882C544.105 132.098 543.722 131.098 543.722 129.882C543.722 128.353 544.367 126.686 545.656 124.882C546.985 123.039 548.737 121.412 550.912 120L551.819 120.882C550.973 121.745 550.308 122.549 549.825 123.294C549.341 124.039 549.1 124.647 549.1 125.118C549.1 125.392 549.18 125.647 549.341 125.882C549.543 126.118 549.825 126.373 550.187 126.647C550.751 127.078 551.194 127.529 551.517 128C551.839 128.471 552 129.098 552 129.882C552 131.098 551.617 132.098 550.852 132.882C550.087 133.627 549.12 134 547.952 134Z" fill="#383841"/>
<path d="M229.661 246V244.08L239.069 243.312H240.669L250.141 244.08V246H229.661ZM236.893 246C236.979 242.416 237.021 238.832 237.021 235.248C237.064 231.664 237.085 228.059 237.085 224.432V220.976C237.085 217.349 237.064 213.744 237.021 210.16C237.021 206.533 236.979 202.949 236.893 199.408H242.845C242.803 202.949 242.76 206.533 242.717 210.16C242.717 213.744 242.717 217.349 242.717 220.976V224.432C242.717 228.059 242.717 231.664 242.717 235.248C242.76 238.832 242.803 242.416 242.845 246H236.893ZM220.189 211.568L220.701 199.408H259.037L259.613 211.568H256.861L254.557 199.408L257.181 201.648H222.557L225.245 199.408L222.941 211.568H220.189ZM263.657 246V244.208L270.633 243.504H272.745L279.337 244.208V246H263.657ZM268.969 246C269.011 244.976 269.033 243.589 269.033 241.84C269.075 240.091 269.097 238.277 269.097 236.4C269.139 234.48 269.161 232.795 269.161 231.344V198.384L263.529 198.128V196.4L273.513 194.48L274.473 195.056L274.281 204.976V219.632L274.409 220.464V231.344C274.409 232.795 274.409 234.48 274.409 236.4C274.451 238.277 274.473 240.091 274.473 241.84C274.515 243.589 274.558 244.976 274.601 246H268.969ZM285.545 246V244.208L292.457 243.504H294.505L301.225 244.208V246H285.545ZM290.729 246C290.771 244.976 290.793 243.611 290.793 241.904C290.835 240.155 290.857 238.341 290.857 236.464C290.899 234.544 290.921 232.837 290.921 231.344V223.984C290.921 220.827 290.387 218.629 289.321 217.392C288.297 216.112 286.846 215.472 284.969 215.472C283.475 215.472 281.747 215.941 279.785 216.88C277.822 217.819 275.667 219.568 273.321 222.128L272.105 219.952H273.513C275.774 217.179 278.035 215.173 280.297 213.936C282.558 212.656 284.862 212.016 287.209 212.016C290.025 212.016 292.222 212.955 293.801 214.832C295.379 216.667 296.169 219.781 296.169 224.176V231.344C296.169 232.837 296.169 234.544 296.169 236.464C296.211 238.341 296.254 240.155 296.297 241.904C296.339 243.611 296.382 244.976 296.425 246H290.729ZM322.798 246.96C319.684 246.96 316.889 246.32 314.414 245.04C311.94 243.76 309.998 241.819 308.59 239.216C307.182 236.613 306.478 233.392 306.478 229.552C306.478 225.968 307.204 222.875 308.654 220.272C310.148 217.627 312.089 215.6 314.478 214.192C316.868 212.741 319.47 212.016 322.286 212.016C325.06 212.016 327.428 212.613 329.39 213.808C331.396 214.96 332.91 216.539 333.934 218.544C335.001 220.549 335.534 222.811 335.534 225.328C335.534 226.864 335.385 228.144 335.086 229.168H308.974V227.184H327.534C328.686 227.184 329.454 226.885 329.838 226.288C330.222 225.691 330.414 224.752 330.414 223.472C330.414 220.741 329.689 218.501 328.238 216.752C326.788 214.96 324.761 214.064 322.158 214.064C320.281 214.064 318.574 214.661 317.038 215.856C315.502 217.008 314.286 218.693 313.39 220.912C312.494 223.088 312.046 225.712 312.046 228.784C312.046 232.24 312.558 235.077 313.582 237.296C314.649 239.515 316.1 241.157 317.934 242.224C319.769 243.248 321.86 243.76 324.206 243.76C326.468 243.76 328.43 243.376 330.094 242.608C331.801 241.797 333.316 240.624 334.638 239.088L335.662 239.984C334.254 242.117 332.484 243.824 330.35 245.104C328.217 246.341 325.7 246.96 322.798 246.96ZM369.501 246.32L357.853 212.976H363.421L372.701 241.84H371.485L371.869 240.88L381.661 212.976H384.093L394.205 241.84H393.053L393.309 241.008L401.821 212.976H404.445L393.309 246.32H390.941L380.829 216.88H382.429L382.045 217.84L371.869 246.32H369.501ZM354.461 214.832V212.976H369.885V214.832L362.269 215.472H360.605L354.461 214.832ZM375.773 214.832V212.976H390.109V214.832L383.645 215.472H382.301L375.773 214.832ZM395.293 214.832V212.976H408.029V214.832L403.037 215.472H402.077L395.293 214.832ZM426.289 246.96C423.473 246.96 420.849 246.299 418.417 244.976C416.028 243.653 414.087 241.712 412.593 239.152C411.1 236.549 410.353 233.328 410.353 229.488C410.353 225.648 411.121 222.448 412.657 219.888C414.193 217.285 416.177 215.323 418.609 214C421.041 212.677 423.601 212.016 426.289 212.016C429.063 212.016 431.665 212.677 434.097 214C436.529 215.28 438.492 217.221 439.985 219.824C441.521 222.427 442.289 225.648 442.289 229.488C442.289 233.328 441.543 236.549 440.049 239.152C438.556 241.755 436.593 243.717 434.161 245.04C431.772 246.32 429.148 246.96 426.289 246.96ZM426.289 244.976C429.489 244.976 431.985 243.653 433.777 241.008C435.612 238.363 436.529 234.544 436.529 229.552C436.529 224.603 435.612 220.784 433.777 218.096C431.985 215.408 429.489 214.064 426.289 214.064C423.132 214.064 420.636 215.408 418.801 218.096C416.967 220.784 416.049 224.603 416.049 229.552C416.049 234.544 416.967 238.363 418.801 241.008C420.636 243.653 423.132 244.976 426.289 244.976ZM448.03 246V244.208L455.134 243.44H457.758L464.99 244.208V246H448.03ZM453.342 246C453.385 244.976 453.406 243.589 453.406 241.84C453.449 240.091 453.47 238.277 453.47 236.4C453.513 234.48 453.534 232.795 453.534 231.344V227.504C453.534 225.285 453.513 223.323 453.47 221.616C453.47 219.909 453.428 218.267 453.342 216.688L447.71 216.432V214.768L457.566 212.208L458.398 212.72L458.782 221.744V221.808V231.344C458.782 232.795 458.782 234.48 458.782 236.4C458.825 238.277 458.846 240.091 458.846 241.84C458.889 243.589 458.932 244.976 458.974 246H453.342ZM458.718 225.584L457.374 222.256H458.526C459.166 220.165 460.062 218.373 461.214 216.88C462.366 215.344 463.646 214.149 465.054 213.296C466.505 212.443 467.977 212.016 469.47 212.016C470.708 212.016 471.796 212.272 472.734 212.784C473.673 213.253 474.292 213.957 474.59 214.896C474.548 216.048 474.27 216.944 473.758 217.584C473.246 218.224 472.414 218.544 471.262 218.544C470.452 218.544 469.726 218.352 469.086 217.968C468.446 217.541 467.764 216.923 467.038 216.112L465.566 214.704L468.446 214.832C466.228 215.429 464.329 216.603 462.75 218.352C461.214 220.059 459.87 222.469 458.718 225.584ZM476.334 246V244.208L483.758 243.504H485.806L493.358 244.208V246H476.334ZM482.094 246C482.136 244.677 482.158 243.184 482.158 241.52C482.2 239.813 482.222 238.085 482.222 236.336C482.264 234.544 482.286 232.88 482.286 231.344V198.384L476.654 198.128V196.4L486.766 194.48L487.726 195.056L487.534 204.976V231.344C487.534 232.88 487.534 234.544 487.534 236.336C487.576 238.085 487.598 239.813 487.598 241.52C487.64 243.184 487.683 244.677 487.726 246H482.094ZM512.557 246.96C509.869 246.96 507.458 246.235 505.325 244.784C503.234 243.333 501.57 241.328 500.333 238.768C499.138 236.208 498.541 233.243 498.541 229.872C498.541 226.203 499.202 223.045 500.525 220.4C501.847 217.712 503.639 215.643 505.901 214.192C508.162 212.741 510.679 212.016 513.453 212.016C515.33 212.016 517.143 212.485 518.893 213.424C520.685 214.32 522.349 215.835 523.885 217.968H524.461L523.693 219.696C522.157 218.032 520.685 216.837 519.277 216.112C517.911 215.344 516.439 214.96 514.861 214.96C512.898 214.96 511.106 215.472 509.485 216.496C507.863 217.477 506.562 219.056 505.581 221.232C504.642 223.408 504.173 226.245 504.173 229.744C504.173 232.987 504.621 235.653 505.517 237.744C506.413 239.835 507.629 241.392 509.165 242.416C510.743 243.397 512.493 243.888 514.413 243.888C516.162 243.888 517.762 243.525 519.213 242.8C520.663 242.032 522.114 240.752 523.565 238.96L524.397 240.752H523.757C522.349 242.843 520.685 244.4 518.765 245.424C516.845 246.448 514.775 246.96 512.557 246.96ZM523.117 246.64L522.861 240.304V240.112V218.416L522.989 217.84V198.448L517.165 198.128V196.4L527.341 194.48L528.237 195.056L528.045 204.784V243.824L534.061 244.208V246L523.117 246.64ZM554.846 246V244.208L561.886 243.504H563.87L570.654 244.208V246H554.846ZM560.158 246C560.2 244.976 560.243 243.589 560.286 241.84C560.328 240.091 560.35 238.277 560.35 236.4C560.392 234.48 560.414 232.795 560.414 231.344V227.504C560.414 225.328 560.392 223.365 560.35 221.616C560.307 219.867 560.243 218.203 560.158 216.624L554.462 216.368V214.704L565.022 212.208L565.79 212.72L565.598 221.68V231.344C565.598 232.795 565.598 234.48 565.598 236.4C565.64 238.277 565.683 240.091 565.726 241.84C565.768 243.589 565.811 244.976 565.854 246H560.158ZM562.526 204.08C561.502 204.08 560.627 203.76 559.902 203.12C559.176 202.437 558.814 201.563 558.814 200.496C558.814 199.429 559.176 198.555 559.902 197.872C560.627 197.189 561.502 196.848 562.526 196.848C563.507 196.848 564.36 197.189 565.086 197.872C565.854 198.555 566.238 199.429 566.238 200.496C566.238 201.563 565.854 202.437 565.086 203.12C564.36 203.76 563.507 204.08 562.526 204.08ZM587.488 246.96C585.44 246.96 583.584 246.725 581.92 246.256C580.256 245.829 578.549 245.211 576.8 244.4V236.784H579.616L581.152 244.848L578.784 244.72V242.416C579.978 243.227 581.237 243.845 582.56 244.272C583.882 244.699 585.482 244.912 587.36 244.912C590.176 244.912 592.288 244.336 593.696 243.184C595.146 242.032 595.872 240.56 595.872 238.768C595.872 237.189 595.381 235.909 594.4 234.928C593.461 233.904 591.69 232.987 589.088 232.176L585.76 230.96C583.157 230.021 581.088 228.827 579.552 227.376C578.058 225.883 577.312 223.941 577.312 221.552C577.312 218.864 578.336 216.603 580.384 214.768C582.474 212.933 585.44 212.016 589.28 212.016C591.2 212.016 592.906 212.251 594.4 212.72C595.936 213.189 597.493 213.915 599.072 214.896L598.88 221.744H596.32L594.784 214.256L596.768 214.64V216.688C595.488 215.792 594.25 215.152 593.056 214.768C591.861 214.341 590.602 214.128 589.28 214.128C586.848 214.128 585.013 214.661 583.776 215.728C582.538 216.795 581.92 218.181 581.92 219.888C581.92 221.424 582.432 222.683 583.456 223.664C584.48 224.603 586.144 225.477 588.448 226.288L591.712 227.44C594.954 228.549 597.258 229.872 598.624 231.408C599.989 232.944 600.672 234.821 600.672 237.04C600.672 238.875 600.16 240.56 599.136 242.096C598.154 243.589 596.704 244.784 594.784 245.68C592.864 246.533 590.432 246.96 587.488 246.96ZM632.129 246.96C629.569 246.96 627.457 246.235 625.793 244.784C624.129 243.333 623.297 241.285 623.297 238.64C623.297 236.976 623.659 235.504 624.385 234.224C625.11 232.901 626.305 231.728 627.969 230.704C629.675 229.68 631.937 228.763 634.753 227.952C636.545 227.397 638.422 226.864 640.385 226.352C642.347 225.84 644.182 225.392 645.889 225.008V226.608C644.182 227.035 642.454 227.504 640.705 228.016C638.955 228.485 637.355 228.997 635.905 229.552C633.174 230.533 631.233 231.707 630.081 233.072C628.971 234.437 628.417 236.016 628.417 237.808C628.417 239.771 628.95 241.264 630.017 242.288C631.126 243.312 632.577 243.824 634.369 243.824C635.35 243.824 636.31 243.632 637.249 243.248C638.187 242.864 639.254 242.203 640.449 241.264C641.643 240.325 643.051 239.045 644.673 237.424L645.249 240.432H643.713C642.39 241.84 641.131 243.035 639.937 244.016C638.785 244.997 637.59 245.723 636.353 246.192C635.115 246.704 633.707 246.96 632.129 246.96ZM649.217 246.896C647.297 246.896 645.846 246.256 644.865 244.976C643.926 243.653 643.393 241.861 643.265 239.6V239.408V223.024C643.265 220.635 643.009 218.8 642.497 217.52C641.985 216.197 641.195 215.28 640.129 214.768C639.062 214.256 637.675 214 635.969 214C634.731 214 633.494 214.192 632.257 214.576C631.019 214.917 629.697 215.472 628.289 216.24L631.041 214.512L630.017 219.568C629.846 220.72 629.483 221.531 628.929 222C628.417 222.469 627.755 222.704 626.945 222.704C625.409 222.704 624.47 221.936 624.129 220.4C624.769 217.797 626.241 215.749 628.545 214.256C630.849 212.763 633.793 212.016 637.377 212.016C641.089 212.016 643.841 212.912 645.633 214.704C647.467 216.453 648.385 219.312 648.385 223.28V239.088C648.385 241.093 648.619 242.459 649.089 243.184C649.558 243.867 650.219 244.208 651.073 244.208C651.627 244.208 652.118 244.101 652.545 243.888C652.971 243.632 653.441 243.227 653.953 242.672L654.977 243.632C654.294 244.741 653.462 245.552 652.481 246.064C651.542 246.619 650.454 246.896 649.217 246.896ZM674.657 246V244.208L680.033 243.76C680.075 242.523 680.097 241.179 680.097 239.728C680.097 238.277 680.097 236.827 680.097 235.376C680.139 233.883 680.161 232.539 680.161 231.344V198.448L674.529 198.128V196.4L684.513 194.48L685.473 195.056L685.281 204.976V218.032L685.409 218.672V240.816V240.88L684.641 246.576L674.657 246ZM695.649 246.96C693.686 246.96 691.702 246.469 689.697 245.488C687.734 244.507 685.942 242.843 684.321 240.496H683.617L684.449 238.896C686.113 240.688 687.691 241.968 689.185 242.736C690.721 243.504 692.342 243.888 694.049 243.888C695.841 243.888 697.483 243.419 698.977 242.48C700.513 241.541 701.75 239.984 702.689 237.808C703.627 235.632 704.097 232.773 704.097 229.232C704.097 224.411 703.158 220.827 701.281 218.48C699.446 216.133 697.078 214.96 694.177 214.96C693.195 214.96 692.15 215.131 691.041 215.472C689.974 215.771 688.865 216.325 687.713 217.136C686.561 217.947 685.281 219.141 683.873 220.72L683.169 218.864H684.001C685.75 216.432 687.691 214.683 689.825 213.616C692.001 212.549 694.177 212.016 696.353 212.016C698.955 212.016 701.259 212.72 703.265 214.128C705.27 215.536 706.849 217.52 708.001 220.08C709.153 222.64 709.729 225.669 709.729 229.168C709.729 232.624 709.131 235.696 707.937 238.384C706.785 241.072 705.142 243.184 703.009 244.72C700.918 246.213 698.465 246.96 695.649 246.96ZM731.914 246.96C729.098 246.96 726.474 246.299 724.042 244.976C721.653 243.653 719.712 241.712 718.218 239.152C716.725 236.549 715.978 233.328 715.978 229.488C715.978 225.648 716.746 222.448 718.282 219.888C719.818 217.285 721.802 215.323 724.234 214C726.666 212.677 729.226 212.016 731.914 212.016C734.688 212.016 737.29 212.677 739.722 214C742.154 215.28 744.117 217.221 745.61 219.824C747.146 222.427 747.914 225.648 747.914 229.488C747.914 233.328 747.168 236.549 745.674 239.152C744.181 241.755 742.218 243.717 739.786 245.04C737.397 246.32 734.773 246.96 731.914 246.96ZM731.914 244.976C735.114 244.976 737.61 243.653 739.402 241.008C741.237 238.363 742.154 234.544 742.154 229.552C742.154 224.603 741.237 220.784 739.402 218.096C737.61 215.408 735.114 214.064 731.914 214.064C728.757 214.064 726.261 215.408 724.426 218.096C722.592 220.784 721.674 224.603 721.674 229.552C721.674 234.544 722.592 238.363 724.426 241.008C726.261 243.653 728.757 244.976 731.914 244.976ZM770.164 246.96C767.348 246.96 764.724 246.299 762.292 244.976C759.903 243.653 757.962 241.712 756.468 239.152C754.975 236.549 754.228 233.328 754.228 229.488C754.228 225.648 754.996 222.448 756.532 219.888C758.068 217.285 760.052 215.323 762.484 214C764.916 212.677 767.476 212.016 770.164 212.016C772.938 212.016 775.54 212.677 777.972 214C780.404 215.28 782.367 217.221 783.86 219.824C785.396 222.427 786.164 225.648 786.164 229.488C786.164 233.328 785.418 236.549 783.924 239.152C782.431 241.755 780.468 243.717 778.036 245.04C775.647 246.32 773.023 246.96 770.164 246.96ZM770.164 244.976C773.364 244.976 775.86 243.653 777.652 241.008C779.487 238.363 780.404 234.544 780.404 229.552C780.404 224.603 779.487 220.784 777.652 218.096C775.86 215.408 773.364 214.064 770.164 214.064C767.007 214.064 764.511 215.408 762.676 218.096C760.842 220.784 759.924 224.603 759.924 229.552C759.924 234.544 760.842 238.363 762.676 241.008C764.511 243.653 767.007 244.976 770.164 244.976ZM791.78 246V244.208L798.756 243.504H800.868L807.844 244.208V246H791.78ZM797.156 246C797.199 245.147 797.22 244.123 797.22 242.928C797.263 241.691 797.284 240.411 797.284 239.088C797.327 237.723 797.348 236.379 797.348 235.056C797.348 233.691 797.348 232.453 797.348 231.344V198.384L791.716 198.128V196.4L801.828 194.48L802.788 195.056L802.596 204.976V231.216C802.596 232.325 802.596 233.563 802.596 234.928C802.596 236.293 802.596 237.659 802.596 239.024C802.639 240.389 802.66 241.691 802.66 242.928C802.703 244.123 802.746 245.147 802.788 246H797.156ZM799.972 234.8V231.984H800.228L809.636 222.512L819.172 212.976H822.308L799.972 234.8ZM818.34 246L807.14 226.864L810.852 223.28L822.82 243.76L827.812 244.208V246H818.34ZM810.468 214.832V212.976H826.212V214.832L818.724 215.472L817.508 215.664L810.468 214.832ZM832.77 257.264L832.066 255.536C834.37 254.384 836.098 253.147 837.25 251.824C838.402 250.544 839.149 248.709 839.49 246.32L840.258 248.56L837.186 246.704C836.29 246.192 835.629 245.616 835.202 244.976C834.776 244.336 834.562 243.653 834.562 242.928C834.562 241.904 834.882 241.051 835.522 240.368C836.205 239.643 837.122 239.28 838.274 239.28C838.914 239.28 839.512 239.387 840.066 239.6C840.621 239.771 841.154 240.112 841.666 240.624C841.88 241.264 842.029 241.861 842.114 242.416C842.2 242.971 842.242 243.653 842.242 244.464C842.242 247.536 841.389 250.139 839.682 252.272C837.976 254.405 835.672 256.069 832.77 257.264ZM134.629 323.96C132.069 323.96 129.957 323.235 128.293 321.784C126.629 320.333 125.797 318.285 125.797 315.64C125.797 313.976 126.159 312.504 126.885 311.224C127.61 309.901 128.805 308.728 130.469 307.704C132.175 306.68 134.437 305.763 137.253 304.952C139.045 304.397 140.922 303.864 142.885 303.352C144.847 302.84 146.682 302.392 148.389 302.008V303.608C146.682 304.035 144.954 304.504 143.205 305.016C141.455 305.485 139.855 305.997 138.405 306.552C135.674 307.533 133.733 308.707 132.581 310.072C131.471 311.437 130.917 313.016 130.917 314.808C130.917 316.771 131.45 318.264 132.517 319.288C133.626 320.312 135.077 320.824 136.869 320.824C137.85 320.824 138.81 320.632 139.749 320.248C140.687 319.864 141.754 319.203 142.949 318.264C144.143 317.325 145.551 316.045 147.173 314.424L147.749 317.432H146.213C144.89 318.84 143.631 320.035 142.437 321.016C141.285 321.997 140.09 322.723 138.853 323.192C137.615 323.704 136.207 323.96 134.629 323.96ZM151.717 323.896C149.797 323.896 148.346 323.256 147.365 321.976C146.426 320.653 145.893 318.861 145.765 316.6V316.408V300.024C145.765 297.635 145.509 295.8 144.997 294.52C144.485 293.197 143.695 292.28 142.629 291.768C141.562 291.256 140.175 291 138.469 291C137.231 291 135.994 291.192 134.757 291.576C133.519 291.917 132.197 292.472 130.789 293.24L133.541 291.512L132.517 296.568C132.346 297.72 131.983 298.531 131.429 299C130.917 299.469 130.255 299.704 129.445 299.704C127.909 299.704 126.97 298.936 126.629 297.4C127.269 294.797 128.741 292.749 131.045 291.256C133.349 289.763 136.293 289.016 139.877 289.016C143.589 289.016 146.341 289.912 148.133 291.704C149.967 293.453 150.885 296.312 150.885 300.28V316.088C150.885 318.093 151.119 319.459 151.589 320.184C152.058 320.867 152.719 321.208 153.573 321.208C154.127 321.208 154.618 321.101 155.045 320.888C155.471 320.632 155.941 320.227 156.453 319.672L157.477 320.632C156.794 321.741 155.962 322.552 154.981 323.064C154.042 323.619 152.954 323.896 151.717 323.896ZM160.782 323V321.208L167.694 320.504H169.806L176.462 321.208V323H160.782ZM166.03 323C166.072 321.976 166.094 320.589 166.094 318.84C166.136 317.091 166.158 315.277 166.158 313.4C166.2 311.48 166.222 309.795 166.222 308.344V304.504C166.222 302.285 166.2 300.323 166.158 298.616C166.158 296.909 166.115 295.267 166.03 293.688L160.398 293.432V291.768L170.254 289.208L171.086 289.72L171.47 297.208V297.272V308.344C171.47 309.795 171.47 311.48 171.47 313.4C171.512 315.277 171.534 317.091 171.534 318.84C171.576 320.589 171.619 321.976 171.662 323H166.03ZM182.542 323V321.208L189.39 320.504H191.502L198.222 321.208V323H182.542ZM187.79 323C187.832 321.976 187.854 320.611 187.854 318.904C187.896 317.155 187.918 315.341 187.918 313.464C187.96 311.544 187.982 309.837 187.982 308.344V300.984C187.982 297.827 187.448 295.629 186.382 294.392C185.358 293.112 183.928 292.472 182.094 292.472C180.643 292.472 178.915 292.941 176.91 293.88C174.904 294.819 172.728 296.589 170.382 299.192L169.87 297.016H170.51C172.814 294.157 175.118 292.109 177.422 290.872C179.726 289.635 182.008 289.016 184.27 289.016C187.043 289.016 189.219 289.955 190.798 291.832C192.376 293.667 193.166 296.76 193.166 301.112V308.344C193.166 309.837 193.166 311.544 193.166 313.464C193.208 315.341 193.23 317.155 193.23 318.904C193.272 320.611 193.315 321.976 193.358 323H187.79ZM217.494 323.96C214.806 323.96 212.396 323.235 210.262 321.784C208.172 320.333 206.508 318.328 205.27 315.768C204.076 313.208 203.478 310.243 203.478 306.872C203.478 303.203 204.14 300.045 205.462 297.4C206.785 294.712 208.577 292.643 210.838 291.192C213.1 289.741 215.617 289.016 218.39 289.016C220.268 289.016 222.081 289.485 223.83 290.424C225.622 291.32 227.286 292.835 228.822 294.968H229.398L228.63 296.696C227.094 295.032 225.622 293.837 224.214 293.112C222.849 292.344 221.377 291.96 219.798 291.96C217.836 291.96 216.044 292.472 214.422 293.496C212.801 294.477 211.5 296.056 210.518 298.232C209.58 300.408 209.11 303.245 209.11 306.744C209.11 309.987 209.558 312.653 210.454 314.744C211.35 316.835 212.566 318.392 214.102 319.416C215.681 320.397 217.43 320.888 219.35 320.888C221.1 320.888 222.7 320.525 224.15 319.8C225.601 319.032 227.052 317.752 228.502 315.96L229.334 317.752H228.694C227.286 319.843 225.622 321.4 223.702 322.424C221.782 323.448 219.713 323.96 217.494 323.96ZM228.054 323.64L227.798 317.304V317.112V295.416L227.926 294.84V275.448L222.102 275.128V273.4L232.278 271.48L233.174 272.056L232.982 281.784V320.824L238.998 321.208V323L228.054 323.64ZM266.951 292.344V289.976H278.791V292.344H266.951ZM272.135 323.96C269.447 323.96 267.463 323.256 266.183 321.848C264.903 320.44 264.263 318.307 264.263 315.448C264.263 314.424 264.263 313.507 264.263 312.696C264.306 311.885 264.327 310.904 264.327 309.752V292.344H257.927V290.424L265.671 289.784L264.391 290.744L266.311 279.992H269.831L269.575 290.936V291.704V315.448C269.575 317.453 269.938 318.904 270.663 319.8C271.431 320.696 272.519 321.144 273.927 321.144C274.866 321.144 275.698 321.016 276.423 320.76C277.149 320.461 277.938 320.056 278.791 319.544L279.751 320.632C278.855 321.699 277.789 322.509 276.551 323.064C275.314 323.661 273.842 323.96 272.135 323.96ZM283.219 323V321.208L290.195 320.504H292.307L298.899 321.208V323H283.219ZM288.531 323C288.574 321.976 288.595 320.589 288.595 318.84C288.638 317.091 288.659 315.277 288.659 313.4C288.702 311.48 288.723 309.795 288.723 308.344V275.384L283.091 275.128V273.4L293.075 271.48L294.035 272.056L293.843 281.976V296.632L293.971 297.464V308.344C293.971 309.795 293.971 311.48 293.971 313.4C294.014 315.277 294.035 317.091 294.035 318.84C294.078 320.589 294.121 321.976 294.163 323H288.531ZM305.107 323V321.208L312.019 320.504H314.067L320.787 321.208V323H305.107ZM310.291 323C310.334 321.976 310.355 320.611 310.355 318.904C310.398 317.155 310.419 315.341 310.419 313.464C310.462 311.544 310.483 309.837 310.483 308.344V300.984C310.483 297.827 309.95 295.629 308.883 294.392C307.859 293.112 306.409 292.472 304.531 292.472C303.038 292.472 301.31 292.941 299.347 293.88C297.385 294.819 295.23 296.568 292.883 299.128L291.667 296.952H293.075C295.337 294.179 297.598 292.173 299.859 290.936C302.121 289.656 304.425 289.016 306.771 289.016C309.587 289.016 311.785 289.955 313.363 291.832C314.942 293.667 315.731 296.781 315.731 301.176V308.344C315.731 309.837 315.731 311.544 315.731 313.464C315.774 315.341 315.817 317.155 315.859 318.904C315.902 320.611 315.945 321.976 315.987 323H310.291ZM341.977 323.96C339.161 323.96 336.537 323.299 334.105 321.976C331.715 320.653 329.774 318.712 328.281 316.152C326.787 313.549 326.041 310.328 326.041 306.488C326.041 302.648 326.809 299.448 328.345 296.888C329.881 294.285 331.865 292.323 334.297 291C336.729 289.677 339.289 289.016 341.977 289.016C344.75 289.016 347.353 289.677 349.785 291C352.217 292.28 354.179 294.221 355.673 296.824C357.209 299.427 357.977 302.648 357.977 306.488C357.977 310.328 357.23 313.549 355.737 316.152C354.243 318.755 352.281 320.717 349.849 322.04C347.459 323.32 344.835 323.96 341.977 323.96ZM341.977 321.976C345.177 321.976 347.673 320.653 349.465 318.008C351.299 315.363 352.217 311.544 352.217 306.552C352.217 301.603 351.299 297.784 349.465 295.096C347.673 292.408 345.177 291.064 341.977 291.064C338.819 291.064 336.323 292.408 334.489 295.096C332.654 297.784 331.737 301.603 331.737 306.552C331.737 311.544 332.654 315.363 334.489 318.008C336.323 320.653 338.819 321.976 341.977 321.976ZM375.238 323.96C373.19 323.96 371.334 323.725 369.67 323.256C368.006 322.829 366.299 322.211 364.55 321.4V313.784H367.366L368.902 321.848L366.534 321.72V319.416C367.728 320.227 368.987 320.845 370.31 321.272C371.632 321.699 373.232 321.912 375.11 321.912C377.926 321.912 380.038 321.336 381.446 320.184C382.896 319.032 383.622 317.56 383.622 315.768C383.622 314.189 383.131 312.909 382.15 311.928C381.211 310.904 379.44 309.987 376.838 309.176L373.51 307.96C370.907 307.021 368.838 305.827 367.302 304.376C365.808 302.883 365.062 300.941 365.062 298.552C365.062 295.864 366.086 293.603 368.134 291.768C370.224 289.933 373.19 289.016 377.03 289.016C378.95 289.016 380.656 289.251 382.15 289.72C383.686 290.189 385.243 290.915 386.822 291.896L386.63 298.744H384.07L382.534 291.256L384.518 291.64V293.688C383.238 292.792 382 292.152 380.806 291.768C379.611 291.341 378.352 291.128 377.03 291.128C374.598 291.128 372.763 291.661 371.526 292.728C370.288 293.795 369.67 295.181 369.67 296.888C369.67 298.424 370.182 299.683 371.206 300.664C372.23 301.603 373.894 302.477 376.198 303.288L379.462 304.44C382.704 305.549 385.008 306.872 386.374 308.408C387.739 309.944 388.422 311.821 388.422 314.04C388.422 315.875 387.91 317.56 386.886 319.096C385.904 320.589 384.454 321.784 382.534 322.68C380.614 323.533 378.182 323.96 375.238 323.96ZM410.736 323.96C407.621 323.96 404.826 323.32 402.352 322.04C399.877 320.76 397.936 318.819 396.528 316.216C395.12 313.613 394.416 310.392 394.416 306.552C394.416 302.968 395.141 299.875 396.592 297.272C398.085 294.627 400.026 292.6 402.416 291.192C404.805 289.741 407.408 289.016 410.224 289.016C412.997 289.016 415.365 289.613 417.328 290.808C419.333 291.96 420.848 293.539 421.872 295.544C422.938 297.549 423.472 299.811 423.472 302.328C423.472 303.864 423.322 305.144 423.024 306.168H396.912V304.184H415.472C416.624 304.184 417.392 303.885 417.776 303.288C418.16 302.691 418.352 301.752 418.352 300.472C418.352 297.741 417.626 295.501 416.176 293.752C414.725 291.96 412.698 291.064 410.096 291.064C408.218 291.064 406.512 291.661 404.976 292.856C403.44 294.008 402.224 295.693 401.328 297.912C400.432 300.088 399.984 302.712 399.984 305.784C399.984 309.24 400.496 312.077 401.52 314.296C402.586 316.515 404.037 318.157 405.872 319.224C407.706 320.248 409.797 320.76 412.144 320.76C414.405 320.76 416.368 320.376 418.032 319.608C419.738 318.797 421.253 317.624 422.576 316.088L423.6 316.984C422.192 319.117 420.421 320.824 418.288 322.104C416.154 323.341 413.637 323.96 410.736 323.96ZM457.439 323.32L445.791 289.976H451.359L460.639 318.84H459.423L459.807 317.88L469.599 289.976H472.031L482.143 318.84H480.991L481.247 318.008L489.759 289.976H492.383L481.247 323.32H478.879L468.767 293.88H470.367L469.983 294.84L459.807 323.32H457.439ZM442.399 291.832V289.976H457.823V291.832L450.207 292.472H448.543L442.399 291.832ZM463.711 291.832V289.976H478.047V291.832L471.583 292.472H470.239L463.711 291.832ZM483.231 291.832V289.976H495.967V291.832L490.975 292.472H490.015L483.231 291.832ZM497.282 323V321.208L504.258 320.504H506.37L512.962 321.208V323H497.282ZM502.594 323C502.636 321.976 502.658 320.589 502.658 318.84C502.7 317.091 502.722 315.277 502.722 313.4C502.764 311.48 502.786 309.795 502.786 308.344V275.384L497.154 275.128V273.4L507.138 271.48L508.098 272.056L507.906 281.976V296.632L508.034 297.464V308.344C508.034 309.795 508.034 311.48 508.034 313.4C508.076 315.277 508.098 317.091 508.098 318.84C508.14 320.589 508.183 321.976 508.226 323H502.594ZM519.17 323V321.208L526.082 320.504H528.13L534.85 321.208V323H519.17ZM524.354 323C524.396 321.976 524.418 320.611 524.418 318.904C524.46 317.155 524.482 315.341 524.482 313.464C524.524 311.544 524.546 309.837 524.546 308.344V300.984C524.546 297.827 524.012 295.629 522.946 294.392C521.922 293.112 520.471 292.472 518.594 292.472C517.1 292.472 515.372 292.941 513.41 293.88C511.447 294.819 509.292 296.568 506.946 299.128L505.73 296.952H507.138C509.399 294.179 511.66 292.173 513.922 290.936C516.183 289.656 518.487 289.016 520.834 289.016C523.65 289.016 525.847 289.955 527.426 291.832C529.004 293.667 529.794 296.781 529.794 301.176V308.344C529.794 309.837 529.794 311.544 529.794 313.464C529.836 315.341 529.879 317.155 529.922 318.904C529.964 320.611 530.007 321.976 530.05 323H524.354ZM556.039 323.96C553.223 323.96 550.599 323.299 548.167 321.976C545.778 320.653 543.837 318.712 542.343 316.152C540.85 313.549 540.103 310.328 540.103 306.488C540.103 302.648 540.871 299.448 542.407 296.888C543.943 294.285 545.927 292.323 548.359 291C550.791 289.677 553.351 289.016 556.039 289.016C558.813 289.016 561.415 289.677 563.847 291C566.279 292.28 568.242 294.221 569.735 296.824C571.271 299.427 572.039 302.648 572.039 306.488C572.039 310.328 571.293 313.549 569.799 316.152C568.306 318.755 566.343 320.717 563.911 322.04C561.522 323.32 558.898 323.96 556.039 323.96ZM556.039 321.976C559.239 321.976 561.735 320.653 563.527 318.008C565.362 315.363 566.279 311.544 566.279 306.552C566.279 301.603 565.362 297.784 563.527 295.096C561.735 292.408 559.239 291.064 556.039 291.064C552.882 291.064 550.386 292.408 548.551 295.096C546.717 297.784 545.799 301.603 545.799 306.552C545.799 311.544 546.717 315.363 548.551 318.008C550.386 320.653 552.882 321.976 556.039 321.976ZM608.619 323.96C605.931 323.96 603.521 323.235 601.387 321.784C599.297 320.333 597.633 318.328 596.395 315.768C595.201 313.208 594.603 310.243 594.603 306.872C594.603 303.203 595.265 300.045 596.587 297.4C597.91 294.712 599.702 292.643 601.963 291.192C604.225 289.741 606.742 289.016 609.515 289.016C611.393 289.016 613.206 289.485 614.955 290.424C616.747 291.32 618.411 292.835 619.947 294.968H620.523L619.755 296.696C618.219 295.032 616.747 293.837 615.339 293.112C613.974 292.344 612.502 291.96 610.923 291.96C608.961 291.96 607.169 292.472 605.547 293.496C603.926 294.477 602.625 296.056 601.643 298.232C600.705 300.408 600.235 303.245 600.235 306.744C600.235 309.987 600.683 312.653 601.579 314.744C602.475 316.835 603.691 318.392 605.227 319.416C606.806 320.397 608.555 320.888 610.475 320.888C612.225 320.888 613.825 320.525 615.275 319.8C616.726 319.032 618.177 317.752 619.627 315.96L620.459 317.752H619.819C618.411 319.843 616.747 321.4 614.827 322.424C612.907 323.448 610.838 323.96 608.619 323.96ZM619.179 323.64L618.923 317.304V317.112V295.416L619.051 294.84V275.448L613.227 275.128V273.4L623.403 271.48L624.299 272.056L624.107 281.784V320.824L630.123 321.208V323L619.179 323.64ZM650.789 323.96C647.973 323.96 645.349 323.299 642.917 321.976C640.528 320.653 638.587 318.712 637.093 316.152C635.6 313.549 634.853 310.328 634.853 306.488C634.853 302.648 635.621 299.448 637.157 296.888C638.693 294.285 640.677 292.323 643.109 291C645.541 289.677 648.101 289.016 650.789 289.016C653.563 289.016 656.165 289.677 658.597 291C661.029 292.28 662.992 294.221 664.485 296.824C666.021 299.427 666.789 302.648 666.789 306.488C666.789 310.328 666.043 313.549 664.549 316.152C663.056 318.755 661.093 320.717 658.661 322.04C656.272 323.32 653.648 323.96 650.789 323.96ZM650.789 321.976C653.989 321.976 656.485 320.653 658.277 318.008C660.112 315.363 661.029 311.544 661.029 306.552C661.029 301.603 660.112 297.784 658.277 295.096C656.485 292.408 653.989 291.064 650.789 291.064C647.632 291.064 645.136 292.408 643.301 295.096C641.467 297.784 640.549 301.603 640.549 306.552C640.549 311.544 641.467 315.363 643.301 318.008C645.136 320.653 647.632 321.976 650.789 321.976ZM688.969 323V321.208L695.881 320.504H697.993L704.649 321.208V323H688.969ZM694.217 323C694.26 321.976 694.281 320.589 694.281 318.84C694.324 317.091 694.345 315.277 694.345 313.4C694.388 311.48 694.409 309.795 694.409 308.344V304.504C694.409 302.285 694.388 300.323 694.345 298.616C694.345 296.909 694.303 295.267 694.217 293.688L688.585 293.432V291.768L698.441 289.208L699.273 289.72L699.657 297.208V297.272V308.344C699.657 309.795 699.657 311.48 699.657 313.4C699.7 315.277 699.721 317.091 699.721 318.84C699.764 320.589 699.807 321.976 699.849 323H694.217ZM710.729 323V321.208L717.577 320.504H719.689L726.409 321.208V323H710.729ZM715.977 323C716.02 321.976 716.041 320.611 716.041 318.904C716.084 317.155 716.105 315.341 716.105 313.464C716.148 311.544 716.169 309.837 716.169 308.344V300.984C716.169 297.827 715.636 295.629 714.569 294.392C713.545 293.112 712.116 292.472 710.281 292.472C708.831 292.472 707.103 292.941 705.097 293.88C703.092 294.819 700.916 296.589 698.569 299.192L698.057 297.016H698.697C701.001 294.157 703.305 292.109 705.609 290.872C707.913 289.635 710.196 289.016 712.457 289.016C715.231 289.016 717.407 289.955 718.985 291.832C720.564 293.667 721.353 296.76 721.353 301.112V308.344C721.353 309.837 721.353 311.544 721.353 313.464C721.396 315.341 721.417 317.155 721.417 318.904C721.46 320.611 721.503 321.976 721.545 323H715.977ZM747.602 323.96C744.786 323.96 742.162 323.299 739.73 321.976C737.34 320.653 735.399 318.712 733.906 316.152C732.412 313.549 731.666 310.328 731.666 306.488C731.666 302.648 732.434 299.448 733.97 296.888C735.506 294.285 737.49 292.323 739.922 291C742.354 289.677 744.914 289.016 747.602 289.016C750.375 289.016 752.978 289.677 755.41 291C757.842 292.28 759.804 294.221 761.298 296.824C762.834 299.427 763.602 302.648 763.602 306.488C763.602 310.328 762.855 313.549 761.362 316.152C759.868 318.755 757.906 320.717 755.474 322.04C753.084 323.32 750.46 323.96 747.602 323.96ZM747.602 321.976C750.802 321.976 753.298 320.653 755.09 318.008C756.924 315.363 757.842 311.544 757.842 306.552C757.842 301.603 756.924 297.784 755.09 295.096C753.298 292.408 750.802 291.064 747.602 291.064C744.444 291.064 741.948 292.408 740.114 295.096C738.279 297.784 737.362 301.603 737.362 306.552C737.362 311.544 738.279 315.363 740.114 318.008C741.948 320.653 744.444 321.976 747.602 321.976ZM776.514 292.344V289.976H788.354V292.344H776.514ZM781.698 323.96C779.01 323.96 777.026 323.256 775.746 321.848C774.466 320.44 773.826 318.307 773.826 315.448C773.826 314.424 773.826 313.507 773.826 312.696C773.868 311.885 773.89 310.904 773.89 309.752V292.344H767.49V290.424L775.234 289.784L773.954 290.744L775.874 279.992H779.394L779.138 290.936V291.704V315.448C779.138 317.453 779.5 318.904 780.226 319.8C780.994 320.696 782.082 321.144 783.49 321.144C784.428 321.144 785.26 321.016 785.986 320.76C786.711 320.461 787.5 320.056 788.354 319.544L789.314 320.632C788.418 321.699 787.351 322.509 786.114 323.064C784.876 323.661 783.404 323.96 781.698 323.96ZM810.989 323.384C809.389 323.384 808.269 323 807.629 322.232C806.989 321.464 806.669 320.472 806.669 319.256C806.669 317.144 807.437 314.744 808.973 312.056C809.869 310.52 811.085 308.76 812.621 306.776C814.221 304.728 816.013 302.584 817.997 300.344C819.981 298.04 821.965 295.8 823.949 293.624H817.517L818.573 292.28H825.197C826.989 290.424 828.653 288.696 830.189 287.096C831.789 285.432 833.101 284.088 834.125 283.064C836.941 280.248 839.533 278.104 841.901 276.632C844.333 275.16 846.253 274.424 847.661 274.424C846.637 275.32 845.133 276.728 843.149 278.648C841.229 280.568 839.085 282.712 836.717 285.08C834.413 287.448 832.141 289.848 829.901 292.28H836.525L835.469 293.624H828.749C827.533 295.032 826.381 296.344 825.293 297.56C824.269 298.776 823.373 299.928 822.605 301.016C819.597 305.112 817.165 308.472 815.309 311.096C813.453 313.72 812.237 315.704 811.661 317.048C811.213 318.136 810.989 319.032 810.989 319.736C810.989 320.952 811.565 321.56 812.717 321.56C813.677 321.56 814.701 321.24 815.789 320.6C817.389 319.704 818.989 318.424 820.589 316.76C822.253 315.032 823.597 313.56 824.621 312.344C824.877 312.344 825.005 312.536 825.005 312.92C825.005 313.496 824.877 313.944 824.621 314.264C822.189 317.08 819.917 319.32 817.805 320.984C815.693 322.584 813.421 323.384 810.989 323.384ZM836.145 323.192C834.545 323.192 833.393 322.776 832.689 321.944C832.049 321.112 831.729 320.088 831.729 318.872C831.729 318.104 831.825 317.336 832.017 316.568C832.401 314.648 833.361 312.632 834.897 310.52C836.433 308.408 838.257 306.296 840.369 304.184C842.481 302.072 844.625 300.152 846.801 298.424C849.041 296.696 851.025 295.256 852.753 294.104C851.985 294.232 850.993 294.296 849.777 294.296C848.369 294.296 846.897 294.232 845.361 294.104C843.825 293.912 842.769 293.624 842.193 293.24C841.937 293.688 841.297 294.552 840.273 295.832C839.313 297.048 838.097 298.52 836.625 300.248C835.217 301.976 833.745 303.736 832.209 305.528C830.673 307.32 829.233 309.016 827.889 310.616C826.545 312.152 825.457 313.368 824.625 314.264C823.793 315.224 822.673 316.376 821.265 317.72C819.793 319 818.353 320.152 816.945 321.176C815.473 322.2 814.257 322.712 813.297 322.712C812.849 322.712 812.593 322.616 812.529 322.424C812.401 322.232 812.337 322.104 812.337 322.04C813.361 322.04 814.897 321.336 816.945 319.928C818.929 318.456 821.489 315.928 824.625 312.344C828.401 307.992 831.953 303.32 835.281 298.328C838.673 293.272 841.713 288.024 844.401 282.584H844.497C845.329 282.584 845.745 283.384 845.745 284.984C845.745 286.456 845.233 288.184 844.209 290.168C843.953 290.616 843.569 291.224 843.057 291.992C844.337 292.248 845.617 292.44 846.897 292.568C848.177 292.632 849.361 292.664 850.449 292.664C851.345 292.664 852.177 292.632 852.945 292.568C853.713 292.504 854.321 292.408 854.769 292.28C855.345 292.28 855.633 292.408 855.633 292.664C855.697 292.856 855.665 293.016 855.537 293.144C855.281 293.4 854.737 293.976 853.905 294.872C853.137 295.768 852.241 296.76 851.217 297.848C850.257 298.872 849.361 299.864 848.529 300.824C847.697 301.72 847.089 302.392 846.705 302.84C844.721 305.208 842.737 307.8 840.753 310.616C838.833 313.432 837.489 315.96 836.721 318.2C836.465 318.776 836.337 319.32 836.337 319.832C836.337 320.728 836.753 321.176 837.585 321.176C838.481 321.176 839.601 320.664 840.945 319.64C842.289 318.552 843.633 317.304 844.977 315.896C846.385 314.488 847.505 313.304 848.337 312.344C848.593 312.344 848.721 312.536 848.721 312.92C848.721 313.496 848.593 313.944 848.337 314.264C845.393 317.72 842.993 320.088 841.137 321.368C839.345 322.584 837.681 323.192 836.145 323.192ZM850.072 323.096C847.704 323.096 846.52 321.752 846.52 319.064C846.52 317.528 846.968 315.704 847.864 313.592C848.76 311.416 850.104 309.144 851.896 306.776C853.176 305.176 854.744 303.48 856.6 301.688C858.456 299.832 860.472 298.072 862.648 296.408C864.888 294.744 867.16 293.4 869.464 292.376C871.768 291.288 874.008 290.744 876.184 290.744C877.144 290.744 877.816 290.904 878.2 291.224C878.584 291.48 878.84 291.768 878.968 292.088C879.096 292.344 879.096 292.536 878.968 292.664C878.904 292.792 878.808 292.824 878.68 292.76C878.424 292.632 877.912 292.568 877.144 292.568C874.84 292.568 872.088 293.688 868.888 295.928C865.752 298.104 862.648 300.952 859.576 304.472C857.4 306.904 855.608 309.304 854.2 311.672C852.792 313.976 851.864 315.896 851.416 317.432C851.288 317.944 851.224 318.392 851.224 318.776C851.224 319.672 851.576 320.12 852.28 320.12C852.728 320.12 853.336 319.928 854.104 319.544C854.872 319.096 855.864 318.36 857.08 317.336C859 315.672 860.888 313.72 862.744 311.48C864.664 309.24 866.552 306.968 868.408 304.664C870.264 302.296 872.056 300.12 873.784 298.136C875.576 296.152 877.272 294.648 878.872 293.624C880.92 292.28 882.328 291.512 883.096 291.32C883.928 291.128 884.6 291 885.112 290.936C884.792 291.32 884.088 292.216 883 293.624C881.912 295.032 880.76 296.536 879.544 298.136C878.328 299.672 877.336 300.952 876.568 301.976C875.416 303.64 874.168 305.432 872.824 307.352C871.544 309.272 870.36 311.096 869.272 312.824C868.248 314.488 867.544 315.864 867.16 316.952C866.84 318.04 866.68 318.84 866.68 319.352C866.68 320.376 867.096 320.888 867.928 320.888C868.504 320.888 869.176 320.664 869.944 320.216C870.776 319.704 871.608 319.128 872.44 318.488C873.528 317.592 874.552 316.664 875.512 315.704C876.472 314.68 877.464 313.56 878.488 312.344C878.744 312.344 878.872 312.536 878.872 312.92C878.872 313.496 878.744 313.944 878.488 314.264C877.656 315.224 876.632 316.28 875.416 317.432C874.264 318.584 873.112 319.608 871.96 320.504C871.128 321.208 870.168 321.816 869.08 322.328C867.992 322.84 866.936 323.096 865.912 323.096C864.44 323.096 863.416 322.744 862.84 322.04C862.264 321.336 861.976 320.44 861.976 319.352C861.976 318.072 862.264 316.696 862.84 315.224C863.416 313.688 864.056 312.248 864.76 310.904C863.928 311.928 862.872 313.176 861.592 314.648C860.312 316.056 859.16 317.24 858.136 318.2C856.728 319.48 855.384 320.632 854.104 321.656C852.824 322.616 851.48 323.096 850.072 323.096ZM880.268 323C878.732 323 877.644 322.68 877.004 322.04C876.364 321.336 876.044 320.472 876.044 319.448C876.044 318.36 876.3 317.176 876.812 315.896C877.324 314.616 877.932 313.336 878.636 312.056C879.852 310.008 881.356 307.96 883.148 305.912C885.004 303.864 886.892 301.976 888.812 300.248C890.796 298.52 892.524 297.08 893.996 295.928C895.404 294.712 896.876 293.752 898.412 293.048C897.58 293.112 896.748 293.176 895.916 293.24C895.148 293.304 894.412 293.368 893.708 293.432C892.364 293.496 891.116 293.656 889.964 293.912C888.876 294.104 887.852 294.488 886.892 295.064C887.212 293.976 887.884 293.08 888.908 292.376C889.996 291.608 891.084 291.192 892.172 291.128C893.26 291 894.604 291 896.204 291.128C897.804 291.256 899.276 291.32 900.62 291.32C901.004 291.32 901.452 291.288 901.964 291.224C902.54 291.16 902.988 291 903.308 290.744C903.308 291.384 902.828 291.928 901.868 292.376C901.484 292.568 901.1 292.76 900.716 292.952C900.332 293.144 900.012 293.336 899.756 293.528C899.116 293.976 898.476 294.488 897.836 295.064C897.26 295.64 896.652 296.248 896.012 296.888C891.084 301.688 886.796 307.32 883.148 313.784C882.572 314.808 882.06 315.8 881.612 316.76C881.228 317.656 881.036 318.392 881.036 318.968C881.036 319.672 881.42 320.024 882.188 320.024C883.34 320.024 884.78 319.48 886.508 318.392C888.236 317.304 890.124 315.832 892.172 313.976C894.22 312.12 896.236 310.008 898.22 307.64C898.924 306.808 899.82 305.592 900.908 303.992C902.06 302.392 903.116 300.824 904.076 299.288C905.1 297.752 905.772 296.696 906.092 296.12C907.564 293.624 909.004 292.12 910.412 291.608C911.884 291.032 913.228 290.808 914.444 290.936C913.996 291.576 913.164 292.632 911.948 294.104C910.796 295.576 909.42 297.24 907.82 299.096C906.284 300.952 904.716 302.808 903.116 304.664C901.58 306.456 900.172 308.056 898.892 309.464C897.676 310.872 896.812 311.864 896.3 312.44C894.636 314.168 892.908 315.864 891.116 317.528C889.388 319.128 887.596 320.44 885.74 321.464C883.948 322.488 882.124 323 880.268 323ZM911.796 323.672C908.852 323.672 906.772 323.032 905.556 321.752C904.34 320.472 903.732 318.744 903.732 316.568C903.732 314.456 904.308 312.248 905.46 309.944C906.676 307.576 908.18 305.336 909.972 303.224C911.06 301.944 912.404 300.6 914.004 299.192C915.604 297.784 917.332 296.472 919.188 295.256C921.044 293.976 922.868 292.952 924.66 292.184C926.516 291.352 928.148 290.936 929.556 290.936C930.324 290.936 931.028 291.128 931.668 291.512C932.308 291.832 932.628 292.568 932.628 293.72C932.628 295.32 931.86 296.856 930.324 298.328C928.788 299.736 927.06 301.048 925.14 302.264C922.964 303.672 920.692 304.856 918.324 305.816C915.956 306.776 913.908 307.512 912.18 308.024C911.22 309.56 910.452 311.128 909.876 312.728C909.3 314.328 909.012 315.896 909.012 317.432C909.012 319.096 909.396 320.248 910.164 320.888C910.996 321.464 911.956 321.752 913.044 321.752C915.028 321.752 916.82 321.304 918.42 320.408C920.084 319.448 921.62 318.232 923.028 316.76C924.436 315.288 925.78 313.816 927.06 312.344C927.316 312.344 927.444 312.536 927.444 312.92C927.444 313.496 927.316 313.944 927.06 314.264C925.78 315.736 924.372 317.208 922.836 318.68C921.364 320.152 919.732 321.368 917.94 322.328C916.148 323.224 914.1 323.672 911.796 323.672ZM913.332 306.68C914.996 306.104 916.948 305.304 919.188 304.28C921.492 303.256 923.508 302.136 925.236 300.92C925.62 300.664 926.292 300.152 927.252 299.384C928.212 298.552 929.108 297.656 929.94 296.696C930.772 295.672 931.188 294.776 931.188 294.008C931.188 292.984 930.676 292.472 929.652 292.472C928.564 292.472 927.316 292.952 925.908 293.912C924.564 294.872 923.476 295.704 922.644 296.408C921.108 297.816 919.508 299.384 917.844 301.112C916.18 302.84 914.676 304.696 913.332 306.68ZM929.782 323.288C926.582 323.288 924.982 321.816 924.982 318.872C924.982 317.912 925.206 316.792 925.654 315.512C926.102 314.232 926.934 312.536 928.15 310.424C929.814 307.544 932.15 304.152 935.158 300.248C938.23 296.344 941.494 292.536 944.95 288.824C947.958 285.432 951.222 282.328 954.742 279.512C958.326 276.632 962.038 274.648 965.878 273.56C966.454 273.368 967.126 273.208 967.894 273.08C968.662 272.952 969.462 272.888 970.294 272.888C971.83 272.888 973.142 273.112 974.23 273.56C974.742 273.816 975.254 274.168 975.766 274.616C976.278 275 976.63 275.576 976.822 276.344C976.118 275.768 975.318 275.352 974.422 275.096C973.526 274.776 972.438 274.616 971.158 274.616C967.83 274.616 964.63 275.704 961.558 277.88C958.486 280.056 955.414 282.872 952.342 286.328C949.334 289.72 946.166 293.336 942.838 297.176C941.558 298.648 940.15 300.472 938.614 302.648C937.078 304.824 935.606 307 934.198 309.176C932.854 311.352 931.766 313.208 930.934 314.744C930.486 315.448 930.134 316.216 929.878 317.048C929.686 317.816 929.59 318.456 929.59 318.968C929.59 320.504 930.166 321.272 931.318 321.272C932.534 321.272 933.878 320.696 935.35 319.544C936.886 318.392 938.326 317.112 939.67 315.704C941.078 314.296 942.134 313.176 942.838 312.344C943.094 312.344 943.222 312.536 943.222 312.92C943.222 313.496 943.094 313.944 942.838 314.264C940.278 317.208 937.91 319.448 935.734 320.984C933.622 322.52 931.638 323.288 929.782 323.288ZM241.28 400V398.208L248.384 397.44H251.008L258.24 398.208V400H241.28ZM246.592 400C246.635 398.976 246.656 397.589 246.656 395.84C246.699 394.091 246.72 392.277 246.72 390.4C246.763 388.48 246.784 386.795 246.784 385.344V381.504C246.784 379.285 246.763 377.323 246.72 375.616C246.72 373.909 246.678 372.267 246.592 370.688L240.96 370.432V368.768L250.816 366.208L251.648 366.72L252.032 375.744V375.808V385.344C252.032 386.795 252.032 388.48 252.032 390.4C252.075 392.277 252.096 394.091 252.096 395.84C252.139 397.589 252.182 398.976 252.224 400H246.592ZM251.968 379.584L250.624 376.256H251.776C252.416 374.165 253.312 372.373 254.464 370.88C255.616 369.344 256.896 368.149 258.304 367.296C259.755 366.443 261.227 366.016 262.72 366.016C263.958 366.016 265.046 366.272 265.984 366.784C266.923 367.253 267.542 367.957 267.84 368.896C267.798 370.048 267.52 370.944 267.008 371.584C266.496 372.224 265.664 372.544 264.512 372.544C263.702 372.544 262.976 372.352 262.336 371.968C261.696 371.541 261.014 370.923 260.288 370.112L258.816 368.704L261.696 368.832C259.478 369.429 257.579 370.603 256 372.352C254.464 374.059 253.12 376.469 251.968 379.584ZM286.423 400.96C283.309 400.96 280.514 400.32 278.039 399.04C275.565 397.76 273.623 395.819 272.215 393.216C270.807 390.613 270.103 387.392 270.103 383.552C270.103 379.968 270.829 376.875 272.279 374.272C273.773 371.627 275.714 369.6 278.103 368.192C280.493 366.741 283.095 366.016 285.911 366.016C288.685 366.016 291.053 366.613 293.015 367.808C295.021 368.96 296.535 370.539 297.559 372.544C298.626 374.549 299.159 376.811 299.159 379.328C299.159 380.864 299.01 382.144 298.711 383.168H272.599V381.184H291.159C292.311 381.184 293.079 380.885 293.463 380.288C293.847 379.691 294.039 378.752 294.039 377.472C294.039 374.741 293.314 372.501 291.863 370.752C290.413 368.96 288.386 368.064 285.783 368.064C283.906 368.064 282.199 368.661 280.663 369.856C279.127 371.008 277.911 372.693 277.015 374.912C276.119 377.088 275.671 379.712 275.671 382.784C275.671 386.24 276.183 389.077 277.207 391.296C278.274 393.515 279.725 395.157 281.559 396.224C283.394 397.248 285.485 397.76 287.831 397.76C290.093 397.76 292.055 397.376 293.719 396.608C295.426 395.797 296.941 394.624 298.263 393.088L299.287 393.984C297.879 396.117 296.109 397.824 293.975 399.104C291.842 400.341 289.325 400.96 286.423 400.96ZM314.066 400.96C311.506 400.96 309.394 400.235 307.73 398.784C306.066 397.333 305.234 395.285 305.234 392.64C305.234 390.976 305.597 389.504 306.322 388.224C307.048 386.901 308.242 385.728 309.906 384.704C311.613 383.68 313.874 382.763 316.69 381.952C318.482 381.397 320.36 380.864 322.322 380.352C324.285 379.84 326.12 379.392 327.826 379.008V380.608C326.12 381.035 324.392 381.504 322.642 382.016C320.893 382.485 319.293 382.997 317.842 383.552C315.112 384.533 313.17 385.707 312.018 387.072C310.909 388.437 310.354 390.016 310.354 391.808C310.354 393.771 310.888 395.264 311.954 396.288C313.064 397.312 314.514 397.824 316.306 397.824C317.288 397.824 318.248 397.632 319.186 397.248C320.125 396.864 321.192 396.203 322.386 395.264C323.581 394.325 324.989 393.045 326.61 391.424L327.186 394.432H325.65C324.328 395.84 323.069 397.035 321.874 398.016C320.722 398.997 319.528 399.723 318.29 400.192C317.053 400.704 315.645 400.96 314.066 400.96ZM331.154 400.896C329.234 400.896 327.784 400.256 326.802 398.976C325.864 397.653 325.33 395.861 325.202 393.6V393.408V377.024C325.202 374.635 324.946 372.8 324.434 371.52C323.922 370.197 323.133 369.28 322.066 368.768C321 368.256 319.613 368 317.906 368C316.669 368 315.432 368.192 314.194 368.576C312.957 368.917 311.634 369.472 310.226 370.24L312.978 368.512L311.954 373.568C311.784 374.72 311.421 375.531 310.866 376C310.354 376.469 309.693 376.704 308.882 376.704C307.346 376.704 306.408 375.936 306.066 374.4C306.706 371.797 308.178 369.749 310.482 368.256C312.786 366.763 315.73 366.016 319.314 366.016C323.026 366.016 325.778 366.912 327.57 368.704C329.405 370.453 330.322 373.312 330.322 377.28V393.088C330.322 395.093 330.557 396.459 331.026 397.184C331.496 397.867 332.157 398.208 333.01 398.208C333.565 398.208 334.056 398.101 334.482 397.888C334.909 397.632 335.378 397.227 335.89 396.672L336.914 397.632C336.232 398.741 335.4 399.552 334.418 400.064C333.48 400.619 332.392 400.896 331.154 400.896ZM354.619 400.96C351.931 400.96 349.521 400.235 347.387 398.784C345.297 397.333 343.633 395.328 342.395 392.768C341.201 390.208 340.603 387.243 340.603 383.872C340.603 380.203 341.265 377.045 342.587 374.4C343.91 371.712 345.702 369.643 347.963 368.192C350.225 366.741 352.742 366.016 355.515 366.016C357.393 366.016 359.206 366.485 360.955 367.424C362.747 368.32 364.411 369.835 365.947 371.968H366.523L365.755 373.696C364.219 372.032 362.747 370.837 361.339 370.112C359.974 369.344 358.502 368.96 356.923 368.96C354.961 368.96 353.169 369.472 351.547 370.496C349.926 371.477 348.625 373.056 347.643 375.232C346.705 377.408 346.235 380.245 346.235 383.744C346.235 386.987 346.683 389.653 347.579 391.744C348.475 393.835 349.691 395.392 351.227 396.416C352.806 397.397 354.555 397.888 356.475 397.888C358.225 397.888 359.825 397.525 361.275 396.8C362.726 396.032 364.177 394.752 365.627 392.96L366.459 394.752H365.819C364.411 396.843 362.747 398.4 360.827 399.424C358.907 400.448 356.838 400.96 354.619 400.96ZM365.179 400.64L364.923 394.304V394.112V372.416L365.051 371.84V352.448L359.227 352.128V350.4L369.403 348.48L370.299 349.056L370.107 358.784V397.824L376.123 398.208V400L365.179 400.64ZM413.164 400.96C410.348 400.96 407.724 400.299 405.292 398.976C402.903 397.653 400.962 395.712 399.468 393.152C397.975 390.549 397.228 387.328 397.228 383.488C397.228 379.648 397.996 376.448 399.532 373.888C401.068 371.285 403.052 369.323 405.484 368C407.916 366.677 410.476 366.016 413.164 366.016C415.938 366.016 418.54 366.677 420.972 368C423.404 369.28 425.367 371.221 426.86 373.824C428.396 376.427 429.164 379.648 429.164 383.488C429.164 387.328 428.418 390.549 426.924 393.152C425.431 395.755 423.468 397.717 421.036 399.04C418.647 400.32 416.023 400.96 413.164 400.96ZM413.164 398.976C416.364 398.976 418.86 397.653 420.652 395.008C422.487 392.363 423.404 388.544 423.404 383.552C423.404 378.603 422.487 374.784 420.652 372.096C418.86 369.408 416.364 368.064 413.164 368.064C410.007 368.064 407.511 369.408 405.676 372.096C403.842 374.784 402.924 378.603 402.924 383.552C402.924 388.544 403.842 392.363 405.676 395.008C407.511 397.653 410.007 398.976 413.164 398.976ZM434.969 400V398.208L441.881 397.504H443.993L450.649 398.208V400H434.969ZM440.217 400C440.26 398.976 440.281 397.589 440.281 395.84C440.324 394.091 440.345 392.277 440.345 390.4C440.388 388.48 440.409 386.795 440.409 385.344V381.504C440.409 379.285 440.388 377.323 440.345 375.616C440.345 373.909 440.303 372.267 440.217 370.688L434.585 370.432V368.768L444.441 366.208L445.273 366.72L445.657 374.208V374.272V385.344C445.657 386.795 445.657 388.48 445.657 390.4C445.7 392.277 445.721 394.091 445.721 395.84C445.764 397.589 445.807 398.976 445.849 400H440.217ZM456.729 400V398.208L463.577 397.504H465.689L472.409 398.208V400H456.729ZM461.977 400C462.02 398.976 462.041 397.611 462.041 395.904C462.084 394.155 462.105 392.341 462.105 390.464C462.148 388.544 462.169 386.837 462.169 385.344V377.984C462.169 374.827 461.636 372.629 460.569 371.392C459.545 370.112 458.116 369.472 456.281 369.472C454.831 369.472 453.103 369.941 451.097 370.88C449.092 371.819 446.916 373.589 444.569 376.192L444.057 374.016H444.697C447.001 371.157 449.305 369.109 451.609 367.872C453.913 366.635 456.196 366.016 458.457 366.016C461.231 366.016 463.407 366.955 464.985 368.832C466.564 370.667 467.353 373.76 467.353 378.112V385.344C467.353 386.837 467.353 388.544 467.353 390.464C467.396 392.341 467.417 394.155 467.417 395.904C467.46 397.611 467.503 398.976 467.545 400H461.977ZM476.834 400V398.208L484.258 397.504H486.306L493.858 398.208V400H476.834ZM482.594 400C482.636 398.677 482.658 397.184 482.658 395.52C482.7 393.813 482.722 392.085 482.722 390.336C482.764 388.544 482.786 386.88 482.786 385.344V352.384L477.154 352.128V350.4L487.266 348.48L488.226 349.056L488.034 358.976V385.344C488.034 386.88 488.034 388.544 488.034 390.336C488.076 392.085 488.098 393.813 488.098 395.52C488.14 397.184 488.183 398.677 488.226 400H482.594ZM500.464 417.344C499.056 417.344 497.776 417.024 496.624 416.384C495.472 415.787 494.832 414.955 494.704 413.888C494.874 412.992 495.301 412.331 495.984 411.904C496.709 411.477 497.52 411.264 498.416 411.264C499.269 411.264 500.058 411.477 500.784 411.904C501.552 412.331 502.298 412.907 503.024 413.632L504.88 415.424L502.832 416.448L501.552 415.36C503.685 414.763 505.562 413.461 507.184 411.456C508.848 409.451 510.277 406.869 511.472 403.712L513.328 399.04L513.584 398.208L519.28 382.464L524.656 366.976H527.152L513.712 403.008C512.432 406.379 511.088 409.109 509.68 411.2C508.314 413.333 506.864 414.891 505.328 415.872C503.834 416.853 502.213 417.344 500.464 417.344ZM512.752 403.264L498.16 366.976H503.984L514.8 396.224L515.184 397.056L512.752 403.264ZM494.832 368.768V366.976H510.704V368.768L503.856 369.408H501.168L494.832 368.768ZM517.744 368.768V366.976H530.672V368.768L525.424 369.344H524.464L517.744 368.768ZM566.039 400.96C563.223 400.96 560.599 400.299 558.167 398.976C555.778 397.653 553.837 395.712 552.343 393.152C550.85 390.549 550.103 387.328 550.103 383.488C550.103 379.648 550.871 376.448 552.407 373.888C553.943 371.285 555.927 369.323 558.359 368C560.791 366.677 563.351 366.016 566.039 366.016C568.813 366.016 571.415 366.677 573.847 368C576.279 369.28 578.242 371.221 579.735 373.824C581.271 376.427 582.039 379.648 582.039 383.488C582.039 387.328 581.293 390.549 579.799 393.152C578.306 395.755 576.343 397.717 573.911 399.04C571.522 400.32 568.898 400.96 566.039 400.96ZM566.039 398.976C569.239 398.976 571.735 397.653 573.527 395.008C575.362 392.363 576.279 388.544 576.279 383.552C576.279 378.603 575.362 374.784 573.527 372.096C571.735 369.408 569.239 368.064 566.039 368.064C562.882 368.064 560.386 369.408 558.551 372.096C556.717 374.784 555.799 378.603 555.799 383.552C555.799 388.544 556.717 392.363 558.551 395.008C560.386 397.653 562.882 398.976 566.039 398.976ZM587.844 400V398.208L594.756 397.504H596.868L603.524 398.208V400H587.844ZM593.092 400C593.135 398.976 593.156 397.589 593.156 395.84C593.199 394.091 593.22 392.277 593.22 390.4C593.263 388.48 593.284 386.795 593.284 385.344V381.504C593.284 379.285 593.263 377.323 593.22 375.616C593.22 373.909 593.178 372.267 593.092 370.688L587.46 370.432V368.768L597.316 366.208L598.148 366.72L598.532 374.208V374.272V385.344C598.532 386.795 598.532 388.48 598.532 390.4C598.575 392.277 598.596 394.091 598.596 395.84C598.639 397.589 598.682 398.976 598.724 400H593.092ZM609.604 400V398.208L616.452 397.504H618.564L625.284 398.208V400H609.604ZM614.852 400C614.895 398.976 614.916 397.611 614.916 395.904C614.959 394.155 614.98 392.341 614.98 390.464C615.023 388.544 615.044 386.837 615.044 385.344V377.984C615.044 374.827 614.511 372.629 613.444 371.392C612.42 370.112 610.991 369.472 609.156 369.472C607.706 369.472 605.978 369.941 603.972 370.88C601.967 371.819 599.791 373.589 597.444 376.192L596.932 374.016H597.572C599.876 371.157 602.18 369.109 604.484 367.872C606.788 366.635 609.071 366.016 611.332 366.016C614.106 366.016 616.282 366.955 617.86 368.832C619.439 370.667 620.228 373.76 620.228 378.112V385.344C620.228 386.837 620.228 388.544 620.228 390.464C620.271 392.341 620.292 394.155 620.292 395.904C620.335 397.611 620.378 398.976 620.42 400H614.852ZM646.861 400.96C643.746 400.96 640.951 400.32 638.477 399.04C636.002 397.76 634.061 395.819 632.653 393.216C631.245 390.613 630.541 387.392 630.541 383.552C630.541 379.968 631.266 376.875 632.717 374.272C634.21 371.627 636.151 369.6 638.541 368.192C640.93 366.741 643.533 366.016 646.349 366.016C649.122 366.016 651.49 366.613 653.453 367.808C655.458 368.96 656.973 370.539 657.997 372.544C659.063 374.549 659.597 376.811 659.597 379.328C659.597 380.864 659.447 382.144 659.149 383.168H633.037V381.184H651.597C652.749 381.184 653.517 380.885 653.901 380.288C654.285 379.691 654.477 378.752 654.477 377.472C654.477 374.741 653.751 372.501 652.301 370.752C650.85 368.96 648.823 368.064 646.221 368.064C644.343 368.064 642.637 368.661 641.101 369.856C639.565 371.008 638.349 372.693 637.453 374.912C636.557 377.088 636.109 379.712 636.109 382.784C636.109 386.24 636.621 389.077 637.645 391.296C638.711 393.515 640.162 395.157 641.997 396.224C643.831 397.248 645.922 397.76 648.269 397.76C650.53 397.76 652.493 397.376 654.157 396.608C655.863 395.797 657.378 394.624 658.701 393.088L659.725 393.984C658.317 396.117 656.546 397.824 654.413 399.104C652.279 400.341 649.762 400.96 646.861 400.96ZM681.468 416.64V414.848L688.572 414.208H690.94L698.556 414.848V416.64H681.468ZM686.844 416.64C686.886 415.189 686.908 413.589 686.908 411.84C686.95 410.133 686.972 408.384 686.972 406.592C687.014 404.843 687.036 403.221 687.036 401.728V381.632C687.036 379.456 687.014 377.493 686.972 375.744C686.972 373.952 686.929 372.267 686.844 370.688L681.148 370.432V368.768L691.004 366.208L691.836 366.72L692.22 372.16L692.348 372.48V394.944L692.22 395.584V401.728C692.22 403.179 692.22 404.779 692.22 406.528C692.262 408.32 692.284 410.091 692.284 411.84C692.326 413.589 692.369 415.189 692.412 416.64H686.844ZM702.332 400.96C700.412 400.96 698.492 400.533 696.572 399.68C694.652 398.827 692.881 397.291 691.26 395.072H690.428L691.324 393.28C692.945 395.029 694.481 396.245 695.932 396.928C697.425 397.568 699.046 397.888 700.796 397.888C702.673 397.888 704.358 397.419 705.852 396.48C707.388 395.499 708.604 393.941 709.5 391.808C710.438 389.632 710.908 386.795 710.908 383.296C710.908 378.432 709.99 374.827 708.156 372.48C706.364 370.133 704.017 368.96 701.116 368.96C699.494 368.96 697.894 369.344 696.316 370.112C694.737 370.88 692.988 372.352 691.068 374.528L690.428 372.8H691.132C692.796 370.368 694.673 368.64 696.764 367.616C698.897 366.549 701.03 366.016 703.164 366.016C705.766 366.016 708.07 366.72 710.076 368.128C712.081 369.536 713.66 371.52 714.812 374.08C715.964 376.64 716.54 379.669 716.54 383.168C716.54 386.837 715.921 390.016 714.684 392.704C713.489 395.349 711.804 397.397 709.628 398.848C707.494 400.256 705.062 400.96 702.332 400.96ZM731.691 400.96C729.131 400.96 727.019 400.235 725.355 398.784C723.691 397.333 722.859 395.285 722.859 392.64C722.859 390.976 723.222 389.504 723.947 388.224C724.673 386.901 725.867 385.728 727.531 384.704C729.238 383.68 731.499 382.763 734.315 381.952C736.107 381.397 737.985 380.864 739.947 380.352C741.91 379.84 743.745 379.392 745.451 379.008V380.608C743.745 381.035 742.017 381.504 740.267 382.016C738.518 382.485 736.918 382.997 735.467 383.552C732.737 384.533 730.795 385.707 729.643 387.072C728.534 388.437 727.979 390.016 727.979 391.808C727.979 393.771 728.513 395.264 729.579 396.288C730.689 397.312 732.139 397.824 733.931 397.824C734.913 397.824 735.873 397.632 736.811 397.248C737.75 396.864 738.817 396.203 740.011 395.264C741.206 394.325 742.614 393.045 744.235 391.424L744.811 394.432H743.275C741.953 395.84 740.694 397.035 739.499 398.016C738.347 398.997 737.153 399.723 735.915 400.192C734.678 400.704 733.27 400.96 731.691 400.96ZM748.779 400.896C746.859 400.896 745.409 400.256 744.427 398.976C743.489 397.653 742.955 395.861 742.827 393.6V393.408V377.024C742.827 374.635 742.571 372.8 742.059 371.52C741.547 370.197 740.758 369.28 739.691 368.768C738.625 368.256 737.238 368 735.531 368C734.294 368 733.057 368.192 731.819 368.576C730.582 368.917 729.259 369.472 727.851 370.24L730.603 368.512L729.579 373.568C729.409 374.72 729.046 375.531 728.491 376C727.979 376.469 727.318 376.704 726.507 376.704C724.971 376.704 724.033 375.936 723.691 374.4C724.331 371.797 725.803 369.749 728.107 368.256C730.411 366.763 733.355 366.016 736.939 366.016C740.651 366.016 743.403 366.912 745.195 368.704C747.03 370.453 747.947 373.312 747.947 377.28V393.088C747.947 395.093 748.182 396.459 748.651 397.184C749.121 397.867 749.782 398.208 750.635 398.208C751.19 398.208 751.681 398.101 752.107 397.888C752.534 397.632 753.003 397.227 753.515 396.672L754.539 397.632C753.857 398.741 753.025 399.552 752.043 400.064C751.105 400.619 750.017 400.896 748.779 400.896ZM770.842 416.64C767.642 416.64 765.061 416.256 763.098 415.488C761.178 414.763 759.77 413.76 758.874 412.48C757.978 411.243 757.53 409.813 757.53 408.192C757.53 406.187 758.234 404.48 759.642 403.072C761.093 401.664 763.226 400.405 766.042 399.296L766.362 399.872C764.698 401.109 763.482 402.261 762.714 403.328C761.946 404.395 761.562 405.717 761.562 407.296C761.562 409.6 762.373 411.349 763.994 412.544C765.658 413.739 767.984 414.336 770.97 414.336C775.45 414.336 778.821 413.547 781.082 411.968C783.344 410.432 784.474 408.512 784.474 406.208C784.474 404.757 783.962 403.499 782.938 402.432C781.914 401.408 780.058 400.896 777.37 400.896H769.498C768.517 400.896 767.642 400.875 766.874 400.832C766.106 400.789 765.381 400.661 764.698 400.448V400.256C761.413 399.445 759.77 397.568 759.77 394.624C759.77 393.259 760.176 391.957 760.986 390.72C761.84 389.483 763.226 388.117 765.146 386.624V386.048L766.618 386.816C765.509 387.968 764.677 388.949 764.122 389.76C763.61 390.571 763.354 391.509 763.354 392.576C763.354 393.685 763.738 394.581 764.506 395.264C765.274 395.947 766.533 396.288 768.282 396.288H777.626C780.229 396.288 782.362 396.629 784.026 397.312C785.733 397.952 786.992 398.912 787.802 400.192C788.613 401.472 789.018 403.008 789.018 404.8C789.018 406.763 788.314 408.64 786.906 410.432C785.541 412.267 783.493 413.76 780.762 414.912C778.074 416.064 774.768 416.64 770.842 416.64ZM771.61 388.864C769.05 388.864 766.832 388.395 764.954 387.456C763.077 386.475 761.626 385.131 760.602 383.424C759.621 381.717 759.13 379.733 759.13 377.472C759.13 374.016 760.24 371.243 762.458 369.152C764.72 367.061 767.792 366.016 771.674 366.016C773.637 366.016 775.408 366.293 776.986 366.848C778.565 367.403 779.866 368.213 780.89 369.28L781.082 369.408C783.13 371.371 784.154 374.059 784.154 377.472C784.154 379.733 783.642 381.717 782.618 383.424C781.594 385.131 780.144 386.475 778.266 387.456C776.389 388.395 774.17 388.864 771.61 388.864ZM771.61 386.944C773.914 386.944 775.77 386.069 777.178 384.32C778.586 382.571 779.29 380.267 779.29 377.408C779.29 374.549 778.586 372.267 777.178 370.56C775.77 368.811 773.936 367.936 771.674 367.936C769.37 367.936 767.514 368.811 766.106 370.56C764.741 372.309 764.058 374.613 764.058 377.472C764.058 380.331 764.741 382.635 766.106 384.384C767.472 386.091 769.306 386.944 771.61 386.944ZM778.97 370.112V369.024H779.354L788.25 366.272L789.338 366.976V370.432L778.97 370.112ZM810.111 400.96C806.996 400.96 804.201 400.32 801.727 399.04C799.252 397.76 797.311 395.819 795.903 393.216C794.495 390.613 793.791 387.392 793.791 383.552C793.791 379.968 794.516 376.875 795.967 374.272C797.46 371.627 799.401 369.6 801.791 368.192C804.18 366.741 806.783 366.016 809.599 366.016C812.372 366.016 814.74 366.613 816.703 367.808C818.708 368.96 820.223 370.539 821.247 372.544C822.313 374.549 822.847 376.811 822.847 379.328C822.847 380.864 822.697 382.144 822.399 383.168H796.287V381.184H814.847C815.999 381.184 816.767 380.885 817.151 380.288C817.535 379.691 817.727 378.752 817.727 377.472C817.727 374.741 817.001 372.501 815.551 370.752C814.1 368.96 812.073 368.064 809.471 368.064C807.593 368.064 805.887 368.661 804.351 369.856C802.815 371.008 801.599 372.693 800.703 374.912C799.807 377.088 799.359 379.712 799.359 382.784C799.359 386.24 799.871 389.077 800.895 391.296C801.961 393.515 803.412 395.157 805.247 396.224C807.081 397.248 809.172 397.76 811.519 397.76C813.78 397.76 815.743 397.376 817.407 396.608C819.113 395.797 820.628 394.624 821.951 393.088L822.975 393.984C821.567 396.117 819.796 397.824 817.663 399.104C815.529 400.341 813.012 400.96 810.111 400.96ZM834.838 400.96C833.729 400.96 832.79 400.576 832.022 399.808C831.297 398.997 830.934 398.08 830.934 397.056C830.934 395.904 831.297 394.965 832.022 394.24C832.79 393.472 833.729 393.088 834.838 393.088C835.948 393.088 836.886 393.472 837.654 394.24C838.422 394.965 838.806 395.904 838.806 397.056C838.806 398.08 838.422 398.997 837.654 399.808C836.886 400.576 835.948 400.96 834.838 400.96Z" fill="#926D3C"/>
<path d="M478.81 477.7H480.09C480.53 477.7 480.95 477.68 481.37 477.64C481.45 477.7 481.45 479.1 481.37 479.16C481.05 479.12 480.53 479.1 480.09 479.1H478.81H477.53C477.09 479.1 476.67 479.12 476.25 479.16C476.17 479.1 476.17 477.7 476.25 477.64C476.57 477.68 477.09 477.7 477.53 477.7H478.81ZM493.736 475.74L494.776 476.18C496.476 476.92 497.796 477.92 497.796 480.1C497.796 482.42 495.876 484.26 492.816 484.26C490.736 484.26 488.956 483.42 487.696 482.1L488.796 480.82C489.836 481.92 491.316 482.64 492.836 482.64C494.776 482.64 495.916 481.68 495.916 480.26C495.916 478.74 494.856 478.26 493.456 477.64L492.396 477.18L491.356 476.72C489.996 476.14 488.376 475.1 488.376 472.96C488.376 470.7 490.336 469.08 492.996 469.08C494.736 469.08 496.276 469.82 497.296 470.88L496.336 472.06C495.436 471.22 494.356 470.7 492.996 470.7C491.336 470.7 490.256 471.52 490.256 472.82C490.256 474.26 491.556 474.8 492.696 475.28L493.736 475.74ZM502.084 477.66V480.7C502.084 482.02 502.504 482.78 503.764 482.78C504.164 482.78 504.644 482.64 505.004 482.48L505.364 483.86C504.744 484.06 504.024 484.26 503.344 484.26C501.044 484.26 500.264 482.82 500.264 480.64V474.62H498.644V473.24L500.364 473.14L500.564 470.08H502.084V473.14H503.564C504.084 473.14 504.564 473.12 505.044 473.08C505.124 473.14 505.124 474.62 505.044 474.66C504.864 474.64 504.564 474.62 504.304 474.62H503.564H502.084V477.66ZM507.619 481.86C507.859 481.62 508.199 481.48 508.559 481.48C508.919 481.48 509.259 481.62 509.499 481.86C509.739 482.1 509.879 482.46 509.879 482.88C509.879 483.7 509.279 484.26 508.559 484.26C507.819 484.26 507.239 483.7 507.239 482.88C507.239 482.46 507.379 482.1 507.619 481.86ZM525.398 476.68L527.898 484H525.938L524.538 479.52H521.858H519.178L517.758 484H515.898L520.858 469.34H522.918L525.398 476.68ZM519.998 476.94L519.638 478.06H521.858H524.078L523.378 475.8C522.838 474.14 522.378 472.54 521.898 470.84H521.818C521.358 472.56 520.878 474.14 520.358 475.8L519.998 476.94ZM538.17 478.58V484H536.65L536.51 482.3H536.45C535.43 483.48 534.35 484.26 532.87 484.26C530.57 484.26 529.53 482.8 529.53 480.02V473.14H530.45H531.37V479.8C531.37 481.82 531.97 482.68 533.41 482.68C534.53 482.68 535.31 482.12 536.35 480.84V473.14H538.17V478.58ZM549.678 474.54H548.578C549.098 475.04 549.458 475.84 549.458 476.78C549.458 479.1 547.718 480.56 545.478 480.56C544.958 480.56 544.358 480.42 543.878 480.18C543.478 480.52 543.178 480.88 543.178 481.48C543.178 482.16 543.618 482.66 545.078 482.66H547.218C549.718 482.66 550.998 483.44 550.998 485.24C550.998 487.26 548.858 489 545.498 489C542.858 489 541.018 487.96 541.018 486.1C541.018 485.16 541.598 484.26 542.618 483.64V483.54C542.058 483.2 541.638 482.62 541.638 481.76C541.638 480.86 542.258 480.14 542.838 479.74V479.66C542.118 479.1 541.418 478.04 541.418 476.74C541.418 474.36 543.298 472.86 545.478 472.86C546.098 472.86 546.638 472.98 547.018 473.14H548.898H549.858C550.198 473.14 550.498 473.12 550.798 473.1C550.878 473.14 550.878 474.54 550.798 474.58C550.658 474.56 550.438 474.54 550.238 474.54H549.678ZM547.118 478.62C547.538 478.18 547.798 477.52 547.798 476.74C547.798 475.14 546.778 474.2 545.478 474.2C544.218 474.2 543.178 475.14 543.178 476.74C543.178 477.52 543.438 478.18 543.858 478.62C544.278 479.06 544.858 479.32 545.478 479.32C546.118 479.32 546.698 479.06 547.118 478.62ZM548.258 487.06C548.858 486.66 549.198 486.1 549.198 485.54C549.198 484.52 548.438 484.16 546.998 484.16H546.058H545.118C544.718 484.16 544.198 484.12 543.718 484C542.938 484.56 542.618 485.22 542.618 485.84C542.618 487 543.778 487.74 545.758 487.74C546.818 487.74 547.678 487.48 548.258 487.06ZM561.607 478.58V484H560.087L559.947 482.3H559.887C558.867 483.48 557.787 484.26 556.307 484.26C554.007 484.26 552.967 482.8 552.967 480.02V473.14H553.887H554.807V479.8C554.807 481.82 555.407 482.68 556.847 482.68C557.967 482.68 558.747 482.12 559.787 480.84V473.14H561.607V478.58ZM565.656 473.76C566.296 473.2 567.236 472.86 568.416 472.86C569.756 472.86 570.956 473.42 571.776 474.1L570.896 475.24C570.156 474.7 569.396 474.28 568.436 474.28C567.056 474.28 566.416 475 566.416 475.86C566.416 476.88 567.536 477.28 568.756 477.74C570.336 478.34 572.056 478.98 572.056 481.04C572.056 481.92 571.716 482.72 571.056 483.3C570.376 483.9 569.396 484.26 568.116 484.26C566.576 484.26 565.096 483.62 564.076 482.76L564.956 481.54C565.916 482.32 566.876 482.84 568.176 482.84C569.616 482.84 570.316 482.08 570.316 481.14C570.316 480.04 569.036 479.52 567.836 479.08C566.316 478.52 564.676 477.8 564.676 475.94C564.676 475.08 565.016 474.3 565.656 473.76ZM576.322 477.66V480.7C576.322 482.02 576.742 482.78 578.002 482.78C578.402 482.78 578.882 482.64 579.242 482.48L579.602 483.86C578.982 484.06 578.262 484.26 577.582 484.26C575.282 484.26 574.502 482.82 574.502 480.64V474.62H572.882V473.24L574.602 473.14L574.802 470.08H576.322V473.14H577.802C578.322 473.14 578.802 473.12 579.282 473.08C579.362 473.14 579.362 474.62 579.282 474.66C579.102 474.64 578.802 474.62 578.542 474.62H577.802H576.322V477.66ZM583.561 478.58V484H582.641H581.721V473.14H583.561V478.58ZM581.781 470.56C581.561 470.36 581.441 470.04 581.441 469.68C581.441 468.98 581.921 468.5 582.641 468.5C583.361 468.5 583.861 468.98 583.861 469.68C583.861 470.04 583.741 470.36 583.521 470.56C583.301 470.78 583.001 470.9 582.641 470.9C582.281 470.9 581.981 470.78 581.781 470.56ZM587.229 478.58V473.14H588.729L588.909 474.72H588.949C589.969 473.68 591.109 472.86 592.589 472.86C594.869 472.86 595.909 474.36 595.909 477.12V484H594.089V477.36C594.089 475.32 593.469 474.46 592.029 474.46C590.909 474.46 590.149 475.02 589.069 476.12V484H588.149H587.229V478.58ZM605.916 479H604.096H600.436C600.556 481.32 601.976 482.8 604.036 482.8C605.096 482.8 605.936 482.48 606.756 481.94L607.396 483.16C606.456 483.78 605.296 484.26 603.836 484.26C600.936 484.26 598.636 482.16 598.636 478.58C598.636 475.04 601.016 472.86 603.496 472.86C606.276 472.86 607.836 474.86 607.836 477.96C607.836 478.36 607.796 478.72 607.756 479H605.916ZM604.776 477.7H606.236C606.236 475.5 605.236 474.32 603.536 474.32C601.996 474.32 600.636 475.54 600.416 477.7H603.316H604.776Z" fill="#926D3C"/>
</svg>
