<svg width="183" height="533" viewBox="0 0 183 533" fill="none" xmlns="http://www.w3.org/2000/svg">
<path d="M49.5697 10.274L49.1145 10.946L49.3314 6.13737L51.4809 1L52.3911 1.11898L51.46 2.51188L51.1869 3.48463L50.8087 5.42351L50.9769 6.4315L55.8848 6.71132L55.3107 7.60739L50.3327 8.20932L49.5697 10.274ZM77.7083 8.96526L77.8273 9.58813L80.705 10.491L81.9163 11.9328L83.2604 14.1167L83.3935 17.2524L81.6712 19.5061L80.2428 20.9341L85.6409 20.3952L86.18 21.683L86.9992 23.0759L89.9048 22.082L97.2003 26.1906L101.611 24.1888L102.739 24.0698L103.74 27.3875L102.64 30.7192L98.7547 34.2608L99.6158 36.4447L100.862 36.9276L104.524 36.4656L110.328 38.6144L111.539 37.9424L116.244 32.98L118.128 31.909L124.317 31.146L125.444 29.2144L127.951 27.2755L129.561 25.1547L133.433 21.102L137.438 21.8299L139.776 22.607L142.339 22.999L144.67 27.3174L150.579 32.0701L156.005 31.6572L157.931 36.1437L158.785 41.6591L160.451 43.388L161.914 44.5148L166.333 45.6907L166.507 45.7607L166.654 46.5026L166.927 49.2324L167.299 51.4862L169.574 60.4594L169.532 62.6431L169.504 63.2241L168.671 66.2829L167.194 68.8517L165.24 70.3005L164.162 71.9103L163.966 73.6812L166.424 76.7819L171.541 81.2125L173.607 84.9922L172.634 88.1279L172.34 90.4237L172.718 91.8794L173.537 93.0484L174.797 93.9302L175.301 95.2881L175.042 97.1221L175.28 98.3958L176.225 99.2989L176.134 99.6488L175.679 100.923L175.056 103.239L174.699 104.933L173.257 107.229L173.698 109.182L174.825 111.478L175.687 112.633L175.96 113.724L175.413 116.314L175.687 116.979L179.25 118.883L179.831 119.758L180.174 121.585L181.428 125.483L180.391 130.411L179.481 133.106L177.451 137.368L177.353 137.76L177.121 138.278L176.513 139.02L175.666 139.132L174.384 138.579L173.509 137.865L173.712 136.031L173.145 135.905L172.445 134.779L172.172 133.568L171.416 133.071L168.664 132.56L167.726 132.203L167.005 132.462L166.465 133.323L166.809 134.1L167.32 134.855L168.846 136.052L168.692 136.528L165.401 137.697L163.336 138.887L161.411 139.559L159.45 140.791L155.578 142.177L152.736 142.541L152.148 142.905L151.09 145.249L150.376 145.739L149.683 145.488L149.165 145.102L148.507 145.418L147.821 146.194L147.1 146.495L146.477 146.488L145.363 148.532L142.128 149.148L141.751 150.205L141.155 151.43L140.679 151.731L139.223 151.248L137.2 150.975L136.037 151.647L134.644 152.018L132.943 152.13L131.045 153.467L129.197 155.811L128.161 157.883L127.601 158.625L126.697 156.68L125.591 155.35L124.807 154.657H124.107L123.925 154.944V155.958L124.674 157.645L125.598 158.8L125.745 159.654L126.242 161.194L127.594 162.881L129.708 164.211L131.15 165.527L132.222 167.346L132.229 167.906L131.934 168.648L131.43 169.348L131.003 170.258L129.827 172.092L130.177 172.897L131.136 173.905L131.984 175.116L133.076 177.076L134.574 180.505L135.54 181.912L136.856 183.368L138.145 184.474L140.175 184.439L142.275 186.553L144.572 189.604L146.287 190.997L147.485 191.424L148.479 192.523L149.354 194.098L149.697 195.008L150.474 195.666L152.575 195.54L155.277 198.018L156.944 199.824L157.826 201.279L157.594 201.86L157.483 203.673L157.511 205.591L157.244 206.606L156.04 207.943L155.417 208.23L155.081 208.517L151.378 206.774L151.083 207.068L150.852 207.285L149.858 212.317L149.179 213.283L148.157 214.172L146.042 215.04L144.572 215.39L143.424 215.831L139.79 217.931L138.159 219.191L137.101 220.772L137.094 221.682L138.859 224.349L140.896 227.107L140.903 229.522L140.007 231.327L139.797 232.02L140.399 232.286L141.526 232.384L142.472 232.692L142.871 233.966L142.751 236.171L142.43 238.236L142.093 239.104L141.183 239.174L139.433 238.285L138.068 237.249L137.542 236.612L137.514 235.849L137.809 235.366L137.326 234.428L135.645 233.553L133.846 233.931L132.523 234.512L131.661 234.477L130.737 233.637L129.309 232.993L127.447 232.566L126.284 232.118L126.039 232.384L126.172 234.197L125.815 234.988L116.601 236.038L113.794 237.018L111.749 238.285L110.237 238.831L109.866 239.608L108.368 240.63L106.68 240.952L106.267 240.623L105.182 241.092L103.334 241.547L102.136 241.399L101.569 240.574L100.428 239.307L99.966 238.432L100.015 237.865L97.4315 237.753L95.8069 237.081L92.3483 237.235L91.4941 236.948L91.3191 237.249L90.8009 240.847L90.1149 242.316L89.0087 243.835L87.5874 244.682L86.4601 244.836L86.509 243.73L86.7962 242.394L85.977 242.078L84.7518 241.932L84.1636 241.533L84.3176 240.511L84.0307 239.916L83.5264 239.202L82.2942 238.285L79.6896 236.927L77.9183 236.248L77.2532 236.969L75.9859 237.69L73.9905 237.452L73.5006 237.739L70.0768 235.569L66.7931 233.483H65.7079L60.8699 233.903L60.7299 233.721L59.8827 232.531L59.1404 232.153L58.6924 232.349L58.3913 232.692L57.8732 232.636L55.7027 230.718L54.8137 230.439L53.5815 230.697L52.1251 231.733L51.488 233L51.6839 233.728L52.4332 234.043L54.4145 233.833L54.7015 234.043L54.7716 234.456L54.5545 234.855L52.9511 235.184L52.4892 235.667L52.02 235.786L51.7189 235.863L50.0107 235.359H47.4691L45.4177 236.248L42.1411 236.605L37.6391 236.43L36.0217 235.765L35.0345 235.366L34.3205 233.406L34.5025 230.502L35.5736 226.645L35.8747 223.81L35.3986 222.004L36.0358 219.289L37.7861 215.663L38.9553 211.834L39.5365 207.789L40.3837 205.15L42.0501 203.295L46.0059 198.102L46.3279 197.71L46.2159 195.113L45.1517 194.742L43.5904 193.993L39.6205 193.069L35.9238 192.474L34.2433 191.739L32.7731 189.772L31.8629 189.744L30.0775 190.451L27.8511 190.927L26.2268 190.514L25.2116 190.591L24.6443 190.955L24.3574 190.633L23.9512 188.946L23.104 188.506L21.7878 188.114L20.9686 188.281L20.4016 189.121L19.5264 189.709L18.7281 189.52L16.2148 185.615L15.5706 184.747L15.4095 183.949L14.7793 182.493L13.2811 181.037L11.7897 180.575L11.0477 180.736L11.1316 178.93L11.7128 176.306L12.2728 174.934L13.0151 173.814L13.8063 173.03L13.9813 171.616L13.8552 170.279L12.945 170.069L10.6626 169.082L9.3114 168.039L8.31016 166.73L6.99376 164.932L6.43373 163.098L6.40574 161.271L6.5598 160.452L6.65766 159.885L7.71488 157.029L11.4397 154.468L11.0267 151.885L10.9707 150.296L10.0674 149.26L8.26101 148.84L7.78496 148.119L7.58198 147.412L8.90522 145.823L7.30186 144.571L6.57369 143.332L4.34728 141.694L4.10925 141.127L5.18037 136.332L4.36138 134.932L3.34604 134.219L2.16275 133.869L1.61662 133.204L1.42773 132.441L1.63777 131.972L3.03109 132.112L3.46505 131.615L6.78372 128.787L6.92389 128.241L6.46173 127.933L5.85961 127.772L5.70556 127.177L5.7265 126.393L7.49801 122.299L8.02299 120.549L8.142 119.31L8.03004 118.085L7.00786 116.16L6.02072 114.62L5.98568 113.395L5.26455 112.752L3.21997 109.455V108.181L4.37527 107.187L5.99251 106.557L6.53181 106.032L7.49801 105.703L10.0674 106.655L11.2156 107.481L11.5378 107.313L12.5739 106.417L14.3943 106.557L18.7982 104.751L19.4563 103.883L19.9465 102.959L19.9885 102.554L18.2801 100.769L18.2311 100.111L18.4553 99.3687L18.9384 98.7809L19.9465 98.3819L21.0178 97.598L23.4192 95.3722L24.2523 93.4404L24.5114 91.3405L24.5604 89.7726L23.9023 88.5269L23.2371 87.7218L22.334 87.8478L20.5766 87.7848L18.9313 87.0848L18.0282 85.951L17.804 84.9571L18.217 84.3272L18.3431 83.5572L18.0771 82.7803L18.1822 82.1295L18.9243 81.6044L24.1264 81.6185L24.5185 81.0446L24.8685 78.0208L26.1708 73.4083L27.3959 70.8324L27.5991 69.7475L27.578 63.6231L27.7461 60.5083L26.8569 59.0456L24.9174 57.4427L25.3306 54.097L25.9746 51.4793L27.9282 48.2595L29.4754 47.3775L36.2317 46.8527L43.6953 47.0697L46.7969 51.9341L45.6487 54.426L47.462 55.5878L48.3372 55.161L49.0024 52.991L49.4436 50.5833L50.0807 49.8553L52.3911 51.6543L53.2033 52.8861L53.2522 56.8337L54.1064 51.4793L53.4693 47.7206L53.9035 44.0669L54.8346 42.163L55.6889 40.9521L61.1639 42.2611L67.2132 41.5891L69.5026 43.0029L74.6768 50.0514L76.406 51.2063L78.5835 51.5703L75.58 50.0653L69.3067 41.4842L67.4303 40.4202L64.5456 40.0983L62.7463 39.2585L61.6119 37.9565L61.2829 36.7877L61.3459 28.0733L60.2677 26.7714L58.8674 26.3235L57.9922 26.9186L56.1999 26.9254L55.8218 24.9447L56.263 23.4749L59.8616 22.4669L62.2352 21.1161L62.3401 18.7293L60.8419 16.8464L59.0494 13.3888L56.942 10.1341L56.704 6.34051H56.711L60.3797 6.41035L61.276 6.55753L66.835 8.33535L68.1933 9.58108L69.9018 9.63704L72.9824 8.47526L75.2857 7.96432L76.175 8.68523L77.4282 8.98619H77.7083V8.96526ZM55.0726 12.8009L54.3094 13.6338L52.4332 13.5357L51.3828 12.7518L51.726 11.919L52.7202 11.282L53.5464 11.184L54.7925 11.5759L55.0726 12.8009ZM155.704 23.9438L156.195 26.2045L155.669 27.3595L153.464 25.4418L151.244 25.4697L149.921 28.4164L148.934 28.5424L145.51 25.8617L144.957 24.5527L144.845 23.4608L145.335 19.6813L145.244 18.4913L146.322 17.1894L146.49 15.2997L148.388 13.3119L150.082 13.2348L150.614 14.9216L151.426 16.0836L154.269 17.3855L154.696 17.9733L154.955 18.7923L153.632 20.3881L153.184 21.2071L153.604 22.516L155.704 23.9438ZM108.031 22.7608L105.014 22.8238L103.859 21.4801L102.703 21.137L103.327 19.4782L104.139 18.8692L107.058 19.9541L107.975 22.0749L108.031 22.7608ZM165.569 38.4184L165.31 39.4614L165.611 41.0643L164.799 40.9453L162.363 41.3231L159.954 40.7913L159.492 38.7964L159.877 36.8785L158.911 35.5556L158.022 34.7788L157.889 33.673L158.036 32.518L162.187 35.6116L165.569 38.4184Z" fill="white" fill-opacity="0.2" stroke="white" strokeWidth="0.5"/>
</svg>
