<svg width="20" height="20" viewBox="0 0 20 20" fill="none" xmlns="http://www.w3.org/2000/svg">
<g style="mix-blend-mode:plus-darker" opacity="0.6">
<path d="M13.2327 2.49414H8.56957C6.10148 2.49414 4.86744 2.49414 4.10071 3.22637C3.33398 3.95861 3.33398 5.13712 3.33398 7.49414L3.42248 12.4941H13.2327C15.0853 12.4941 16.0116 12.4941 16.4046 12.0154C16.5133 11.883 16.593 11.7309 16.6386 11.5683C16.8039 10.9808 16.2482 10.2731 15.1366 8.85781C14.6742 8.26902 14.4431 7.97463 14.4018 7.64006C14.3899 7.54312 14.3899 7.44517 14.4018 7.34822C14.4431 7.01365 14.6742 6.71927 15.1366 6.13051C16.2482 4.71515 16.8039 4.00747 16.6386 3.41996C16.593 3.2574 16.5133 3.10532 16.4046 2.97287C16.0116 2.49414 15.0853 2.49414 13.2327 2.49414Z" stroke="#383841" stroke-width="1.25" stroke-linecap="round" stroke-linejoin="round"/>
<path d="M3.33398 17.4935V6.66016" stroke="#383841" stroke-width="1.25" stroke-linecap="round"/>
</g>
</svg>
