<svg width="194" height="57" viewBox="0 0 194 57" fill="none" xmlns="http://www.w3.org/2000/svg">
<path d="M166.553 40.0744C165.396 40.0744 164.586 39.7968 164.124 39.2416C163.661 38.6864 163.43 37.9693 163.43 37.0902C163.43 35.5634 163.985 33.8284 165.095 31.8853C165.743 30.7749 166.622 29.5025 167.732 28.0683C168.889 26.5878 170.185 25.0378 171.619 23.4185C173.053 21.7529 174.487 20.1336 175.922 18.5606H171.272L172.035 17.589H176.824C178.119 16.2472 179.322 14.9981 180.433 13.8414C181.589 12.6385 182.538 11.6669 183.278 10.9266C185.314 8.8909 187.187 7.34098 188.899 6.27685C190.657 5.21273 192.045 4.68066 193.063 4.68066C192.323 5.32839 191.236 6.34625 189.801 7.73424C188.414 9.12223 186.864 10.6722 185.152 12.384C183.486 14.0959 181.844 15.8308 180.224 17.589H185.013L184.25 18.5606H179.392C178.513 19.5784 177.68 20.5269 176.893 21.4059C176.153 22.285 175.505 23.1178 174.95 23.9043C172.775 26.8654 171.017 29.2943 169.676 31.1913C168.334 33.0882 167.455 34.5224 167.038 35.494C166.715 36.2806 166.553 36.9283 166.553 37.4372C166.553 38.3163 166.969 38.7558 167.802 38.7558C168.496 38.7558 169.236 38.5245 170.023 38.0618C171.179 37.4141 172.336 36.4888 173.493 35.2858C174.696 34.0366 175.667 32.9725 176.407 32.0935C176.592 32.0935 176.685 32.2323 176.685 32.5099C176.685 32.9262 176.592 33.2501 176.407 33.4814C174.649 35.5172 173.007 37.1365 171.48 38.3394C169.953 39.4961 168.311 40.0744 166.553 40.0744Z" fill="#E0DBC7" fill-opacity="0.3"/>
<path d="M155.035 40.0735C154.202 40.0735 153.601 39.8653 153.231 39.4489C152.861 39.0325 152.676 38.5004 152.676 37.8527C152.676 37.2975 152.814 36.5109 153.092 35.4931C153.693 33.8275 154.572 32.1388 155.729 30.4269C156.886 28.6688 158.135 27.0032 159.477 25.4302C160.865 23.8108 162.183 22.3535 163.432 21.058C164.682 19.7163 165.676 18.629 166.417 17.7962C165.723 17.7962 164.959 17.9813 164.126 18.3514C163.34 18.7216 162.53 19.1611 161.697 19.67C159.708 21.058 157.695 22.7005 155.66 24.5974C153.67 26.4943 151.796 28.4375 150.038 30.4269C148.327 32.4164 146.869 34.2439 145.666 35.9095C144.463 37.5751 143.7 38.8705 143.376 39.7959C142.636 39.7959 142.266 39.3332 142.266 38.4079C142.266 37.6213 142.497 36.6497 142.96 35.4931C143.422 34.2902 144.001 33.0872 144.695 31.8843C146.268 29.2471 148.188 26.4018 150.455 23.3482C152.768 20.2483 155.151 17.3567 157.603 14.6732C159.777 12.2674 162.137 10.0929 164.682 8.1497C167.226 6.20652 169.887 4.84166 172.663 4.05513C173.079 3.91633 173.565 3.80067 174.12 3.70813C174.675 3.6156 175.254 3.56934 175.855 3.56934C176.965 3.56934 177.914 3.73127 178.7 4.05513C179.07 4.2402 179.441 4.49466 179.811 4.81853C180.181 5.09612 180.435 5.51252 180.574 6.06772C180.065 5.65132 179.487 5.35059 178.839 5.16553C178.191 4.93419 177.405 4.81853 176.48 4.81853C174.675 4.81853 172.825 5.35059 170.928 6.41471C169.077 7.43257 167.296 8.68176 165.584 10.1623C163.918 11.6428 162.438 13.1233 161.142 14.6039C159.893 16.0381 158.921 17.1716 158.228 18.0044C156.423 20.2252 154.827 22.3072 153.439 24.2504C152.097 26.1473 150.964 27.7666 150.038 29.1083C151.889 27.0726 153.902 25.0369 156.076 23.0012C158.297 20.9192 160.333 19.2767 162.183 18.0738C162.785 17.6574 163.409 17.3104 164.057 17.0328C164.705 16.7552 165.376 16.6164 166.07 16.6164C167.319 16.6164 167.943 17.1022 167.943 18.0738C167.943 18.8141 167.504 19.6931 166.625 20.711C165.006 22.5617 163.363 24.6205 161.697 26.8876C160.032 29.1083 158.621 31.3291 157.464 33.5499C157.279 33.8738 156.955 34.5215 156.493 35.4931C156.076 36.4184 155.868 37.2049 155.868 37.8527C155.868 38.4079 156.122 38.6855 156.631 38.6855C157.695 38.6855 158.991 38.0146 160.518 36.6729C162.044 35.2849 163.525 33.7581 164.959 32.0925C165.144 32.0925 165.237 32.2313 165.237 32.5089C165.237 32.9253 165.144 33.2492 164.959 33.4805C164.312 34.1745 163.479 35.0536 162.461 36.1177C161.489 37.1355 160.379 38.0609 159.13 38.8937C157.881 39.6802 156.516 40.0735 155.035 40.0735Z" fill="#E0DBC7" fill-opacity="0.3"/>
<path d="M116.355 56.868C114.967 56.868 114.018 56.7524 113.509 56.521C113.001 56.336 112.746 56.174 112.746 56.0352C112.746 55.8502 112.908 55.7576 113.232 55.7576C113.463 55.7576 113.695 55.7576 113.926 55.7576C114.157 55.8039 114.365 55.827 114.55 55.827C116.216 55.827 117.882 55.3181 119.547 54.3003C121.213 53.2824 122.832 51.9175 124.405 50.2057C125.978 48.5401 127.482 46.6894 128.916 44.6537C130.35 42.618 131.646 40.6054 132.803 38.616C133.219 37.8757 133.751 36.9273 134.399 35.7706C135.046 34.5677 135.764 33.2722 136.55 31.8842C135.671 32.9021 134.861 33.8043 134.121 34.5908C133.381 35.3773 132.826 35.9557 132.456 36.3258C131.438 37.2511 130.466 38.0608 129.541 38.7548C128.615 39.4025 127.644 39.7726 126.626 39.8652C124.914 39.9577 124.058 38.9861 124.058 36.9504C124.058 35.84 124.382 34.5214 125.03 32.9946C125.678 31.4216 126.649 29.7791 127.945 28.0673C128.87 26.9106 130.003 25.6845 131.345 24.3891C132.687 23.0474 134.144 21.775 135.717 20.5721C137.337 19.3692 138.979 18.3976 140.645 17.6573C142.31 16.8708 143.93 16.4775 145.503 16.4775C146.197 16.4775 146.682 16.5932 146.96 16.8245C147.238 17.0096 147.423 17.2178 147.515 17.4491C147.561 17.6342 147.561 17.7961 147.515 17.9349C148.857 17.0559 150.106 16.6163 151.263 16.6163C151.587 16.6163 151.795 16.6626 151.887 16.7551C149.944 17.9581 148.209 19.508 146.682 21.4049C145.202 23.2556 143.814 25.3375 142.518 27.6509C141.223 29.9642 139.928 32.3469 138.632 34.799C137.383 37.2511 136.041 39.6801 134.607 42.0859C133.219 44.4918 131.646 46.7126 129.888 48.7483C127.806 51.1541 125.562 53.0973 123.156 54.5778C120.75 56.1046 118.483 56.868 116.355 56.868ZM128.222 37.7138C128.546 37.7138 128.986 37.575 129.541 37.2974C130.096 36.9735 130.813 36.4415 131.692 35.7012C133.173 34.4057 134.676 32.8327 136.203 30.982C137.73 29.0851 139.21 27.2113 140.645 25.3607C141.709 23.8802 142.796 22.469 143.906 21.1273C145.063 19.7856 146.243 18.7446 147.446 18.0043C147.353 18.0043 147.307 17.9812 147.307 17.9349C147.122 17.8424 146.752 17.7961 146.197 17.7961C144.531 17.7961 142.542 18.6058 140.228 20.2251C137.961 21.7982 135.717 23.857 133.497 26.4017C131.923 28.1598 130.628 29.8948 129.61 31.6066C128.592 33.2722 127.921 34.6602 127.598 35.7706C127.505 36.1407 127.459 36.4646 127.459 36.7422C127.459 37.3899 127.713 37.7138 128.222 37.7138Z" fill="#E0DBC7" fill-opacity="0.3"/>
<path d="M130.998 13.7019C130.073 13.7019 129.61 13.3318 129.61 12.5915C129.61 12.3602 129.68 12.1057 129.819 11.8281C130.05 11.2729 130.443 10.7871 130.998 10.3708C131.6 9.90809 132.178 9.67676 132.733 9.67676C133.612 9.67676 134.052 10.0469 134.052 10.7871C134.052 11.4811 133.728 12.1289 133.08 12.7303C132.433 13.3318 131.739 13.6557 130.998 13.7019ZM115.939 39.9349C114.69 39.9349 113.81 39.6111 113.302 38.9633C112.746 38.2693 112.469 37.4134 112.469 36.3956C112.469 35.0538 112.885 33.6196 113.718 32.0928C114.504 30.5197 115.499 28.9698 116.702 27.443C117.905 25.87 119.131 24.4126 120.38 23.0709C121.629 21.6829 122.717 20.5493 123.642 19.6703C124.521 18.7912 125.423 18.1435 126.349 17.7271C127.274 17.3107 128.061 17.0331 128.708 16.8943C129.402 16.7092 129.749 16.6167 129.749 16.6167C128.731 17.7734 127.343 19.4158 125.585 21.5441C123.827 23.6723 122.092 25.9394 120.38 28.3452C120.241 28.5303 119.918 28.9929 119.409 29.7332C118.9 30.4735 118.321 31.3294 117.674 32.301C117.072 33.2726 116.54 34.221 116.078 35.1464C115.661 36.0717 115.453 36.812 115.453 37.3671C115.453 38.2462 115.916 38.6857 116.841 38.6857C117.535 38.6857 118.275 38.4313 119.062 37.9223C119.894 37.4134 120.727 36.7888 121.56 36.0486C122.393 35.3083 123.133 34.5912 123.781 33.8972C124.475 33.1569 125.007 32.5555 125.377 32.0928C125.562 32.0928 125.655 32.2316 125.655 32.5092C125.655 32.9256 125.562 33.2494 125.377 33.4808C123.619 35.5165 122.023 37.1127 120.588 38.2693C119.2 39.3797 117.651 39.9349 115.939 39.9349Z" fill="#E0DBC7" fill-opacity="0.3"/>
<path d="M104.275 40.0041C101.961 40.0041 100.805 38.9399 100.805 36.8117C100.805 36.1177 100.967 35.308 101.29 34.3827C101.614 33.4574 102.216 32.2313 103.095 30.7045C104.298 28.6225 105.987 26.1704 108.161 23.3482C110.382 20.5259 112.741 17.7731 115.24 15.0896C117.414 12.6375 119.774 10.3936 122.319 8.3579C124.909 6.27592 127.593 4.84166 130.369 4.05513C130.785 3.91633 131.271 3.80067 131.826 3.70813C132.381 3.6156 132.96 3.56934 133.561 3.56934C134.672 3.56934 135.62 3.73127 136.407 4.05513C136.777 4.2402 137.147 4.49466 137.517 4.81853C137.887 5.09612 138.142 5.51252 138.28 6.06772C137.771 5.65132 137.193 5.35059 136.545 5.16553C135.898 4.93419 135.111 4.81853 134.186 4.81853C131.78 4.81853 129.467 5.60505 127.246 7.17811C125.025 8.75116 122.804 10.7869 120.584 13.2853C118.409 15.7374 116.119 18.3514 113.713 21.1274C112.788 22.1915 111.77 23.5101 110.659 25.0832C109.549 26.6562 108.485 28.2293 107.467 29.8023C106.495 31.3754 105.709 32.7171 105.107 33.8275C104.784 34.3364 104.529 34.8916 104.344 35.4931C104.205 36.0483 104.136 36.511 104.136 36.8811C104.136 37.9915 104.552 38.5467 105.385 38.5467C106.264 38.5467 107.236 38.1303 108.3 37.2975C109.41 36.4647 110.451 35.5394 111.423 34.5215C112.441 33.5036 113.204 32.694 113.713 32.0925C113.898 32.0925 113.991 32.2313 113.991 32.5089C113.991 32.9253 113.898 33.2492 113.713 33.4805C111.862 35.6088 110.15 37.2281 108.577 38.3385C107.051 39.4489 105.616 40.0041 104.275 40.0041Z" fill="#E0DBC7" fill-opacity="0.3"/>
<path d="M92.414 40.0735C91.5812 40.0735 90.9798 39.8653 90.6096 39.4489C90.2395 39.0325 90.0545 38.5004 90.0545 37.8527C90.0545 37.2975 90.1932 36.5109 90.4708 35.4931C91.0723 33.8275 91.9514 32.1388 93.108 30.4269C94.2647 28.6688 95.5139 27.0032 96.8556 25.4302C98.2436 23.8108 99.5622 22.3535 100.811 21.058C102.061 19.7163 103.055 18.629 103.796 17.7962C103.102 17.7962 102.338 17.9813 101.505 18.3514C100.719 18.7216 99.9092 19.1611 99.0764 19.67C97.0869 21.058 95.0743 22.7005 93.0386 24.5974C91.0492 26.4943 89.1754 28.4375 87.4173 30.4269C85.7054 32.4164 84.248 34.2439 83.0451 35.9095C81.8422 37.5751 81.0788 38.8705 80.7549 39.7959C80.0147 39.7959 79.6445 39.3332 79.6445 38.4079C79.6445 37.6213 79.8759 36.6497 80.3385 35.4931C80.8012 34.2902 81.3795 33.0872 82.0735 31.8843C83.6466 29.2471 85.5666 26.4018 87.8337 23.3482C90.147 20.2483 92.5297 17.3567 94.9818 14.6732C97.1563 12.2674 99.5159 10.0929 102.061 8.1497C104.605 6.20652 107.266 4.84166 110.042 4.05513C110.458 3.91633 110.944 3.80067 111.499 3.70813C112.054 3.6156 112.632 3.56934 113.234 3.56934C114.344 3.56934 115.293 3.73127 116.079 4.05513C116.449 4.2402 116.82 4.49466 117.19 4.81853C117.56 5.09612 117.814 5.51252 117.953 6.06772C117.444 5.65132 116.866 5.35059 116.218 5.16553C115.57 4.93419 114.784 4.81853 113.858 4.81853C112.054 4.81853 110.203 5.35059 108.307 6.41471C106.456 7.43257 104.675 8.68176 102.963 10.1623C101.297 11.6428 99.8166 13.1233 98.5212 14.6039C97.272 16.0381 96.3004 17.1716 95.6064 18.0044C93.802 20.2252 92.2058 22.3072 90.8178 24.2504C89.4761 26.1473 88.3426 27.7666 87.4173 29.1083C89.2679 27.0726 91.2805 25.0369 93.455 23.0012C95.6758 20.9192 97.7115 19.2767 99.5622 18.0738C100.164 17.6574 100.788 17.3104 101.436 17.0328C102.084 16.7552 102.755 16.6164 103.449 16.6164C104.698 16.6164 105.322 17.1022 105.322 18.0738C105.322 18.8141 104.883 19.6931 104.004 20.711C102.384 22.5617 100.742 24.6205 99.0764 26.8876C97.4108 29.1083 95.9997 31.3291 94.843 33.5499C94.658 33.8738 94.3341 34.5215 93.8714 35.4931C93.455 36.4184 93.2468 37.2049 93.2468 37.8527C93.2468 38.4079 93.5013 38.6855 94.0102 38.6855C95.0743 38.6855 96.3698 38.0146 97.8966 36.6729C99.4234 35.2849 100.904 33.7581 102.338 32.0925C102.523 32.0925 102.616 32.2313 102.616 32.5089C102.616 32.9253 102.523 33.2492 102.338 33.4805C101.69 34.1745 100.858 35.0536 99.8398 36.1177C98.8682 37.1355 97.7578 38.0609 96.5086 38.8937C95.2594 39.6802 93.8946 40.0735 92.414 40.0735Z" fill="#E0DBC7" fill-opacity="0.3"/>
<path d="M53.7338 56.868C52.3458 56.868 51.3973 56.7524 50.8884 56.521C50.3795 56.336 50.125 56.174 50.125 56.0352C50.125 55.8502 50.2869 55.7576 50.6108 55.7576C50.8421 55.7576 51.0735 55.7576 51.3048 55.7576C51.5361 55.8039 51.7443 55.827 51.9294 55.827C53.595 55.827 55.2606 55.3181 56.9261 54.3003C58.5917 53.2824 60.2111 51.9175 61.7841 50.2057C63.3572 48.5401 64.8608 46.6894 66.2951 44.6537C67.7293 42.618 69.0248 40.6054 70.1814 38.616C70.5978 37.8757 71.1299 36.9273 71.7776 35.7706C72.4254 34.5677 73.1425 33.2722 73.929 31.8842C73.05 32.9021 72.2403 33.8043 71.5 34.5908C70.7598 35.3773 70.2046 35.9557 69.8344 36.3258C68.8166 37.2511 67.845 38.0608 66.9197 38.7548C65.9943 39.4025 65.0227 39.7726 64.0049 39.8652C62.293 39.9577 61.4371 38.9861 61.4371 36.9504C61.4371 35.84 61.761 34.5214 62.4087 32.9946C63.0564 31.4216 64.028 29.7791 65.3235 28.0673C66.2488 26.9106 67.3823 25.6845 68.7241 24.3891C70.0658 23.0474 71.5232 21.775 73.0962 20.5721C74.7155 19.3692 76.358 18.3976 78.0236 17.6573C79.6892 16.8708 81.3085 16.4775 82.8815 16.4775C83.5755 16.4775 84.0613 16.5932 84.3389 16.8245C84.6165 17.0096 84.8016 17.2178 84.8941 17.4491C84.9404 17.6342 84.9404 17.7961 84.8941 17.9349C86.2359 17.0559 87.485 16.6163 88.6417 16.6163C88.9656 16.6163 89.1738 16.6626 89.2663 16.7551C87.3231 17.9581 85.5881 19.508 84.0613 21.4049C82.5808 23.2556 81.1928 25.3375 79.8974 27.6509C78.6019 29.9642 77.3065 32.3469 76.011 34.799C74.7618 37.2511 73.4201 39.6801 71.9858 42.0859C70.5978 44.4918 69.0248 46.7126 67.2667 48.7483C65.1847 51.1541 62.9408 53.0973 60.5349 54.5778C58.1291 56.1046 55.862 56.868 53.7338 56.868ZM65.6011 37.7138C65.9249 37.7138 66.3645 37.575 66.9197 37.2974C67.4749 36.9735 68.192 36.4415 69.0711 35.7012C70.5516 34.4057 72.0552 32.8327 73.582 30.982C75.1088 29.0851 76.5893 27.2113 78.0236 25.3607C79.0877 23.8802 80.175 22.469 81.2854 21.1273C82.442 19.7856 83.6218 18.7446 84.8247 18.0043C84.7322 18.0043 84.6859 17.9812 84.6859 17.9349C84.5009 17.8424 84.1307 17.7961 83.5755 17.7961C81.91 17.7961 79.9205 18.6058 77.6072 20.2251C75.3401 21.7982 73.0962 23.857 70.8754 26.4017C69.3024 28.1598 68.0069 29.8948 66.9891 31.6066C65.9712 33.2722 65.3003 34.6602 64.9765 35.7706C64.884 36.1407 64.8377 36.4646 64.8377 36.7422C64.8377 37.3899 65.0921 37.7138 65.6011 37.7138Z" fill="#E0DBC7" fill-opacity="0.3"/>
<path d="M68.3773 13.7019C67.452 13.7019 66.9893 13.3318 66.9893 12.5915C66.9893 12.3602 67.0587 12.1057 67.1975 11.8281C67.4289 11.2729 67.8221 10.7871 68.3773 10.3708C68.9788 9.90809 69.5571 9.67676 70.1123 9.67676C70.9914 9.67676 71.4309 10.0469 71.4309 10.7871C71.4309 11.4811 71.107 12.1289 70.4593 12.7303C69.8116 13.3318 69.1176 13.6557 68.3773 13.7019ZM53.3176 39.9349C52.0684 39.9349 51.1894 39.6111 50.6805 38.9633C50.1253 38.2693 49.8477 37.4134 49.8477 36.3956C49.8477 35.0538 50.2641 33.6196 51.0968 32.0928C51.8834 30.5197 52.8781 28.9698 54.081 27.443C55.2839 25.87 56.51 24.4126 57.7592 23.0709C59.0084 21.6829 60.0956 20.5493 61.021 19.6703C61.9 18.7912 62.8022 18.1435 63.7275 17.7271C64.6529 17.3107 65.4394 17.0331 66.0871 16.8943C66.7811 16.7092 67.1281 16.6167 67.1281 16.6167C66.1103 17.7734 64.7223 19.4158 62.9642 21.5441C61.206 23.6723 59.471 25.9394 57.7592 28.3452C57.6204 28.5303 57.2965 28.9929 56.7876 29.7332C56.2787 30.4735 55.7003 31.3294 55.0526 32.301C54.4512 33.2726 53.9191 34.221 53.4564 35.1464C53.04 36.0717 52.8318 36.812 52.8318 37.3671C52.8318 38.2462 53.2945 38.6857 54.2198 38.6857C54.9138 38.6857 55.6541 38.4313 56.4406 37.9223C57.2734 37.4134 58.1062 36.7888 58.939 36.0486C59.7718 35.3083 60.512 34.5912 61.1598 33.8972C61.8538 33.1569 62.3858 32.5555 62.756 32.0928C62.941 32.0928 63.0336 32.2316 63.0336 32.5092C63.0336 32.9256 62.941 33.2494 62.756 33.4808C60.9978 35.5165 59.4016 37.1127 57.9674 38.2693C56.5794 39.3797 55.0295 39.9349 53.3176 39.9349Z" fill="#E0DBC7" fill-opacity="0.3"/>
<path d="M10.1323 41.9473C8.32794 41.9473 6.63922 41.6697 5.06616 41.1145C3.53937 40.5593 2.31332 39.6803 1.38799 38.4773C0.462663 37.2281 0 35.6088 0 33.6194C0 31.7687 0.462663 30.0106 1.38799 28.345C2.35958 26.6331 3.60877 25.1064 5.13556 23.7646C6.70862 22.4229 8.4436 21.3588 10.3405 20.5723C12.2837 19.7857 14.2269 19.3925 16.1701 19.3925C16.5402 19.3925 16.7484 19.485 16.7947 19.6701C16.8409 19.8089 16.7484 19.8783 16.5171 19.8783C14.944 19.8783 13.3016 20.2715 11.5897 21.0581C9.92412 21.7983 8.3742 22.8393 6.93995 24.181C5.55196 25.4765 4.41843 26.9339 3.53937 28.5532C2.66031 30.1725 2.22078 31.815 2.22078 33.4806C2.22078 36.0715 2.89164 37.9453 4.23337 39.1019C5.62136 40.2123 7.26381 40.7675 9.16073 40.7675C10.6413 40.7675 12.168 40.4668 13.7411 39.8653C15.3604 39.3101 16.8641 38.5236 18.2521 37.5057C21.3519 35.0536 24.1279 32.2314 26.58 29.039C29.0321 25.8466 31.5074 22.6311 34.0057 19.3925C35.6713 17.3105 37.2444 15.2979 38.7249 13.3547C40.2517 11.3653 42.0098 9.44521 43.9993 7.59456C44.8783 6.76177 45.8036 5.97524 46.7752 5.23498C47.7931 4.49472 48.7878 3.89326 49.7594 3.43059C46.7521 3.24553 43.5829 2.96793 40.2517 2.5978C36.9205 2.1814 33.7513 1.9732 30.744 1.9732C27.7367 1.9732 24.9375 2.34333 22.3466 3.08359C19.802 3.77759 17.8588 5.07305 16.5171 6.96997C15.7305 8.08036 15.3373 9.16761 15.3373 10.2317C15.3373 10.972 15.4992 11.5735 15.8231 12.0361C15.9619 12.2212 16.1469 12.4294 16.3783 12.6607C16.6096 12.8458 16.8178 12.9383 17.0029 12.9383C16.8178 13.1234 16.5865 13.2159 16.3089 13.2159C15.985 13.2159 15.6611 13.1465 15.3373 13.0077C15.0597 12.8227 14.8284 12.6376 14.6433 12.4525C14.1806 11.9436 13.8336 11.3653 13.6023 10.7175C13.371 10.0235 13.2553 9.35268 13.2553 8.70495C13.2553 7.40949 13.556 6.32224 14.1575 5.44318C16.6559 2.01947 20.8892 0.307617 26.8576 0.307617C28.1993 0.307617 29.6567 0.40015 31.2298 0.585216C32.8491 0.724013 34.5609 0.93221 36.3653 1.20981C37.2444 1.34861 38.4242 1.51054 39.9047 1.69561C41.3852 1.83441 43.0045 1.9732 44.7627 2.112C46.567 2.20454 48.3252 2.2508 50.037 2.2508C52.0727 2.2508 53.8771 2.13514 55.4502 1.90381C57.0695 1.67247 58.1336 1.27921 58.6426 0.724013H58.8507C59.2209 0.724013 59.4059 0.909078 59.4059 1.27921C59.2671 1.92694 58.9202 2.43587 58.365 2.80599C57.856 3.12986 57.3008 3.31493 56.6994 3.36119C55.9128 3.45373 55.08 3.52313 54.201 3.56939C53.3682 3.56939 52.4891 3.54626 51.5638 3.49999C49.6669 5.07305 47.7931 6.96996 45.9424 9.19075C44.0918 11.3653 42.1949 13.7942 40.2517 16.4777L37.1981 20.6417H47.6774C49.1117 18.8835 50.5922 17.1717 52.119 15.5061C53.6458 13.8405 55.1494 12.2675 56.63 10.7869C57.6478 9.81534 58.7582 8.86688 59.9611 7.94156C61.1641 7.01623 62.3439 6.25284 63.5005 5.65137C64.7034 5.00365 65.7444 4.67978 66.6235 4.67978C66.022 5.14245 65.0736 5.99837 63.7781 7.24756C62.5289 8.45049 61.3723 9.63028 60.3081 10.7869C58.8739 12.3137 57.2546 14.1412 55.4502 16.2695C53.6921 18.3977 51.9339 20.5723 50.1758 22.793C48.464 25.0138 46.914 27.0958 45.5261 29.039C44.1381 30.9822 43.1202 32.5784 42.4725 33.8276C41.7322 35.0768 41.3621 36.2334 41.3621 37.2975C41.3621 38.2691 41.7553 38.7549 42.5419 38.7549C43.0045 38.7549 43.6754 38.5236 44.5545 38.0609C45.8962 37.2744 47.0297 36.4185 47.955 35.4931C48.8804 34.5216 49.9214 33.388 51.078 32.0926C51.2631 32.0926 51.3556 32.2314 51.3556 32.509C51.3556 32.9254 51.2631 33.2492 51.078 33.4806C48.9498 35.9789 47.1685 37.6908 45.7342 38.6161C44.3463 39.4952 42.7963 39.9347 41.0845 39.9347C39.9278 39.9347 39.1182 39.6802 38.6555 39.1713C38.1928 38.6161 37.9615 37.9221 37.9615 37.0893C37.9615 36.3491 38.1234 35.5163 38.4473 34.591C38.7712 33.6656 39.1876 32.7634 39.6965 31.8844C40.6218 30.2651 41.6859 28.5763 42.8889 26.8182C44.1381 25.0601 45.4567 23.3251 46.8446 21.6133H36.5041C34.8848 23.8803 33.1498 26.2168 31.2992 28.6226C29.4485 30.9822 27.4591 33.1798 25.3308 35.2155C23.2026 37.205 20.8661 38.8243 18.3215 40.0735C15.8231 41.3227 13.0934 41.9473 10.1323 41.9473Z" fill="#E0DBC7" fill-opacity="0.3"/>
</svg>
