<svg width="268" height="80" viewBox="0 0 268 80" fill="none" xmlns="http://www.w3.org/2000/svg">
<path d="M230.39 55.8653C228.79 55.8653 227.67 55.4813 227.03 54.7133C226.39 53.9453 226.07 52.9533 226.07 51.7373C226.07 49.6253 226.838 47.2253 228.374 44.5373C229.27 43.0013 230.486 41.2413 232.022 39.2573C233.622 37.2093 235.414 35.0653 237.398 32.8253C239.382 30.5213 241.366 28.2813 243.35 26.1053H236.918L237.974 24.7613H244.598C246.39 22.9053 248.054 21.1773 249.59 19.5773C251.19 17.9133 252.502 16.5693 253.526 15.5453C256.342 12.7293 258.934 10.5853 261.302 9.11328C263.734 7.64128 265.654 6.90527 267.062 6.90527C266.038 7.80128 264.534 9.20928 262.55 11.1293C260.63 13.0493 258.486 15.1933 256.118 17.5613C253.814 19.9293 251.542 22.3293 249.302 24.7613H255.926L254.87 26.1053H248.15C246.934 27.5133 245.782 28.8253 244.694 30.0413C243.67 31.2573 242.774 32.4093 242.006 33.4973C238.998 37.5933 236.566 40.9533 234.71 43.5773C232.854 46.2013 231.638 48.1853 231.062 49.5293C230.614 50.6173 230.39 51.5133 230.39 52.2173C230.39 53.4333 230.966 54.0413 232.118 54.0413C233.078 54.0413 234.102 53.7213 235.19 53.0813C236.79 52.1853 238.39 50.9053 239.99 49.2413C241.654 47.5133 242.998 46.0413 244.022 44.8253C244.278 44.8253 244.406 45.0173 244.406 45.4013C244.406 45.9773 244.278 46.4253 244.022 46.7453C241.59 49.5613 239.318 51.8013 237.206 53.4653C235.094 55.0653 232.822 55.8653 230.39 55.8653Z" fill="#E0DBC7" fill-opacity="0.3"/>
<path d="M214.461 55.8651C213.309 55.8651 212.477 55.5771 211.965 55.0011C211.453 54.4251 211.197 53.6891 211.197 52.7931C211.197 52.0251 211.389 50.9371 211.773 49.5291C212.605 47.2251 213.821 44.8891 215.421 42.5211C217.021 40.0891 218.749 37.7851 220.605 35.6091C222.525 33.3691 224.349 31.3531 226.077 29.5611C227.805 27.7051 229.181 26.2011 230.205 25.0491C229.245 25.0491 228.189 25.3051 227.037 25.8171C225.949 26.3291 224.829 26.9371 223.677 27.6411C220.925 29.5611 218.141 31.8331 215.325 34.4571C212.573 37.0811 209.981 39.7691 207.549 42.5211C205.181 45.2731 203.165 47.8011 201.501 50.1051C199.837 52.4091 198.781 54.2011 198.333 55.4811C197.309 55.4811 196.797 54.8411 196.797 53.5611C196.797 52.4731 197.117 51.1291 197.757 49.5291C198.397 47.8651 199.197 46.2011 200.157 44.5371C202.333 40.8891 204.989 36.9531 208.125 32.7291C211.325 28.4411 214.621 24.4411 218.013 20.7291C221.021 17.4011 224.285 14.3931 227.805 11.7051C231.325 9.01714 235.005 7.12914 238.845 6.04114C239.421 5.84914 240.093 5.68914 240.861 5.56114C241.629 5.43314 242.429 5.36914 243.261 5.36914C244.797 5.36914 246.109 5.59314 247.197 6.04114C247.709 6.29714 248.221 6.64914 248.733 7.09714C249.245 7.48114 249.597 8.05714 249.789 8.82514C249.085 8.24914 248.285 7.83314 247.389 7.57714C246.493 7.25714 245.405 7.09714 244.125 7.09714C241.629 7.09714 239.069 7.83314 236.445 9.30514C233.885 10.7131 231.421 12.4411 229.053 14.4891C226.749 16.5371 224.701 18.5851 222.909 20.6331C221.181 22.6171 219.837 24.1851 218.877 25.3371C216.381 28.4091 214.173 31.2891 212.253 33.9771C210.397 36.6011 208.829 38.8411 207.549 40.6971C210.109 37.8811 212.893 35.0651 215.901 32.2491C218.973 29.3691 221.789 27.0971 224.349 25.4331C225.181 24.8571 226.045 24.3771 226.941 23.9931C227.837 23.6091 228.765 23.4171 229.725 23.4171C231.453 23.4171 232.317 24.0891 232.317 25.4331C232.317 26.4571 231.709 27.6731 230.493 29.0811C228.253 31.6411 225.981 34.4891 223.677 37.6251C221.373 40.6971 219.421 43.7691 217.821 46.8411C217.565 47.2891 217.117 48.1851 216.477 49.5291C215.901 50.8091 215.613 51.8971 215.613 52.7931C215.613 53.5611 215.965 53.9451 216.669 53.9451C218.141 53.9451 219.933 53.0171 222.045 51.1611C224.157 49.2411 226.205 47.1291 228.189 44.8251C228.445 44.8251 228.573 45.0171 228.573 45.4011C228.573 45.9771 228.445 46.4251 228.189 46.7451C227.293 47.7051 226.141 48.9211 224.733 50.3931C223.389 51.8011 221.853 53.0811 220.125 54.2331C218.397 55.3211 216.509 55.8651 214.461 55.8651Z" fill="#E0DBC7" fill-opacity="0.3"/>
<path d="M160.953 79.0976C159.033 79.0976 157.721 78.9376 157.017 78.6176C156.313 78.3616 155.961 78.1376 155.961 77.9456C155.961 77.6896 156.185 77.5616 156.633 77.5616C156.953 77.5616 157.273 77.5616 157.593 77.5616C157.913 77.6256 158.201 77.6576 158.457 77.6576C160.761 77.6576 163.065 76.9536 165.369 75.5456C167.673 74.1376 169.913 72.2496 172.089 69.8816C174.265 67.5776 176.345 65.0176 178.329 62.2016C180.313 59.3856 182.105 56.6016 183.705 53.8496C184.281 52.8256 185.017 51.5136 185.913 49.9136C186.809 48.2496 187.801 46.4576 188.889 44.5376C187.673 45.9456 186.553 47.1936 185.529 48.2816C184.505 49.3696 183.737 50.1696 183.225 50.6816C181.817 51.9616 180.473 53.0816 179.193 54.0416C177.913 54.9376 176.569 55.4496 175.161 55.5776C172.793 55.7056 171.609 54.3616 171.609 51.5456C171.609 50.0096 172.057 48.1856 172.953 46.0736C173.849 43.8976 175.193 41.6256 176.985 39.2576C178.265 37.6576 179.833 35.9616 181.689 34.1696C183.545 32.3136 185.561 30.5536 187.737 28.8896C189.977 27.2256 192.249 25.8816 194.553 24.8576C196.857 23.7696 199.097 23.2256 201.273 23.2256C202.233 23.2256 202.905 23.3856 203.289 23.7056C203.673 23.9616 203.929 24.2496 204.057 24.5696C204.121 24.8256 204.121 25.0496 204.057 25.2416C205.913 24.0256 207.641 23.4176 209.241 23.4176C209.689 23.4176 209.977 23.4816 210.105 23.6096C207.417 25.2736 205.017 27.4176 202.905 30.0416C200.857 32.6016 198.937 35.4816 197.145 38.6816C195.353 41.8816 193.561 45.1776 191.769 48.5696C190.041 51.9616 188.185 55.3216 186.201 58.6496C184.281 61.9776 182.105 65.0496 179.673 67.8656C176.793 71.1936 173.689 73.8816 170.361 75.9296C167.033 78.0416 163.897 79.0976 160.953 79.0976ZM177.369 52.6016C177.817 52.6016 178.425 52.4096 179.193 52.0256C179.961 51.5776 180.953 50.8416 182.169 49.8176C184.217 48.0256 186.297 45.8496 188.409 43.2896C190.521 40.6656 192.569 38.0736 194.553 35.5136C196.025 33.4656 197.529 31.5136 199.065 29.6576C200.665 27.8016 202.297 26.3616 203.961 25.3376C203.833 25.3376 203.769 25.3056 203.769 25.2416C203.513 25.1136 203.001 25.0496 202.233 25.0496C199.929 25.0496 197.177 26.1696 193.977 28.4096C190.841 30.5856 187.737 33.4336 184.665 36.9536C182.489 39.3856 180.697 41.7856 179.289 44.1536C177.881 46.4576 176.953 48.3776 176.505 49.9136C176.377 50.4256 176.313 50.8736 176.313 51.2576C176.313 52.1536 176.665 52.6016 177.369 52.6016Z" fill="#E0DBC7" fill-opacity="0.3"/>
<path d="M181.212 19.3854C179.932 19.3854 179.292 18.8734 179.292 17.8494C179.292 17.5294 179.388 17.1774 179.58 16.7934C179.9 16.0254 180.444 15.3534 181.212 14.7774C182.044 14.1374 182.844 13.8174 183.612 13.8174C184.828 13.8174 185.436 14.3294 185.436 15.3534C185.436 16.3134 184.988 17.2094 184.092 18.0414C183.196 18.8734 182.236 19.3214 181.212 19.3854ZM160.38 55.6734C158.652 55.6734 157.436 55.2254 156.732 54.3294C155.964 53.3694 155.58 52.1854 155.58 50.7774C155.58 48.9214 156.156 46.9374 157.308 44.8254C158.396 42.6494 159.772 40.5054 161.436 38.3934C163.1 36.2174 164.796 34.2014 166.524 32.3454C168.252 30.4254 169.756 28.8574 171.036 27.6414C172.252 26.4254 173.5 25.5294 174.78 24.9534C176.06 24.3774 177.148 23.9934 178.044 23.8014C179.004 23.5454 179.484 23.4174 179.484 23.4174C178.076 25.0174 176.156 27.2894 173.724 30.2334C171.292 33.1774 168.892 36.3134 166.524 39.6414C166.332 39.8974 165.884 40.5374 165.18 41.5614C164.476 42.5854 163.676 43.7694 162.78 45.1134C161.948 46.4574 161.212 47.7694 160.572 49.0494C159.996 50.3294 159.708 51.3534 159.708 52.1214C159.708 53.3374 160.348 53.9454 161.628 53.9454C162.588 53.9454 163.612 53.5934 164.7 52.8894C165.852 52.1854 167.004 51.3214 168.156 50.2974C169.308 49.2734 170.332 48.2814 171.228 47.3214C172.188 46.2974 172.924 45.4654 173.436 44.8254C173.692 44.8254 173.82 45.0174 173.82 45.4014C173.82 45.9774 173.692 46.4254 173.436 46.7454C171.004 49.5614 168.796 51.7694 166.812 53.3694C164.892 54.9054 162.748 55.6734 160.38 55.6734Z" fill="#E0DBC7" fill-opacity="0.3"/>
<path d="M144.245 55.7691C141.045 55.7691 139.445 54.2971 139.445 51.3531C139.445 50.3931 139.669 49.2731 140.117 47.9931C140.565 46.7131 141.397 45.0171 142.613 42.9051C144.277 40.0251 146.613 36.6331 149.621 32.7291C152.693 28.8251 155.957 25.0171 159.413 21.3051C162.421 17.9131 165.685 14.8091 169.205 11.9931C172.789 9.11314 176.501 7.12914 180.341 6.04114C180.917 5.84914 181.589 5.68914 182.357 5.56114C183.125 5.43314 183.925 5.36914 184.757 5.36914C186.293 5.36914 187.605 5.59314 188.693 6.04114C189.205 6.29714 189.717 6.64914 190.229 7.09714C190.741 7.48114 191.093 8.05714 191.285 8.82514C190.581 8.24914 189.781 7.83314 188.885 7.57714C187.989 7.25714 186.901 7.09714 185.621 7.09714C182.293 7.09714 179.093 8.18514 176.021 10.3611C172.949 12.5371 169.877 15.3531 166.805 18.8091C163.797 22.2011 160.629 25.8171 157.301 29.6571C156.021 31.1291 154.613 32.9531 153.077 35.1291C151.541 37.3051 150.069 39.4811 148.661 41.6571C147.317 43.8331 146.229 45.6891 145.397 47.2251C144.949 47.9291 144.597 48.6971 144.341 49.5291C144.149 50.2971 144.053 50.9371 144.053 51.4491C144.053 52.9851 144.629 53.7531 145.781 53.7531C146.997 53.7531 148.341 53.1771 149.813 52.0251C151.349 50.8731 152.789 49.5931 154.133 48.1851C155.541 46.7771 156.597 45.6571 157.301 44.8251C157.557 44.8251 157.685 45.0171 157.685 45.4011C157.685 45.9771 157.557 46.4251 157.301 46.7451C154.741 49.6891 152.373 51.9291 150.197 53.4651C148.085 55.0011 146.101 55.7691 144.245 55.7691Z" fill="#E0DBC7" fill-opacity="0.3"/>
<path d="M127.836 55.8651C126.684 55.8651 125.852 55.5771 125.34 55.0011C124.828 54.4251 124.572 53.6891 124.572 52.7931C124.572 52.0251 124.764 50.9371 125.148 49.5291C125.98 47.2251 127.196 44.8891 128.796 42.5211C130.396 40.0891 132.124 37.7851 133.98 35.6091C135.9 33.3691 137.724 31.3531 139.452 29.5611C141.18 27.7051 142.556 26.2011 143.58 25.0491C142.62 25.0491 141.564 25.3051 140.412 25.8171C139.324 26.3291 138.204 26.9371 137.052 27.6411C134.3 29.5611 131.516 31.8331 128.7 34.4571C125.948 37.0811 123.356 39.7691 120.924 42.5211C118.556 45.2731 116.54 47.8011 114.876 50.1051C113.212 52.4091 112.156 54.2011 111.708 55.4811C110.684 55.4811 110.172 54.8411 110.172 53.5611C110.172 52.4731 110.492 51.1291 111.132 49.5291C111.772 47.8651 112.572 46.2011 113.532 44.5371C115.708 40.8891 118.364 36.9531 121.5 32.7291C124.7 28.4411 127.996 24.4411 131.388 20.7291C134.396 17.4011 137.66 14.3931 141.18 11.7051C144.7 9.01714 148.38 7.12914 152.22 6.04114C152.796 5.84914 153.468 5.68914 154.236 5.56114C155.004 5.43314 155.804 5.36914 156.636 5.36914C158.172 5.36914 159.484 5.59314 160.572 6.04114C161.084 6.29714 161.596 6.64914 162.108 7.09714C162.62 7.48114 162.972 8.05714 163.164 8.82514C162.46 8.24914 161.66 7.83314 160.764 7.57714C159.868 7.25714 158.78 7.09714 157.5 7.09714C155.004 7.09714 152.444 7.83314 149.82 9.30514C147.26 10.7131 144.796 12.4411 142.428 14.4891C140.124 16.5371 138.076 18.5851 136.284 20.6331C134.556 22.6171 133.212 24.1851 132.252 25.3371C129.756 28.4091 127.548 31.2891 125.628 33.9771C123.772 36.6011 122.204 38.8411 120.924 40.6971C123.484 37.8811 126.268 35.0651 129.276 32.2491C132.348 29.3691 135.164 27.0971 137.724 25.4331C138.556 24.8571 139.42 24.3771 140.316 23.9931C141.212 23.6091 142.14 23.4171 143.1 23.4171C144.828 23.4171 145.692 24.0891 145.692 25.4331C145.692 26.4571 145.084 27.6731 143.868 29.0811C141.628 31.6411 139.356 34.4891 137.052 37.6251C134.748 40.6971 132.796 43.7691 131.196 46.8411C130.94 47.2891 130.492 48.1851 129.852 49.5291C129.276 50.8091 128.988 51.8971 128.988 52.7931C128.988 53.5611 129.34 53.9451 130.044 53.9451C131.516 53.9451 133.308 53.0171 135.42 51.1611C137.532 49.2411 139.58 47.1291 141.564 44.8251C141.82 44.8251 141.948 45.0171 141.948 45.4011C141.948 45.9771 141.82 46.4251 141.564 46.7451C140.668 47.7051 139.516 48.9211 138.108 50.3931C136.764 51.8011 135.228 53.0811 133.5 54.2331C131.772 55.3211 129.884 55.8651 127.836 55.8651Z" fill="#E0DBC7" fill-opacity="0.3"/>
<path d="M74.3279 79.0976C72.4079 79.0976 71.0959 78.9376 70.3919 78.6176C69.6879 78.3616 69.3359 78.1376 69.3359 77.9456C69.3359 77.6896 69.5599 77.5616 70.0079 77.5616C70.3279 77.5616 70.6479 77.5616 70.9679 77.5616C71.2879 77.6256 71.5759 77.6576 71.8319 77.6576C74.1359 77.6576 76.4399 76.9536 78.7439 75.5456C81.0479 74.1376 83.2879 72.2496 85.4639 69.8816C87.6399 67.5776 89.7199 65.0176 91.7039 62.2016C93.6879 59.3856 95.4799 56.6016 97.0799 53.8496C97.6559 52.8256 98.3919 51.5136 99.2879 49.9136C100.184 48.2496 101.176 46.4576 102.264 44.5376C101.048 45.9456 99.9279 47.1936 98.9039 48.2816C97.8799 49.3696 97.1119 50.1696 96.5999 50.6816C95.1919 51.9616 93.8479 53.0816 92.5679 54.0416C91.2879 54.9376 89.9439 55.4496 88.5359 55.5776C86.1679 55.7056 84.9839 54.3616 84.9839 51.5456C84.9839 50.0096 85.4319 48.1856 86.3279 46.0736C87.2239 43.8976 88.5679 41.6256 90.3599 39.2576C91.6399 37.6576 93.2079 35.9616 95.0639 34.1696C96.9199 32.3136 98.9359 30.5536 101.112 28.8896C103.352 27.2256 105.624 25.8816 107.928 24.8576C110.232 23.7696 112.472 23.2256 114.648 23.2256C115.608 23.2256 116.28 23.3856 116.664 23.7056C117.048 23.9616 117.304 24.2496 117.432 24.5696C117.496 24.8256 117.496 25.0496 117.432 25.2416C119.288 24.0256 121.016 23.4176 122.616 23.4176C123.064 23.4176 123.352 23.4816 123.48 23.6096C120.792 25.2736 118.392 27.4176 116.28 30.0416C114.232 32.6016 112.312 35.4816 110.52 38.6816C108.728 41.8816 106.936 45.1776 105.144 48.5696C103.416 51.9616 101.56 55.3216 99.5759 58.6496C97.6559 61.9776 95.4799 65.0496 93.0479 67.8656C90.1679 71.1936 87.0639 73.8816 83.7359 75.9296C80.4079 78.0416 77.2719 79.0976 74.3279 79.0976ZM90.7439 52.6016C91.1919 52.6016 91.7999 52.4096 92.5679 52.0256C93.3359 51.5776 94.3279 50.8416 95.5439 49.8176C97.5919 48.0256 99.6719 45.8496 101.784 43.2896C103.896 40.6656 105.944 38.0736 107.928 35.5136C109.4 33.4656 110.904 31.5136 112.44 29.6576C114.04 27.8016 115.672 26.3616 117.336 25.3376C117.208 25.3376 117.144 25.3056 117.144 25.2416C116.888 25.1136 116.376 25.0496 115.608 25.0496C113.304 25.0496 110.552 26.1696 107.352 28.4096C104.216 30.5856 101.112 33.4336 98.0399 36.9536C95.8639 39.3856 94.0719 41.7856 92.6639 44.1536C91.2559 46.4576 90.3279 48.3776 89.8799 49.9136C89.7519 50.4256 89.6879 50.8736 89.6879 51.2576C89.6879 52.1536 90.0399 52.6016 90.7439 52.6016Z" fill="#E0DBC7" fill-opacity="0.3"/>
<path d="M94.5871 19.3854C93.3071 19.3854 92.6671 18.8734 92.6671 17.8494C92.6671 17.5294 92.7631 17.1774 92.9551 16.7934C93.2751 16.0254 93.8191 15.3534 94.5871 14.7774C95.4191 14.1374 96.2191 13.8174 96.9871 13.8174C98.2031 13.8174 98.8111 14.3294 98.8111 15.3534C98.8111 16.3134 98.3631 17.2094 97.4671 18.0414C96.5711 18.8734 95.6111 19.3214 94.5871 19.3854ZM73.7551 55.6734C72.0271 55.6734 70.8111 55.2254 70.1071 54.3294C69.3391 53.3694 68.9551 52.1854 68.9551 50.7774C68.9551 48.9214 69.5311 46.9374 70.6831 44.8254C71.7711 42.6494 73.1471 40.5054 74.8111 38.3934C76.4751 36.2174 78.1711 34.2014 79.8991 32.3454C81.6271 30.4254 83.1311 28.8574 84.4111 27.6414C85.6271 26.4254 86.8751 25.5294 88.1551 24.9534C89.4351 24.3774 90.5231 23.9934 91.4191 23.8014C92.3791 23.5454 92.8591 23.4174 92.8591 23.4174C91.4511 25.0174 89.5311 27.2894 87.0991 30.2334C84.6671 33.1774 82.2671 36.3134 79.8991 39.6414C79.7071 39.8974 79.2591 40.5374 78.5551 41.5614C77.8511 42.5854 77.0511 43.7694 76.1551 45.1134C75.3231 46.4574 74.5871 47.7694 73.9471 49.0494C73.3711 50.3294 73.0831 51.3534 73.0831 52.1214C73.0831 53.3374 73.7231 53.9454 75.0031 53.9454C75.9631 53.9454 76.9871 53.5934 78.0751 52.8894C79.2271 52.1854 80.3791 51.3214 81.5311 50.2974C82.6831 49.2734 83.7071 48.2814 84.6031 47.3214C85.5631 46.2974 86.2991 45.4654 86.8111 44.8254C87.0671 44.8254 87.1951 45.0174 87.1951 45.4014C87.1951 45.9774 87.0671 46.4254 86.8111 46.7454C84.3791 49.5614 82.1711 51.7694 80.1871 53.3694C78.2671 54.9054 76.1231 55.6734 73.7551 55.6734Z" fill="#E0DBC7" fill-opacity="0.3"/>
<path d="M14.016 58.4574C11.52 58.4574 9.184 58.0734 7.008 57.3054C4.896 56.5374 3.2 55.3214 1.92 53.6574C0.64 51.9294 0 49.6894 0 46.9374C0 44.3774 0.64 41.9454 1.92 39.6414C3.264 37.2734 4.992 35.1614 7.104 33.3054C9.28 31.4494 11.68 29.9774 14.304 28.8894C16.992 27.8014 19.68 27.2574 22.368 27.2574C22.88 27.2574 23.168 27.3854 23.232 27.6414C23.296 27.8334 23.168 27.9294 22.848 27.9294C20.672 27.9294 18.4 28.4734 16.032 29.5614C13.728 30.5854 11.584 32.0254 9.6 33.8814C7.68 35.6734 6.112 37.6894 4.896 39.9294C3.68 42.1694 3.072 44.4414 3.072 46.7454C3.072 50.3294 4 52.9214 5.856 54.5214C7.776 56.0574 10.048 56.8254 12.672 56.8254C14.72 56.8254 16.832 56.4094 19.008 55.5774C21.248 54.8094 23.328 53.7214 25.248 52.3134C29.536 48.9214 33.376 45.0174 36.768 40.6014C40.16 36.1854 43.584 31.7374 47.04 27.2574C49.344 24.3774 51.52 21.5934 53.568 18.9054C55.68 16.1534 58.112 13.4974 60.864 10.9374C62.08 9.78542 63.36 8.69742 64.704 7.67342C66.112 6.64942 67.488 5.81742 68.832 5.17742C64.672 4.92142 60.288 4.53742 55.68 4.02542C51.072 3.44942 46.688 3.16142 42.528 3.16142C38.368 3.16142 34.496 3.67342 30.912 4.69742C27.392 5.65742 24.704 7.44942 22.848 10.0734C21.76 11.6094 21.216 13.1134 21.216 14.5854C21.216 15.6094 21.44 16.4414 21.888 17.0814C22.08 17.3374 22.336 17.6254 22.656 17.9454C22.976 18.2014 23.264 18.3294 23.52 18.3294C23.264 18.5854 22.944 18.7134 22.56 18.7134C22.112 18.7134 21.664 18.6174 21.216 18.4254C20.832 18.1694 20.512 17.9134 20.256 17.6574C19.616 16.9534 19.136 16.1534 18.816 15.2574C18.496 14.2974 18.336 13.3694 18.336 12.4734C18.336 10.6814 18.752 9.17742 19.584 7.96142C23.04 3.22542 28.896 0.857422 37.152 0.857422C39.008 0.857422 41.024 0.985422 43.2 1.24142C45.44 1.43342 47.808 1.72142 50.304 2.10542C51.52 2.29742 53.152 2.52142 55.2 2.77742C57.248 2.96942 59.488 3.16142 61.92 3.35342C64.416 3.48142 66.848 3.54542 69.216 3.54542C72.032 3.54542 74.528 3.38542 76.704 3.06542C78.944 2.74542 80.416 2.20142 81.12 1.43342H81.408C81.92 1.43342 82.176 1.68942 82.176 2.20142C81.984 3.09742 81.504 3.80142 80.736 4.31342C80.032 4.76142 79.264 5.01742 78.432 5.08142C77.344 5.20942 76.192 5.30542 74.976 5.36942C73.824 5.36942 72.608 5.33742 71.328 5.27342C68.704 7.44942 66.112 10.0734 63.552 13.1454C60.992 16.1534 58.368 19.5134 55.68 23.2254L51.456 28.9854H65.952C67.936 26.5534 69.984 24.1854 72.096 21.8814C74.208 19.5774 76.288 17.4014 78.336 15.3534C79.744 14.0094 81.28 12.6974 82.944 11.4174C84.608 10.1374 86.24 9.08142 87.84 8.24942C89.504 7.35342 90.944 6.90542 92.16 6.90542C91.328 7.54542 90.016 8.72942 88.224 10.4574C86.496 12.1214 84.896 13.7534 83.424 15.3534C81.44 17.4654 79.2 19.9934 76.704 22.9374C74.272 25.8814 71.84 28.8894 69.408 31.9614C67.04 35.0334 64.896 37.9134 62.976 40.6014C61.056 43.2894 59.648 45.4974 58.752 47.2254C57.728 48.9534 57.216 50.5534 57.216 52.0254C57.216 53.3694 57.76 54.0414 58.848 54.0414C59.488 54.0414 60.416 53.7214 61.632 53.0814C63.488 51.9934 65.056 50.8094 66.336 49.5294C67.616 48.1854 69.056 46.6174 70.656 44.8254C70.912 44.8254 71.04 45.0174 71.04 45.4014C71.04 45.9774 70.912 46.4254 70.656 46.7454C67.712 50.2014 65.248 52.5694 63.264 53.8494C61.344 55.0654 59.2 55.6734 56.832 55.6734C55.232 55.6734 54.112 55.3214 53.472 54.6174C52.832 53.8494 52.512 52.8894 52.512 51.7374C52.512 50.7134 52.736 49.5614 53.184 48.2814C53.632 47.0014 54.208 45.7534 54.912 44.5374C56.192 42.2974 57.664 39.9614 59.328 37.5294C61.056 35.0974 62.88 32.6974 64.8 30.3294H50.496C48.256 33.4654 45.856 36.6974 43.296 40.0254C40.736 43.2894 37.984 46.3294 35.04 49.1454C32.096 51.8974 28.864 54.1374 25.344 55.8654C21.888 57.5934 18.112 58.4574 14.016 58.4574Z" fill="#E0DBC7" fill-opacity="0.3"/>
</svg>
