<svg width="36" height="36" viewBox="0 0 36 36" fill="none" xmlns="http://www.w3.org/2000/svg">
<path d="M31.5565 11.158V20.6198C31.7864 20.846 32.3139 21.1527 32.3579 21.4794C32.2107 23.0934 32.5424 25.0221 32.3559 26.5975C32.3399 26.7312 32.1667 27.0938 32.0555 27.0938H31.025V29.584C31.025 29.8029 30.6533 29.9353 30.4628 29.9526C29.8992 30.0038 28.3312 30.0277 27.8043 29.9459C27.6551 29.9226 27.3686 29.723 27.3686 29.5846V27.0944H6.49239V29.5846C6.49239 29.8035 6.12069 29.9359 5.93018 29.9532C5.36664 30.0045 3.79859 30.0284 3.27169 29.9466C3.12248 29.9233 2.83605 29.7237 2.83605 29.5853V27.0951H1.80556C1.74294 27.0951 1.45851 26.7219 1.50514 26.5988L1.51979 21.3649C3.19109 19.7795 5.03691 18.3684 6.79214 16.8702C6.91804 15.7764 6.73686 14.5995 6.82212 13.5138C6.93669 12.0621 8.21032 10.9085 9.64781 10.8246H24.1466C25.6161 10.8646 26.9223 12.0455 27.0382 13.5138C27.0789 14.032 26.9443 16.6653 27.0689 16.8695L30.4261 19.6584V11.1593H27.8669C27.6198 11.1593 27.384 10.5911 27.5325 10.3603L29.2831 6.33257C29.3936 6.10238 29.5568 6.06512 29.792 6.04383C30.3715 5.99127 31.6904 5.9793 32.2566 6.04516C32.4118 6.06313 32.5131 6.09506 32.6223 6.21149L34.4682 10.4108C34.5881 10.631 34.3469 11.16 34.1171 11.16H31.5579L31.5565 11.158ZM28.8974 10.0955H33.086L31.7924 7.10298L30.1031 7.11629L28.8974 10.0955ZM25.9718 16.5362V13.5816C25.9718 12.901 25.0645 11.945 24.3424 11.9556L9.64781 11.9523C8.87111 11.8811 7.88858 12.8378 7.88858 13.5816V16.5362H9.55055C9.42599 15.5948 9.82833 14.6727 10.8542 14.5516C11.5023 14.4751 14.2154 14.4605 14.7656 14.6148C15.6429 14.861 15.894 15.7086 15.8001 16.5369H18.023C18.0976 16.5269 18.0496 15.9075 18.0669 15.7784C18.1628 15.0586 18.793 14.5989 19.4884 14.5417C20.3937 14.4678 21.9058 14.4778 22.8177 14.5417C23.9834 14.6228 24.4257 15.4358 24.3105 16.5362H25.9724H25.9718ZM14.7363 16.5362C14.735 16.2262 14.8076 15.8556 14.4912 15.686C13.3754 15.7312 12.1458 15.5828 11.0433 15.6693C10.5291 15.7099 10.6143 16.1211 10.615 16.5362H14.737H14.7363ZM23.246 16.5362C23.2447 16.2262 23.3173 15.8556 23.0009 15.686C21.8851 15.7312 20.6555 15.5828 19.553 15.6693C19.0388 15.7099 19.1241 16.1211 19.1247 16.5362H23.2467H23.246ZM30.227 20.985L26.3688 17.7005L7.59149 17.6659L3.63473 20.9844H30.2276L30.227 20.985ZM31.2908 22.1134H2.57027V26.0306H31.2908V22.1134ZM5.42859 27.0938H3.89918V28.8868H5.42859V27.0938ZM29.9605 27.0938H28.4311V28.8868H29.9605V27.0938Z" fill="#926D3C"/>
</svg>
