<svg width="37" height="36" viewBox="0 0 37 36" fill="none" xmlns="http://www.w3.org/2000/svg">
<path d="M32.0565 11.1521V20.6139C32.2864 20.8401 32.8139 21.1468 32.8579 21.4735C32.7107 23.0875 33.0424 25.0162 32.8559 26.5916C32.8399 26.7253 32.6667 27.0879 32.5555 27.0879H31.525V29.5781C31.525 29.797 31.1533 29.9294 30.9628 29.9467C30.3992 29.9979 28.8312 30.0219 28.3043 29.94C28.1551 29.9168 27.8686 29.7172 27.8686 29.5788V27.0886H6.99239V29.5788C6.99239 29.7977 6.62069 29.9301 6.43018 29.9474C5.86664 29.9986 4.29859 30.0225 3.77169 29.9407C3.62248 29.9174 3.33605 29.7178 3.33605 29.5795V27.0893H2.30556C2.24294 27.0893 1.95851 26.716 2.00514 26.5929L2.01979 21.3591C3.69109 19.7737 5.53691 18.3626 7.29214 16.8643C7.41804 15.7706 7.23686 14.5937 7.32212 13.5079C7.43669 12.0562 8.71032 10.9026 10.1478 10.8188H24.6466C26.1161 10.8587 27.4223 12.0396 27.5382 13.5079C27.5789 14.0262 27.4443 16.6594 27.5689 16.8637L30.9261 19.6526V11.1534H28.3669C28.1198 11.1534 27.884 10.5853 28.0325 10.3544L29.7831 6.32671C29.8936 6.09652 30.0568 6.05926 30.292 6.03797C30.8715 5.98541 32.1904 5.97344 32.7566 6.0393C32.9118 6.05727 33.0131 6.0892 33.1223 6.20563L34.9682 10.405C35.0881 10.6252 34.8469 11.1541 34.6171 11.1541H32.0579L32.0565 11.1521ZM29.3974 10.0896H33.586L32.2924 7.09712L30.6031 7.11043L29.3974 10.0896ZM26.4718 16.5303V13.5758C26.4718 12.8952 25.5645 11.9391 24.8424 11.9498L10.1478 11.9465C9.37111 11.8753 8.38858 12.832 8.38858 13.5758V16.5303H10.0506C9.92599 15.589 10.3283 14.6669 11.3542 14.5458C12.0023 14.4693 14.7154 14.4546 15.2656 14.609C16.1429 14.8551 16.394 15.7027 16.3001 16.531H18.523C18.5976 16.521 18.5496 15.9016 18.5669 15.7726C18.6628 15.0527 19.293 14.593 19.9884 14.5358C20.8937 14.4619 22.4058 14.4719 23.3177 14.5358C24.4834 14.617 24.9257 15.4299 24.8105 16.5303H26.4724H26.4718ZM15.2363 16.5303C15.235 16.2203 15.3076 15.8498 14.9912 15.6801C13.8754 15.7253 12.6458 15.577 11.5433 15.6635C11.0291 15.7041 11.1143 16.1152 11.115 16.5303H15.237H15.2363ZM23.746 16.5303C23.7447 16.2203 23.8173 15.8498 23.5009 15.6801C22.3851 15.7253 21.1555 15.577 20.053 15.6635C19.5388 15.7041 19.6241 16.1152 19.6247 16.5303H23.7467H23.746ZM30.727 20.9792L26.8688 17.6946L8.09149 17.66L4.13473 20.9785H30.7276L30.727 20.9792ZM31.7908 22.1075H3.07027V26.0248H31.7908V22.1075ZM5.92859 27.0879H4.39918V28.8809H5.92859V27.0879ZM30.4605 27.0879H28.9311V28.8809H30.4605V27.0879Z" fill="#926D3C"/>
</svg>
