<svg width="41" height="40" viewBox="0 0 41 40" fill="none" xmlns="http://www.w3.org/2000/svg">
<circle cx="20.5" cy="20" r="19.5" stroke="#926D3C"/>
<path d="M18.5 21.5C18.9295 22.0741 19.4774 22.5492 20.1066 22.8929C20.7357 23.2367 21.4315 23.4411 22.1467 23.4923C22.8618 23.5435 23.5796 23.4404 24.2513 23.1898C24.9231 22.9392 25.5331 22.5471 26.04 22.04L29.04 19.04C29.9508 18.097 30.4548 16.834 30.4434 15.523C30.432 14.212 29.9061 12.9579 28.9791 12.0309C28.0521 11.1039 26.798 10.578 25.487 10.5666C24.176 10.5552 22.913 11.0592 21.97 11.97L20.25 13.68" stroke="#926D3C" stroke-width="2" stroke-linecap="round" stroke-linejoin="round"/>
<path d="M22.5002 19.5C22.0707 18.9259 21.5228 18.4508 20.8936 18.1071C20.2645 17.7633 19.5687 17.5589 18.8535 17.5077C18.1384 17.4564 17.4206 17.5596 16.7489 17.8102C16.0771 18.0608 15.4671 18.4529 14.9602 18.96L11.9602 21.96C11.0494 22.903 10.5454 24.166 10.5568 25.477C10.5682 26.788 11.0941 28.042 12.0211 28.9691C12.9481 29.8961 14.2022 30.422 15.5132 30.4334C16.8242 30.4448 18.0872 29.9408 19.0302 29.03L20.7402 27.32" stroke="#926D3C" stroke-width="2" stroke-linecap="round" stroke-linejoin="round"/>
</svg>
