<svg width="37" height="36" viewBox="0 0 37 36" fill="none" xmlns="http://www.w3.org/2000/svg">
<path d="M16.2578 4.0791C16.0578 2.703 16.708 1.30757 18.2881 1.51465C19.5695 1.68248 19.8752 2.97917 19.752 4.07715C24.3518 4.72907 28.3577 7.85515 30.0361 12.1855C30.1536 12.4883 30.5379 13.9945 30.5967 14.0732C30.682 14.1867 30.9972 14.1172 31.1631 14.1514V14.1494C32.8815 14.5044 32.956 16.854 31.2783 17.3271L25.8633 17.3555C25.8626 17.6206 25.8908 17.8494 25.8135 18.1113C25.6657 18.6129 24.9418 19.8462 24.6494 20.3633C23.5294 22.3436 21.632 24.7452 20.0977 26.4414C19.8553 26.7096 18.8184 27.7853 18.3389 28.0957C17.8942 28.4738 17.3895 28.8757 16.8242 29.2861C16.1787 29.8548 14.0771 31.0005 13.6504 31.4014C13.5972 31.4875 13.8252 31.859 13.8184 32.0752C13.8132 32.2391 13.7014 32.508 13.6123 32.6475C13.4239 32.943 12.3841 33.9482 12.0771 34.2041C11.9333 34.3241 11.7801 34.3939 11.626 34.4932H11.1104L10.7217 34.2705L6.05078 29.5996C5.82945 29.3117 5.82559 28.7692 6.02051 28.4697C6.16956 28.2407 7.4424 26.9878 7.69434 26.7939C7.99967 26.5596 8.21455 26.5387 8.59863 26.5703C8.63026 24.4971 10.0936 22.9944 10.501 21.0322C10.7476 19.8465 10.7141 18.5632 10.8535 17.3574H4.76465C4.69816 17.3574 4.20537 17.1004 4.12012 17.0352C3.00532 16.1825 3.48048 14.4329 4.84375 14.1514C4.94897 14.1301 5.11373 14.1496 5.24219 14.1387C5.77152 12.23 6.57947 10.5526 7.65039 9.13574C7.98339 8.66147 8.32542 8.24852 8.64551 7.97168C9.19028 7.40822 9.78453 6.89873 10.4268 6.44434C10.7889 6.13256 11.3519 5.81787 11.583 5.68555C13.0282 4.85562 14.6074 4.32759 16.2578 4.0791ZM8.30664 27.5371C8.13887 27.7481 6.84041 28.917 6.86133 29.041L11.335 33.5264C11.5028 33.3153 12.8012 32.1448 12.7793 32.0215L8.30664 27.5371ZM24.8691 17.8076C24.924 17.0537 23.8851 17.4469 23.499 17.667C22.625 18.1653 21.7445 20.2564 21.0293 21.124C20.2566 22.0613 17.6517 24.1893 16.4717 24.3623C14.1201 24.7075 13.7139 21.8436 13.4932 20.1582C13.3984 19.4348 13.5202 18.3831 13.0029 17.8145C12.7841 17.5737 11.8706 17.0906 11.8135 17.5781C11.6379 19.0989 11.7024 20.6146 11.2383 22.0928C10.8922 23.1957 10.2022 24.0872 9.86719 25.167C9.6542 25.855 9.53881 26.5769 9.50977 27.2959L12.8203 30.6133C12.8377 30.6017 12.8563 30.5898 12.875 30.5801C13.2383 30.3936 13.5882 30.2027 13.9238 30.0098L16.332 28.4404C16.9632 27.9758 17.5149 27.525 17.9873 27.1094C18.097 27.0081 18.2221 26.8984 18.3447 26.79C18.6907 26.4731 18.9852 26.1818 19.2285 25.9307C19.3291 25.8185 19.428 25.7054 19.5176 25.6035C21.5993 23.2353 23.5323 20.6786 24.8691 17.8076ZM8.01074 28.6357C8.46386 27.8703 10.0054 29.4574 9.06152 29.8203C8.81113 29.9165 8.69446 29.8251 8.49316 29.6768C8.20398 29.4644 7.78551 29.0153 8.01074 28.6357ZM21.9688 17.3701C20.7695 17.4825 20.0687 18.4496 19.5439 19.4326C18.912 20.6144 17.9343 21.5613 17.0293 22.5146C16.8886 22.6631 16.7495 22.8142 16.6191 22.9717C16.5584 23.045 16.3999 23.3255 16.3281 23.3477C18.5705 22.6911 20.1551 20.6469 21.3467 18.7803C21.6494 18.3058 21.9521 17.8318 22.2549 17.3574C22.1594 17.3574 22.0636 17.3611 21.9688 17.3701ZM13.9443 17.3574C14.0412 17.6627 14.2425 17.925 14.3154 18.2432C14.4393 18.784 14.391 19.4185 14.46 19.9658C14.5858 20.9623 14.6955 22.0467 15.2666 22.8975C15.3596 22.9194 16.4874 21.7466 16.6514 21.5781C17.0082 21.2117 17.6555 20.5965 17.9385 20.2246C18.5891 19.3694 18.9153 18.1185 19.7422 17.3574H13.9443ZM30.7295 15.0986C28.7452 14.9114 26.4807 15.2371 24.457 15.1035H22.6191C22.6172 15.1042 22.6123 15.1045 22.6123 15.1045L5.15527 15.1074C4.22424 15.2348 4.2998 16.3154 5.14648 16.3936L30.9814 16.3867L30.9805 16.3857C31.8324 16.0546 31.6435 15.1845 30.7295 15.0986ZM17.9941 4.97363H17.9863C17.9528 4.97428 15.6183 4.95976 13.0098 6.14746C11.4891 6.83934 10.1704 7.80092 9.0918 9.00391C8.34557 9.83659 7.71173 10.7891 7.19531 11.8516C6.85582 12.5834 6.59022 13.3503 6.40625 14.1357H29.5996C28.2917 8.56857 23.3497 5.01263 18.083 4.96484C18.054 4.96999 18.0244 4.97361 17.9941 4.97363ZM17.9727 2.4707C17.5737 2.48749 17.2796 2.83488 17.2422 3.2041C17.2363 3.26637 17.1763 3.97883 17.2305 3.97754C17.7532 3.96268 18.2488 3.90733 18.7773 3.98926C18.753 3.98281 18.7789 3.27645 18.7764 3.20605C18.7602 2.81879 18.378 2.45397 17.9727 2.4707Z" fill="#926D3C"/>
</svg>
