<svg width="213" height="533" viewBox="0 0 213 533" fill="none" xmlns="http://www.w3.org/2000/svg">
<path d="M116.458 8.5404L116.48 9.27849L117.086 10.2919L117.715 10.6666L119.037 11.1843L120.056 11.2559L121.445 11.4983L122.387 12.0821L122.442 12.991L122.205 14.0044L121.632 14.9353L121.307 15.6458L121.61 16.0534L122.106 16.3728L122.64 16.4609L123.004 16.3563L123.279 15.7945L123.803 15.106L124.095 15.0178L124.073 15.4089L124.321 15.8936L126.023 16.7032L129.759 18.2125L131.224 18.2401L132.409 18.4163L132.756 19.0496L135.136 21.3742L135.704 21.3135L136.761 21.3686L138.04 21.1814L138.965 20.7462L139.571 20.8178L140.244 21.2694L141.026 21.6604L142.04 22.4261L142.943 23.3681L143.566 23.6765L147.318 23.043L148.155 23.5994L149.043 23.5938L150.04 23.4506L152.21 23.7426L153.974 23.671L154.133 23.4397L154.282 21.3466L154.563 20.603L154.982 20.4046L156.023 20.5534L159.819 21.7927L161.384 22.5693L162.888 23.1753L164.199 23.2413L165.07 23.6489L166.288 25.6317L166.078 26.6287L166.189 26.9978L166.315 27.6863L166.282 28.4518L166.602 28.9531L167.18 29.0137L167.919 28.865L168.729 28.5676L170.15 27.7193L170.574 27.5816L172.954 28.5454L174.007 29.1899L174.37 29.8895L174.916 30.6056L175.627 30.7101L176.64 30.0327L178.222 29.3055L180.91 29.9446L183.902 30.87L185.197 30.9801L185.241 30.5284L185.478 29.884L185.968 29.559L186.706 29.4654L187.731 29.1238L188.899 28.5621L190.117 28.3308L191.39 28.7493L192.927 29.0909L193.847 29.0854L194.288 30.4072L195.032 30.9085L195.324 32.0542L193.957 32.6491L193.153 32.7316L192.905 34.687L193.29 35.2378L194.056 35.7555L194.266 36.3558L194.42 39.2201L192.855 40.944L190.662 42.8774L179.93 49.0739L177.373 52.0648L176.398 52.7533L168.42 54.6315L162.844 56.6363L160.172 57.3635L156.833 60.839L155.252 62.238L156.514 62.6236L157.985 64.2815L157.489 65.014L155.345 66.1488L154.409 66.4957L153.902 66.314L153.423 66.4682L149.83 72.4443L146.657 76.7296L144.872 78.5914L143.042 81.3619L139.147 88.4837L139.12 90.5328L141.037 97.5775L142.139 99.4226L143.682 100.97L146.602 102.287L147.323 103.581L146.315 104.815L143.395 107.002L138.315 109.954L136.155 112.278L135.698 114.515L134.21 115.523L133.649 118.646L132.745 120.711L132.574 121.411L131.615 122.975L131.489 124.115L133.059 125.679L132.282 126.357L131.505 126.654L129.715 126.836L123.693 127.034L118.85 130.411L116.431 133.396L114.238 138.932L111.577 142.187L110.403 142.787L108.579 141.361L106.299 141.14L104.089 141.614L102.932 142.749L101.125 143.382L99.3564 142.837L95.5327 142.539L93.8303 142.594L91.1691 143.514L88.8881 142.903L85.0369 142.589L76.7007 143.321L75.6483 143.663L74.607 145.029L71.9514 147.381L67.9128 147.464L64.26 148.962L63.3453 149.92L61.8137 152.558L61.3343 154.481L61.0147 154.497L60.618 154.024L60.0561 154.178L59.764 155.643L58.3922 156.309L57.2461 156.552L54.4197 155.368L52.0615 153.588L50.8273 153.462L48.8219 150.686L47.9568 148.918L47.3453 147.001L47.4721 146.268L47.3012 145.657L45.5216 144.88L45.0863 143.118L46.3865 140.821L47.45 139.846L48.1112 139.565L46.5022 139.664L45.3397 141.14L43.8521 138.772L37.7859 134.151L38.1772 133.088L38.1111 132.515L37.0919 133.754L36.3976 134.074L33.2957 133.875L29.7254 134.443L28.7833 129.629L28.3369 127.778L28.2212 126.577L29.1413 123.801L30.1496 122.666L31.4886 120.326L33.1414 118.376L34.8879 117.913L35.6593 117.627L36.3039 116.117L36.6676 114.828L36.4031 114.702L34.3646 114.966L30.7062 109.541L30.8219 108.676L31.279 107.393L31.5822 105.768L31.6592 104.485L32.6124 103.377L34.0725 102.265L35.3011 100.678L35.9182 99.1306L36.045 97.7207L35.3508 96.7126L33.3507 96.1564L31.2846 92.1244L30.8272 89.5963L30.403 89.3319L29.1304 88.1808L27.9071 86.0106L27.7309 85.6691L28.9927 85.289L34.1938 85.2725L35.2791 84.7933L35.4444 84.6281L36.3921 82.9371L37.3837 80.1557L37.6153 78.4536L37.3012 77.7486L35.5766 76.0246L35.4996 75.5179L35.775 74.7026L36.7998 73.8324L38.1828 72.841L38.9375 71.9873L38.7558 71.3152L38.3536 70.6156L38.2873 69.9603L38.5409 69.1561L38.6346 66.4021L38.8108 65.6971L38.5409 63.1853L38.2048 61.1309L37.1083 58.465L37.3067 57.8757L37.8135 57.38L39.4719 56.4546L40.7943 54.2735L42.7172 52.4448L45.2351 50.9742L46.9982 49.3383L47.6923 48.0825L48.1828 47.7519L48.0395 47.1681L47.709 46.3199L46.7062 45.4882L45.4113 45.0145L43.9734 45.0365L43.0807 44.8657L42.8218 44.2157L42.921 42.4533L42.8438 40.7072L42.5684 39.903L41.9017 39.2972L40.585 39.4569L39.4445 38.9612L38.5794 38.8456L38.078 39.2365L35.5271 39.1209L34.4636 38.84L33.7199 38.4929L33.2461 38.6857L32.9761 39.0273L32.932 39.5615L32.7557 40.2666L31.8411 40.9055L29.753 41.5389L28.067 41.4893L26.5188 41.0376L26.023 40.7016L25.2791 40.4043L22.1332 40.7732L21.753 40.5034L20.6675 41.1588L19.0698 41.941L18.1716 41.985L17.8466 41.8198L17.7309 41.4728L17.0587 40.2555L17.235 39.6111L18.5243 37.7219L18.3811 37.2702L17.8521 36.6589L17.3783 35.7776L17.2406 35.3204L16.4196 35.2432L15.5435 35.706L12.2101 36.6589L11.4113 37.0058L9.96781 37.9202L8.50767 39.3192L7.34514 39.6111L6.94294 39.1981L6.80523 35.9152L8.57929 33.7285L9.84102 32.4067L9.25152 32.1367L7.91261 32.1754L8.00627 31.1509L8.63444 30.6552L9.24042 29.537L8.52969 29.0578L7.97331 28.3197L8.00627 26.3919L8.16062 25.6097L7.97886 24.7615L5.25144 25.9072L4.5518 25.7365L4.52423 24.3043L6.0338 22.1176L6.18816 21.4458L4.41947 21.1207L3.09721 20.0466L2.29283 19.0827L1.43328 17.7002L1.42773 16.4555L2.3204 13.5416L3.59306 12.6934L4.69506 12.1702L7.02567 10.1487L10.2377 10.5234L12.2268 10.0882L14.0119 9.05274L15.0366 8.82128L16.684 7.91796L16.6289 6.69527L16.0614 5.7864L16.5573 4.93266L18.4031 3.88613L20.4526 2.4982L22.8052 2.22824L25.1965 1L26.7997 1.79305L28.2048 1.52327L29.8191 2.46508L31.9403 4.61867L35.0478 5.4835L37.527 4.80592L41.9072 4.66271L44.0946 4.94913L47.9844 4.41494L50.2102 4.60774L53.8191 3.53919L56.6125 4.87215L62.0286 5.49442L65.2792 6.585L74.282 8.41366L77.5327 8.43585L82.1332 7.40579L84.0837 6.63458L85.8688 7.09179L88.4859 6.20494L89.7421 6.38682L91.3785 7.64817L97.136 9.3501L98.6457 7.90704L99.7696 7.59304L103.913 8.47434L108.089 10.2699L110.26 10.3966L113.434 9.90648L115.951 8.72766L116.458 8.5404ZM210.591 82.0284L210.31 82.2597L205.555 79.9408L204.001 79.682L203.621 79.3293L203.665 78.1231L203.786 77.5889L206.971 77.3465L209.544 78.2058L210.927 80.5191L211.032 80.9158L210.591 82.0284ZM192.833 83.0638L194.315 83.7303L195.88 83.1299L196.712 83.3171L197.533 83.6422L197.731 84.9089L197.004 86.3191L195.985 87.7512L195.125 89.321L194.376 91.1221L192.982 92.1851L191.72 92.824L189.054 91.4855L187.5 91.1497L187.037 90.6484L186.668 88.6545L185.968 88.021L184.938 87.7401L184.034 88.2524L182.855 89.3044L182.227 88.2524L181.23 88.0541L180.855 87.4207L180.872 86.6055L187.268 81.764L189.12 80.6898L193.048 79.4396L193.649 79.6268L193.136 80.3649L193.175 80.7009L193.665 81.059L193.55 81.6317L193.054 82.1275L192.833 83.0638ZM166.541 100.414L165.979 101.631L163.627 101.202L163.109 100.712L163.616 99.3345L164.293 99.1693L164.337 98.1888L165.048 97.203L168.387 96.4042L169.142 97.0762L169.302 98.0401L167.307 100.144L166.541 100.414ZM168.844 105.289L168.497 105.548L167.472 105.311H165.935L165.874 104.512L166.111 103.956L166.409 103.388L167.346 104.501L168.828 104.71L168.844 105.289Z" fill="white" fillOpacity="0.2" stroke="white" strokeWidth="0.5"/>
</svg>
