<svg width="34" height="51" viewBox="0 0 34 51" fill="none" xmlns="http://www.w3.org/2000/svg">
<path d="M28.3487 28.9853L19.5979 37.7845C18.8227 38.5619 17.7747 38.9981 16.6824 38.9981C15.59 38.9981 14.542 38.5619 13.7668 37.7845L5.01358 28.9853C3.48217 27.4484 2.26681 25.6207 1.43746 23.6074C0.608115 21.5942 0.181152 19.4351 0.181152 17.2545C0.181152 15.0739 0.608115 12.9148 1.43746 10.9016C2.26681 8.88832 3.48217 7.06062 5.01358 5.52368C8.11485 2.41135 12.309 0.664551 16.6807 0.664551C21.0524 0.664551 25.2466 2.41135 28.3479 5.52368C29.8793 7.06062 31.0947 8.88832 31.924 10.9016C32.7534 12.9148 33.1803 15.0739 33.1803 17.2545C33.1803 19.4351 32.7534 21.5942 31.924 23.6074C31.0947 25.6207 29.8801 27.4484 28.3487 28.9853Z" fill="white"/>
<path d="M16.6819 30.6642C23.9721 30.6642 29.8819 24.6947 29.8819 17.3309C29.8819 9.96709 23.9721 3.99756 16.6819 3.99756C9.39173 3.99756 3.48189 9.96709 3.48189 17.3309C3.48189 24.6947 9.39173 30.6642 16.6819 30.6642Z" fill="#BDA05E"/>
<path d="M10.8478 20.3314V18.7447C10.8478 17.3314 10.1612 16.6647 10.1812 14.998C10.2012 13.1847 11.1745 10.998 13.1812 10.998C14.4278 10.998 14.8478 12.198 14.8478 13.3314C14.8478 15.4047 13.5145 17.1047 13.5145 19.118V20.3314C13.5145 20.685 13.374 21.0241 13.124 21.2742C12.8739 21.5242 12.5348 21.6647 12.1812 21.6647C11.8275 21.6647 11.4884 21.5242 11.2383 21.2742C10.9883 21.0241 10.8478 20.685 10.8478 20.3314Z" stroke="white" stroke-width="1.33333" stroke-linecap="round" stroke-linejoin="round"/>
<path d="M21.5145 22.9979V21.4112C21.5145 19.9979 22.2012 19.3312 22.1812 17.6646C22.1612 15.8512 21.1878 13.6646 19.1812 13.6646C17.9345 13.6646 17.5145 14.8646 17.5145 15.9979C17.5145 18.0712 18.8478 19.7712 18.8478 21.7846V22.9979C18.8478 23.3515 18.9883 23.6906 19.2383 23.9407C19.4884 24.1907 19.8275 24.3312 20.1812 24.3312C20.5348 24.3312 20.8739 24.1907 21.124 23.9407C21.374 23.6906 21.5145 23.3515 21.5145 22.9979Z" stroke="white" stroke-width="1.33333" stroke-linecap="round" stroke-linejoin="round"/>
<path d="M18.8478 20.998H21.5145" stroke="white" stroke-width="1.33333" stroke-linecap="round" stroke-linejoin="round"/>
<path d="M10.8478 18.3311H13.5145" stroke="white" stroke-width="1.33333" stroke-linecap="round" stroke-linejoin="round"/>
<path d="M16.6819 50.6644C20.327 50.6644 23.2819 47.6796 23.2819 43.9977C23.2819 40.3158 20.327 37.3311 16.6819 37.3311C13.0368 37.3311 10.0819 40.3158 10.0819 43.9977C10.0819 47.6796 13.0368 50.6644 16.6819 50.6644Z" fill="white" fillOpacity="0.3"/>
<path d="M16.6819 47.3312C18.5044 47.3312 19.9819 45.8388 19.9819 43.9979C19.9819 42.1569 18.5044 40.6646 16.6819 40.6646C14.8593 40.6646 13.3819 42.1569 13.3819 43.9979C13.3819 45.8388 14.8593 47.3312 16.6819 47.3312Z" fill="white"/>
</svg>
