<svg width="52" height="51" viewBox="0 0 52 51" fill="none" xmlns="http://www.w3.org/2000/svg">
<g clip-path="url(#clip0_396_1278)">
<path d="M37.3487 28.9853L28.5979 37.7845C27.8227 38.5619 26.7747 38.9981 25.6824 38.9981C24.59 38.9981 23.542 38.5619 22.7668 37.7845L14.0136 28.9853C12.4822 27.4484 11.2668 25.6207 10.4375 23.6074C9.60811 21.5942 9.18115 19.4351 9.18115 17.2545C9.18115 15.0739 9.60811 12.9148 10.4375 10.9016C11.2668 8.88832 12.4822 7.06062 14.0136 5.52368C17.1148 2.41135 21.309 0.664551 25.6807 0.664551C30.0524 0.664551 34.2466 2.41135 37.3479 5.52368C38.8793 7.06062 40.0947 8.88832 40.924 10.9016C41.7534 12.9148 42.1803 15.0739 42.1803 17.2545C42.1803 19.4351 41.7534 21.5942 40.924 23.6074C40.0947 25.6207 38.8801 27.4484 37.3487 28.9853Z" fill="white"/>
<path d="M25.6819 30.6642C32.9721 30.6642 38.8819 24.6947 38.8819 17.3309C38.8819 9.96709 32.9721 3.99756 25.6819 3.99756C18.3917 3.99756 12.4819 9.96709 12.4819 17.3309C12.4819 24.6947 18.3917 30.6642 25.6819 30.6642Z" fill="#BDA05E"/>
<path d="M19.8478 20.3314V18.7447C19.8478 17.3314 19.1612 16.6647 19.1812 14.998C19.2012 13.1847 20.1745 10.998 22.1812 10.998C23.4278 10.998 23.8478 12.198 23.8478 13.3314C23.8478 15.4047 22.5145 17.1047 22.5145 19.118V20.3314C22.5145 20.685 22.374 21.0241 22.124 21.2742C21.8739 21.5242 21.5348 21.6647 21.1812 21.6647C20.8275 21.6647 20.4884 21.5242 20.2383 21.2742C19.9883 21.0241 19.8478 20.685 19.8478 20.3314Z" stroke="white" stroke-width="1.33333" stroke-linecap="round" stroke-linejoin="round"/>
<path d="M30.5145 22.9979V21.4112C30.5145 19.9979 31.2012 19.3312 31.1812 17.6646C31.1612 15.8512 30.1878 13.6646 28.1812 13.6646C26.9345 13.6646 26.5145 14.8646 26.5145 15.9979C26.5145 18.0712 27.8478 19.7712 27.8478 21.7846V22.9979C27.8478 23.3515 27.9883 23.6906 28.2383 23.9407C28.4884 24.1907 28.8275 24.3312 29.1812 24.3312C29.5348 24.3312 29.8739 24.1907 30.124 23.9407C30.374 23.6906 30.5145 23.3515 30.5145 22.9979Z" stroke="white" stroke-width="1.33333" stroke-linecap="round" stroke-linejoin="round"/>
<path d="M27.8478 20.998H30.5145" stroke="white" stroke-width="1.33333" stroke-linecap="round" stroke-linejoin="round"/>
<path d="M19.8478 18.3311H22.5145" stroke="white" stroke-width="1.33333" stroke-linecap="round" stroke-linejoin="round"/>
<path d="M25.6819 50.6644C29.327 50.6644 32.2819 47.6796 32.2819 43.9977C32.2819 40.3158 29.327 37.3311 25.6819 37.3311C22.0368 37.3311 19.0819 40.3158 19.0819 43.9977C19.0819 47.6796 22.0368 50.6644 25.6819 50.6644Z" fill="white" fill-opacity="0.3"/>
<path d="M25.6819 47.3312C27.5044 47.3312 28.9819 45.8388 28.9819 43.9979C28.9819 42.1569 27.5044 40.6646 25.6819 40.6646C23.8593 40.6646 22.3819 42.1569 22.3819 43.9979C22.3819 45.8388 23.8593 47.3312 25.6819 47.3312Z" fill="white"/>
</g>
<defs>
<clipPath id="clip0_396_1278">
<rect width="50.9992" height="50" fill="white" transform="translate(0.181152 0.664551)"/>
</clipPath>
</defs>
</svg>
