<svg width="183" height="533" viewBox="0 0 183 533" fill="none" xmlns="http://www.w3.org/2000/svg">
<path d="M92.8182 2.49222L94.4635 3.15672L99.9114 6.1847L103.681 9.59429L105.774 13.3739L108.606 16.2931L112.18 18.3628L115.013 21.162L117.105 24.6913L120.036 26.6738L123.795 27.0987L126.17 28.3077L127.173 30.3012L129.221 32.0982L132.305 33.7104L137.088 34.5927L146.262 34.8107L147.079 34.8543L149.15 35.3552L151.568 34.7236L154.522 33.4708L155.469 32.7192L158.564 28.6019L160.274 28.9612L163.674 28.4602L165.734 27.5451H165.886L165.755 28.6019L165.526 30.4428L163.859 31.7389L165.548 34.7343L167.161 39.5925L166.256 41.9889L167.357 43.8515L170.451 45.1914L170.735 45.725L169.787 46.2804L169.002 47.8601L168.915 50.7355L171.617 53.4586L177.109 56.0076L178.863 56.4324L179.538 57.4127L180.453 58.0556L180.999 58.8398L181.031 59.8526L180.628 60.5497L178.024 60.7894L175.06 60.7678L172.946 59.5369L172.75 60.441L172.718 61.4649L170.669 62.0858L171.803 69.1334L171.344 71.1591L170.593 71.8456L169.895 71.5623L169.035 71.4862L168.61 72.1504L168.97 73.6536L166.954 73.8281L163.75 73.0546L162.279 71.693L162.029 70.3098L162.007 69.0134L160.983 66.8892L158.433 64.689L153.105 64.3296L151.133 63.6326L149.095 62.8374L146.873 62.2381L144.824 62.2926L142.351 62.881L138.036 61.9113L136.576 63.2077L134.309 64.6999L132.425 64.6674L128.677 61.2036L127.554 60.9855L124.275 62.7503L122.934 62.8481L121.91 62.2926L117.476 60.9639L115.47 60.6807L113.999 61.3123L111.396 60.6371L105.076 56.0947L101.164 59.5478L93.2106 58.6872L90.8457 61.051L88.1437 65.5277L85.9537 67.6628L84.0471 66.9002L81.7913 64.9286L77.847 59.8636L75.8532 58.9488L73.5649 58.7307L71.5711 59.2972L70.5037 60.321L69.6864 67.7173L68.9669 74.22L68.9236 78.1086L73.3035 81.7034L78.4795 87.8793L80.1354 88.5874L80.9633 90.6025L82.173 95.7985L83.535 101.626L86.1606 105.482L88.5254 108.227L91.4123 110.645L95.0407 114.425L98.0048 118.575L98.7888 120.1L104.553 125.568L110.143 131.134L115.133 133.084L115.917 134.108L115.961 138.378L116.506 139.979L119.84 144.445L126.65 150.97L127.434 152.473L127.663 153.584L127.228 154.433L125.441 155.327L123.98 154.335L117.639 147.974L111.505 143.955L104.586 136.373L95.324 133.367L89.0155 130.034L85.1909 130.535L80.9746 131.581L78.3704 131.613L76.5183 131.014L75.2102 128.945L75.4063 127.343L75.1776 125.263L71.484 121.919L66.4391 118.738L61.6668 114.621L52.0784 103.467L50.1498 99.8613L52.0352 99.1752L53.4623 99.2403L55.075 98.4997L57.6899 98.4887L60.7843 99.2187L58.0497 96.8223L54.6387 94.4695L45.8131 85.102L43.1763 80.6576L42.8717 75.8648L43.5254 69.2856L41.9347 64.5583L35.1247 58.4259L32.6295 55.1908L27.6066 53.2628L25.3508 53.448L24.0001 55.8444L23.0192 61.1597L18.5628 68.1527L17.0811 71.1811L14.7495 75.1132L12.7225 75.3855L11.5348 75.0371L7.91765 68.4144L4.46348 63.3819L3.98399 60.9965L3.6681 58.0556L1.03125 47.1956L2.88336 45.6704L4.02788 47.4133L12.0801 49.5155L13.8231 48.5897L14.8799 47.163V46.2588L15.5662 45.9972L18.3992 47.3698L20.7095 47.054L24.4357 46.9885L27.0945 47.2172L28.8595 46.1608L31.235 42.2721L32.1175 40.0935L33.1848 39.5706L33.8825 39.8322L34.3945 41.6293L35.6475 43.307L38.2191 46.0407L40.0387 47.3588L41.6839 47.8272L43.2966 46.7272L44.9632 46.4114L49.7361 48.5462L53.7676 48.9494L56.7422 47.8381L56.3499 46.3024L55.2599 44.5921L55.0311 42.9366L55.2273 41.4986L57.2756 40.0719L57.1778 39.44L54.7046 36.9239L54.8243 36.2704L60.2396 33.4272L65.4588 31.8369L66.2974 30.606L66.7769 28.7544L67.0057 25.2797L66.7224 22.4365L64.6089 19.7679L64.4779 18.4173L64.9793 17.0122L65.8073 15.7377L67.8995 15.1928L70.3508 14.278L72.2907 13.2213L74.9056 12.35L76.9645 11.1301L78.9802 8.22174L80.2006 7.7424L83.8941 8.15626L84.6902 7.43757L84.1774 3.25478L84.8425 2.18706L86.1499 1.58804L86.7598 1L90.0177 1.4574L92.8182 2.49222ZM40.6598 68.9808L36.8897 69.9066L35.0922 68.2508L34.6233 66.8892L31.5183 66.4538L29.6442 64.5693L29.2625 63.7306L31.9213 61.65L33.3378 58.2843L35.1354 60.3104L37.3147 64.1119L38.4805 65.1683L40.6598 68.9808ZM30.7987 82.5966L30.5593 84.2523L28.7072 82.1498L27.7695 78.3812L25.4273 72.2704L25.122 70.5491L26.3317 68.8502L26.2659 67.1183L24.6099 61.7371L25.9939 60.8549L26.8218 60.7458L27.1597 64.4822L27.9111 66.628L30.1669 69.264L29.7094 73.61L30.1669 79.7863L30.6245 81.1585L30.7987 82.5966ZM41.3022 78.3593L42.0763 80.2547L39.1994 78.5444L36.6171 77.8909L36.0724 76.6054L36.4428 75.549L36.9988 74.5252L38.9487 74.6668L39.2433 75.6687L41.3022 78.3593ZM52.22 96.452L51.436 97.5849L49.4528 95.5043L47.6333 94.0227L46.3365 92.2583L43.7868 90.058L42.9262 87.5419L39.1236 82.4005L38.557 81.0063L40.4523 83.0866L42.0324 84.394L43.3399 84.7097L46.6524 87.9884L49.9104 92.1928L53.7888 95.842L52.9828 95.9507L52.22 96.452ZM52.2313 114L52.6669 114.621L52.623 115.046L51.0323 114.446L50.6073 114.643L43.1224 105.395L42.3157 103.587L44.9965 105.743L52.2313 114ZM53.5168 108.074L53.9963 109.567L50.1824 106.756L48.7333 104.872L48.4719 104.022L53.5168 108.074ZM57.8096 111.821L59.8253 114.969L57.8967 114.316L55.8923 112.377L54.7152 110.264L57.8096 111.821ZM101.045 141.406L96.2178 141.515L92.0228 140.752L89.9745 139.456L90.1268 138.356L90.7586 136.526L95.4331 136.744L102.548 138.04L104.291 139.554L103.747 140.251L101.045 141.406ZM113.542 147.462L111.406 147.898L97.7973 147.571L93.8423 146.7L89.4405 144.467L88.5467 143.78L92.9705 143.127L97.089 143.78L98.3532 145.403L109.478 146.7L113.542 147.462ZM128.023 156.993L130.245 156.231L132.13 156.786L133.329 159.161L135.693 160.729L139.54 163.474L141.969 165.576L147.472 169.345L148.779 169.868L151.525 170.99L151.58 172.515L152.756 174.247L153.998 176.24L148.354 172.319L143.092 167.929L132.795 161.154L125.495 159.509L115.503 154.052L108.998 152.113L111.483 151.667L114.337 151.656L129.744 158.943L128.023 156.993ZM96.9367 152.854L102.591 154.02L106.732 153.486L110.48 154.205L112.812 155.523L113.368 156.176L110.35 156.263L106.928 155.729L103.05 157.069L99.6281 156.361L98.3313 155.479L97.4162 154.39L96.9367 152.854ZM126.203 162.309L130.376 165.152L118.14 161.415L119.524 161.078L120.821 161.002L126.203 162.309Z" fill="white" fillOpacity="0.2" stroke="white" strokeWidth="0.5"/>
</svg>
