<svg width="20" height="14" viewBox="0 0 20 14" fill="none" xmlns="http://www.w3.org/2000/svg">
<path d="M4.22961 14C2.98087 14 1.95368 13.6274 1.14804 12.8823C0.382679 12.098 0 11.098 0 9.88235C0 8.35294 0.644512 6.68627 1.93353 4.88235C3.26284 3.03922 5.01511 1.41177 7.19033 0L8.09668 0.882352C7.25075 1.7451 6.5861 2.54902 6.10272 3.29412C5.61934 4.03921 5.37764 4.64706 5.37764 5.11765C5.37764 5.39216 5.45821 5.64706 5.61933 5.88235C5.82074 6.11765 6.10272 6.37255 6.46526 6.64706C7.0292 7.07843 7.47231 7.52941 7.79456 8C8.11682 8.47059 8.27794 9.09804 8.27794 9.88235C8.27794 11.098 7.89527 12.098 7.12991 12.8823C6.36455 13.6274 5.39778 14 4.22961 14ZM15.9517 14C14.7029 14 13.6757 13.6274 12.8701 12.8823C12.1047 12.098 11.7221 11.098 11.7221 9.88235C11.7221 8.35294 12.3666 6.68627 13.6556 4.88235C14.9849 3.03922 16.7372 1.41177 18.9124 0L19.8187 0.882352C18.9728 1.7451 18.3082 2.54902 17.8248 3.29412C17.3414 4.03921 17.0997 4.64706 17.0997 5.11765C17.0997 5.39216 17.1803 5.64706 17.3414 5.88235C17.5428 6.11765 17.8248 6.37255 18.1873 6.64706C18.7513 7.07843 19.1944 7.52941 19.5166 8C19.8389 8.47059 20 9.09804 20 9.88235C20 11.098 19.6173 12.098 18.852 12.8823C18.0866 13.6274 17.1198 14 15.9517 14Z" fill="#383841"/>
</svg>
