<svg width="182" height="533" viewBox="0 0 182 533" fill="none" xmlns="http://www.w3.org/2000/svg">
<path d="M108.338 13.3005L108.03 14.5559L107.386 14.8684L106.261 15.6011L104.974 16.6033L103.773 17.7294L103.449 18.9524L103.778 19.7499L104.103 20.0246L104.541 19.7821L105.179 19.933L105.98 20.3694L107.316 20.7951L107.354 21.2152L107.072 21.7541L106.034 22.7077L105.098 23.7854L105.006 24.4426L105.12 24.9222L105.444 25.2131L106.829 25.0838L107.034 25.4771L106.358 28.2411L106.569 28.7099L107.786 29.1517L108.674 29.8143L110.334 31.56L110.994 32.9716L110.539 33.4458L109.496 33.6775L108.646 33.5589L109.609 32.7077L107.256 29.6042L106.191 29.6096L104.779 30.9242L100.852 29.5935L100.1 30.1322L99.5431 31.1828L98.1804 32.4867L96.2493 33.0579L94.0967 34.4911L91.8304 35.5039L90.0995 36.269L89.1043 36.1343L90.6837 34.4802L90.013 34.448L87.9144 35.6171L86.7081 36.6031L86.3187 38.2625L85.9671 40.9888L86.8867 41.7108L88.4985 45.299L90.4834 46.8294L90.0995 48.2894L89.5748 49.4424L88.3741 50.4391L87.3789 49.701L86.7677 49.7172L86.308 52.0502L87.168 58.2516L88.5525 62.5834L89.9263 64.4692L93.0256 67.3948L96.3034 68.9358L102.199 73.8441L105.434 75.3957L106.283 76.2363L108.241 80.0024L109.934 84.3396L111.757 91.1176L113.055 94.4419L115.673 98.1919L121.103 103.537L126.041 107.432L130.639 109.835L134.225 110.255L142.711 109.727L144.188 109.954L145.756 110.6L146.13 112.265L145.556 113.386L143.771 114.55L141.954 116.16L141.754 118.353L143.452 119.894L151.641 123.973L160.014 127.373L162.621 129.102L165.644 131.791L172.941 135.476L174.174 137.265L178.61 141.106L180.616 144.064L181 146.354L180.043 148.676L179.599 150.309L178.848 151.92L176.96 151.311L174.812 149.652L171.578 142.895L165.677 142.211L164.455 141.71L162.356 140.546L162.232 139.776L161.712 138.817L161.177 138.493L158.921 138.278L157.358 139.377L155.519 141.979L153.431 145.713L151.311 151.171L151.192 153.369L152.344 155.497L155.784 156.683L158.44 158.574L160.192 160.546L160.317 165.293L161.101 167.981L159.949 169.506L157.715 169.113L154.74 170.082L152.631 171.817L151.755 173.466L151.982 177.733L151.549 179.355L147.552 182.415L145.453 185.54L144.929 186.833L144.128 188.299L139.082 188.353L137.887 186.537L137.843 183.838L138.709 182.173L140.564 181.391L141.813 177.922L141.418 175.411L142.149 174.296L142.836 173.509L144.247 173.046L146.243 172.604L146.443 169.086L144.886 167.485L144.339 165.239L143.614 161.079L141.045 155.751L139.671 150.982L138.595 148.622L136.962 147.389L134.014 147.405L132.548 147.055L127.334 143.725L126.972 143.218L127.004 142.329L127.869 140.988L127.285 139.172L126.668 137.453L125.646 135.988L124.527 135.223L122.179 135.692L121.357 136.053L119.875 135.929L118.712 136.581L118.063 136.602L119.891 134.021L119.399 133.412L117.593 132.351L115.137 132.189L114.455 132.06L114.055 132.723L113.579 132.362L113.628 131.209L110.777 126.026L108.863 123.908L107.894 123.531L106.147 123.978L103.221 123.052L101.474 122.847L100.511 123.073L99.0727 123.747L98.3481 123.299L98.0939 122.604L95.438 120.444L92.1224 119.221L85.6697 112.308L83.6901 109.717L79.6173 106.856L77.0426 102.675L74.9331 101.139L71.8663 99.9053L71.1577 100.061L70.2383 100.525L69.5135 100.59L68.9402 100.045L69.5242 99.485L70.1787 99.2318L69.9245 97.6261L66.4304 93.456L64.386 92.109L63.8073 91.2794L63.3799 90.1423L62.9418 89.3936L61.9735 88.9624L61.1461 89.0379L60.0048 88.7523L60.0426 86.7373L60.2698 85.191L60.0968 83.8763L58.9826 80.4118L57.0569 77.4701L55.9211 70.4066L55.045 68.4077L52.9138 66.8938L48.1054 65.1912L41.4039 60.606L39.9867 60.5253L35.9571 58.7365L33.4582 58.4294L30.2131 60.035L26.27 64.4422L23.0734 69.0058L21.9105 69.8895L17.7836 71.4411L14.138 72.1793L14.1002 71.0154L13.9702 70.1373L14.5869 69.1727L15.6037 68.0359L16.5395 66.6028L16.9289 65.5684L16.745 64.8786L16.3231 63.8549L15.7498 63.7796L12.2773 64.6417L11.4822 64.4207L8.91301 63.0792L6.14918 61.4305L5.13222 60.2558L4.74828 59.0705L5.03499 58.3054L4.8077 57.5619L4.26695 56.5599L4.75372 55.4229L5.61371 54.0058L6.04634 53.0415L6.77114 52.7937L7.11728 52.2064L6.53856 49.8572L6.23567 49.4801L5.738 49.1892L4.96996 49.1568L3.62865 48.6719L2.67672 47.8583L2.47122 46.7593L1.9681 45.7032L1.10812 44.7334L1 43.6719L1.979 43.1117L3.31486 43.0902L4.25606 43.3001L6.36558 41.5923L7.14435 41.4415L7.84208 41.075L8.42624 38.7367L8.87521 38.0362L8.98333 37.6268L8.56687 37.1365L6.86308 35.4878L6.08431 33.7637L4.85639 31.8294L3.71514 30.9727L3.48257 30.3046L3.45549 29.4587L3.68807 28.7099L5.75434 27.5461L6.97664 26.3068L7.50138 26.781L8.61557 27.2874L11.639 26.5978L13.516 25.9028L14.8357 25.17L15.6524 25.2994L18.6165 26.393L19.5955 25.838L21.7319 24.3564L22.0511 23.5752L23.7386 21.2045L23.7711 20.6281L23.0788 19.1356L23.2951 18.8069L25.3613 17.2768L26.3727 15.9189L27.4707 15.0085L28.2603 14.987L28.4767 15.2994L28.5687 15.9352L28.4984 18.5537L28.8013 19.3564L30.424 21.2315L31.5814 22.2983L34.2697 23.031L34.394 23.3812L33.653 24.7875L35.281 26.4684L35.5732 27.6969L36.3251 28.3866L37.3851 28.0471L37.7312 27.3951L37.3148 26.2583L37.0064 25.0677L37.066 24.3779L37.358 23.5859L38.099 22.476L40.1111 19.933L40.8359 18.4621L40.9657 16.183L40.9711 14.3511L41.6418 13.9039L43.0861 14.2326L43.5187 14.1949L43.7135 15.3209L44.33 17.1151L45.0548 18.0418L45.8283 18.2628L46.737 18.2681L48.987 17.1743L50.4529 16.7003L51.2858 16.8295L51.778 17.5731L52.8273 19.5289L53.4277 19.7499L54.1525 19.5235L54.4067 19.1895L54.1741 18.4351L53.8658 16.8026L53.4439 15.5365L52.8922 14.9437L52.7787 14.1734L53.1248 12.7834L53.5196 11.6196L54.2877 11.3016L55.1693 11.1562L56.3321 12.3899L57.7114 12.7779L58.7391 12.7133L58.9175 11.9966L58.8527 11.21L58.2414 10.1971L58.3605 8.66155L59.0691 5.79513L59.4748 6.01611L61 6.04308L62.6605 6.20471L63.7315 7.37377L64.7808 7.7725L66.2736 7.89648L67.2743 7.73485L67.761 7.29304L68.3397 5.92453L69.4107 4.22733L71.0874 3.35457L73.9541 3.19277L75.3875 2.87494L76.8749 2.89105L77.9945 3.15512L79.1521 3.12273L82.0944 1.93755L85.1287 1L85.5507 1.1562L85.6155 1.46878L85.0693 2.19077L84.5391 3.14969L84.8962 4.24345L86.6216 6.43638L87.5628 8.11204L88.4498 9.36742L89.8291 10.0301L91.641 10.4342L93.1771 10.5796L94.7835 11.0538L100.295 12.223L103.07 12.5463L105.174 12.5948L108.338 13.3005ZM89.8994 69.3398L90.3482 68.2623L90.1805 67.4918L89.2286 67.648L88.558 68.6502L89.0069 69.496L89.8994 69.3398ZM89.2015 110.546L89.1908 110.385L89.0773 110.401L89.0286 110.498L89.0773 110.562L89.2015 110.546ZM58.1766 90.9668L58.6797 91.7642L58.7391 92.2276L58.3984 92.7556L58.5391 93.9409L57.2679 92.9548L55.3479 93.4506L54.1687 93.3429L53.8441 92.4593L54.1145 91.942L55.9428 91.8289L56.5107 91.5756L57.6249 91.6942L58.1766 90.9668ZM46.5854 130.95L47.3482 132.222L49.052 137.426L49.2143 138.547L48.8734 139.695L48.4408 140.508L46.7477 143.116L46.9966 145.266L47.624 146.597L47.716 148.067L47.4022 149.889L46.3529 161.036L45.8445 163.003L45.5254 164.7L44.368 165.217L42.8751 164.673L40.9927 163.714L40.122 163.773L39.2457 164.102L38.5263 163.822L37.8395 163.277L37.3257 167.081L36.4764 168.622L35.1836 169.608L33.9668 169.667L32.7118 169.339H31.6518L30.8459 168.612L30.2076 167.329L29.1908 165.772L28.1577 163.924L28.0441 162.248L27.8655 158.547L28.1631 157.739L28.5958 156.963L28.8067 155.303L28.6606 153.854L28.9635 153.337L29.564 153.854L30.0128 153.66L29.9858 152.911L30.1211 151.548L29.3313 150.406L27.9954 150.018L27.8655 148.822L28.0061 147.653L28.7093 146.866L28.9473 145.821L28.9528 142.626L28.0116 141.446L27.6493 139.657L27.1625 138.515L26.2862 137.362L25.291 136.424L24.6798 135.519L24.5446 133.149L24.8907 131.166L25.2045 130.314L25.5236 130.438L26.508 131.424L27.3139 131.645L28.9095 131.882L30.478 131.564L32.4036 130.665L34.2588 129.576L36.947 126.37L38.6021 125.719L39.4512 124.873L39.7434 123.73L40.4465 123.434L41.274 124.544L42.3017 124.663L43.8865 125.579L44.568 126.451L45.1522 127.502L45.7147 127.965L46.3151 128.229L46.4016 128.477L45.9257 128.725L45.3793 129.926L45.6877 130.271L46.5854 130.95ZM26.1564 127.804L25.6533 128.714L24.9394 128.65L25.2207 127.976L25.8806 126.624L26.681 126.171L27.038 126.575L26.6594 127.351L26.1564 127.804ZM111.957 134.463L111.281 134.636L110.886 134.398L110.669 134.097L110.934 133.348L112.313 133.795L112.297 134.215L111.957 134.463ZM29.088 166.618L28.2118 168.536L27.2977 167.178L27.2597 166.014L27.3842 165.681L28.5093 166.171L29.088 166.618ZM136.826 182.954L135.799 185.131L135.296 185.966L131.634 191.273L131.212 192.496L130.952 193.827L130.574 194.991L130.065 196.084L129.584 197.474L129.676 199.048L129.849 199.818L130.292 200.325L131.017 200.799L131.574 201.531L130.72 202.194L131.655 203.525L132.456 204.311L132.564 205.098L132.548 205.885L130.888 207.361L130.238 208.175L129.838 209.161L129.665 210.174L129.844 211.09L129.79 212L128.118 211.887L126.409 211.327L124.683 211.569L122.228 210.513L121.336 210.324L120.524 209.91L118.485 206.634L116.841 205.249L115.077 204.166L113.276 204.101L111.475 204.225L109.885 203.557L106.645 201.321L103.211 199.527L101.756 198.363L101.09 197.577L100.311 197.054L98.3481 196.537L96.5793 195.319L95.7787 195.233L94.0533 195.378L93.1662 195.292L92.2739 194.861L90.5537 193.433L89.4505 191.451L89.1637 190.572L89.9427 188.304L90.8675 186.122L91.6843 185.513L92.6362 185.071L93.2096 184.425L93.6964 183.633L95.4651 185.917L96.2547 186.472L97.0553 186.348L98.4722 185.529L98.5914 184.63L100.16 183.493L102.15 183.471L103.07 183.681L103.551 184.71L104.309 185.028L105.185 185.163L108.073 187.119L108.884 187.437L109.701 187.491L111.946 186.672L113.666 186.359L117.273 186.812L119.22 186.321L120.584 186.262L122.569 185.508L124.094 184.252L124.889 183.94L125.744 183.848L127.81 183.929L129.887 184.215L130.758 183.919L131.488 183.094L132.331 182.722L133.257 182.97L135.653 181.559L136.713 181.462L137.719 182.006L136.826 182.954ZM83.3114 210.723L82.5811 210.933L81.6292 210.287L81.5644 209.382L81.7375 209.112L82.8949 209.527L83.2573 210.368L83.3114 210.723Z" fill="white" fill-opacity="0.2" stroke="white" stroke-width="0.5"/>
</svg>
