<svg width="60" height="60" viewBox="0 0 60 60" fill="none" xmlns="http://www.w3.org/2000/svg">
<circle cx="30" cy="30" r="29.25" stroke="#926D3C" stroke-width="1.5"/>
<path d="M27 32.25C27.6442 33.1112 28.466 33.8238 29.4098 34.3394C30.3536 34.8551 31.3973 35.1617 32.47 35.2385C33.5427 35.3153 34.6194 35.1606 35.627 34.7847C36.6347 34.4088 37.5497 33.8206 38.31 33.06L42.81 28.56C44.1762 27.1455 44.9321 25.251 44.9151 23.2845C44.898 21.318 44.1092 19.4369 42.7186 18.0464C41.3281 16.6558 39.447 15.867 37.4805 15.85C35.514 15.8329 33.6195 16.5888 32.205 17.955L29.625 20.52" stroke="#926D3C" stroke-width="3" stroke-linecap="round" stroke-linejoin="round"/>
<path d="M33.0013 29.25C32.3571 28.3888 31.5352 27.6763 30.5915 27.1606C29.6477 26.645 28.604 26.3384 27.5313 26.2615C26.4586 26.1847 25.3819 26.3395 24.3743 26.7154C23.3666 27.0912 22.4516 27.6794 21.6913 28.44L17.1913 32.94C15.8251 34.3545 15.0691 36.2491 15.0862 38.2155C15.1033 40.182 15.8921 42.0631 17.2826 43.4537C18.6732 44.8442 20.5543 45.633 22.5208 45.6501C24.4872 45.6672 26.3818 44.9112 27.7963 43.545L30.3613 40.98" stroke="#926D3C" stroke-width="3" stroke-linecap="round" stroke-linejoin="round"/>
</svg>
