<svg width="24" height="25" viewBox="0 0 24 25" fill="none" xmlns="http://www.w3.org/2000/svg">
<g clip-path="url(#clip0_2332_2478)">
<path d="M24 12.7391C24 6.07006 18.627 0.664062 12 0.664062C5.37 0.665563 -0.00299835 6.07006 -0.00299835 12.7406C-0.00299835 18.7661 4.386 23.7611 10.122 24.6671V16.2296H7.077V12.7406H10.125V10.0781C10.125 7.05256 11.9175 5.38156 14.658 5.38156C15.972 5.38156 17.3445 5.61706 17.3445 5.61706V8.58706H15.831C14.3415 8.58706 13.8765 9.51856 13.8765 10.4741V12.7391H17.2035L16.6725 16.2281H13.875V24.6656C19.611 23.7596 24 18.7646 24 12.7391Z" fill="#BDA05E"/>
</g>
<defs>
<clipPath id="clip0_2332_2478">
<rect width="24" height="24" fill="white" transform="translate(0 0.666016)"/>
</clipPath>
</defs>
</svg>
