<svg width="322" height="58" viewBox="0 0 322 58" fill="none" xmlns="http://www.w3.org/2000/svg">
<g clip-path="url(#clip0_2332_2469)">
<path d="M9.13329 49.6175V17.6338H0.557175V57.6663H43.8053V49.6175H9.13329Z" fill="white"/>
<path d="M52.8143 0.666016H0.5V8.72293H35.1638V40.1701H43.74V8.72293H52.8143V0.666016Z" fill="white"/>
<path d="M121.472 34.4626C121.578 34.1618 121.807 34.0154 122.158 34.0154C122.51 34.0154 123.179 34.7959 124.168 36.3894C125.189 37.9341 125.687 38.8691 125.687 39.2349C125.687 39.6902 125.564 39.926 125.344 39.926H78.8857C75.684 39.926 73.2418 40.0805 71.5593 40.3813L70.4975 37.5358C72.6537 38.1049 74.7447 38.3894 76.7784 38.3894H77.0725V18.3406C77.0725 15.0073 76.8274 12.048 76.3619 9.43007C78.4365 10.1455 80.5764 11.1293 82.8062 12.3488H89.4303V9.3569C89.4303 5.96665 89.2914 3.49511 89.0219 1.90161C94.6821 2.82844 97.5163 3.62519 97.5163 4.2756C97.5163 4.64145 97.3203 4.86909 96.9201 4.96665C95.36 5.52763 94.5841 5.99917 94.5841 6.3569V12.3488H101.126V9.3569C101.126 6.03169 101.012 3.5195 100.783 1.82031C106.444 2.8447 109.27 3.64145 109.27 4.21056C109.27 4.61706 109.074 4.87722 108.682 4.97478C107.097 5.64145 106.272 6.09674 106.272 6.36503V12.3569H112.431C114.236 10.3569 115.371 9.36503 115.837 9.36503C116.229 9.36503 117.201 9.95039 118.769 11.1293C120.337 12.2593 121.121 13.0561 121.121 13.5032C121.121 13.8122 120.982 14.0723 120.704 14.2756C119.251 15.3975 118.532 16.0236 118.532 16.113V38.3975H118.826C120.116 36.3975 120.999 35.0886 121.48 34.4707L121.472 34.4626ZM88.0581 41.7715C93.4896 43.8122 96.2013 45.0967 96.2013 45.6089C96.2013 46.1699 95.8664 46.4463 95.2048 46.4463C93.2936 46.552 92.2808 46.6252 92.1583 46.6821C86.5389 50.9179 79.7678 54.2024 71.8696 56.5114L71.4122 55.5764C78.8612 52.048 84.4234 47.4463 88.0581 41.7634V41.7715ZM89.4058 13.8854H82.4305V24.4788H89.4058V13.8854ZM89.4058 25.9423H82.4305V38.552H89.4058V25.9423ZM101.126 13.8854H94.5596V24.4788H101.126V13.8854ZM94.5596 25.9423V38.552H101.126V25.9423H94.5596ZM103.111 43.7634L103.642 42.7634C108.379 43.5439 112.79 44.8935 116.89 46.8447C120.966 48.6902 122.983 50.6984 122.983 52.9097C122.983 55.1211 122.06 56.1455 120.231 56.1455C119.398 56.1455 118.287 55.3162 116.882 53.6821C112.945 49.2187 108.355 45.9179 103.103 43.7634H103.111ZM113.207 13.8854H106.272V24.4788H113.207V13.8854ZM106.272 25.9423V38.552H113.207V25.9423H106.272Z" fill="white"/>
<path d="M147.838 37.1944H144.089V38.3489C144.089 44.853 141.745 49.5359 137.048 52.4058L136.468 51.9424C138.731 49.0888 139.866 44.7473 139.866 38.9587C139.866 38.2514 139.841 37.666 139.809 37.2026C138.477 37.2026 137.481 37.3408 136.819 37.5766L135.945 35.2026C137.457 35.6253 139.417 35.8205 141.802 35.8205H147.895V29.0644H143.207V29.9099C143.207 30.8855 142.202 31.3733 140.217 31.3733C139.237 31.3733 138.755 31.04 138.755 30.3652C138.788 29.2026 138.804 27.7636 138.804 26.0644V23.918C138.804 20.7879 138.714 18.666 138.51 17.5359C143.158 18.3164 145.494 18.9505 145.494 19.4627C145.494 19.7636 145.289 19.9912 144.905 20.1457C143.77 20.7066 143.207 21.0156 143.207 21.0644V27.5196H147.83V24.0725C147.83 20.6416 147.707 17.9749 147.478 16.0806C149.488 16.6985 151.513 17.5359 153.588 18.6172H173.566C173.493 17.7961 173.419 16.9749 173.386 16.1619C173.346 15.1863 173.288 14.2676 173.215 13.3896C178.009 14.1619 180.427 14.8042 180.427 15.3245C180.427 15.6741 180.272 15.9099 179.953 16.0075C178.826 16.5766 178.262 16.9343 178.262 17.0888C178.262 17.4465 178.271 17.9587 178.32 18.6253H183.89C185.409 16.1701 186.365 14.9343 186.757 14.9343C187.271 14.9343 188.047 15.6253 189.101 17.0075C190.212 18.3977 190.751 19.2107 190.751 19.4709C190.751 19.9262 190.612 20.1538 190.326 20.1538H178.205C178.271 25.2757 179.014 31.0156 180.427 37.3652C181.766 32.5034 182.608 28.1457 183 24.3083C187.615 25.9912 189.926 27.105 189.926 27.601C189.926 28.0156 189.371 28.292 188.276 28.4465C187.419 28.5522 186.994 28.6823 186.994 28.8286C185.94 34.105 184.396 38.7148 182.371 42.6579C182.371 43.2188 182.943 44.4953 184.07 46.4953C185.238 48.4383 186.12 49.4058 186.7 49.4058C187.051 49.4058 187.99 46.9831 189.509 42.1213L190.498 42.4302C189.681 46.414 189.264 49.0075 189.264 50.1863C189.264 51.2595 189.648 52.544 190.383 54.0237C190.579 54.3896 190.677 54.7148 190.677 55.0237C190.677 55.9912 190.008 56.479 188.685 56.479C184.976 56.479 181.701 53.2107 178.842 46.6579C175.518 50.9018 170.887 53.8449 164.941 55.479L164.475 54.6335C169.997 51.918 174.285 47.9262 177.38 42.6579C175.469 37.0725 174.162 29.5359 173.509 20.0644H152.812V28.7473C152.812 38.8449 151.93 45.5928 150.125 49.0237C148.328 52.5603 145.984 55.1132 143.092 56.7148L142.447 56.2432C146 52.0562 147.797 45.7066 147.838 37.2026V37.1944ZM181.015 8.2351C183.09 5.37331 184.331 3.92615 184.764 3.92615C185.303 3.92615 186.34 4.67412 187.868 6.16193C189.387 7.64973 190.147 8.59282 190.147 9.00746C190.147 9.47087 189.959 9.69038 189.567 9.69038H173.337V12.0725C173.37 12.6985 173.395 13.0481 173.395 13.1619C173.395 14.0237 172.071 14.4709 169.4 14.4709C168.306 14.4709 167.767 14.1619 167.767 13.544V13.4627C167.84 12.4465 167.881 11.5928 167.881 10.9343V9.69038H157.378V10.6904C157.378 11.3652 157.402 12.3652 157.443 13.6985V13.7717C157.443 14.6904 156.136 15.1538 153.514 15.1538C152.371 15.1538 151.815 14.8042 151.815 14.0644V13.918C151.938 12.8936 151.987 11.8286 151.987 10.6904V9.69038H145.249C141.459 9.69038 138.845 9.8855 137.399 10.2351L136.174 7.32453C138.91 7.94241 142.145 8.24323 145.894 8.24323H151.987V6.77981C151.987 4.62534 151.856 2.94241 151.579 1.71477C157.369 2.48713 160.261 3.2351 160.261 3.93428C160.261 4.30827 160.097 4.52778 159.787 4.62534C158.186 5.25949 157.378 5.69038 157.378 5.94241V8.24323H167.881V7.09689C167.881 5.19445 167.767 3.38144 167.53 1.6416C173.239 2.51965 176.082 3.25136 176.082 3.86924C176.082 4.17819 175.927 4.3977 175.608 4.56843C174.089 5.0725 173.337 5.43022 173.337 5.6416V8.24323H181.015V8.2351ZM159.738 47.9505V50.2514C159.738 51.1701 158.603 51.6497 156.332 51.6497C155.556 51.6497 155.172 51.2839 155.172 50.5603C155.327 46.7798 155.401 44.2676 155.401 43.0318V30.7473C155.401 26.9993 155.287 24.3408 155.042 22.7554C155.981 23.0644 156.822 23.3733 157.574 23.6823C158.472 24.1375 159.346 24.5278 160.212 24.8286H166.534C167.824 22.7879 168.649 21.7636 169 21.7636C169.507 21.7636 170.307 22.3245 171.402 23.4465C172.537 24.5278 173.1 25.1863 173.1 25.4465C173.1 25.853 172.937 26.0562 172.627 26.0562H166.419V31.5928H167.661C168.706 30.105 169.425 29.357 169.817 29.357C170.209 29.357 170.928 29.7636 171.99 30.5928C173.011 31.3652 173.517 31.9505 173.517 32.3652C173.517 32.6172 173.166 32.9993 172.455 33.5196C171.99 33.731 171.753 33.8774 171.753 33.9749V37.8205C171.802 39.105 171.818 39.7879 171.818 39.8936C171.818 40.7636 170.903 41.1944 169.066 41.1944C168.404 41.1944 168.069 40.918 168.069 40.357V39.7392H166.485V46.6579H167.138C168.42 44.5034 169.245 43.4221 169.588 43.4221C169.948 43.4221 170.65 43.9912 171.704 45.1213C172.806 46.2514 173.354 46.9587 173.354 47.2676C173.354 47.6335 173.199 47.8042 172.88 47.8042L159.754 47.9587L159.738 47.9505ZM162.964 31.5928V26.0562H159.738V31.5928H162.964ZM168.184 38.4953V32.8936H159.746V38.4953H168.184ZM159.738 46.6497H163.136V39.731H159.738V46.6497ZM178.614 10.6904L178.965 10.0725C182.943 10.3408 184.936 11.6823 184.936 14.1538C184.936 15.7392 184.282 16.5359 182.951 16.5359C182.216 16.5359 181.497 15.6416 180.786 13.8367C180.321 12.666 179.594 11.6172 178.622 10.6823L178.614 10.6904Z" fill="white"/>
<path d="M213.253 15.6908L213.139 25.8209H218.464C220.073 23.9265 221.094 22.9835 221.568 22.9835C222.115 22.9835 223.062 23.5688 224.443 24.7477C225.848 25.9753 226.55 26.8452 226.55 27.3574C226.55 27.6664 226.436 27.894 226.199 28.0485C225.537 28.4062 225.031 28.6826 224.68 28.8859C224.369 29.0973 224.19 29.5038 224.149 30.1298C223.994 36.4794 223.602 41.8534 222.981 46.268C222.311 50.5038 221.094 53.2355 219.346 54.4713C217.582 55.6989 216.104 56.3249 214.895 56.3249C214.388 56.3249 214.094 55.9103 214.013 55.0973C213.817 53.1461 212.355 51.6583 209.627 50.6339L209.97 49.6339C211.146 49.8452 212.297 49.9916 213.482 50.0973C214.184 50.1461 214.715 50.1786 215.066 50.1786C216.283 50.1786 217.018 49.4631 217.288 48.016C217.606 46.5851 217.876 45.0322 218.113 43.333C218.66 38.577 218.93 33.5282 218.93 28.1948V27.2843H213.065V28.1298C213.065 42.0078 209.316 51.5038 201.826 56.6339L201.173 56.0078C205.592 50.0729 207.789 39.5851 207.789 24.5119V15.6826C204.906 15.6826 202.978 15.8371 201.998 16.1379L201.059 13.3737C203.566 13.8859 206.449 14.1461 209.741 14.1461H218.472C220.269 11.268 221.38 9.82898 221.813 9.82898C222.278 9.82898 223.226 10.6095 224.623 12.1379C226.068 13.6176 226.779 14.5688 226.779 14.9753C226.779 15.4387 226.599 15.6745 226.199 15.6745H213.253V15.6908ZM207.789 2.24362L208.45 1.70703C210.664 2.21923 212.632 3.21923 214.364 4.70703C216.079 6.13793 216.937 7.62573 216.937 9.16232C216.937 11.3656 215.875 12.4713 213.776 12.4713C212.526 12.4713 211.734 11.4469 211.383 9.38996C210.942 6.62573 209.757 4.25175 207.789 2.24362ZM245.197 11.3087C247.419 8.22736 248.75 6.70703 249.191 6.70703C249.681 6.70703 250.8 7.52817 252.524 9.16232C254.239 10.7965 255.096 11.829 255.096 12.2274C255.096 12.6013 254.917 12.7721 254.574 12.7721H233.762C231.189 16.8778 228.192 19.8615 224.794 21.7558L224.157 21.2192C225.676 19.5282 227.236 16.7721 228.845 12.9347C230.438 9.13793 231.451 5.47939 231.835 1.93467C237.307 3.78833 240.035 4.99971 240.035 5.55256C240.035 5.96719 239.757 6.21923 239.161 6.32492C237.511 6.63386 236.703 6.81272 236.703 6.86963C236.262 8.2924 235.592 9.77207 234.644 11.3249H245.197V11.3087ZM241.734 23.4306C241.734 26.6176 242.469 30.6095 243.956 35.4225C245.948 33.6745 247.721 30.8452 249.232 26.894C253.022 29.6582 254.925 31.3493 254.925 31.9672C254.925 32.4713 254.598 32.7396 253.937 32.7396H253.879C253.487 32.7396 252.997 32.6826 252.409 32.577C252.058 32.4713 251.846 32.4225 251.772 32.4225H251.592C249.722 34.2192 247.296 35.6257 244.331 36.642C244.331 37.8696 245.475 40.081 247.786 43.2517C250.057 46.3249 252.858 48.6257 256.174 50.1786L255.929 51.3981C254.565 51.8046 253.692 52.9753 253.299 54.8534C253.136 55.7233 252.867 56.1623 252.475 56.1623C251.307 56.1623 249.501 54.4957 247.076 51.1704C244.691 47.9428 242.959 43.829 241.873 38.8046C240.811 33.7883 240.207 28.7395 240.043 23.6745C238.867 23.8696 237.258 24.0241 235.183 24.1298V48.4062C237.96 48.1461 240.599 47.7639 243.106 47.2517L243.335 48.1704C239.267 50.5851 234.661 52.3981 229.499 53.6257C229.466 53.6257 229.294 54.3737 229.033 55.8452C228.902 56.3087 228.657 56.5444 228.274 56.5444C227.604 56.5444 226.403 53.9184 224.639 48.707C225.341 48.7477 226.281 48.7883 227.506 48.7883C228.731 48.7314 229.515 48.707 229.907 48.707V31.8859C229.907 26.8127 229.727 22.8696 229.327 20.0566C231.557 20.7152 233.705 21.642 235.78 22.8209C240.386 20.9753 243.833 18.4225 246.136 15.1461C250.335 18.1623 252.417 19.9591 252.417 20.52C252.417 20.9265 252.115 21.1298 251.543 21.1298C251.462 21.1298 250.939 21.1054 249.959 21.0648C249.297 20.9509 248.93 20.9022 248.848 20.9022C246.692 22.0322 244.348 22.8452 241.816 23.3574L241.75 23.4225L241.734 23.4306Z" fill="white"/>
<path d="M275.9 31.5524C277.615 29.7068 278.701 28.78 279.183 28.78C279.722 28.78 281.102 29.8288 283.291 31.9263C283.561 32.2353 283.7 32.5442 283.7 32.8451C283.7 33.2109 283.577 33.4548 283.349 33.6174C281.968 34.2759 281.298 34.6418 281.298 34.6987C280.482 38.4873 279.109 42.219 277.198 45.902C281.968 48.3166 289.05 49.5198 298.467 49.5198C308.513 49.5198 316.134 49.0564 321.32 48.1377L321.377 49.0564C319.621 50.0727 318.674 51.4142 318.511 53.0483C318.445 54.1215 317.62 54.6581 316.052 54.6581C302.567 54.6581 294.301 54.3979 291.247 53.8938C288.2 53.3816 285.39 52.4548 282.818 51.1296C280.196 49.7475 278.17 48.3654 276.724 46.9833C275.156 50.2028 271.881 53.4873 266.874 56.8125L266.221 56.1133C272.012 49.7719 275.393 42.1133 276.373 33.154H273.792C273.204 34.4873 272.698 35.2272 272.265 35.3816C271.881 35.5442 271.277 35.6093 270.501 35.6093C268.353 35.6093 267.283 35.1784 267.283 34.3085C267.283 34.1052 267.332 33.9589 267.405 33.8451C268.728 31.8532 269.455 30.6499 269.561 30.2353L275.32 18.7881H273.49C270.803 18.7881 268.802 18.967 267.519 19.3247L266.458 16.5605C268.026 17.0239 270.493 17.2516 273.849 17.2516H274.968C276.528 15.6174 277.541 14.7963 278.007 14.7963C278.366 14.7963 279.224 15.3329 280.596 16.406C281.919 17.4792 282.589 18.2272 282.589 18.6418C282.589 19.0564 282.393 19.3247 282.001 19.4792C280.596 19.9914 279.853 20.3247 279.771 20.4792L274.421 31.5442H275.891L275.9 31.5524ZM268.818 3.28408L269.276 2.58489C271.824 3.09708 274.045 4.1296 275.957 5.66619C277.86 7.154 278.824 8.69058 278.824 10.2759C278.824 12.4792 277.762 13.5849 275.655 13.5849C274.601 13.5849 273.784 12.6499 273.196 10.8125C272.224 7.93448 270.754 5.43855 268.81 3.28408H268.818ZM294.89 22.715H290.977C290.699 32.2922 287.457 40.0971 281.241 46.1459L280.473 45.6824C284.035 38.9751 285.815 30.1377 285.815 19.1784V13.7231C284.598 13.7231 283.185 13.8532 281.576 14.1133L280.588 11.6581C282.221 12.0646 284.811 12.2678 288.323 12.2678H293.477C295.241 9.76375 296.335 8.51172 296.768 8.51172C297.201 8.51172 298.05 9.20277 299.341 10.5768C300.631 11.9182 301.269 12.6906 301.269 12.8938C301.269 13.406 301.097 13.6662 300.738 13.6662H291.067L290.961 21.2678H294.293C295.837 19.219 296.817 18.1946 297.291 18.1946C297.716 18.1946 298.712 18.7312 300.28 19.8125C301.799 20.9345 302.559 21.6987 302.559 22.1133C302.559 22.528 301.995 23.0646 300.86 23.7231C300.305 24.0808 300.035 24.2841 300.035 24.341C299.414 33.2028 298.826 38.5361 298.279 40.3166C297.699 42.0564 296.719 43.4223 295.363 44.3898C293.95 45.3654 292.635 45.8532 291.426 45.8532C290.92 45.8532 290.626 45.4385 290.552 44.6174C290.348 42.78 289.058 41.2922 286.689 40.1621L286.975 39.0808C287.922 39.2434 288.952 39.341 290.087 39.3898C290.634 39.4467 291.026 39.4711 291.255 39.4711C292.619 39.4711 293.485 38.528 293.836 36.6337C294.187 34.6743 294.465 32.5849 294.661 30.3247C294.857 28.0727 294.955 25.8694 294.955 23.715C294.955 23.2028 294.93 22.8776 294.881 22.715H294.89ZM284.933 1.97513L285.635 1.51172C290.283 2.94261 292.611 5.22717 292.611 8.34912C292.611 10.6011 291.533 11.7231 289.384 11.7231C288.167 11.7231 287.416 10.6093 287.106 8.34912C286.746 6.09708 286.028 3.97513 284.933 1.97513ZM301.579 17.1865C301.22 17.5442 300.942 17.8288 300.738 18.032C300.517 18.1865 300.174 18.4142 299.749 18.7231L299.047 18.1052C301.963 12.4223 303.719 6.91822 304.266 1.59302C309.338 2.51172 311.878 3.22717 311.878 3.73936C311.878 4.21091 311.127 4.58489 309.6 4.89383C309.183 4.99139 308.946 5.06456 308.946 5.1296C308.489 6.66619 307.86 8.24343 307.084 9.8857H313.357C315.105 7.37351 316.199 6.11334 316.632 6.11334C317.065 6.11334 317.963 6.8044 319.336 8.18651C320.691 9.51985 321.377 10.3491 321.377 10.6418C321.377 11.0971 321.206 11.3329 320.855 11.3329H306.324C304.707 14.0971 303.286 15.902 302.036 16.7068C303.139 17.0239 305.818 17.1784 310.073 17.1784H313.365C315.039 15.3329 316.101 14.4142 316.526 14.4142C316.885 14.4142 317.792 15.0239 319.287 16.2678C320.765 17.5442 321.5 18.3816 321.5 18.7963C321.5 19.2597 320.74 19.5686 319.213 19.7068C318.674 19.7638 318.355 19.8125 318.274 19.8694C316.632 21.3572 314.794 22.6337 312.761 23.7068C314.329 23.7068 315.105 24.0971 315.105 24.8613C315.105 25.1703 314.941 25.406 314.647 25.5605C313.275 26.1784 312.589 26.528 312.589 26.6337V31.1703H313.471C315.227 28.6174 316.322 27.3329 316.763 27.3329C317.179 27.3329 318.078 28.0158 319.442 29.406C320.814 30.7312 321.492 31.5768 321.492 31.9345C321.492 32.3491 321.312 32.5524 320.969 32.5524H312.589V41.2272C312.589 43.1702 311.748 44.6581 310.065 45.6824C308.391 46.6581 307.288 47.1459 306.782 47.1459C306.39 47.1459 306.128 46.9101 306.022 46.4629C305.744 45.3329 305.377 44.5117 304.903 43.9995C304.478 43.4873 303.114 42.7719 300.803 41.8451L300.86 40.9263C302.731 41.032 304.119 41.0727 305.017 41.0727H306.316C307.027 41.032 307.37 40.6906 307.37 40.0727V32.5524H307.133C306.349 32.5524 305.475 32.5768 304.495 32.6255H303.784C302.575 32.6743 301.661 32.8044 301.04 33.0158L299.913 30.3247C301.791 30.8857 304.201 31.1703 307.125 31.1703H307.362V30.1703C307.362 28.8451 307.304 27.0971 307.174 24.9507C307.174 24.2841 307.108 23.4873 306.945 22.5605L311.756 23.4873C312.573 22.1621 313.267 20.5198 313.855 18.5686H310.122C309.363 18.5686 308.685 18.6012 308.056 18.6499C307.321 18.6499 306.618 18.6662 305.94 18.7231C304.617 18.7719 303.441 18.9264 302.428 19.1784L301.554 17.1865H301.579Z" fill="white"/>
</g>
<defs>
<clipPath id="clip0_2332_2469">
<rect width="321" height="57" fill="white" transform="translate(0.5 0.666016)"/>
</clipPath>
</defs>
</svg>
