<svg width="24" height="25" viewBox="0 0 24 25" fill="none" xmlns="http://www.w3.org/2000/svg">
<path fill-rule="evenodd" clip-rule="evenodd" d="M17.3333 0.666016H6.66667C2.98477 0.666016 0 3.65079 0 7.33268V17.9993C0 21.6812 2.98477 24.666 6.66667 24.666H17.3333C21.0152 24.666 24 21.6812 24 17.9993V7.33268C24 3.65079 21.0152 0.666016 17.3333 0.666016ZM21.6667 17.9993C21.6593 20.3895 19.7235 22.3253 17.3333 22.3327H6.66667C4.27647 22.3253 2.34065 20.3895 2.33333 17.9993V7.33268C2.34065 4.94248 4.27647 3.00667 6.66667 2.99935H17.3333C19.7235 3.00667 21.6593 4.94248 21.6667 7.33268V17.9993ZM18.3333 7.66602C19.0697 7.66602 19.6667 7.06906 19.6667 6.33268C19.6667 5.59631 19.0697 4.99935 18.3333 4.99935C17.5969 4.99935 17 5.59631 17 6.33268C17 7.06906 17.5969 7.66602 18.3333 7.66602ZM12 6.66602C8.68629 6.66602 6 9.35231 6 12.666C6 15.9797 8.68629 18.666 12 18.666C15.3137 18.666 18 15.9797 18 12.666C18.0036 11.0736 17.3725 9.54544 16.2465 8.41946C15.1205 7.29347 13.5924 6.66247 12 6.66602ZM8.33333 12.666C8.33333 14.6911 9.97493 16.3327 12 16.3327C14.0251 16.3327 15.6667 14.6911 15.6667 12.666C15.6667 10.6409 14.0251 8.99935 12 8.99935C9.97493 8.99935 8.33333 10.6409 8.33333 12.666Z" fill="#BDA05E"/>
</svg>
