<svg width="24" height="25" viewBox="0 0 24 25" fill="none" xmlns="http://www.w3.org/2000/svg">
<g clip-path="url(#clip0_2332_2482)">
<path d="M12 0.666016C18.6165 0.666016 24 5.03402 24 10.404C24 12.5535 23.1675 14.4885 21.4275 16.395C18.9105 19.293 13.281 22.8225 12 23.3625C10.755 23.8875 10.899 23.067 10.956 22.743L10.9605 22.716L11.1315 21.6885C11.172 21.3825 11.214 20.907 11.0925 20.604C10.9575 20.2695 10.4265 20.0955 10.0365 20.0115C4.269 19.251 0 15.2175 0 10.404C0 5.03402 5.385 0.666016 12 0.666016ZM7.533 12.195H5.2455V8.04302C5.2455 7.98121 5.22105 7.92192 5.17749 7.87808C5.13393 7.83424 5.0748 7.80941 5.013 7.80902H4.17C4.13927 7.80902 4.10884 7.81507 4.08045 7.82683C4.05206 7.83859 4.02627 7.85582 4.00454 7.87755C3.98281 7.89928 3.96557 7.92508 3.95381 7.95347C3.94205 7.98186 3.936 8.01229 3.936 8.04302V13.272C3.936 13.3335 3.9615 13.392 4.002 13.4325V13.434L4.005 13.437L4.008 13.44C4.0515 13.4819 4.10965 13.505 4.17 13.5045H7.533C7.662 13.5045 7.7655 13.3995 7.7655 13.2705V12.4305C7.7657 12.3998 7.75984 12.3693 7.74826 12.3409C7.73669 12.3124 7.71961 12.2865 7.69802 12.2646C7.67644 12.2427 7.65075 12.2253 7.62243 12.2134C7.59412 12.2015 7.56373 12.1952 7.533 12.195ZM8.7195 7.80902C8.65744 7.80902 8.59792 7.83367 8.55404 7.87755C8.51015 7.92144 8.4855 7.98096 8.4855 8.04302V13.272C8.4855 13.401 8.5905 13.5045 8.7195 13.5045H9.5625C9.6915 13.5045 9.795 13.3995 9.795 13.272V8.04302C9.795 7.98121 9.77055 7.92192 9.72699 7.87808C9.68343 7.83424 9.6243 7.80941 9.5625 7.80902H8.7195ZM14.514 7.80902C14.4519 7.80902 14.3924 7.83367 14.3485 7.87755C14.3047 7.92144 14.28 7.98096 14.28 8.04302V11.148L11.8845 7.91402C11.8784 7.90614 11.8719 7.89863 11.865 7.89152V7.89002C11.8603 7.88476 11.8553 7.87976 11.85 7.87502L11.8455 7.87052C11.8404 7.8656 11.8348 7.86108 11.829 7.85702H11.8275L11.82 7.85102L11.8155 7.84802C11.8132 7.84627 11.8106 7.84476 11.808 7.84352L11.796 7.83602H11.793L11.7885 7.83302L11.7735 7.82702L11.7675 7.82402C11.7626 7.82224 11.7576 7.82073 11.7525 7.81952H11.7495L11.745 7.81802L11.7315 7.81502H11.7225L11.718 7.81352H11.712L11.709 7.81202H10.848C10.7862 7.81201 10.7269 7.83646 10.6831 7.88002C10.6392 7.92358 10.6144 7.98272 10.614 8.04452V13.2735C10.614 13.4025 10.719 13.506 10.848 13.506H11.688C11.8185 13.506 11.9235 13.401 11.9235 13.2735V10.1685L14.3235 13.4085C14.3395 13.4308 14.3593 13.4501 14.382 13.4655L14.3835 13.467L14.3985 13.476L14.4045 13.479C14.4084 13.4813 14.4124 13.4833 14.4165 13.485L14.427 13.4895L14.4345 13.4925C14.4395 13.4942 14.4445 13.4957 14.4495 13.497H14.454C14.4735 13.5026 14.4937 13.5056 14.514 13.506H15.354C15.4845 13.506 15.5895 13.401 15.5895 13.2735V8.04302C15.5895 7.98096 15.5648 7.92144 15.521 7.87755C15.4771 7.83367 15.4176 7.80902 15.3555 7.80902H14.514ZM20.2365 8.88452V8.04452C20.2367 8.01379 20.2308 7.98332 20.2193 7.95485C20.2077 7.92639 20.1906 7.90048 20.169 7.87861C20.1474 7.85674 20.1217 7.83934 20.0934 7.8274C20.0651 7.81546 20.0347 7.80921 20.004 7.80902H16.641C16.5805 7.80909 16.5223 7.83277 16.479 7.87502H16.4775L16.476 7.87802L16.473 7.88252C16.4311 7.92549 16.4075 7.983 16.407 8.04302V13.272C16.407 13.3335 16.4325 13.392 16.473 13.4325L16.476 13.437L16.479 13.44C16.5226 13.4817 16.5807 13.5048 16.641 13.5045H20.004C20.133 13.5045 20.2365 13.3995 20.2365 13.2705V12.4305C20.2367 12.3998 20.2308 12.3693 20.2193 12.3409C20.2077 12.3124 20.1906 12.2865 20.169 12.2646C20.1474 12.2427 20.1217 12.2253 20.0934 12.2134C20.0651 12.2015 20.0347 12.1952 20.004 12.195H17.715V11.3115H20.0025C20.1315 11.3115 20.235 11.2065 20.235 11.0775V10.2375C20.2352 10.2068 20.2293 10.1763 20.2178 10.1479C20.2062 10.1194 20.1891 10.0935 20.1675 10.0716C20.1459 10.0497 20.1202 10.0323 20.0919 10.0204C20.0636 10.0085 20.0332 10.0022 20.0025 10.002H17.715V9.11852H20.0025C20.1315 9.11852 20.235 9.01352 20.235 8.88452H20.2365Z" fill="#BDA05E"/>
</g>
<defs>
<clipPath id="clip0_2332_2482">
<rect width="24" height="24" fill="white" transform="translate(0 0.666016)"/>
</clipPath>
</defs>
</svg>
