<svg width="24" height="25" viewBox="0 0 24 25" fill="none" xmlns="http://www.w3.org/2000/svg">
<path d="M2.4 4.26641C2.4 3.60366 2.93726 3.06641 3.6 3.06641H6.18345C6.77006 3.06641 7.27068 3.4905 7.36712 4.06913L8.2543 9.39218C8.3409 9.91181 8.07847 10.4272 7.60728 10.6628L5.74951 11.5917C7.08907 14.9204 9.74602 17.5773 13.0748 18.9169L14.0036 17.0591C14.2392 16.5879 14.7546 16.3255 15.2742 16.4121L20.5973 17.2993C21.1759 17.3957 21.6 17.8964 21.6 18.483V21.0664C21.6 21.7291 21.0627 22.2664 20.4 22.2664H18C9.38436 22.2664 2.4 15.282 2.4 6.66641V4.26641Z" fill="#BDA05E"/>
</svg>
