<svg width="183" height="533" viewBox="0 0 183 533" fill="none" xmlns="http://www.w3.org/2000/svg">
<path d="M34.2952 249.928H34.1945L33.7651 249.825L33.4605 249.578L32.6712 249.753L31.6157 250.151L31.0305 250.132L30.5651 249.705L28.6604 249.096L28.3534 249.045L27.0964 249.021H27.0941L27.034 248.058L26.8781 247.36L26.4367 246.319L27.0892 246.067L26.9621 244.029L26.7246 242.971L24.9039 241.88L23.4694 240.818L23.8005 237.221L23.942 236.247L23.3975 234.352L23.4551 232.161L23.6853 228.688L24.1411 228.551L24.477 228.568L25.7675 229.194L26.3048 229.257L26.6742 229.815L27.106 230.045L27.4178 229.453L27.5402 228.439L28.5621 227.122L29.2793 226.635L29.7687 226.403L30.2628 226.935L30.6395 227.532L30.7282 226.225L31.0329 223.724L30.0614 223.331L29.2673 223.671L28.4829 225.259L27.7825 227.247L26.6454 227.429L25.7387 227.99L24.9207 227.408L24.393 226.894L24.381 226.144L24.5009 225.691L25.4628 224.065L26.7534 222.499L28.0536 222.513L29.0011 222.012L29.5672 221.952L31.3351 222.06L32.2419 221.714L33.055 220.995L34.8109 217.933L35.8016 216.65L37.7999 216.199L39.647 214.712L40.1627 214.693L39.2944 215.801L39.1552 216.23L39.0496 216.885L39.6709 218.304L39.539 219.168L39.5846 220.861L38.9968 221.741L38.3348 223.607L38.0493 223.88L37.987 226.048L38.0518 226.563L37.9558 228.525L38.6346 229.326L39.3519 229.743L41.7459 229.729L41.9953 230.079L42.288 230.681L42.0746 231.703L41.8179 232.472L41.1246 233.12L40.2347 233.602L39.6805 233.623L38.9273 232.707L38.5699 233.005L38.2004 233.472L37.5792 235.971L37.2841 237.652L37.1258 237.789L36.7756 237.539L36.1711 237.52L35.4059 237.918L35.7993 238.273L36.2143 238.89L36.0488 239.199L35.3747 239.532L34.7773 240.206L34.5279 240.715L33.7771 241.316L33.3021 242.079L33.5348 243.022L33.6331 243.849L33.8394 244.76L33.6523 245.487L32.7192 246.528L32.3762 247.427L33.1749 247.415L33.6667 247.621L33.9546 247.887L34.252 248.264L34.0697 248.729L34.2952 249.928ZM43.13 220.736L42.8565 221.026L41.9306 220.616L42.3384 220.041L43.3555 219.774L43.9528 219.863L43.2955 220.434L43.13 220.736ZM53.3417 238.607L53.3585 239.801L53.1834 240.149L52.9267 240.379L52.255 240.621L51.6722 240.959L51.1516 241.551L50.9597 242.398L51.3651 243.017L52.1039 243.355L52.2934 244.53L51.6841 245.108L50.1201 245.683L49.957 247.072L50.0074 248.163L49.9786 248.954L49.8538 250.048L48.5897 250.544L47.7717 248.88L47.7645 248.211L47.5198 247.429L47.4743 246.763L47.184 245.695L45.987 245.405L45.5216 245.367L44.8715 245.566L44.7108 245.489L43.9312 244.026L44.0608 242.405L43.6458 241.585L43.5882 241.213L43.5977 240.801L43.2548 240.46L42.8421 240.28L42.6407 239.362L43.1156 239.139L44.2934 239.247L44.6389 239.185L44.9531 238.993L45.9054 237.477L45.8766 237.141L45.9774 236.707L47.0065 236.547L47.4646 237.134L47.3711 238.074L47.4287 239.273L48.0524 239.599L48.2946 239.647L48.5561 238.763L48.7384 238.331L48.9855 238.089L49.0694 237.278L48.9231 236.782L48.6113 236.41L49.7771 235.403L50.9837 234.602L51.6865 234.559L52.3918 234.755L53.049 235.024L53.4041 235.256L53.6032 235.631L53.1618 236.52L53.0394 237.005L53.3417 238.607ZM40.1363 238.631L40.0211 238.844L39.5942 238.621L39.5486 237.849L39.7093 237.153L39.5198 236.53L39.7285 236.129L40.3282 237.062L40.4985 237.501L40.2659 238.024L40.1363 238.631ZM53.9942 240.851L53.3609 241.357L53.2218 241.331L53.0155 240.638L53.3513 240.216L53.548 239.858L53.6895 239.868L53.8814 240.256L53.9942 240.851ZM40.3906 240.695L40.6712 241.314L41.0167 242.633L41.5636 244.105L41.3357 244.719L41.4916 245.506L41.3357 246.324L40.249 247.273L39.0304 247.316L37.7639 246.858L35.9744 245.974L35.8305 245.477L35.581 245.201L35.1012 243.688L35.1108 241.815L36.0103 241.578L37.975 240.681L38.4283 240.822L38.9033 241.28L39.4503 241.307L40.2419 240.657L40.3906 240.695ZM70.2989 247.633L70.0494 247.832L68.9363 247.504L67.5809 246.691L67.78 245.093L68.1279 244.4L70.6011 246.192L70.6323 246.866L70.2989 247.633ZM40.9903 250.798L40.6905 250.863L40.285 249.921L40.2323 249.623L40.7096 249.019L41.0167 248.333L41.8155 247.278L42.2736 246.038L42.4488 246.057L42.2448 247.163L41.1966 250.23L40.9903 250.798ZM36.459 249.218L35.7585 249.379L35.4011 249.096L34.7438 248.988L34.5087 247.187L34.5759 247.079L34.9069 247.206L36.0415 248.048L36.4374 248.966L36.459 249.218ZM53.2098 248.29L52.9531 248.465L51.9192 248.338L50.7534 249.149L50.312 248.892L50.4799 248.374L50.6023 248.185L50.9933 247.964L51.2548 247.643L51.3579 247.139L51.6001 247.41L52.3222 247.523L52.6749 247.683L52.9699 247.921L53.2098 248.29ZM39.3087 249.669L38.8578 249.791L38.342 249.537L37.5 248.58L37.3944 248.326L37.8359 248.487L38.3852 248.988L38.8337 249.096L39.4479 249.518L39.3087 249.669ZM45.2121 249.156L46.4044 249.88L47.2104 249.837L47.7597 250.137L47.8916 250.599L47.9396 251.626L47.3639 251.926L46.7282 251.825L45.8622 252.216L43.0221 250.54L43.0628 249.137L43.1756 248.585L44.5213 248.453L45.2121 249.156Z" fill="white" fillOpacity="0.2" stroke="white" strokeWidth="0.5"/>
<path d="M163.731 42.8871L163.28 43.1197L161.889 44.031L161.04 44.6449L160.018 45.0957L160.282 45.6928L161.98 45.8176L162.241 45.9878L162.431 46.2924L162.462 46.7816L162.292 47.5706L160.454 51.8895L160.397 52.7936L160.997 55.2972L161.839 58.2325L164.384 59.5298L166.274 60.5394L167.488 62.9231L169.491 66.043L170.551 67.2037L170.611 67.5634L170.297 69.6953L169.013 71.82L167.814 73.6042L166.571 75.7433L165.6 77.5586L164.547 79.7241L164.424 80.4243L164.405 81.0838L164.588 81.8104L165.936 84.4315L166.461 85.7625L167.087 87.1965L167.627 88.7553L167.939 90.1486L168.478 91.4987L168.814 92.187L169.371 93.151L170.042 94.5802L170.266 95.7097L171.28 99.6042L171.383 100.59L171.333 101.319L170.887 101.496L169.901 101.611L168.831 102.089L168.778 102.249L169.476 103.156L168.86 104.703L168.771 106.906L168.114 108.057L168.052 108.324L168.08 108.547L168.198 108.722L169.414 109.029L169.52 109.34L169.524 109.986L169.416 110.58L168.805 111.022L168.15 111.671L168.004 112.271L168.025 112.803L168.248 113.703L168.682 114.748L169.232 115.403L171.182 116.024L171.434 116.535L171.539 117.235L171.498 117.918L170.592 119.281L170.599 119.803L170.971 121.065L171.417 122.266L173.319 123.566L173.974 124.276L174.147 124.839L174.243 125.748L174.231 126.731L174.082 127.602L173.485 128.722L172.105 130.923L170.716 131.775L170.633 131.959L171.062 132.659L173.506 135.456L175.102 136.758L177.251 138.508L178.637 139.887L179.086 140.875L179.686 141.974L180.36 142.868L180.847 143.643L181.031 144.141L181.015 144.676L180.365 146.285L179.995 147.525L179.345 149.336L178.678 150.592L176.989 152.88L174.497 155.71L173.919 156.561L172.753 158.041L170.755 160.998L170.239 161.648L168.603 163.988L167.857 164.731L167.269 165.425L165.65 167.619L163.909 169.276L162.201 170.811L161.687 171.585L161.049 172.178L160.289 172.739L159.97 173.053L158.25 175.137L155.863 178.01L155.621 178.055L155 178.518L154.028 178.631L153.606 178.983L152.121 177.976L151.874 177.911L151.001 178.161L150.164 178.892L148.616 179.115L147.849 179.353L147.359 179.691L147.259 178.892L147.47 177.878L147.81 177.199L147.841 176.758L147.592 176.803L147.096 177.799L146.832 178.959L146.302 179.542L145.136 179.779L144.001 178.849L143.461 178.856L143.8 179.523L144.027 180.254L143.999 180.662L143.394 180.59L142.72 181.026L142.13 181.664L141.842 181.667L141.444 180.775L140.715 181.192L140.091 181.751L138.827 181.923L138.074 182.657L136.74 183.154L136.008 183.142L134.336 183.736L133.78 184.652L133.293 184.988L132.6 184.705L130.462 185.151L128.418 185.736L127.55 185.703L126.682 185.461L125.761 186.271L124.782 187.355L123.705 187.741L123.319 187.602L123.628 187.034L124.34 186.446L124.83 185.648L124.897 184.981L124.561 184.72L124.101 184.638L123.522 183.947L122.968 182.446L122.669 182.362L122.517 182.758L122.347 183.907L122.174 184.238L121.882 184.501L121.529 184.765L121.184 184.895L119.948 184.878L119.785 184.297V184.055L120.006 183.29L119.814 183.156L119.996 182.556L120.286 182.59L120.632 182.499L120.805 182.192L120.793 181.823L120.313 181.727L120.284 181.475L120.711 180.42L120.771 180.127L120.605 180.067L120.339 180.182L118.571 179.851L116.391 178.499L115.854 178.429L115.525 177.218L115 177.372L114.232 178.082L113.656 177.542L113.037 177.187L112.867 176.633L112.877 175.813L112.824 174.842L112.656 173.703L112.534 172.079L112.649 170.806L113.143 169.861L113.332 169.257L113.563 167.71L113.615 165.895L113.483 165.276L113.517 164.863H113.911L113.824 164.508L113.651 164.314L113.459 163.911L113.623 163.698L114.093 163.684L114.131 163.547L114.184 163.355L113.819 162.29L113.776 161.782L113.272 160.235L112.694 158.763L111.828 157.695L112.135 155.933L112.486 154.333L112.416 153.561L112.282 152.619L111.219 151.583L111.063 150.12L110.804 148.542L110.902 147.573L111.075 146.827L111.425 146.084L113.188 143.734L113.296 142.501L114.491 142.41L113.937 141.307L113.807 140.686L113.779 139.959L115.496 139.46L116.139 139.871L117.65 139.365L118.994 138.374L118.969 137.847L118.763 137.374L118.478 136.463L118.679 136.209L119.169 136.396L118.943 135.942L118.984 135.463L119.519 135.662L120.39 134.321L120.421 133.295L121.927 132.758L123.666 130.652L124.468 129.995L125.242 129.518L126.893 127.4L127.598 127.302L127.96 125.868L129.364 123.952L129.791 123.707L130.445 121.971L132.17 119.957L133.264 117.374L133.866 116.453L134.053 115.47L134.725 115.386L135.329 114.662L136.639 114.158L137.934 114.297L138.474 114.643L138.971 114.535L138.92 113.647L138.565 113.098L138.856 112.568L139.539 112.168L139.47 111.281L139.321 110.746L138.752 110.034L139.036 108.432L139.103 106.669L139.371 104.623L138.659 103.537L135.948 101.681L135.445 101.746L134.842 101.511L134.214 100.098L134.495 98.8752L134.528 98.4244L134.284 98.4388L133.885 99.0359L133.022 99.7169L131.899 99.1942L131.347 99.3093L130.63 96.2709L130.263 95.103L129.675 93.645L128.627 92.9328L128.421 92.5275L128.282 91.9064L128.236 91.0431L128.102 89.7625L128.157 88.7097L128.287 88.0814L128.74 87.6594L129.392 86.4627L129.529 85.5922L129.584 84.2541L129.884 83.0814L130.218 82.4867L130.134 82.0119L129.903 81.3356L129.414 80.3716L128.67 79.1941L128.121 78.0646L127.879 77.0071L127.754 76.0574L127.773 75.1941L127.979 74.6042L128.68 73.8608L128.773 73.5442L128.495 71.8967L128.006 71.597L127.174 71.4363L126.708 71.4219L126.619 71.2397L126.595 70.9087L126.691 70.2301L126.953 69.4507L127.171 68.9519L127.2 68.5298L126.922 67.0814L126.838 65.2996L126.934 63.8991L127.816 62.8632L127.857 62.4842L126.749 61.3548L125.95 60.0718L125.701 59.3212L124.787 59.2085L124.216 57.0166L123.391 55.9471L122.575 55.019L122.093 54.5874L119.262 53.2516L118.14 52.9974L116.808 52.2156L115.818 51.2324L114.968 50.5993L114.242 49.8151L113.227 49.0813L112.937 48.453L111.84 47.2876L111.327 46.5178L109.545 45.0621L109.48 44.4866L109.468 43.9303L109.386 43.6976L107.549 42.6281L107.911 42.0142L109.348 41.9758L110.535 42.5346L110.797 42.2947L110.953 41.7983L110.447 39.8031L110.538 39.2804L111.061 38.6521L111.891 38.1509L113.198 38.0789L114.09 38.1533L114.28 38.2084L115.611 40.4099L116.755 42.5466L117.362 43.453L118.847 46.0142L119.404 47.489L119.593 48.5418L120.198 48.537L122.287 48.9974L124.043 49.3859L124.532 49.9734L125.741 49.8559L126.675 49.3259L128.32 48.6569L128.761 47.8319L129.311 46.947L130.275 47.0861L131.331 47.784L132.528 48.7L133.595 49.1221L135.027 49.784L135.694 50.6377L136.629 50.8823L137.608 50.0286L138.186 47.7001L138.7 46.6569L139.427 45.8919L140.259 45.5538L140.895 45.4314L141.377 44.8343L142.06 43.5058L142.195 41.8895L142.063 38.9542L142.188 37.9806L142.747 36.3835L143.497 32.1245L143.833 30.8871L144.243 30.134L144.807 29.6856L145.831 28.3811L147.295 25.7815L147.69 25.5609L148.741 25.429L150.046 25.5249L151.221 25.983L151.349 25.947L151.876 25.7072L152.833 24.8966L154.474 23.2803L155.525 22.8343L156.48 22.8966L157.537 24.6664L159.032 26.6304L159.991 27.5801L162.609 29.3571L164.907 30.5202L166.197 34.3427L165.559 35.8559L165.242 36.3763L164.117 37.8751L162.916 39.9806L162.824 41.0741L163.223 42.1749L163.731 42.8871ZM136.011 112.441L135.006 112.969L134.197 112.64L134.183 111.616L134.684 111.12L135.591 110.921L136.833 111.417L137.016 111.681L136.303 111.88L136.011 112.441ZM111.569 139.391L111.641 139.669L112.035 139.592L112.567 139.084L112.944 139.321L112.901 140.046L112.646 140.017L112.577 139.897L112.248 140.309L112.191 140.559L111.812 140.717L111.111 140.01L110.67 138.844L111.696 138.842L111.598 139.12L111.569 139.391ZM113.138 178.091L113.045 178.727L112.586 178.657L112.121 178.772L111.747 178.142L111.548 177.077L111.617 176.847L111.91 176.604L112.133 177.19L113.138 178.091ZM116.796 180.717L116.305 180.777L115.611 180.103L115.525 179.839L115.796 179.686L115.616 179.144L115.669 178.904L116.204 179.333L116.496 179.832L116.211 179.947L116.695 180.463L116.796 180.717ZM118.015 180.257L118.866 180.571L119.224 180.458L119.632 181.17L118.941 181.621L118.893 182.182L119.166 182.53L119.262 183.034H118.574L118.245 182.609L118.101 182.07L117.78 181.688L117.353 181.398L117.561 181.01L117.681 180.453L118.015 180.257ZM115.712 183.372L115.038 183.835L114.781 183.724L114.846 182.943L115.247 182.585L115.921 182.544L115.712 183.372ZM114.333 183.813L113.743 183.947L113.376 183.556L113.515 183.266L113.925 182.943L114.371 182.988L114.467 183.367L114.333 183.813Z" fill="white" fillOpacity="0.2" stroke="white" strokeWidth="0.5"/>
<path d="M140.977 1L142.777 1.79617L143.391 1.77937L144.285 3.26379L144.751 3.13188L144.662 4.03358L143.76 4.46284L142.357 4.72183L142.148 4.90168L140.949 4.7578L140.275 3.54438L139.149 3.24462L139.152 2.85371L139.881 1.93284L140.977 1ZM176.547 28.3334L176.914 30.8873L176.902 31.7746L176.729 32.6331L176.487 33.072L176.005 33.2638L174.836 33.1871L173.251 32.1823L172.227 31.2351L171.908 31.1943L171.768 31.3094L172.018 32.2591L171.951 32.9881L171.797 33.7794L171.581 34.4965L171.281 35.096L170.653 35.8682L169.566 36.4773L166.575 37.6643L166.337 38.1871L165.373 41.4725L165.112 41.9521L164.759 42.3574L163.73 42.8826L163.231 42.1583L162.833 41.0576L162.924 39.9641L164.126 37.8586L165.251 36.3598L165.567 35.8394L166.206 34.3262L164.915 30.5036L162.617 29.3406L160 27.5636L159.04 26.614L157.546 24.6499L156.488 22.8801L155.533 22.8178L154.483 23.2638L152.842 24.8801L151.885 25.6907L151.357 25.9305L151.23 25.9665L150.054 25.5084L148.75 25.4125L147.699 25.5444L147.303 25.765L145.84 28.3645L144.815 29.6691L144.252 30.1176L143.842 30.8705L143.506 32.108L142.755 36.367L142.196 37.9641L142.071 38.9377L142.203 41.873L142.069 43.4893L141.385 44.8178L140.903 45.4149L140.267 45.5373L139.435 45.8754L138.708 46.6404L138.195 47.6835L137.617 50.0121L136.638 50.8658L135.702 50.6212L135.036 49.7675L133.603 49.1056L132.536 48.6835L131.339 47.7675L130.284 47.0696L129.319 46.9305L128.77 47.8154L128.329 48.6404L126.683 49.3094L125.75 49.8394L124.541 49.9569L124.051 49.3694L122.295 48.9809L120.206 48.5205L119.602 48.5252L119.412 47.4725L118.856 45.9977L117.371 43.4365L116.764 42.53L115.62 40.3934L114.288 38.1919L114.099 38.1367L113.206 38.0624L111.899 38.1344L111.069 38.6356L110.546 39.2638L110.455 39.7866L110.961 41.7818L110.805 42.2782L110.544 42.5181L109.356 41.9593L107.92 41.9977L107.557 42.6116L106.682 42.6787L104.156 42.9114L105.271 44.5325L105.641 45.1823L105.715 46.132L105.521 47.8922L104.986 49.391L104.362 50.6068L103.16 51.8082L104.986 52.9929L103.746 54.5876L103.165 55.2063L102.493 55.1008L101.292 54.5516L98.3819 53.2183L96.993 52.7171L95.7504 52.5636L95.0883 52.5828L92.4544 51.4365L91.9459 51.5636L91.0007 52.06L90.8953 53.1727L90.9551 55.9282L91.0942 58.0385L90.7465 59.2519L90.3986 60.0745L89.3455 62.2831L86.9755 60.7819L85.3587 59.7843L84.3201 61.1104L81.7173 63.5325L80.3837 68.2711L80.3069 68.4246L79.5176 69.6212L78.5078 70.1704L77.7425 70.4414L77.2964 71.8346L78.3351 73.8227L78.8676 74.8682L79.3642 76.5517L79.273 77.6188L79.1579 78.2807L78.0424 79.6332L75.6628 83.1848L73.4608 86.8634L72.5587 87.9138L72.9666 91.0026L72.2348 91.9042L70.7429 92.921L69.98 93.3119L69.1596 93.5421L66.6361 93.9474L67.0847 97.2088L67.255 98.6453L67.2526 99.4942L66.9911 100.322L66.6793 101.897L66.2092 107.485L65.8493 108.082L65.3528 109.581L63.7551 113.161L62.4742 115.525L60.6247 118.909L62.1288 119.971L63.5008 120.746L63.7863 121.933L63.9758 123.909L63.9303 125.25L63.4049 126.451L62.9972 127.293L62.7117 127.703L60.7615 127.295L58.2619 126.77L57.6142 126.765L56.1605 127.144L54.8484 127.919L54.1575 128.571L53.9728 128.83L53.0996 130.312L51.5453 132.931L50.6937 134.07L50.9431 135.636L49.5134 138.645L50.449 141.662L50.4898 141.763L50.9863 142.976L50.4682 143.758L50.2499 144.178L50.3243 145.557L50.461 147.094L50.341 147.993L50.2907 148.988L51.562 153.437L51.5477 154.473L51.4853 155.139L51.0919 157.876L50.5642 161.523L51.4853 162.475L52.795 163.612L53.5315 164.06L54.6181 165.408L55.4481 166.72L55.3329 167.588L55.0931 168.545L54.7452 169.211L54.4166 170.125L54.2703 170.799L54.1168 170.979L52.6655 171.053L51.9002 171.307L51.4996 171.593L51.6364 173.123L52.5168 175.912L53.2484 177.883L53.4834 179.178L53.2436 180.487L52.9941 181.156L52.9869 182.055L52.795 183.84L52.2289 184.739L51.4876 185.717L50.6625 186.446L50.0076 186.65L49.4463 186.734L49.0672 187.103L48.7243 188.19L48.4076 189.326L47.3737 190.722L47.4025 191.207L47.7959 192.852L48.1654 194.717L47.8535 196.456L47.5872 198.271L47.1195 199.478L46.4526 199.909L45.9633 199.693L45.4091 198.039L45.3803 197.648L45.2436 197.139L43.6699 196.633L43.3917 196.65L42.7728 196.353L42.4106 196.269L41.667 196.099L41.0481 194.626L40.3932 193.398L40.2973 192.885L40.3212 190.576L40.1198 189.545L40.0574 188.418L39.6448 189.334L39.8847 190.78L39.3761 191.384L38.7308 191.679L38.7908 192.521L39.0547 192.681L39.1098 193.552L38.954 194.842L37.6874 197.693L37.4331 197.998L37.258 198.382L36.6103 198.127L35.7779 198.919L34.9887 199.046L34.7033 198.151L33.5926 196.964L33.0697 197.032L33.5398 197.617L34.0052 198.377L33.7414 198.878L33.4823 199.207L33.0289 199.377L31.4049 200.367L31.983 201.032L31.4912 201.785L30.9251 201.895L30.6229 202.245L30.5174 202.72L28.8358 204.075L26.0963 207.53L24.6882 208.504L23.7047 209.511L22.8388 209.487L21.7497 210.343L18.9911 211.091L17.1608 210.753L15.887 211.051L15.2034 210.463L15.1146 210.06L15.1482 209.825L15.261 209.542L15.0235 209.449L14.5245 209.401L14.311 209.684L14.2823 210.329L14.0448 210.497L13.0949 210.127L12.855 209.797L13.1956 209.123L13.7809 208.516L13.6753 208.391L13.5626 208.022L13.2772 207.974L12.428 208.065L11.7371 207.955L9.48701 206.585L8.96169 205.852L7.14582 204.679L6.33266 203.432L5.86963 202.06L5.90565 200.813L6.1287 198.83L6.51011 198.338L8.13893 199.036L9.78686 200.197L10.0436 200.139L10.5617 199.228L11.5644 198.494L11.2789 198.293L9.78686 199.135L9.23277 198.669L8.37158 197.72V197.228L8.77223 196.737L8.90657 196.072L8.69786 195.444L8.79617 194.588L9.46066 193.679L10.4585 192.756L11.1782 191.861L11.917 191.312L11.8403 191.127L10.9959 191.478L10.1875 192.072L9.2376 193.067L8.07898 193.871L7.22254 194.183L6.81479 194.442L6.18632 194.691L5.53625 195.84L4.82616 196.331L3.55479 196.382L3.27412 195.542L3.634 192.549L4.01775 191.084L4.44 190.046L5.10207 189.871L5.56744 189.108H5.9536L6.28946 189.461L7.58718 189.801L8.22766 188.83L9.06008 188.686L10.5785 187.703L10.5473 187.523L9.52061 187.739L8.89698 187.77L8.0046 188.017L7.52964 187.84L7.30651 187.103L7.66397 186.437L9.09602 184.842L9.59258 184.142L9.87325 183.487L9.82771 183.041L10.0675 182.115L11.4685 180.497L12.6103 179.753L12.9845 180.391L12.6655 182.384L12.6679 183.204L13.5698 180.302L13.968 179.609L14.4189 179.12L15.5129 178.792L15.8223 178.331L14.5461 178.482L11.454 179.595L10.1515 180.585L9.8037 181.346L8.89932 182.492L8.47473 183.233L8.28761 184.322L7.77913 184.912L7.09063 185.13L6.13595 186.502L5.7137 187.602L4.76379 188.475L4.16167 189.147L3.96262 189.386L3.63635 190.043L3.36534 190.091L3.1302 189.705L3.08943 188.856L3.1854 187.494L3.64359 186.511L3.86182 185.549L3.55963 184.65L3.77068 184.079L4.17133 184.101L4.91971 184.36L5.7137 184.319L7.02108 183.607L6.81237 183.19L6.24869 183.13L5.19563 183.19L4.31042 182.492L3.622 181.101L3.31014 179.235L3.51885 178.701L6.06633 176.792L6.75242 175.921L6.35418 175.835L5.39709 176.89L4.02975 177.542L3.16622 176.633L2.71761 175.653L2.45854 173.573L2.5521 172.502L2.44419 171.089L3.02947 170.629L3.68195 170.873L4.32719 170.964L5.78808 170.84L9.01205 169.988L11.0894 170.494L11.9338 170.449L13.2268 169.715L14.3566 169.641L15.2034 170.199L15.6664 170.842L15.7239 171.698L16.1149 172.269L16.3788 172.082L16.1677 171.403L16.1246 170.35L19.5237 169.154L19.9242 168.689L18.5737 168.525L18.1875 167.43L18.8999 165.765L18.8328 165.549L18.0819 166.43L17.7125 167.662L17.8613 168.645L17.7125 169.101L17.0217 169.31L15.4673 169.386L14.4694 168.969L13.5458 168.744L13.2316 168.43L13.3371 167.727L13.162 167.581L12.7782 168.211L12.4376 169.466L11.7035 169.756L9.67654 169.29L6.74283 169.564L5.42586 170.192L4.57433 170.111L3.10626 169.008L2.53533 168.127L2.32179 166.348L2.40817 165.564L3.55004 165.233L4.12814 165.255L4.67023 164.832L4.19051 164.557L3.51643 164.015L3.05824 162.931L2.36498 162.576L1.90203 161.648L1.78446 160.245L1.91645 159.266L2.28585 158.952L3.17581 159.166L5.52183 159L7.72876 159.998L9.22801 160.559L12.2625 160.276L14.04 159.386L13.7138 159.142L11.7851 159.655L10.0028 159.633L6.86032 158.629L5.5722 158.305L4.18326 158.449L3.46124 158.144L3.03664 157.147L3.35092 155.233L4.00816 154.82L4.3632 155.319L4.79256 155.35L5.22915 154.549L5.64416 154.091L5.97519 153.055L7.2202 152.07L7.74552 151.986L8.49874 151.533L8.98087 151.662L9.28797 152.118L9.67896 152.494L10.5233 152.449L13.0228 151.657L13.2916 151.425L13.7785 150.775L12.1953 151.065L10.8808 151.525L10.034 151.655L9.91402 151.077L10.2259 150.566L10.7153 150.019L10.9527 149.087L11.4925 148.689L12.0753 148.71L13.2796 148.54L14.1288 148.298L15.5848 148.458L17.7582 148.816L19.1566 149.684L19.6843 149.605L20.2433 149.374L20.4976 149.06L19.3989 148.701L19.3365 148.185L19.4733 147.796L21.2676 147.079L23.225 146.921L22.8891 146.343L18.6001 147.216L17.4798 146.619L16.5947 146.624L16.0166 146.964L14.3662 147.377L14.064 147.084L14.3782 146.072L15.3665 144.408L15.4481 144L15.9063 143.597L18.4682 142.626L19.6988 141.494L20.2529 141.35L20.8022 141.43L21.6394 141.298L23.2562 141.621L24.0022 143.036L24.6715 143.48L26.7752 145.24L26.6816 144.736L24.8586 142.346L24.1629 141.751L23.6423 140.571L23.8199 139.453L24.4052 138.705L26.485 138.305L26.8568 137.871L26.8952 137.125L26.5761 136.614L25.8109 136.643L25.18 136.326L25.0073 135.521L25.2592 134.974L26.4586 133.974L27.1135 133.65L28.2505 133.3L30.2247 134.091L30.3758 134.504L29.8217 135.497L29.8768 136.053L30.3615 136.113L31.4889 134.439L32.8154 134.206L33.3647 133.847L34.0028 133.619L34.9119 135.135L35.3126 135.619L35.6124 135.818L35.9027 137.075L36.1833 137.142L36.5839 136.513L37.3107 136.18L38.3302 135.962L40.019 136.295L40.7842 136.048L41.1584 136.084L40.7986 134.955L40.5755 134.626L40.9233 133.614L41.2856 133.218L42.4514 132.506L43.5645 132.187L44.2912 131.511L45.2676 130.885L45.1141 130.386L44.843 129.806L44.2097 129.77L43.953 129.453L44.7543 128.7L45.8529 127.861L45.661 127.53L44.8358 127.156L44.2097 127.437L43.2789 128.087L42.1947 129.113L42.5473 129.413L43.0895 130.274L42.3339 131.415L38.3231 134.434L36.4112 135.314L35.5285 135.178L35.3173 134.355L34.9119 133.748L34.4754 132.489L33.7318 132.523L33.3095 132.801L33.1272 132.389L33.4463 131.041L34.0747 129.974L35.1279 129.166L35.634 128.187L36.109 126.631L37.6322 125.144L39.8487 121.446L41.655 120.259L42.317 118.957L43.3821 118.382L44.2912 117.362L45.0037 117.262L46.299 116.341L47.0331 115.242L46.5534 115.175L45.4139 115.888L44.7686 116.175L44.8142 114.998L45.1261 113.787L46.064 112.676L50.5762 109.437L51.0271 109.974L51.5669 110.923L52.9245 110.71L54.4742 108.871L55.6664 106.864L55.0211 107.214L54.3183 108.036L52.9485 109.175L52.3152 109.355L51.953 109.206L51.7515 108.446L51.2766 108.199L50.8472 108.369L50.4034 107.828L50.3243 106.487L50.8904 104.485L51.339 103.156L51.8235 102.146L53.7282 99.2688L54.1383 97.6908L54.9995 96.8563L56.1173 97.0409L56.4555 96.7987L56.0718 95.7579L54.8532 94.933L54.7788 94.4126L58.84 93.0433L60.7735 93.0889L61.3467 92.4054L62.3975 91.9642L63.1938 91.1249L62.7836 90.7532L60.819 91.5253L59.5908 91.8874L59.0368 91.8755L58.6025 92.1393L57.0337 92.24L56.6907 88.8898L56.9378 87.0601L57.523 87.0985L57.6574 85.3455L58.3338 84.3071L59.2669 84.0745L59.7372 83.6308L60.4159 82.7244L61.5386 82.933L62.6925 82.7316L62.4047 82.3023L60.9726 81.7508L60.6199 80.8011L61.1237 80.2687L61.673 79.8778L62.1575 79.8083L63.1146 77.945L63.6976 77.1464L64.3477 77.2855L65.2544 76.4606L66.1468 76.7411L67.008 76.2016L68.1857 75.8442L72.4963 75.7076L72.6236 74.9378L71.7167 74.7603L68.5144 74.5613L66.8784 74.578L66.19 74.7771L65.938 74.5085L65.9837 74.0481L66.5785 73.3167L66.8592 72.5085L68.049 70.5277L69.4426 69.2039L70.5101 69.5421L71.6448 70.8059L72.4531 70.9642L72.8299 71.3718L73.4199 73.108L73.7006 73.1632L73.5735 71.4965L74.353 70.1344L74.1515 69.7579L72.981 70.2519L72.0838 69.7387L71.3762 68.7123L71.1747 67.7723L71.616 66.8418L72.031 66.3718L71.7504 65.8227L69.98 67.2879L68.7279 67.6308L68.2337 67.427L68.5 66.0984L68.3513 65.0409L70.0305 62.427L70.6085 62.1248L71.5513 62.3358L72.4028 63.0744L73.1152 62.9569L73.8877 62.5613L73.7821 61.8514L72.1078 61.5685L71.676 60.9785L71.8319 60.3958L72.981 59.7819L74.1252 58.6716L75.435 58.3478L76.488 57.5061L76.6919 57.698L76.8694 58.0289L77.2484 61.1416L78.1912 63.6644L78.539 63.7555L78.1768 61.6116L78.515 60.9929L78.9419 60.5229L79.0764 59.9857L78.5869 59.8035L78.1863 59.0313L77.6155 56.5541L77.8121 55.9066L79.0523 54.578L80.6068 54.2735L82.262 55.2039L82.8448 55.2135L83.8043 54.9641L85.4331 54.1967L86.3927 53.9042H86.8916L87.0139 53.5157L86.5509 53.2663L86.4022 53.0241L86.04 52.885L84.5335 53.2999L80.3765 53.168L79.9759 52.7243L79.9015 51.9545L80.3428 50.8514L80.8274 50.2399L82.3962 49.1392L84.0538 48.9905L85.8025 47.0264L86.4694 45.5492L86.8484 43.2591L87.9134 41.3981L90.5857 40.3358L90.6936 39.8658L90.4106 38.8898L90.4346 37.1295L91.1663 35.0696L91.6532 34.3526L91.8787 34.2662L92.4544 34.9425L93.1548 36.3766L94.2512 37.1967L95.688 37.3382L96.0718 36.9353L94.9564 36.12L94.1096 35.0504L94.0424 33.9737L94.4429 33.4029L95.0667 33.4653L95.8486 33.3454L96.5779 32.6188L96.6835 32.108L96.7147 31.4125L96.8969 30.7051L97.9669 29.0096L101.263 27.9041L101.503 28.355L101.325 31.6236L100.946 33.7243L100.958 35.2542L101.601 33.7243L102.46 29.5108L103.107 27.5156L103.837 26.367L104.357 26.108L104.873 25.5108L105.554 25.1559L105.763 25.6139L105.979 26.6763L105.612 30.3838L105.648 31.5492L105.238 33.1056L103.666 36.5564L103.738 36.9953L104.093 36.8322L104.7 36.2662L106.648 32.9857L108.349 33.4005L108.37 33.132L107.823 32.1655L107.159 31.2374L106.958 30.0864L107.046 26.9977L107.56 25.7674L109.028 25.8969L109.908 25.7267L110.318 26.2854L111.199 26.2446L111.808 24.0144L113.014 23.8178L114.075 25.295L115.349 26.2854L116.373 27.7051L116.663 27.3166L116.111 23.9928L115.507 22.7746L114.195 22.1391L112.796 20.6307L112.434 19.9593L112.496 19.4605L113.729 18.9784L115.356 19.5324L116.805 18.2686L117.2 18.6163L118.311 17.9544L119.002 18.8466L119.427 18.5828L119.671 17.3861L121.444 16.6427L122.569 17.331L123.171 18.0384L123.452 19.3981L123.881 22.072L124.759 23.5084L125.306 24.2111L125.951 24.4053L126.263 23.6907L125.659 22.8274L125.495 22.012L125.786 19.9832L126.124 19.1847L128.021 16.1415L129.609 14.554L130.559 14.4197L132.224 10.8393L132.694 10.1847L133.128 10.0336L133.018 9.1511L132.109 8.59234L132.078 7.494L133.277 6.15587L134.733 3.89928L135.451 3.7482L135.901 4.37652L137.319 5.39567L138.188 6.55875L138.816 7.14389L139.224 7.0216L139.562 6.1487L139.97 5.73861L140.869 5.96885L141.407 6.52999L141.827 6.60434L142.206 6.94486L142.294 7.69064L141.515 8.50361L140.186 10.6451L138.876 13.0672L138.444 14.3381L138.02 17.6547L136.995 19.7626L136.916 21.2351L137.329 21.9257L138.459 21.3837L139.852 19.4197L140.2 17.3237L143.686 11.5899L145.322 8.3909L147.178 5.72182L148.219 5.16785L148.709 6.94007L148.315 9.24221L147.526 10.7027L148.109 11.3717L147.999 13.0983L147.816 14.0552L147.701 15.0552L147.708 15.9329L148.255 15.6979L150.431 13.8945L150.983 11.9329L151.494 10.4556L151.738 9.17748L152.585 7.96164L154.183 7.95206L154.245 7.47245L152.307 5.80097L152.079 5.03598L152.729 4.0144L154.516 2.05754L155.435 2.2734L155.984 2.71942L158.184 3.05994L159.873 4.45804L159.808 6.63789L159.431 7.54439L159.062 8.10073L156.901 9.74103L156.546 10.5492L157.225 10.8273L158.683 10.012L159.062 10.753L158.597 12.5996L158.517 15.3549L158.35 16.9545V18.4077L158.532 19.1871L159.12 16.0936L159.319 15.295L160.177 14.1223L160.496 11.7506L161.336 8.88489L162.283 7.21103L162.833 6.75301L164.656 6.81774L165.438 7.44844L166.129 8.84654L166.644 9.4053L168.271 9.99762L168.827 10.7386L168.931 11.1799L169.329 11.2686L170.427 10.2158L171.14 10.0408L172.301 11.6811L172.068 12.8921L172.135 13.2758L173.541 13.1991L174.712 13.6739L176.935 16.1391L177.168 17.2854L177.058 18.6715L173.848 20.1895L172.462 21.6379L170.192 22.1943L162.487 21.2255L162.643 22.2734L168.009 24.554L168.317 25.2039L168.144 26.566L168.141 27.6571L168.242 28.4005L168.638 29.0912L169.293 29.4149L170.629 29.2447L171.286 29.6164L171.737 29.0672L171.905 27.2135L172.294 26.8034L173.042 27.343L173.368 29.3238L173.577 29.5276L173.954 28.1176L174.695 28.2183L175.503 28.1008L176.547 28.3334ZM126.532 7.73382L126.4 8.37652L126.172 9.00001L125.62 9.65709L124.023 12.2494L123.085 12.6643L122.787 13.0696L122.413 13.3118L121.247 12.9593L120.907 13.482L120.585 13.8322L119.741 13.9664L119.244 13.8537L117.966 12.8993L117.205 11.8633L116.793 10.976L117.975 10.9928L118.395 10.777L119.189 10.964L119.666 10.0504L120.674 10.1607L122.61 9.52518L123.32 9.88012L124.944 7.7482L125.452 7.80338L126.23 7.19186L126.532 7.73382ZM130.415 12.7866L129.132 13.5923L128.388 12.8993L128.077 12.1871L128.031 10.6019L128.204 9.63312L128.806 9.13192L129.197 9.49883L129.3 9.80576L130.001 10.1055L130.823 11.1031L130.415 12.7866ZM127.71 13.1511L127.834 14.0959L127.882 14.8729L127.254 15.9928L125.805 17.458L125.889 17.8513L125.388 18.2279L124.637 18.5036L124.241 18.2374L124.294 16.9832L124.174 16.6091L123.605 17.1079L123.013 16.4676V15.8249L123.169 15.2662L123.718 14.4149L124.632 13.8274L125.234 14.048L127.244 11.7866L127.46 12.2614L127.71 13.1511ZM101.805 19.813L102.148 20.0456L102.489 19.9017L102.769 20.1055L103.333 21.1511L103.94 21.5612L103.969 22.084L103.415 22.5924L102.683 22.7458L101.899 22.5684L101.668 21.9161L101.426 20.8298L100.771 19.7626L100.673 18.825L101.244 18.6763L101.805 19.813ZM98.3555 22.789L98.9527 23.861L99.4829 23.7578L99.6413 23.355L100.001 23.1535L100.73 23.7219L100.627 24.6835L99.6173 25.8945L98.8928 27.6164L97.9669 28.0144L97.5207 27.8082L96.6907 28.7986L96.0286 29.825L95.3402 31.12L95.297 31.7866L95.1891 32.295L92.6679 32.7986L91.7516 33.132L90.78 32.7027L90.3194 31.849L90.4682 31.3862L91.4373 31.2015L91.4685 30.4077L91.7156 29.9233L92.0298 29.6571L92.2601 28.6403L92.6439 28.3741L93.3588 28.6235L93.8409 27.8849L94.1119 27.7579L94.4454 28.3693L94.6062 27.5276L94.4454 26.7578L94.5293 26.2375L95.4529 24.8825L95.8535 23.8921L96.4292 23.2518L96.9833 23.3526L97.1441 22.4077L96.9833 21.4389L97.0434 20.8058L97.5327 19.2662L98.07 19.2015L98.3171 20.5708L98.3555 22.789ZM108.615 22.3286L108.253 22.7866L107.696 22.9736L107.397 22.6907L106.97 22.5036L106.495 22.5876L106.096 21.7458L106.142 21.0384L106.686 20.0792L107.778 19.5324L108.661 19.7578L108.886 20.0384L108.615 22.3286ZM170.396 28.0744L169.118 28.6427L168.969 28.1751L169.25 27.4461L169.585 25.9497L170.111 26.0096L170.643 26.5804L171.061 27.2614L170.396 28.0744ZM86.5606 31.9593L87.3689 33.06L87.7312 32.7243L88.4484 32.5972L88.9809 32.9857L89.4175 33.6835L89.9333 33.7147L90.257 34.626L90.4226 35.8082L90.0484 36.6883L89.5159 37.0888L89.372 38.1224L89.5735 39.5684L88.3789 40.0624L86.9972 40.283L86.455 39.5924L85.3515 40.8538L84.2554 42.813L83.7275 43.0432L83.6892 42.4245L82.9024 41.9953L81.8949 41.9713L81.9284 41.5109L82.1132 41.1871L82.9816 40.7051L83.1542 39.7075L82.9959 37.9233L83.1495 37.0528L83.183 36.4533L83.73 35.7483L85.601 36.0792L85.829 35.4053L85.6874 34.9809L84.7207 34.2375L84.8694 33.7363L85.5675 33.2878L86.2271 33.2279L86.4262 32.4701L86.4599 32.1367L86.5606 31.9593ZM74.8281 51.4557L74.9096 51.5852L75.8259 49.8106L76.843 49.2567L76.9054 48.6356L77.2988 48.0361L77.2532 47.0528L77.4524 46.2543L77.9705 46.0408L78.2942 45.7699L78.6518 45.6188L79.3018 46.2687L79.6664 46.9881L80.1222 48.59L79.9327 50.1344L78.7116 51.3358L77.7425 51.8754L76.7615 53.2471L76.2697 54.367L75.8451 54.6092L75.5789 54.5181L75.3414 54.2495H74.8448L74.2979 55.2183L72.6474 56.0049L71.9999 55.7771L71.971 54.8131L71.5848 54.8922L70.9659 56.0481L70.3614 56.4341L69.9561 56.5516L69.21 56.1176L67.2046 58.0792L65.3239 58.4437L64.7051 58.2183L64.7027 57.0193L65.9188 55.4797L66.9144 54.4078L70.3447 53.6572L72.482 50.4533L72.9978 46.9449L73.5015 45.6691L73.264 44.9473L72.6906 44.8202L72.6548 43.7075L72.9546 42.4893L74.0748 40.8106L74.6985 40.0936L75.7131 38.0576L76.2026 37.5996H76.7591L77.3084 38.1344L77.2101 39.2255L76.3872 41.1871L75.1686 42.8514L75.3174 44.0433L75.8019 45.0193L75.9219 46.6835L75.9531 48.2807L75.0295 50.4293L74.8281 51.4557ZM71.1027 44.3694L71.9782 46.2495L72.3788 47.3454L72.0551 49.4054L71.2034 50.4413L69.8912 50.626L68.9702 50.5397L68.3897 50.0408L68.3176 49.4821L67.9819 49.3166L67.0967 50.0361L66.4826 50.132L65.7005 49.5756L65.4895 48.6835L66.3194 47.5636L66.7033 46.6907L67.622 46.7674L67.8523 47.0384L68.3728 47.2087L68.6895 46.156L68.6175 45.4269L68.8503 44.9185L69.9608 45.2854L69.9633 43.295L70.3951 43.1559L70.5725 43.2327L70.8915 43.6523L71.1027 44.3694ZM62.1215 56.861L62.5222 57.1704L63.568 57.0792L63.7792 57.1943L63.6281 57.7051L63.1746 58.2663L62.2224 58.6116L61.7929 59.4677L61.4859 59.7579L60.6631 59.7603L60.1761 59.9593L59.5788 60.7171L59.1015 60.1584L58.9671 60.5564L58.8808 61.2663L58.6145 61.4725L57.7893 61.7291L57.5902 60.0768L57.9693 59.4773L58.2666 58.7579L58.7224 58.6476L59.1303 58.7075L59.8666 57.1536L60.8742 56.7099L61.5243 56.6596L62.1215 56.861ZM56.0526 63.9066L55.0571 64.849L55.4193 63.1272L55.9567 61.3766L56.7003 60.3718L57.0697 60.7651L56.8993 61.6068L56.9018 62.4366L56.7435 62.8274L56.0526 63.9066ZM52.3392 95.3719L51.7155 95.4798L51.8187 94.7484L52.3225 94.0529L52.5168 93.5781L52.6175 93.017L53.0637 92.5925L53.6922 93.1369L53.7042 94.0577L53.3923 94.897L52.3392 95.3719ZM52.9438 97.7052L52.404 97.7532L52.4088 97.0793L52.7182 96.4654L53.2076 96.0553L53.8385 95.9474L54.5438 95.8994L54.7572 96.2256L54.3518 96.6836L52.9438 97.7052ZM49.2976 102.216L48.8514 102.717L48.019 102.573L47.9302 102.142L48.1677 101.278L48.6739 100.921L49.3263 100.991L49.535 101.35L49.2976 102.216ZM44.3393 114.427L43.9866 114.868L43.2022 114.516L41.655 114.789L41.0313 114.36L41.5279 113.521L42.9263 112.638L43.6772 112.679L44.4424 113.763L44.3393 114.427ZM25.7533 132.991L24.9809 133.027L24.5155 132.686L25.6214 132.01L27.3557 131.362L27.5212 130.952L27.7299 130.902L28.0298 131.406L28.0681 132.096L27.8763 132.439L25.7533 132.991ZM23.2729 137.955L22.6133 137.964L21.8289 137.734L21.3371 137.242L21.2604 136.808L22.1647 136.269L23.0738 135.952L23.4961 136.547L23.5273 137.521L23.2729 137.955ZM2.10832 170.449L1.51104 170.624L1.03125 170.473L1.2016 169.144L1.45108 168.928L1.81331 168.852L2.2043 169.564L2.10832 170.449ZM2.96468 181.115L2.98628 182.725L2.3674 182.602L2.08914 181.986L2.00759 181.59L2.05796 180.657L1.9188 179.693L2.10115 179.214L2.32662 179.149L2.7272 180.008L2.96468 181.115Z" fill="white" fillOpacity="0.2" stroke="white" strokeWidth="0.5"/>
<path d="M131.344 99.2911L129.559 99.67L128.218 98.9098L127.549 99.2911L126.38 99.3079L125.052 99.6077L124.603 100.2L124.25 100.437L123.02 99.6005L121.856 98.212L121.007 99.2696L120.458 99.4686L119.961 98.5117L119.53 98.3559L119.297 98.6748L119.093 99.5213L118.767 100.186L118.68 100.605L118.625 102.294L118.541 102.684L117.411 102.466L117.479 102.91L117.726 103.133L117.826 103.413L117.416 103.78L116.296 103.744L116.181 104.135L116.495 104.749L116.248 105.289L116.02 105.5L114.679 105.833L113.904 105.756L113.681 106.104L113.621 106.555L113.768 106.999L114.111 107.234L114.223 107.514L114.199 108.121L113.914 108.231L113.108 107.164L112.861 107.219L113.046 107.773L113.506 108.377L113.772 108.994L114.005 109.732L113.96 110.294L112.957 112.097L112.074 113.231L111.417 114.25L111.028 115.33L111.479 115.871L111.978 116.653L112.331 118.152L112.751 119.485L113.597 120.754L113.427 121.485L113.23 122.054L111.822 123.303L110.225 125.178L108.502 129.936L107.929 130.572L106.423 131.37L105.868 132.143L104.746 133.059L102.786 133.845L101.898 134.939L101.498 136.066L101.052 136.147L100.608 135.706L100.018 135.378L99.9409 136.114L99.9673 136.653L99.0222 135.855L98.5759 136.589L98.2282 137.809L96.868 139.449L95.4023 139.154L95.2392 139.442L95.6279 139.651L95.6878 139.912L95.4216 140.051L95.0186 140.037L94.3974 140.361L93.9895 140.337L93.7952 141.109L93.4785 142.042L92.651 142.428L92.224 142.507L92.0129 143.037L93.2867 143.147L93.186 143.596L93.1571 144.044L93.0252 144.524L91.5763 145.214L91.3532 145.756L91.051 146.092L90.4057 146.073L90.4296 145.761L90.5352 145.409L89.5757 145.44L89.2759 144.661L89.0936 144.86L89.2015 145.488L89.451 146.14L89.7317 147.097L89.5037 147.699L89.2519 147.999L89.4365 148.274L89.9475 148.485L90.1538 148.862L89.5469 149.183L88.7889 150.286L88.0021 150.313L87.5223 151.042L87.0113 151.039L86.5964 150.581L85.9319 150.205L85.7184 150.867L85.6849 151.394L86.0591 152.725L86.7739 153.752L87.4359 154.195L86.9586 154.495L86.6036 155.157L86.1742 157.219L85.9415 158.03L85.6897 159.454L85.848 160.653L85.9775 161.241L86.3014 162.039L85.421 161.936L84.4903 161.471L84.6197 162.438L84.0489 163.579L84.1544 164.581L84.2743 165.231L84.0969 166.308L84.3656 166.646L84.5118 167.286L84.2695 167.759L84.3751 168.164L84.4159 169.596L84.5982 171.828L84.531 172.298L85.042 174.227L84.9244 174.9L84.8549 175.756L85.589 176.579L86.2414 176.567L86.9034 176.555L87.1553 176.759L87.4096 177.339L87.6135 178.025L88.158 177.97L89.0288 177.414L89.5949 177.282L89.9692 178.351L90.9863 179.761L91.5786 180.392L92.5838 180.725L93.6441 181.857L93.4953 183.219L93.9367 183.673L95.1865 184.207L95.6303 184.929L95.8438 185.543L96.1724 186.051L96.5587 187.584L96.4243 188.526L95.9205 188.85L94.7284 189.857L94.1982 190.608L93.7832 191.073L92.6006 192.073L92.1663 192.253L91.7514 192.771L91.3508 192.999L90.991 192.869L89.6476 193.807L88.7409 193.548L88.3595 193.085L88.6018 191.243L88.4507 190.649L88.2756 190.349L87.6806 190.692L87.7862 191.397L86.7572 191.426L85.7879 190.828L85.6632 192.004L83.5811 191.03L83.0077 191.277L82.089 190.788L81.4918 191.373L80.7817 191.162L80.2899 190.466L79.6087 191.689L78.1214 192.037L76.7229 192.231L77.397 192.639L80.5346 192.562L81.4222 192.864L82.576 192.663L83.5979 193.622L84.3344 193.852L85.2051 194.953L85.6512 194.653L86.3518 194.699L86.9993 195.013L89.0551 194.972L89.7532 194.205L90.7823 194.373L91.3076 194.174L91.7106 193.704L92.152 193.596L92.5526 193.685L92.9797 193.313L93.3154 193.164L93.6609 193.344L94.047 194.234L93.2458 194.694L92.6773 194.716L92.3991 196.169L92.0561 196.793L91.809 197.092L90.5497 197.709L89.7172 198.488L88.7361 199.114L88.3091 198.977L87.6639 199.613L86.2317 200.363L85.4954 201.375L83.8474 202.277L83.0077 203.011L80.7265 203.049L78.5483 202.888L77.8647 203.236L78.5652 203.344L79.0545 203.685L79.6423 203.541L81.024 203.711L81.734 203.898L82.6455 205.092L81.9763 205.514L80.8152 205.84L81.2518 207.524L81.6092 208.656L81.1391 209.337L81.1031 212.423L80.4435 212.481L80.1628 213.752L80.3691 214.399L80.3523 215.898L80.489 216.819L80.8129 217.665L80.669 218.546L79.6255 220.601L79.647 221.562L79.8366 222.133L79.9757 223.042L79.5007 224.785L79.1674 226.236L78.7691 227.454L77.8791 228.91L77.4353 229.996L76.399 233.371L75.8857 234.037L75.2548 234.548L74.552 234.076L73.9067 233.819L73.1199 233.85L71.8869 234.239L70.0326 233.98L68.2215 234.104L67.7634 234.438L68.0392 235.653L67.37 235.812L66.7176 235.466L66.1417 235.879L65.6621 236.33L64.7194 237.399L64.4027 238.056L64.3211 239.291L64.8176 240.397L65.2567 241.689L64.1268 243.241L63.4959 243.294L61.6537 242.862L58.3888 243.833L55.4575 243.066L55.8246 242.234L55.8126 241.622L55.978 240.68L56.0764 239.713L56.0501 239.066L55.8341 238.373L55.1121 237.466L53.4833 234.395L53.0012 233.092L52.6653 232.548L52.9076 232.519L54.251 233.219L54.5628 233.133L54.8914 232.872L54.4909 231.867L54.1454 231.414L53.9127 230.733L54.6971 230.548L55.2657 230.589L55.683 229.821L55.4408 228.577L54.8315 228.193L54.3229 228.025L53.3466 226.059L52.3295 225.037L50.5136 221.078L49.8492 218.339L49.2326 218.601L48.9328 217.404L48.7169 216.265L48.6737 215.428L47.7046 214.948L47.6663 214.358L47.4911 211.721L46.4524 211.366L45.7808 209.879L45.6609 207.052L44.9772 206.536L44.4279 206.68L44.4542 205.977L44.5862 205.315L44.2648 202.682L44.1568 200.267L43.8977 199.533L43.749 198.675L43.8809 197.932L44.0776 197.502L44.7469 197.39L45.373 198.047L45.9271 199.701L46.4165 199.917L47.0833 199.486L47.5511 198.279L47.8174 196.464L48.1292 194.725L47.7598 192.86L47.3664 191.215L47.3376 190.73L48.3715 189.334L48.6881 188.198L49.0312 187.111L49.4102 186.742L49.9715 186.658L50.6263 186.454L51.4516 185.725L52.1928 184.747L52.7589 183.848L52.9508 182.063L52.958 181.164L53.2075 180.495L53.4474 179.186L53.2122 177.891L52.4806 175.92L51.6003 173.131L51.4635 171.601L51.8642 171.315L52.6294 171.061L54.0806 170.987L54.2341 170.807L54.3805 170.133L54.7091 169.219L55.0569 168.553L55.2968 167.596L55.412 166.728L54.582 165.416L53.4953 164.068L52.7589 163.62L51.4492 162.483L50.528 161.531L51.0557 157.884L51.4492 155.147L51.5115 154.481L51.5259 153.445L50.2545 148.996L50.305 148.001L50.4249 147.102L50.2881 145.565L50.2137 144.186L50.432 143.766L50.9502 142.984L50.4536 141.771L50.4129 141.67L49.4774 138.653L50.907 135.644L50.6575 134.078L51.5091 132.939L53.0636 130.32L53.9367 128.838L54.1214 128.579L54.8123 127.927L56.1244 127.152L57.5782 126.773L58.2257 126.778L60.7253 127.303L62.6756 127.711L62.961 127.301L63.3689 126.459L63.8942 125.258L63.9397 123.917L63.7503 121.941L63.4648 120.754L62.0926 119.979L60.5885 118.917L62.4381 115.533L63.7191 113.169L65.3166 109.589L65.8132 108.09L66.1729 107.493L66.6432 101.905L66.9551 100.33L67.2164 99.5022L67.2189 98.6532L67.0486 97.2168L66.6 93.9554L69.1236 93.5501L69.9439 93.3199L70.7067 92.929L72.1988 91.9122L72.9304 91.0105L72.5226 87.9218L73.4245 86.8715L75.6267 83.1928L78.0063 79.6412L79.1217 78.2887L79.2369 77.6268L79.328 76.5597L78.8315 74.8762L78.299 73.8307L77.2602 71.8426L77.7065 70.4493L78.4716 70.1783L79.4816 69.6292L80.2707 68.4325L80.3474 68.2791L81.6812 63.5405L84.284 61.1184L85.3226 59.7923L86.9395 60.7899L89.3094 62.2911L90.3626 60.0824L90.7103 59.2599L91.0582 58.0465L90.9191 55.9361L90.859 53.1807L90.9646 52.068L91.9097 51.5716L92.4183 51.4445L95.0521 52.5908L95.7142 52.5716L96.9568 52.7251L98.3458 53.2263L101.255 54.5596L102.457 55.1088L103.129 55.2143L103.709 54.5956L104.95 53.0009L103.124 51.8162L104.326 50.6148L104.95 49.3989L105.484 47.9001L105.679 46.14L105.605 45.1903L105.235 44.5404L104.12 42.9193L106.646 42.6867L107.521 42.6196L109.359 43.6891L109.44 43.9217L109.452 44.4781L109.517 45.0536L111.299 46.5092L111.813 47.279L112.909 48.4445L113.199 49.0728L114.214 49.8066L114.941 50.5908L115.79 51.2239L116.781 52.2071L118.112 52.9889L119.234 53.2431L122.065 54.5788L122.547 55.0105L123.363 55.9385L124.188 57.0081L124.759 59.1999L125.673 59.3126L125.922 60.0633L126.721 61.3462L127.829 62.4757L127.789 62.8546L126.906 63.8906L126.81 65.2911L126.894 67.0728L127.172 68.5213L127.143 68.9433L126.925 69.4422L126.664 70.2215L126.568 70.9002L126.592 71.2311L126.68 71.4134L127.146 71.4278L127.978 71.5885L128.468 71.8882L128.746 73.5357L128.652 73.8522L127.952 74.5956L127.745 75.1856L127.726 76.0489L127.851 76.9985L128.093 78.0561L128.643 79.1856L129.386 80.363L129.876 81.3271L130.106 82.0033L130.19 82.4782L129.856 83.0729L129.557 84.2455L129.501 85.5837L129.365 86.4542L128.712 87.6508L128.259 88.0729L128.129 88.7012L128.074 89.7539L128.208 91.0345L128.254 91.8978L128.393 92.5189L128.599 92.9242L129.648 93.6365L130.235 95.0945L130.602 96.2624L131.344 99.2911ZM93.9104 192.327L93.7425 192.766L93.572 192.229L93.6392 192.123L93.7545 191.593L94.0807 191.303L94.6012 191.478L94.5988 191.61L94.0998 192.04L93.9104 192.327ZM92.7037 198.126L92.4038 198.251L92.2552 198.212L92.4398 197.605L92.5766 197.344L93.03 197.099L93.1691 197.143L92.7037 198.126ZM97.6884 212.342L97.5661 213.131L97.2159 213.071L96.8969 212.488L97.5421 211.598L98.5281 211.646L98.8663 211.833L97.6884 212.342ZM97.1487 213.438L96.5922 213.737L96.266 214.627L95.8151 214.778L95.3831 215.073L95.2297 217.869L96.0189 218.927L95.5848 219.076L95.1889 219.392L94.9058 219.86L94.6157 220.865L93.529 221.433L93.1187 221.852L92.5119 222.785L92.1952 224.135L91.5811 224.711L90.8902 224.848L91.2933 223.745L91.8234 222.843L91.3148 222.222L91.0078 221.251L90.6096 220.502L90.9262 219.665L90.7703 218.294L90.8207 216.948L91.2813 216.27L91.809 215.716L92.6294 214.438L93.5193 213.507L94.7619 213.09L95.3233 213.476L95.5656 212.629L95.9662 212.435L96.3427 212.632L97.1487 213.438ZM79.9972 232.534L79.6495 233.143L79.3425 233.1L79.1385 232.287L79.0905 230.191L79.2129 229.15L80.681 225.38L81.3359 225.071L82.2569 222.745L82.5064 221.704L82.907 220.766L83.1421 219.924L83.3413 219.584L83.7705 219.742L83.9625 219.898L83.5092 220.387L83.5619 221.023L83.5307 221.284L82.3865 224.04L82.0818 225.819L81.6764 226.253L79.9972 232.534Z" fill="white" fillOpacity="0.2" stroke="white" strokeWidth="0.5"/>
</svg>
