<svg width="376" height="430" viewBox="0 0 376 430" fill="none" xmlns="http://www.w3.org/2000/svg">
<path d="M194.882 240.046C194.44 240.046 193.999 240.046 183.689 239.984C173.38 239.922 153.216 239.798 141.872 239.548C128.598 239.255 125.318 237.919 123.09 236.792C121.632 236.054 120.996 234.286 120.771 231.969C120.578 229.984 123.356 227.762 127.722 224.884C130.307 223.181 134.296 221.758 139.138 220.243C143.979 218.727 149.719 217.361 166.511 216.346C183.304 215.332 210.974 214.71 228.982 215.136C246.989 215.561 254.495 217.052 259.245 218.131C268.721 220.282 270.846 222.597 271.738 223.911C272.173 224.552 272.041 225.349 271.526 226.23C270.329 228.278 266.123 230.495 259.384 233.498C255.498 235.229 250.437 236.997 244.106 238.702C237.775 240.408 230.268 241.899 217.202 243.163C204.137 244.428 185.739 245.422 172.729 245.81C159.719 246.198 152.654 245.949 146.218 245.449C139.782 244.948 134.189 244.203 129.615 243.259C125.042 242.316 121.656 241.198 118.146 239.691C110.931 236.591 106.876 233.778 105.837 232.527C105.092 231.275 104.788 230.014 105.156 228.638C105.524 227.883 106.26 227.013 107.018 226.117" stroke="#8BC3DE" stroke-width="2" stroke-linecap="round"/>
<path d="M197.785 298.117C198.077 296.357 201.355 297.203 202.207 297.203C210.783 297.203 219.358 297.203 227.934 297.203C234.979 297.203 242.024 297.203 249.069 297.203C257.551 297.203 232.063 297.253 223.646 298.828C209.884 301.404 196.047 310 182.119 310C161.694 310 222.819 304.419 243.228 303.195C288.755 300.466 314.439 302.38 360 303.195" stroke="#8BC3DE" stroke-width="2" stroke-linecap="round"/>
<path d="M182.23 94C180.981 94 179.954 93.6274 179.148 92.8823C178.383 92.098 178 91.098 178 89.8824C178 88.3529 178.645 86.6863 179.934 84.8824C181.263 83.0392 183.015 81.4118 185.19 80L186.097 80.8824C185.251 81.7451 184.586 82.549 184.103 83.2941C183.619 84.0392 183.378 84.6471 183.378 85.1176C183.378 85.3922 183.458 85.6471 183.619 85.8824C183.821 86.1176 184.103 86.3725 184.465 86.6471C185.029 87.0784 185.472 87.5294 185.795 88C186.117 88.4706 186.278 89.098 186.278 89.8824C186.278 91.098 185.895 92.098 185.13 92.8823C184.365 93.6274 183.398 94 182.23 94ZM193.952 94C192.703 94 191.676 93.6274 190.87 92.8823C190.105 92.098 189.722 91.098 189.722 89.8824C189.722 88.3529 190.367 86.6863 191.656 84.8824C192.985 83.0392 194.737 81.4118 196.912 80L197.819 80.8824C196.973 81.7451 196.308 82.549 195.825 83.2941C195.341 84.0392 195.1 84.6471 195.1 85.1176C195.1 85.3922 195.18 85.6471 195.341 85.8824C195.543 86.1176 195.825 86.3725 196.187 86.6471C196.751 87.0784 197.194 87.5294 197.517 88C197.839 88.4706 198 89.098 198 89.8824C198 91.098 197.617 92.098 196.852 92.8823C196.087 93.6274 195.12 94 193.952 94Z" fill="#383841"/>
<path d="M33.9713 158V157.008L38.7713 156.592H39.6993L44.5633 157.008V158H33.9713ZM37.5233 158C37.5659 156.208 37.5873 154.405 37.5873 152.592C37.6086 150.779 37.6193 148.965 37.6193 147.152V145.456C37.6193 143.621 37.6086 141.808 37.5873 140.016C37.5873 138.203 37.5659 136.389 37.5233 134.576H40.9793C40.9579 136.368 40.9366 138.171 40.9153 139.984C40.9153 141.797 40.9153 143.621 40.9153 145.456V147.12C40.9153 148.955 40.9153 150.779 40.9153 152.592C40.9366 154.384 40.9579 156.187 40.9793 158H37.5233ZM29.2353 140.816L29.4913 134.576H49.0113L49.2673 140.816H47.7953L46.4833 134.576L48.0513 135.728H30.4193L32.0193 134.576L30.7073 140.816H29.2353ZM51.2808 158V157.104L54.7368 156.752H56.0808L59.3767 157.104V158H51.2808ZM53.8088 158C53.8301 157.467 53.8408 156.763 53.8408 155.888C53.8621 155.013 53.8728 154.096 53.8728 153.136C53.8941 152.176 53.9048 151.344 53.9048 150.64V134.16L51.1848 134V133.136L56.5928 132.112L57.0728 132.4L56.9768 137.392V144.528L57.0408 144.944V150.64C57.0408 151.344 57.0408 152.176 57.0408 153.136C57.0621 154.096 57.0728 155.013 57.0728 155.888C57.0941 156.763 57.1154 157.467 57.1368 158H53.8088ZM62.2568 158V157.104L65.6488 156.752H66.9608L70.3848 157.104V158H62.2568ZM64.7208 158C64.7634 157.467 64.7848 156.773 64.7848 155.92C64.8061 155.045 64.8168 154.128 64.8168 153.168C64.8381 152.208 64.8488 151.365 64.8488 150.64V146.736C64.8488 145.243 64.5928 144.197 64.0808 143.6C63.5688 142.981 62.8754 142.672 62.0008 142.672C61.2541 142.672 60.4008 142.907 59.4408 143.376C58.4808 143.845 57.4461 144.709 56.3368 145.968L55.6648 144.784H56.5288C57.6381 143.397 58.7474 142.395 59.8568 141.776C60.9661 141.136 62.1181 140.816 63.3128 140.816C64.7634 140.816 65.8941 141.285 66.7048 142.224C67.5368 143.163 67.9528 144.731 67.9528 146.928V150.64C67.9528 151.365 67.9528 152.208 67.9528 153.168C67.9741 154.128 67.9954 155.045 68.0168 155.92C68.0381 156.773 68.0594 157.467 68.0808 158H64.7208ZM81.2303 158.48C79.6089 158.48 78.1689 158.149 76.9103 157.488C75.6516 156.827 74.6596 155.845 73.9343 154.544C73.2303 153.221 72.8783 151.6 72.8783 149.68C72.8783 147.845 73.2516 146.267 73.9983 144.944C74.7449 143.621 75.7369 142.608 76.9743 141.904C78.2116 141.179 79.5449 140.816 80.9743 140.816C82.4249 140.816 83.6516 141.115 84.6543 141.712C85.6783 142.309 86.4463 143.12 86.9583 144.144C87.4916 145.147 87.7583 146.299 87.7583 147.6C87.7583 148.368 87.6943 149.008 87.5662 149.52H74.2863V148.496H83.2463C83.8436 148.496 84.2489 148.336 84.4623 148.016C84.6756 147.696 84.7823 147.184 84.7823 146.48C84.7823 145.093 84.4409 143.984 83.7583 143.152C83.0756 142.299 82.1156 141.872 80.8783 141.872C80.0036 141.872 79.2036 142.16 78.4783 142.736C77.7743 143.291 77.2089 144.123 76.7823 145.232C76.3556 146.32 76.1423 147.664 76.1423 149.264C76.1423 150.992 76.3983 152.421 76.9103 153.552C77.4436 154.661 78.1583 155.472 79.0543 155.984C79.9503 156.496 80.9849 156.752 82.1583 156.752C83.2889 156.752 84.2596 156.549 85.0703 156.144C85.9023 155.739 86.6276 155.163 87.2463 154.416L87.7903 154.832C87.1076 155.984 86.2116 156.88 85.1023 157.52C84.0143 158.16 82.7236 158.48 81.2303 158.48ZM104.609 158.16L98.6893 141.296H101.953L106.497 155.536L105.921 155.568L106.113 155.088L110.881 141.296H112.353L117.313 155.568H116.769L116.897 155.152L121.089 141.296H122.433L116.769 158.16H115.393L110.369 143.504H111.233L111.009 144.048L105.985 158.16H104.609ZM97.0892 142.256V141.296H105.153V142.256L101.249 142.576H100.257L97.0892 142.256ZM107.969 142.256V141.296H115.361V142.256L112.097 142.576H111.265L107.969 142.256ZM117.825 142.256V141.296H124.257V142.256L121.697 142.576H121.217L117.825 142.256ZM133.413 158.48C131.92 158.48 130.555 158.149 129.317 157.488C128.08 156.805 127.088 155.803 126.341 154.48C125.616 153.157 125.253 151.547 125.253 149.648C125.253 147.728 125.637 146.117 126.405 144.816C127.173 143.493 128.176 142.501 129.413 141.84C130.672 141.157 132.005 140.816 133.413 140.816C134.864 140.816 136.208 141.157 137.445 141.84C138.704 142.501 139.717 143.493 140.485 144.816C141.253 146.117 141.637 147.728 141.637 149.648C141.637 151.547 141.253 153.157 140.485 154.48C139.739 155.803 138.747 156.805 137.509 157.488C136.272 158.149 134.907 158.48 133.413 158.48ZM133.413 157.456C134.928 157.456 136.112 156.795 136.965 155.472C137.819 154.149 138.245 152.219 138.245 149.68C138.245 147.141 137.819 145.211 136.965 143.888C136.112 142.544 134.928 141.872 133.413 141.872C131.92 141.872 130.747 142.544 129.893 143.888C129.04 145.211 128.613 147.141 128.613 149.68C128.613 152.219 129.04 154.149 129.893 155.472C130.747 156.795 131.92 157.456 133.413 157.456ZM144.374 158V157.104L147.862 156.72H149.622L153.206 157.104V158H144.374ZM146.902 158C146.923 157.467 146.934 156.763 146.934 155.888C146.955 155.013 146.966 154.096 146.966 153.136C146.987 152.176 146.998 151.344 146.998 150.64V148.56C146.998 147.451 146.987 146.491 146.966 145.68C146.966 144.869 146.944 144.08 146.902 143.312L144.182 143.12V142.32L149.494 140.912L149.91 141.168L150.102 145.68V145.712V150.64C150.102 151.344 150.102 152.176 150.102 153.136C150.123 154.096 150.134 155.013 150.134 155.888C150.155 156.763 150.176 157.467 150.198 158H146.902ZM150.102 147.792L149.302 146.032H149.942C150.283 144.965 150.731 144.048 151.286 143.28C151.862 142.491 152.502 141.883 153.206 141.456C153.931 141.029 154.667 140.816 155.414 140.816C156.054 140.816 156.608 140.955 157.078 141.232C157.568 141.488 157.888 141.904 158.038 142.48C158.038 143.056 157.888 143.525 157.59 143.888C157.312 144.251 156.864 144.432 156.246 144.432C155.819 144.432 155.435 144.315 155.094 144.08C154.752 143.845 154.39 143.515 154.006 143.088L153.27 142.352L154.646 142.416C153.6 142.779 152.704 143.387 151.958 144.24C151.232 145.072 150.614 146.256 150.102 147.792ZM158.776 158V157.104L162.488 156.752H163.768L167.544 157.104V158H158.776ZM161.528 158C161.549 157.296 161.56 156.528 161.56 155.696C161.581 154.843 161.592 153.979 161.592 153.104C161.613 152.229 161.624 151.408 161.624 150.64V134.16L158.904 134V133.136L164.376 132.112L164.856 132.4L164.76 137.392V150.64C164.76 151.408 164.76 152.229 164.76 153.104C164.781 153.979 164.792 154.843 164.792 155.696C164.813 156.528 164.834 157.296 164.856 158H161.528ZM177.139 158.48C175.773 158.48 174.547 158.128 173.459 157.424C172.392 156.699 171.549 155.685 170.931 154.384C170.333 153.083 170.035 151.568 170.035 149.84C170.035 147.984 170.365 146.384 171.027 145.04C171.709 143.696 172.616 142.661 173.747 141.936C174.899 141.189 176.179 140.816 177.587 140.816C178.547 140.816 179.464 141.051 180.339 141.52C181.213 141.989 182.035 142.768 182.803 143.856H183.123L182.675 144.592C181.949 143.824 181.256 143.28 180.595 142.96C179.955 142.619 179.261 142.448 178.515 142.448C177.576 142.448 176.712 142.693 175.923 143.184C175.155 143.653 174.536 144.432 174.067 145.52C173.597 146.587 173.363 147.995 173.363 149.744C173.363 151.387 173.576 152.731 174.003 153.776C174.451 154.821 175.048 155.589 175.795 156.08C176.541 156.571 177.384 156.816 178.323 156.816C179.133 156.816 179.88 156.645 180.563 156.304C181.245 155.941 181.928 155.355 182.611 154.544L183.059 155.376H182.771C182.045 156.4 181.203 157.179 180.243 157.712C179.304 158.224 178.269 158.48 177.139 158.48ZM182.387 158.32L182.195 155.216V155.152V143.984L182.291 143.664V134.16L179.443 134V133.136L184.915 132.112L185.395 132.4L185.299 137.296V156.912L188.115 157.104V158L182.387 158.32ZM198.438 158V157.104L201.926 156.752H203.206L206.63 157.104V158H198.438ZM200.966 158C200.987 157.467 201.008 156.763 201.03 155.888C201.051 155.013 201.062 154.096 201.062 153.136C201.083 152.176 201.094 151.344 201.094 150.64V148.592C201.094 147.504 201.083 146.544 201.062 145.712C201.04 144.859 201.008 144.037 200.966 143.248L198.214 143.088V142.288L203.878 140.912L204.294 141.168L204.198 145.776V150.64C204.198 151.344 204.198 152.176 204.198 153.136C204.219 154.096 204.23 155.013 204.23 155.888C204.251 156.763 204.272 157.467 204.294 158H200.966ZM202.406 137.04C201.851 137.04 201.371 136.859 200.966 136.496C200.582 136.133 200.39 135.664 200.39 135.088C200.39 134.512 200.582 134.043 200.966 133.68C201.371 133.317 201.851 133.136 202.406 133.136C202.96 133.136 203.44 133.317 203.846 133.68C204.251 134.043 204.454 134.512 204.454 135.088C204.454 135.664 204.251 136.133 203.846 136.496C203.44 136.859 202.96 137.04 202.406 137.04ZM215.075 158.48C213.987 158.48 213.006 158.363 212.131 158.128C211.278 157.915 210.414 157.584 209.539 157.136L209.571 153.232H211.075L211.907 157.392L210.627 157.296V156.144C211.267 156.549 211.907 156.869 212.547 157.104C213.208 157.317 213.998 157.424 214.915 157.424C216.302 157.424 217.347 157.157 218.051 156.624C218.755 156.069 219.107 155.333 219.107 154.416C219.107 153.648 218.872 153.019 218.403 152.528C217.934 152.037 217.038 151.589 215.715 151.184L214.019 150.576C212.718 150.128 211.672 149.531 210.883 148.784C210.115 148.016 209.731 147.013 209.731 145.776C209.731 144.368 210.264 143.195 211.331 142.256C212.419 141.296 213.966 140.816 215.971 140.816C216.974 140.816 217.859 140.933 218.627 141.168C219.395 141.403 220.195 141.765 221.027 142.256L220.899 145.776H219.523L218.627 141.904L219.715 142.16V143.184C219.075 142.715 218.467 142.384 217.891 142.192C217.315 142 216.686 141.904 216.003 141.904C214.83 141.904 213.934 142.171 213.315 142.704C212.696 143.216 212.387 143.888 212.387 144.72C212.387 145.445 212.632 146.053 213.123 146.544C213.635 147.013 214.478 147.451 215.651 147.856L217.315 148.432C218.958 148.987 220.12 149.659 220.803 150.448C221.507 151.237 221.859 152.208 221.859 153.36C221.859 154.341 221.592 155.227 221.059 156.016C220.547 156.784 219.79 157.392 218.787 157.84C217.784 158.267 216.547 158.48 215.075 158.48ZM237.486 158.48C236.206 158.48 235.139 158.117 234.286 157.392C233.432 156.667 233.006 155.632 233.006 154.288C233.006 153.435 233.187 152.677 233.549 152.016C233.934 151.355 234.563 150.768 235.438 150.256C236.312 149.723 237.486 149.243 238.958 148.816C239.832 148.56 240.771 148.304 241.774 148.048C242.776 147.792 243.704 147.557 244.558 147.344V148.144C243.704 148.357 242.84 148.592 241.966 148.848C241.112 149.083 240.344 149.328 239.661 149.584C238.36 150.075 237.422 150.672 236.846 151.376C236.291 152.059 236.014 152.88 236.014 153.84C236.014 154.821 236.27 155.557 236.782 156.048C237.315 156.539 238.008 156.784 238.862 156.784C239.31 156.784 239.758 156.699 240.206 156.528C240.654 156.357 241.166 156.048 241.742 155.6C242.318 155.131 243 154.491 243.79 153.68L244.11 155.248H243.246C242.606 155.952 241.998 156.549 241.422 157.04C240.846 157.509 240.248 157.861 239.63 158.096C239.011 158.352 238.296 158.48 237.486 158.48ZM246.126 158.448C245.144 158.448 244.398 158.128 243.886 157.488C243.395 156.848 243.107 155.973 243.022 154.864V154.768V146.32C243.022 145.125 242.894 144.208 242.638 143.568C242.382 142.928 241.987 142.48 241.454 142.224C240.942 141.968 240.27 141.84 239.438 141.84C238.84 141.84 238.232 141.925 237.614 142.096C237.016 142.245 236.355 142.512 235.63 142.896L237.198 142.032L236.718 144.56C236.654 145.221 236.462 145.691 236.141 145.968C235.843 146.245 235.48 146.384 235.054 146.384C234.2 146.384 233.678 145.968 233.486 145.136C233.763 143.792 234.488 142.736 235.661 141.968C236.856 141.2 238.424 140.816 240.366 140.816C242.307 140.816 243.736 141.275 244.654 142.192C245.571 143.109 246.03 144.592 246.03 146.64V154.672C246.03 155.589 246.136 156.219 246.35 156.56C246.584 156.901 246.904 157.072 247.31 157.072C247.566 157.072 247.8 157.008 248.014 156.88C248.227 156.752 248.472 156.528 248.75 156.208L249.262 156.656C248.92 157.275 248.483 157.723 247.95 158C247.438 158.299 246.83 158.448 246.126 158.448ZM259 158V157.104L261.56 156.88C261.581 156.261 261.592 155.579 261.592 154.832C261.592 154.085 261.592 153.349 261.592 152.624C261.613 151.877 261.624 151.216 261.624 150.64V134.16L258.904 134V133.136L264.312 132.112L264.792 132.4L264.696 137.392V143.76L264.76 144.08V155.408V155.472L264.28 158.352L259 158ZM269.848 158.48C268.824 158.48 267.81 158.224 266.808 157.712C265.826 157.2 264.941 156.368 264.152 155.216H263.8L264.248 154.48C265.016 155.333 265.762 155.941 266.488 156.304C267.213 156.645 267.97 156.816 268.76 156.816C269.634 156.816 270.434 156.592 271.16 156.144C271.906 155.675 272.504 154.907 272.952 153.84C273.4 152.773 273.624 151.323 273.624 149.488C273.624 147.077 273.176 145.307 272.28 144.176C271.384 143.024 270.232 142.448 268.824 142.448C268.333 142.448 267.832 142.523 267.32 142.672C266.808 142.8 266.274 143.067 265.72 143.472C265.165 143.856 264.546 144.421 263.864 145.168L263.48 144.24H263.96C264.834 143.045 265.805 142.181 266.872 141.648C267.96 141.093 269.058 140.816 270.168 140.816C271.49 140.816 272.653 141.168 273.656 141.872C274.68 142.576 275.48 143.579 276.056 144.88C276.653 146.16 276.952 147.707 276.952 149.52C276.952 151.248 276.653 152.795 276.056 154.16C275.458 155.504 274.626 156.56 273.56 157.328C272.493 158.096 271.256 158.48 269.848 158.48ZM288.163 158.48C286.67 158.48 285.305 158.149 284.067 157.488C282.83 156.805 281.838 155.803 281.091 154.48C280.366 153.157 280.003 151.547 280.003 149.648C280.003 147.728 280.387 146.117 281.155 144.816C281.923 143.493 282.926 142.501 284.163 141.84C285.422 141.157 286.755 140.816 288.163 140.816C289.614 140.816 290.958 141.157 292.195 141.84C293.454 142.501 294.467 143.493 295.235 144.816C296.003 146.117 296.387 147.728 296.387 149.648C296.387 151.547 296.003 153.157 295.235 154.48C294.489 155.803 293.497 156.805 292.259 157.488C291.022 158.149 289.657 158.48 288.163 158.48ZM288.163 157.456C289.678 157.456 290.862 156.795 291.715 155.472C292.569 154.149 292.995 152.219 292.995 149.68C292.995 147.141 292.569 145.211 291.715 143.888C290.862 142.544 289.678 141.872 288.163 141.872C286.67 141.872 285.497 142.544 284.643 143.888C283.79 145.211 283.363 147.141 283.363 149.68C283.363 152.219 283.79 154.149 284.643 155.472C285.497 156.795 286.67 157.456 288.163 157.456ZM307.57 158.48C306.076 158.48 304.711 158.149 303.474 157.488C302.236 156.805 301.244 155.803 300.498 154.48C299.772 153.157 299.41 151.547 299.41 149.648C299.41 147.728 299.794 146.117 300.562 144.816C301.33 143.493 302.332 142.501 303.57 141.84C304.828 141.157 306.162 140.816 307.57 140.816C309.02 140.816 310.364 141.157 311.602 141.84C312.86 142.501 313.874 143.493 314.642 144.816C315.41 146.117 315.794 147.728 315.794 149.648C315.794 151.547 315.41 153.157 314.642 154.48C313.895 155.803 312.903 156.805 311.666 157.488C310.428 158.149 309.063 158.48 307.57 158.48ZM307.57 157.456C309.084 157.456 310.268 156.795 311.122 155.472C311.975 154.149 312.402 152.219 312.402 149.68C312.402 147.141 311.975 145.211 311.122 143.888C310.268 142.544 309.084 141.872 307.57 141.872C306.076 141.872 304.903 142.544 304.05 143.888C303.196 145.211 302.77 147.141 302.77 149.68C302.77 152.219 303.196 154.149 304.05 155.472C304.903 156.795 306.076 157.456 307.57 157.456ZM318.436 158V157.104L321.924 156.752H323.268L326.788 157.104V158H318.436ZM321.028 158C321.049 157.573 321.06 157.061 321.06 156.464C321.081 155.845 321.092 155.195 321.092 154.512C321.113 153.808 321.124 153.125 321.124 152.464C321.124 151.781 321.124 151.173 321.124 150.64V134.16L318.404 134V133.136L323.876 132.112L324.356 132.4L324.26 137.392V150.512C324.26 151.088 324.26 151.728 324.26 152.432C324.26 153.115 324.26 153.808 324.26 154.512C324.281 155.195 324.292 155.845 324.292 156.464C324.313 157.061 324.334 157.573 324.356 158H321.028ZM322.692 152.368V150.992H322.82L327.652 146.16L332.548 141.296H334.212L322.692 152.368ZM331.748 158L326.34 148.4L328.516 146.352L334.5 156.88L336.932 157.104V158H331.748ZM328.132 142.256V141.296H336.068V142.256L332.356 142.576L331.716 142.672L328.132 142.256ZM339.402 163.696L339.049 162.832C340.18 162.256 341.044 161.637 341.641 160.976C342.239 160.336 342.644 159.419 342.858 158.224L343.21 159.344L341.514 158.352C341.044 158.075 340.692 157.765 340.458 157.424C340.223 157.083 340.106 156.72 340.106 156.336C340.106 155.76 340.298 155.28 340.682 154.896C341.066 154.491 341.556 154.288 342.154 154.288C342.516 154.288 342.847 154.341 343.146 154.448C343.444 154.555 343.732 154.736 344.01 154.992C344.138 155.355 344.223 155.685 344.266 155.984C344.308 156.283 344.33 156.635 344.33 157.04C344.33 158.661 343.882 160.027 342.986 161.136C342.111 162.267 340.916 163.12 339.402 163.696ZM25.2199 196.48C23.9399 196.48 22.8732 196.117 22.0199 195.392C21.1665 194.667 20.7399 193.632 20.7399 192.288C20.7399 191.435 20.9212 190.677 21.2839 190.016C21.6679 189.355 22.2972 188.768 23.1719 188.256C24.0465 187.723 25.2199 187.243 26.6919 186.816C27.5665 186.56 28.5052 186.304 29.5079 186.048C30.5105 185.792 31.4385 185.557 32.2919 185.344V186.144C31.4385 186.357 30.5745 186.592 29.6999 186.848C28.8465 187.083 28.0785 187.328 27.3959 187.584C26.0945 188.075 25.1559 188.672 24.5799 189.376C24.0252 190.059 23.7479 190.88 23.7479 191.84C23.7479 192.821 24.0039 193.557 24.5159 194.048C25.0492 194.539 25.7425 194.784 26.5959 194.784C27.0439 194.784 27.4919 194.699 27.9399 194.528C28.3879 194.357 28.8999 194.048 29.4759 193.6C30.0519 193.131 30.7345 192.491 31.5239 191.68L31.8439 193.248H30.9799C30.3399 193.952 29.7319 194.549 29.1559 195.04C28.5799 195.509 27.9825 195.861 27.3639 196.096C26.7452 196.352 26.0305 196.48 25.2199 196.48ZM33.8599 196.448C32.8785 196.448 32.1319 196.128 31.6199 195.488C31.1292 194.848 30.8412 193.973 30.7559 192.864V192.768V184.32C30.7559 183.125 30.6279 182.208 30.3719 181.568C30.1159 180.928 29.7212 180.48 29.1879 180.224C28.6759 179.968 28.0039 179.84 27.1719 179.84C26.5745 179.84 25.9665 179.925 25.3479 180.096C24.7505 180.245 24.0892 180.512 23.3639 180.896L24.9319 180.032L24.4519 182.56C24.3879 183.221 24.1959 183.691 23.8759 183.968C23.5772 184.245 23.2145 184.384 22.7879 184.384C21.9345 184.384 21.4119 183.968 21.2199 183.136C21.4972 181.792 22.2225 180.736 23.3959 179.968C24.5905 179.2 26.1585 178.816 28.0999 178.816C30.0412 178.816 31.4705 179.275 32.3879 180.192C33.3052 181.109 33.7639 182.592 33.7639 184.64V192.672C33.7639 193.589 33.8705 194.219 34.0839 194.56C34.3185 194.901 34.6385 195.072 35.0439 195.072C35.2999 195.072 35.5345 195.008 35.7479 194.88C35.9612 194.752 36.2065 194.528 36.4839 194.208L36.9959 194.656C36.6545 195.275 36.2172 195.723 35.6839 196C35.1719 196.299 34.5639 196.448 33.8599 196.448ZM38.5456 196V195.104L42.0016 194.752H43.3136L46.6736 195.104V196H38.5456ZM41.0736 196C41.095 195.467 41.1056 194.763 41.1056 193.888C41.127 193.013 41.1376 192.096 41.1376 191.136C41.159 190.176 41.1696 189.344 41.1696 188.64V186.56C41.1696 185.472 41.159 184.523 41.1376 183.712C41.1376 182.88 41.1163 182.08 41.0736 181.312L38.3536 181.12V180.32L43.6656 178.912L44.0816 179.168L44.2736 182.88V182.912V188.64C44.2736 189.344 44.2736 190.176 44.2736 191.136C44.295 192.096 44.3056 193.013 44.3056 193.888C44.327 194.763 44.3483 195.467 44.3696 196H41.0736ZM49.4896 196V195.104L52.8816 194.752H54.2256L57.5856 195.104V196H49.4896ZM51.9856 196C52.007 195.467 52.0176 194.773 52.0176 193.92C52.039 193.045 52.0496 192.128 52.0496 191.168C52.071 190.208 52.0816 189.365 52.0816 188.64V184.736C52.0816 183.243 51.8363 182.197 51.3456 181.6C50.855 180.981 50.1616 180.672 49.2656 180.672C48.5616 180.672 47.719 180.917 46.7376 181.408C45.7563 181.877 44.711 182.731 43.6016 183.968L43.3776 182.816H43.7296C44.903 181.365 46.055 180.341 47.1856 179.744C48.3163 179.125 49.447 178.816 50.5776 178.816C52.007 178.816 53.127 179.296 53.9376 180.256C54.7483 181.195 55.1536 182.731 55.1536 184.864V188.64C55.1536 189.365 55.1536 190.208 55.1536 191.168C55.175 192.128 55.1963 193.045 55.2176 193.92C55.239 194.773 55.2603 195.467 55.2816 196H51.9856ZM67.2166 196.48C65.8513 196.48 64.6246 196.128 63.5366 195.424C62.47 194.699 61.6273 193.685 61.0086 192.384C60.4113 191.083 60.1126 189.568 60.1126 187.84C60.1126 185.984 60.4433 184.384 61.1046 183.04C61.7873 181.696 62.694 180.661 63.8246 179.936C64.9766 179.189 66.2566 178.816 67.6646 178.816C68.6246 178.816 69.542 179.051 70.4166 179.52C71.2913 179.989 72.1126 180.768 72.8806 181.856H73.2006L72.7526 182.592C72.0273 181.824 71.334 181.28 70.6726 180.96C70.0326 180.619 69.3393 180.448 68.5926 180.448C67.654 180.448 66.79 180.693 66.0006 181.184C65.2326 181.653 64.614 182.432 64.1446 183.52C63.6753 184.587 63.4406 185.995 63.4406 187.744C63.4406 189.387 63.654 190.731 64.0806 191.776C64.5286 192.821 65.126 193.589 65.8726 194.08C66.6193 194.571 67.462 194.816 68.4006 194.816C69.2113 194.816 69.958 194.645 70.6406 194.304C71.3233 193.941 72.006 193.355 72.6886 192.544L73.1366 193.376H72.8486C72.1233 194.4 71.2806 195.179 70.3206 195.712C69.382 196.224 68.3473 196.48 67.2166 196.48ZM72.4646 196.32L72.2726 193.216V193.152V181.984L72.3686 181.664V172.16L69.5206 172V171.136L74.9926 170.112L75.4726 170.4L75.3766 175.296V194.912L78.1926 195.104V196L72.4646 196.32ZM92.2599 180.512V179.296H98.2759V180.512H92.2599ZM94.7879 196.48C93.4012 196.48 92.3665 196.128 91.6839 195.424C91.0012 194.699 90.6599 193.589 90.6599 192.096C90.6599 191.563 90.6599 191.083 90.6599 190.656C90.6812 190.229 90.6919 189.717 90.6919 189.12V180.512H87.6199V179.52L91.3639 179.232L90.7559 179.68L91.8759 174.272H93.9239L93.8279 179.808V180.16V192.192C93.8279 193.152 94.0092 193.856 94.3719 194.304C94.7559 194.731 95.2892 194.944 95.9719 194.944C96.4412 194.944 96.8465 194.869 97.1879 194.72C97.5505 194.571 97.9452 194.357 98.3719 194.08L98.8519 194.656C98.4039 195.253 97.8492 195.701 97.1879 196C96.5265 196.32 95.7265 196.48 94.7879 196.48ZM100.484 196V195.104L103.94 194.752H105.284L108.58 195.104V196H100.484ZM103.012 196C103.033 195.467 103.044 194.763 103.044 193.888C103.065 193.013 103.076 192.096 103.076 191.136C103.097 190.176 103.108 189.344 103.108 188.64V172.16L100.388 172V171.136L105.796 170.112L106.276 170.4L106.18 175.392V182.528L106.244 182.944V188.64C106.244 189.344 106.244 190.176 106.244 191.136C106.265 192.096 106.276 193.013 106.276 193.888C106.297 194.763 106.319 195.467 106.34 196H103.012ZM111.46 196V195.104L114.852 194.752H116.164L119.588 195.104V196H111.46ZM113.924 196C113.967 195.467 113.988 194.773 113.988 193.92C114.009 193.045 114.02 192.128 114.02 191.168C114.041 190.208 114.052 189.365 114.052 188.64V184.736C114.052 183.243 113.796 182.197 113.284 181.6C112.772 180.981 112.079 180.672 111.204 180.672C110.457 180.672 109.604 180.907 108.644 181.376C107.684 181.845 106.649 182.709 105.54 183.968L104.868 182.784H105.732C106.841 181.397 107.951 180.395 109.06 179.776C110.169 179.136 111.321 178.816 112.516 178.816C113.967 178.816 115.097 179.285 115.908 180.224C116.74 181.163 117.156 182.731 117.156 184.928V188.64C117.156 189.365 117.156 190.208 117.156 191.168C117.177 192.128 117.199 193.045 117.22 193.92C117.241 194.773 117.263 195.467 117.284 196H113.924ZM130.241 196.48C128.748 196.48 127.383 196.149 126.145 195.488C124.908 194.805 123.916 193.803 123.169 192.48C122.444 191.157 122.081 189.547 122.081 187.648C122.081 185.728 122.465 184.117 123.233 182.816C124.001 181.493 125.004 180.501 126.241 179.84C127.5 179.157 128.833 178.816 130.241 178.816C131.692 178.816 133.036 179.157 134.273 179.84C135.532 180.501 136.545 181.493 137.313 182.816C138.081 184.117 138.465 185.728 138.465 187.648C138.465 189.547 138.081 191.157 137.313 192.48C136.567 193.803 135.575 194.805 134.337 195.488C133.1 196.149 131.735 196.48 130.241 196.48ZM130.241 195.456C131.756 195.456 132.94 194.795 133.793 193.472C134.647 192.149 135.073 190.219 135.073 187.68C135.073 185.141 134.647 183.211 133.793 181.888C132.94 180.544 131.756 179.872 130.241 179.872C128.748 179.872 127.575 180.544 126.721 181.888C125.868 183.211 125.441 185.141 125.441 187.68C125.441 190.219 125.868 192.149 126.721 193.472C127.575 194.795 128.748 195.456 130.241 195.456ZM147.122 196.48C146.034 196.48 145.053 196.363 144.178 196.128C143.325 195.915 142.461 195.584 141.586 195.136L141.618 191.232H143.122L143.954 195.392L142.674 195.296V194.144C143.314 194.549 143.954 194.869 144.594 195.104C145.255 195.317 146.045 195.424 146.962 195.424C148.349 195.424 149.394 195.157 150.098 194.624C150.802 194.069 151.154 193.333 151.154 192.416C151.154 191.648 150.919 191.019 150.45 190.528C149.981 190.037 149.085 189.589 147.762 189.184L146.066 188.576C144.765 188.128 143.719 187.531 142.93 186.784C142.162 186.016 141.778 185.013 141.778 183.776C141.778 182.368 142.311 181.195 143.378 180.256C144.466 179.296 146.013 178.816 148.018 178.816C149.021 178.816 149.906 178.933 150.674 179.168C151.442 179.403 152.242 179.765 153.074 180.256L152.946 183.776H151.57L150.674 179.904L151.762 180.16V181.184C151.122 180.715 150.514 180.384 149.938 180.192C149.362 180 148.733 179.904 148.05 179.904C146.877 179.904 145.981 180.171 145.362 180.704C144.743 181.216 144.434 181.888 144.434 182.72C144.434 183.445 144.679 184.053 145.17 184.544C145.682 185.013 146.525 185.451 147.698 185.856L149.362 186.432C151.005 186.987 152.167 187.659 152.85 188.448C153.554 189.237 153.906 190.208 153.906 191.36C153.906 192.341 153.639 193.227 153.106 194.016C152.594 194.784 151.837 195.392 150.834 195.84C149.831 196.267 148.594 196.48 147.122 196.48ZM165.152 196.48C163.531 196.48 162.091 196.149 160.832 195.488C159.573 194.827 158.581 193.845 157.856 192.544C157.152 191.221 156.8 189.6 156.8 187.68C156.8 185.845 157.173 184.267 157.92 182.944C158.667 181.621 159.659 180.608 160.896 179.904C162.133 179.179 163.467 178.816 164.896 178.816C166.347 178.816 167.573 179.115 168.576 179.712C169.6 180.309 170.368 181.12 170.88 182.144C171.413 183.147 171.68 184.299 171.68 185.6C171.68 186.368 171.616 187.008 171.488 187.52H158.208V186.496H167.168C167.765 186.496 168.171 186.336 168.384 186.016C168.597 185.696 168.704 185.184 168.704 184.48C168.704 183.093 168.363 181.984 167.68 181.152C166.997 180.299 166.037 179.872 164.8 179.872C163.925 179.872 163.125 180.16 162.4 180.736C161.696 181.291 161.131 182.123 160.704 183.232C160.277 184.32 160.064 185.664 160.064 187.264C160.064 188.992 160.32 190.421 160.832 191.552C161.365 192.661 162.08 193.472 162.976 193.984C163.872 194.496 164.907 194.752 166.08 194.752C167.211 194.752 168.181 194.549 168.992 194.144C169.824 193.739 170.549 193.163 171.168 192.416L171.712 192.832C171.029 193.984 170.133 194.88 169.024 195.52C167.936 196.16 166.645 196.48 165.152 196.48ZM188.531 196.16L182.611 179.296H185.875L190.419 193.536L189.843 193.568L190.035 193.088L194.803 179.296H196.275L201.235 193.568H200.691L200.819 193.152L205.011 179.296H206.355L200.691 196.16H199.315L194.291 181.504H195.155L194.931 182.048L189.907 196.16H188.531ZM181.011 180.256V179.296H189.075V180.256L185.171 180.576H184.179L181.011 180.256ZM191.891 180.256V179.296H199.283V180.256L196.019 180.576H195.187L191.891 180.256ZM201.747 180.256V179.296H208.179V180.256L205.619 180.576H205.139L201.747 180.256ZM208.765 196V195.104L212.221 194.752H213.565L216.861 195.104V196H208.765ZM211.293 196C211.314 195.467 211.325 194.763 211.325 193.888C211.346 193.013 211.357 192.096 211.357 191.136C211.378 190.176 211.389 189.344 211.389 188.64V172.16L208.669 172V171.136L214.077 170.112L214.557 170.4L214.461 175.392V182.528L214.525 182.944V188.64C214.525 189.344 214.525 190.176 214.525 191.136C214.546 192.096 214.557 193.013 214.557 193.888C214.578 194.763 214.6 195.467 214.621 196H211.293ZM219.741 196V195.104L223.133 194.752H224.445L227.869 195.104V196H219.741ZM222.205 196C222.248 195.467 222.269 194.773 222.269 193.92C222.29 193.045 222.301 192.128 222.301 191.168C222.322 190.208 222.333 189.365 222.333 188.64V184.736C222.333 183.243 222.077 182.197 221.565 181.6C221.053 180.981 220.36 180.672 219.485 180.672C218.738 180.672 217.885 180.907 216.925 181.376C215.965 181.845 214.93 182.709 213.821 183.968L213.149 182.784H214.013C215.122 181.397 216.232 180.395 217.341 179.776C218.45 179.136 219.602 178.816 220.797 178.816C222.248 178.816 223.378 179.285 224.189 180.224C225.021 181.163 225.437 182.731 225.437 184.928V188.64C225.437 189.365 225.437 190.208 225.437 191.168C225.458 192.128 225.48 193.045 225.501 193.92C225.522 194.773 225.544 195.467 225.565 196H222.205ZM238.523 196.48C237.029 196.48 235.664 196.149 234.427 195.488C233.189 194.805 232.197 193.803 231.451 192.48C230.725 191.157 230.363 189.547 230.363 187.648C230.363 185.728 230.747 184.117 231.515 182.816C232.283 181.493 233.285 180.501 234.523 179.84C235.781 179.157 237.115 178.816 238.523 178.816C239.973 178.816 241.317 179.157 242.555 179.84C243.813 180.501 244.827 181.493 245.595 182.816C246.363 184.117 246.747 185.728 246.747 187.648C246.747 189.547 246.363 191.157 245.595 192.48C244.848 193.803 243.856 194.805 242.619 195.488C241.381 196.149 240.016 196.48 238.523 196.48ZM238.523 195.456C240.037 195.456 241.221 194.795 242.075 193.472C242.928 192.149 243.355 190.219 243.355 187.68C243.355 185.141 242.928 183.211 242.075 181.888C241.221 180.544 240.037 179.872 238.523 179.872C237.029 179.872 235.856 180.544 235.003 181.888C234.149 183.211 233.723 185.141 233.723 187.68C233.723 190.219 234.149 192.149 235.003 193.472C235.856 194.795 237.029 195.456 238.523 195.456ZM264.935 196.48C263.57 196.48 262.343 196.128 261.255 195.424C260.189 194.699 259.346 193.685 258.727 192.384C258.13 191.083 257.831 189.568 257.831 187.84C257.831 185.984 258.162 184.384 258.823 183.04C259.506 181.696 260.413 180.661 261.543 179.936C262.695 179.189 263.975 178.816 265.383 178.816C266.343 178.816 267.261 179.051 268.135 179.52C269.01 179.989 269.831 180.768 270.599 181.856H270.919L270.471 182.592C269.746 181.824 269.053 181.28 268.391 180.96C267.751 180.619 267.058 180.448 266.311 180.448C265.373 180.448 264.509 180.693 263.719 181.184C262.951 181.653 262.333 182.432 261.863 183.52C261.394 184.587 261.159 185.995 261.159 187.744C261.159 189.387 261.373 190.731 261.799 191.776C262.247 192.821 262.845 193.589 263.591 194.08C264.338 194.571 265.181 194.816 266.119 194.816C266.93 194.816 267.677 194.645 268.359 194.304C269.042 193.941 269.725 193.355 270.407 192.544L270.855 193.376H270.567C269.842 194.4 268.999 195.179 268.039 195.712C267.101 196.224 266.066 196.48 264.935 196.48ZM270.183 196.32L269.991 193.216V193.152V181.984L270.087 181.664V172.16L267.239 172V171.136L272.711 170.112L273.191 170.4L273.095 175.296V194.912L275.911 195.104V196L270.183 196.32ZM286.366 196.48C284.873 196.48 283.508 196.149 282.27 195.488C281.033 194.805 280.041 193.803 279.294 192.48C278.569 191.157 278.206 189.547 278.206 187.648C278.206 185.728 278.59 184.117 279.358 182.816C280.126 181.493 281.129 180.501 282.366 179.84C283.625 179.157 284.958 178.816 286.366 178.816C287.817 178.816 289.161 179.157 290.398 179.84C291.657 180.501 292.67 181.493 293.438 182.816C294.206 184.117 294.59 185.728 294.59 187.648C294.59 189.547 294.206 191.157 293.438 192.48C292.692 193.803 291.7 194.805 290.462 195.488C289.225 196.149 287.86 196.48 286.366 196.48ZM286.366 195.456C287.881 195.456 289.065 194.795 289.918 193.472C290.772 192.149 291.198 190.219 291.198 187.68C291.198 185.141 290.772 183.211 289.918 181.888C289.065 180.544 287.881 179.872 286.366 179.872C284.873 179.872 283.7 180.544 282.846 181.888C281.993 183.211 281.566 185.141 281.566 187.68C281.566 190.219 281.993 192.149 282.846 193.472C283.7 194.795 284.873 195.456 286.366 195.456ZM305.483 196V195.104L308.939 194.752H310.251L313.611 195.104V196H305.483ZM308.011 196C308.032 195.467 308.043 194.763 308.043 193.888C308.064 193.013 308.075 192.096 308.075 191.136C308.096 190.176 308.107 189.344 308.107 188.64V186.56C308.107 185.472 308.096 184.523 308.075 183.712C308.075 182.88 308.054 182.08 308.011 181.312L305.291 181.12V180.32L310.603 178.912L311.019 179.168L311.211 182.88V182.912V188.64C311.211 189.344 311.211 190.176 311.211 191.136C311.232 192.096 311.243 193.013 311.243 193.888C311.264 194.763 311.286 195.467 311.307 196H308.011ZM316.427 196V195.104L319.819 194.752H321.163L324.523 195.104V196H316.427ZM318.923 196C318.944 195.467 318.955 194.773 318.955 193.92C318.976 193.045 318.987 192.128 318.987 191.168C319.008 190.208 319.019 189.365 319.019 188.64V184.736C319.019 183.243 318.774 182.197 318.283 181.6C317.792 180.981 317.099 180.672 316.203 180.672C315.499 180.672 314.656 180.917 313.675 181.408C312.694 181.877 311.648 182.731 310.539 183.968L310.315 182.816H310.667C311.84 181.365 312.992 180.341 314.123 179.744C315.254 179.125 316.384 178.816 317.515 178.816C318.944 178.816 320.064 179.296 320.875 180.256C321.686 181.195 322.091 182.731 322.091 184.864V188.64C322.091 189.365 322.091 190.208 322.091 191.168C322.112 192.128 322.134 193.045 322.155 193.92C322.176 194.773 322.198 195.467 322.219 196H318.923ZM335.21 196.48C333.717 196.48 332.351 196.149 331.114 195.488C329.877 194.805 328.885 193.803 328.138 192.48C327.413 191.157 327.05 189.547 327.05 187.648C327.05 185.728 327.434 184.117 328.202 182.816C328.97 181.493 329.973 180.501 331.21 179.84C332.469 179.157 333.802 178.816 335.21 178.816C336.661 178.816 338.005 179.157 339.242 179.84C340.501 180.501 341.514 181.493 342.282 182.816C343.05 184.117 343.434 185.728 343.434 187.648C343.434 189.547 343.05 191.157 342.282 192.48C341.535 193.803 340.543 194.805 339.306 195.488C338.069 196.149 336.703 196.48 335.21 196.48ZM335.21 195.456C336.725 195.456 337.909 194.795 338.762 193.472C339.615 192.149 340.042 190.219 340.042 187.68C340.042 185.141 339.615 183.211 338.762 181.888C337.909 180.544 336.725 179.872 335.21 179.872C333.717 179.872 332.543 180.544 331.69 181.888C330.837 183.211 330.41 185.141 330.41 187.68C330.41 190.219 330.837 192.149 331.69 193.472C332.543 194.795 333.717 195.456 335.21 195.456ZM349.916 180.512V179.296H355.932V180.512H349.916ZM352.444 196.48C351.057 196.48 350.023 196.128 349.34 195.424C348.657 194.699 348.316 193.589 348.316 192.096C348.316 191.563 348.316 191.083 348.316 190.656C348.337 190.229 348.348 189.717 348.348 189.12V180.512H345.276V179.52L349.02 179.232L348.412 179.68L349.532 174.272H351.58L351.484 179.808V180.16V192.192C351.484 193.152 351.665 193.856 352.028 194.304C352.412 194.731 352.945 194.944 353.628 194.944C354.097 194.944 354.503 194.869 354.844 194.72C355.207 194.571 355.601 194.357 356.028 194.08L356.508 194.656C356.06 195.253 355.505 195.701 354.844 196C354.183 196.32 353.383 196.48 352.444 196.48ZM143.588 244.192C142.788 244.192 142.228 244 141.908 243.616C141.588 243.232 141.428 242.736 141.428 242.128C141.428 241.072 141.812 239.872 142.58 238.528C143.028 237.76 143.636 236.88 144.404 235.888C145.204 234.864 146.1 233.792 147.092 232.672C148.084 231.52 149.076 230.4 150.068 229.312H146.852L147.38 228.64H150.692C151.588 227.712 152.42 226.848 153.188 226.048C153.988 225.216 154.644 224.544 155.156 224.032C156.564 222.624 157.86 221.552 159.044 220.816C160.26 220.08 161.22 219.712 161.924 219.712C161.412 220.16 160.66 220.864 159.668 221.824C158.708 222.784 157.636 223.856 156.452 225.04C155.3 226.224 154.164 227.424 153.044 228.64H156.356L155.828 229.312H152.468C151.86 230.016 151.284 230.672 150.74 231.28C150.228 231.888 149.78 232.464 149.396 233.008C147.892 235.056 146.676 236.736 145.748 238.048C144.82 239.36 144.212 240.352 143.924 241.024C143.7 241.568 143.588 242.016 143.588 242.368C143.588 242.976 143.876 243.28 144.452 243.28C144.932 243.28 145.444 243.12 145.988 242.8C146.788 242.352 147.588 241.712 148.388 240.88C149.22 240.016 149.892 239.28 150.404 238.672C150.532 238.672 150.596 238.768 150.596 238.96C150.596 239.248 150.532 239.472 150.404 239.632C149.188 241.04 148.052 242.16 146.996 242.992C145.94 243.792 144.804 244.192 143.588 244.192ZM160.966 244.096C160.166 244.096 159.59 243.888 159.238 243.472C158.918 243.056 158.758 242.544 158.758 241.936C158.758 241.552 158.806 241.168 158.902 240.784C159.094 239.824 159.574 238.816 160.342 237.76C161.11 236.704 162.022 235.648 163.078 234.592C164.134 233.536 165.206 232.576 166.294 231.712C167.414 230.848 168.406 230.128 169.27 229.552C168.886 229.616 168.39 229.648 167.782 229.648C167.078 229.648 166.342 229.616 165.574 229.552C164.806 229.456 164.278 229.312 163.99 229.12C163.862 229.344 163.542 229.776 163.03 230.416C162.55 231.024 161.942 231.76 161.206 232.624C160.502 233.488 159.766 234.368 158.998 235.264C158.23 236.16 157.51 237.008 156.838 237.808C156.166 238.576 155.622 239.184 155.206 239.632C154.79 240.112 154.23 240.688 153.526 241.36C152.79 242 152.07 242.576 151.366 243.088C150.63 243.6 150.022 243.856 149.542 243.856C149.318 243.856 149.19 243.808 149.158 243.712C149.094 243.616 149.062 243.552 149.062 243.52C149.574 243.52 150.342 243.168 151.366 242.464C152.358 241.728 153.638 240.464 155.206 238.672C157.094 236.496 158.87 234.16 160.534 231.664C162.23 229.136 163.75 226.512 165.094 223.792H165.142C165.558 223.792 165.766 224.192 165.766 224.992C165.766 225.728 165.51 226.592 164.998 227.584C164.87 227.808 164.678 228.112 164.422 228.496C165.062 228.624 165.702 228.72 166.342 228.784C166.982 228.816 167.574 228.832 168.118 228.832C168.566 228.832 168.982 228.816 169.366 228.784C169.75 228.752 170.054 228.704 170.278 228.64C170.566 228.64 170.71 228.704 170.71 228.832C170.742 228.928 170.726 229.008 170.662 229.072C170.534 229.2 170.262 229.488 169.846 229.936C169.462 230.384 169.014 230.88 168.502 231.424C168.022 231.936 167.574 232.432 167.158 232.912C166.742 233.36 166.438 233.696 166.246 233.92C165.254 235.104 164.262 236.4 163.27 237.808C162.31 239.216 161.638 240.48 161.254 241.6C161.126 241.888 161.062 242.16 161.062 242.416C161.062 242.864 161.27 243.088 161.686 243.088C162.134 243.088 162.694 242.832 163.366 242.32C164.038 241.776 164.71 241.152 165.382 240.448C166.086 239.744 166.646 239.152 167.062 238.672C167.19 238.672 167.254 238.768 167.254 238.96C167.254 239.248 167.19 239.472 167.062 239.632C165.59 241.36 164.39 242.544 163.462 243.184C162.566 243.792 161.734 244.096 160.966 244.096ZM172.73 244.048C171.546 244.048 170.954 243.376 170.954 242.032C170.954 241.264 171.178 240.352 171.626 239.296C172.074 238.208 172.746 237.072 173.642 235.888C174.282 235.088 175.066 234.24 175.994 233.344C176.922 232.416 177.93 231.536 179.018 230.704C180.138 229.872 181.274 229.2 182.426 228.688C183.578 228.144 184.698 227.872 185.786 227.872C186.266 227.872 186.602 227.952 186.794 228.112C186.986 228.24 187.114 228.384 187.178 228.544C187.242 228.672 187.242 228.768 187.178 228.832C187.146 228.896 187.098 228.912 187.034 228.88C186.906 228.816 186.65 228.784 186.266 228.784C185.114 228.784 183.738 229.344 182.138 230.464C180.57 231.552 179.018 232.976 177.482 234.736C176.394 235.952 175.498 237.152 174.794 238.336C174.09 239.488 173.626 240.448 173.402 241.216C173.338 241.472 173.306 241.696 173.306 241.888C173.306 242.336 173.482 242.56 173.834 242.56C174.058 242.56 174.362 242.464 174.746 242.272C175.13 242.048 175.626 241.68 176.234 241.168C177.194 240.336 178.138 239.36 179.066 238.24C180.026 237.12 180.97 235.984 181.898 234.832C182.826 233.648 183.722 232.56 184.586 231.568C185.482 230.576 186.33 229.824 187.13 229.312C188.154 228.64 188.858 228.256 189.242 228.16C189.658 228.064 189.994 228 190.25 227.968C190.09 228.16 189.738 228.608 189.194 229.312C188.65 230.016 188.074 230.768 187.466 231.568C186.858 232.336 186.362 232.976 185.978 233.488C185.402 234.32 184.778 235.216 184.106 236.176C183.466 237.136 182.874 238.048 182.33 238.912C181.818 239.744 181.466 240.432 181.274 240.976C181.114 241.52 181.034 241.92 181.034 242.176C181.034 242.688 181.242 242.944 181.658 242.944C181.946 242.944 182.282 242.832 182.666 242.608C183.082 242.352 183.498 242.064 183.914 241.744C184.458 241.296 184.97 240.832 185.45 240.352C185.93 239.84 186.426 239.28 186.938 238.672C187.066 238.672 187.13 238.768 187.13 238.96C187.13 239.248 187.066 239.472 186.938 239.632C186.522 240.112 186.01 240.64 185.402 241.216C184.826 241.792 184.25 242.304 183.674 242.752C183.258 243.104 182.778 243.408 182.234 243.664C181.69 243.92 181.162 244.048 180.65 244.048C179.914 244.048 179.402 243.872 179.114 243.52C178.826 243.168 178.682 242.72 178.682 242.176C178.682 241.536 178.826 240.848 179.114 240.112C179.402 239.344 179.722 238.624 180.074 237.952C179.658 238.464 179.13 239.088 178.49 239.824C177.85 240.528 177.274 241.12 176.762 241.6C176.058 242.24 175.386 242.816 174.746 243.328C174.106 243.808 173.434 244.048 172.73 244.048ZM192.628 244C191.86 244 191.316 243.84 190.996 243.52C190.676 243.168 190.516 242.736 190.516 242.224C190.516 241.68 190.644 241.088 190.9 240.448C191.156 239.808 191.46 239.168 191.812 238.528C192.42 237.504 193.172 236.48 194.068 235.456C194.996 234.432 195.94 233.488 196.9 232.624C197.892 231.76 198.756 231.04 199.492 230.464C200.196 229.856 200.932 229.376 201.7 229.024C201.284 229.056 200.868 229.088 200.452 229.12C200.068 229.152 199.7 229.184 199.348 229.216C198.676 229.248 198.052 229.328 197.476 229.456C196.932 229.552 196.42 229.744 195.94 230.032C196.1 229.488 196.436 229.04 196.948 228.688C197.492 228.304 198.036 228.096 198.58 228.064C199.124 228 199.796 228 200.596 228.064C201.396 228.128 202.132 228.16 202.804 228.16C202.996 228.16 203.22 228.144 203.476 228.112C203.764 228.08 203.988 228 204.148 227.872C204.148 228.192 203.908 228.464 203.428 228.688C203.236 228.784 203.044 228.88 202.852 228.976C202.66 229.072 202.5 229.168 202.372 229.264C202.052 229.488 201.732 229.744 201.412 230.032C201.124 230.32 200.82 230.624 200.5 230.944C198.036 233.344 195.892 236.16 194.068 239.392C193.78 239.904 193.524 240.4 193.3 240.88C193.108 241.328 193.012 241.696 193.012 241.984C193.012 242.336 193.204 242.512 193.588 242.512C194.164 242.512 194.884 242.24 195.748 241.696C196.612 241.152 197.556 240.416 198.58 239.488C199.604 238.56 200.612 237.504 201.604 236.32C201.956 235.904 202.404 235.296 202.948 234.496C203.524 233.696 204.052 232.912 204.532 232.144C205.044 231.376 205.38 230.848 205.54 230.56C206.276 229.312 206.996 228.56 207.7 228.304C208.436 228.016 209.108 227.904 209.716 227.968C209.492 228.288 209.076 228.816 208.468 229.552C207.892 230.288 207.204 231.12 206.404 232.048C205.636 232.976 204.852 233.904 204.052 234.832C203.284 235.728 202.58 236.528 201.94 237.232C201.332 237.936 200.9 238.432 200.644 238.72C199.812 239.584 198.948 240.432 198.052 241.264C197.188 242.064 196.292 242.72 195.364 243.232C194.468 243.744 193.556 244 192.628 244ZM213.192 244.336C211.72 244.336 210.68 244.016 210.072 243.376C209.464 242.736 209.16 241.872 209.16 240.784C209.16 239.728 209.448 238.624 210.024 237.472C210.632 236.288 211.384 235.168 212.28 234.112C212.824 233.472 213.496 232.8 214.296 232.096C215.096 231.392 215.96 230.736 216.888 230.128C217.816 229.488 218.728 228.976 219.624 228.592C220.552 228.176 221.368 227.968 222.072 227.968C222.456 227.968 222.808 228.064 223.128 228.256C223.448 228.416 223.608 228.784 223.608 229.36C223.608 230.16 223.224 230.928 222.456 231.664C221.688 232.368 220.824 233.024 219.864 233.632C218.776 234.336 217.64 234.928 216.456 235.408C215.272 235.888 214.248 236.256 213.384 236.512C212.904 237.28 212.52 238.064 212.232 238.864C211.944 239.664 211.8 240.448 211.8 241.216C211.8 242.048 211.992 242.624 212.376 242.944C212.792 243.232 213.272 243.376 213.816 243.376C214.808 243.376 215.704 243.152 216.504 242.704C217.336 242.224 218.104 241.616 218.808 240.88C219.512 240.144 220.184 239.408 220.824 238.672C220.952 238.672 221.016 238.768 221.016 238.96C221.016 239.248 220.952 239.472 220.824 239.632C220.184 240.368 219.48 241.104 218.712 241.84C217.976 242.576 217.16 243.184 216.264 243.664C215.368 244.112 214.344 244.336 213.192 244.336ZM213.96 235.84C214.792 235.552 215.768 235.152 216.888 234.64C218.04 234.128 219.048 233.568 219.912 232.96C220.104 232.832 220.44 232.576 220.92 232.192C221.4 231.776 221.848 231.328 222.264 230.848C222.68 230.336 222.888 229.888 222.888 229.504C222.888 228.992 222.632 228.736 222.12 228.736C221.576 228.736 220.952 228.976 220.248 229.456C219.576 229.936 219.032 230.352 218.616 230.704C217.848 231.408 217.048 232.192 216.216 233.056C215.384 233.92 214.632 234.848 213.96 235.84ZM226.985 244.144C225.385 244.144 224.585 243.408 224.585 241.936C224.585 241.456 224.697 240.896 224.921 240.256C225.145 239.616 225.561 238.768 226.169 237.712C227.001 236.272 228.169 234.576 229.673 232.624C231.209 230.672 232.841 228.768 234.569 226.912C236.073 225.216 237.705 223.664 239.465 222.256C241.257 220.816 243.113 219.824 245.033 219.28C245.321 219.184 245.657 219.104 246.041 219.04C246.425 218.976 246.825 218.944 247.241 218.944C248.009 218.944 248.665 219.056 249.209 219.28C249.465 219.408 249.721 219.584 249.977 219.808C250.233 220 250.409 220.288 250.505 220.672C250.153 220.384 249.753 220.176 249.305 220.048C248.857 219.888 248.313 219.808 247.673 219.808C246.009 219.808 244.409 220.352 242.873 221.44C241.337 222.528 239.801 223.936 238.265 225.664C236.761 227.36 235.177 229.168 233.513 231.088C232.873 231.824 232.169 232.736 231.401 233.824C230.633 234.912 229.897 236 229.193 237.088C228.521 238.176 227.977 239.104 227.561 239.872C227.337 240.224 227.161 240.608 227.033 241.024C226.937 241.408 226.889 241.728 226.889 241.984C226.889 242.752 227.177 243.136 227.753 243.136C228.361 243.136 229.033 242.848 229.769 242.272C230.537 241.696 231.257 241.056 231.929 240.352C232.633 239.648 233.161 239.088 233.513 238.672C233.641 238.672 233.705 238.768 233.705 238.96C233.705 239.248 233.641 239.472 233.513 239.632C232.233 241.104 231.049 242.224 229.961 242.992C228.905 243.76 227.913 244.144 226.985 244.144ZM35.7175 282V281.104L39.2055 280.72H40.9655L44.5495 281.104V282H35.7175ZM38.2455 282C38.2668 281.467 38.2775 280.763 38.2775 279.888C38.2988 279.013 38.3095 278.096 38.3095 277.136C38.3308 276.176 38.3415 275.344 38.3415 274.64V272.56C38.3415 271.451 38.3308 270.491 38.3095 269.68C38.3095 268.869 38.2882 268.08 38.2455 267.312L35.5255 267.12V266.32L40.8375 264.912L41.2535 265.168L41.4455 269.68V269.712V274.64C41.4455 275.344 41.4455 276.176 41.4455 277.136C41.4668 278.096 41.4775 279.013 41.4775 279.888C41.4988 280.763 41.5202 281.467 41.5415 282H38.2455ZM41.4455 271.792L40.6455 270.032H41.2855C41.6268 268.965 42.0748 268.048 42.6295 267.28C43.2055 266.491 43.8455 265.883 44.5495 265.456C45.2748 265.029 46.0108 264.816 46.7575 264.816C47.3975 264.816 47.9522 264.955 48.4215 265.232C48.9122 265.488 49.2322 265.904 49.3815 266.48C49.3815 267.056 49.2322 267.525 48.9335 267.888C48.6562 268.251 48.2082 268.432 47.5895 268.432C47.1628 268.432 46.7788 268.315 46.4375 268.08C46.0962 267.845 45.7335 267.515 45.3495 267.088L44.6135 266.352L45.9895 266.416C44.9442 266.779 44.0482 267.387 43.3015 268.24C42.5762 269.072 41.9575 270.256 41.4455 271.792ZM58.7928 282.48C57.1714 282.48 55.7314 282.149 54.4728 281.488C53.2141 280.827 52.2221 279.845 51.4968 278.544C50.7928 277.221 50.4408 275.6 50.4408 273.68C50.4408 271.845 50.8141 270.267 51.5608 268.944C52.3074 267.621 53.2994 266.608 54.5368 265.904C55.7741 265.179 57.1074 264.816 58.5368 264.816C59.9874 264.816 61.2141 265.115 62.2168 265.712C63.2408 266.309 64.0088 267.12 64.5208 268.144C65.0541 269.147 65.3208 270.299 65.3208 271.6C65.3208 272.368 65.2568 273.008 65.1287 273.52H51.8488V272.496H60.8088C61.4061 272.496 61.8114 272.336 62.0248 272.016C62.2381 271.696 62.3448 271.184 62.3448 270.48C62.3448 269.093 62.0034 267.984 61.3208 267.152C60.6381 266.299 59.6781 265.872 58.4408 265.872C57.5661 265.872 56.7661 266.16 56.0408 266.736C55.3368 267.291 54.7714 268.123 54.3448 269.232C53.9181 270.32 53.7048 271.664 53.7048 273.264C53.7048 274.992 53.9608 276.421 54.4728 277.552C55.0061 278.661 55.7208 279.472 56.6168 279.984C57.5128 280.496 58.5474 280.752 59.7208 280.752C60.8514 280.752 61.8221 280.549 62.6328 280.144C63.4648 279.739 64.1901 279.163 64.8088 278.416L65.3528 278.832C64.6701 279.984 63.7741 280.88 62.6648 281.52C61.5768 282.16 60.2861 282.48 58.7928 282.48ZM72.673 282.48C71.393 282.48 70.3263 282.117 69.473 281.392C68.6197 280.667 68.193 279.632 68.193 278.288C68.193 277.435 68.3743 276.677 68.737 276.016C69.121 275.355 69.7503 274.768 70.625 274.256C71.4997 273.723 72.673 273.243 74.145 272.816C75.0197 272.56 75.9583 272.304 76.961 272.048C77.9637 271.792 78.8917 271.557 79.745 271.344V272.144C78.8917 272.357 78.0277 272.592 77.153 272.848C76.2997 273.083 75.5317 273.328 74.849 273.584C73.5477 274.075 72.609 274.672 72.033 275.376C71.4783 276.059 71.201 276.88 71.201 277.84C71.201 278.821 71.457 279.557 71.969 280.048C72.5023 280.539 73.1957 280.784 74.049 280.784C74.497 280.784 74.945 280.699 75.393 280.528C75.841 280.357 76.353 280.048 76.929 279.6C77.505 279.131 78.1877 278.491 78.977 277.68L79.297 279.248H78.433C77.793 279.952 77.185 280.549 76.609 281.04C76.033 281.509 75.4357 281.861 74.817 282.096C74.1983 282.352 73.4837 282.48 72.673 282.48ZM81.313 282.448C80.3317 282.448 79.585 282.128 79.073 281.488C78.5823 280.848 78.2943 279.973 78.209 278.864V278.768V270.32C78.209 269.125 78.081 268.208 77.825 267.568C77.569 266.928 77.1743 266.48 76.641 266.224C76.129 265.968 75.457 265.84 74.625 265.84C74.0277 265.84 73.4197 265.925 72.801 266.096C72.2037 266.245 71.5423 266.512 70.817 266.896L72.385 266.032L71.905 268.56C71.841 269.221 71.649 269.691 71.329 269.968C71.0303 270.245 70.6677 270.384 70.241 270.384C69.3877 270.384 68.865 269.968 68.673 269.136C68.9503 267.792 69.6757 266.736 70.849 265.968C72.0437 265.2 73.6117 264.816 75.553 264.816C77.4943 264.816 78.9237 265.275 79.841 266.192C80.7583 267.109 81.217 268.592 81.217 270.64V278.672C81.217 279.589 81.3237 280.219 81.537 280.56C81.7717 280.901 82.0917 281.072 82.497 281.072C82.753 281.072 82.9877 281.008 83.201 280.88C83.4143 280.752 83.6597 280.528 83.937 280.208L84.449 280.656C84.1077 281.275 83.6703 281.723 83.137 282C82.625 282.299 82.017 282.448 81.313 282.448ZM93.2948 282.48C91.9294 282.48 90.7028 282.128 89.6148 281.424C88.5481 280.699 87.7054 279.685 87.0868 278.384C86.4894 277.083 86.1908 275.568 86.1908 273.84C86.1908 271.984 86.5214 270.384 87.1828 269.04C87.8654 267.696 88.7721 266.661 89.9028 265.936C91.0548 265.189 92.3348 264.816 93.7428 264.816C94.7028 264.816 95.6201 265.051 96.4948 265.52C97.3694 265.989 98.1908 266.768 98.9588 267.856H99.2788L98.8308 268.592C98.1054 267.824 97.4121 267.28 96.7508 266.96C96.1108 266.619 95.4174 266.448 94.6708 266.448C93.7321 266.448 92.8681 266.693 92.0788 267.184C91.3108 267.653 90.6921 268.432 90.2228 269.52C89.7534 270.587 89.5188 271.995 89.5188 273.744C89.5188 275.387 89.7321 276.731 90.1588 277.776C90.6068 278.821 91.2041 279.589 91.9508 280.08C92.6974 280.571 93.5401 280.816 94.4788 280.816C95.2894 280.816 96.0361 280.645 96.7188 280.304C97.4014 279.941 98.0841 279.355 98.7668 278.544L99.2148 279.376H98.9268C98.2014 280.4 97.3588 281.179 96.3988 281.712C95.4601 282.224 94.4254 282.48 93.2948 282.48ZM98.5428 282.32L98.3508 279.216V279.152V267.984L98.4468 267.664V258.16L95.5988 258V257.136L101.071 256.112L101.551 256.4L101.455 261.296V280.912L104.271 281.104V282L98.5428 282.32ZM122.882 282.48C121.389 282.48 120.023 282.149 118.786 281.488C117.549 280.805 116.557 279.803 115.81 278.48C115.085 277.157 114.722 275.547 114.722 273.648C114.722 271.728 115.106 270.117 115.874 268.816C116.642 267.493 117.645 266.501 118.882 265.84C120.141 265.157 121.474 264.816 122.882 264.816C124.333 264.816 125.677 265.157 126.914 265.84C128.173 266.501 129.186 267.493 129.954 268.816C130.722 270.117 131.106 271.728 131.106 273.648C131.106 275.547 130.722 277.157 129.954 278.48C129.207 279.803 128.215 280.805 126.978 281.488C125.741 282.149 124.375 282.48 122.882 282.48ZM122.882 281.456C124.397 281.456 125.581 280.795 126.434 279.472C127.287 278.149 127.714 276.219 127.714 273.68C127.714 271.141 127.287 269.211 126.434 267.888C125.581 266.544 124.397 265.872 122.882 265.872C121.389 265.872 120.215 266.544 119.362 267.888C118.509 269.211 118.082 271.141 118.082 273.68C118.082 276.219 118.509 278.149 119.362 279.472C120.215 280.795 121.389 281.456 122.882 281.456ZM133.843 282V281.104L137.299 280.752H138.611L141.97 281.104V282H133.843ZM136.371 282C136.392 281.467 136.403 280.763 136.403 279.888C136.424 279.013 136.435 278.096 136.435 277.136C136.456 276.176 136.467 275.344 136.467 274.64V272.56C136.467 271.472 136.456 270.523 136.435 269.712C136.435 268.88 136.413 268.08 136.371 267.312L133.651 267.12V266.32L138.963 264.912L139.379 265.168L139.571 268.88V268.912V274.64C139.571 275.344 139.571 276.176 139.571 277.136C139.592 278.096 139.603 279.013 139.603 279.888C139.624 280.763 139.645 281.467 139.667 282H136.371ZM144.787 282V281.104L148.179 280.752H149.523L152.883 281.104V282H144.787ZM147.283 282C147.304 281.467 147.315 280.773 147.315 279.92C147.336 279.045 147.347 278.128 147.347 277.168C147.368 276.208 147.379 275.365 147.379 274.64V270.736C147.379 269.243 147.133 268.197 146.643 267.6C146.152 266.981 145.459 266.672 144.563 266.672C143.859 266.672 143.016 266.917 142.035 267.408C141.053 267.877 140.008 268.731 138.899 269.968L138.675 268.816H139.027C140.2 267.365 141.352 266.341 142.483 265.744C143.613 265.125 144.744 264.816 145.875 264.816C147.304 264.816 148.424 265.296 149.235 266.256C150.045 267.195 150.451 268.731 150.451 270.864V274.64C150.451 275.365 150.451 276.208 150.451 277.168C150.472 278.128 150.493 279.045 150.515 279.92C150.536 280.773 150.557 281.467 150.579 282H147.283ZM155.026 282V281.104L158.738 280.752H160.018L163.794 281.104V282H155.026ZM157.778 282C157.799 281.296 157.81 280.528 157.81 279.696C157.831 278.843 157.842 277.979 157.842 277.104C157.863 276.229 157.874 275.408 157.874 274.64V258.16L155.154 258V257.136L160.626 256.112L161.106 256.4L161.01 261.392V274.64C161.01 275.408 161.01 276.229 161.01 277.104C161.031 277.979 161.042 278.843 161.042 279.696C161.063 280.528 161.084 281.296 161.106 282H157.778ZM167.252 290.672C166.505 290.672 165.823 290.501 165.204 290.16C164.607 289.84 164.276 289.381 164.212 288.784C164.297 288.293 164.532 287.931 164.916 287.696C165.321 287.461 165.769 287.344 166.26 287.344C166.729 287.344 167.156 287.461 167.54 287.696C167.945 287.931 168.329 288.251 168.692 288.656L169.62 289.616L168.564 290.192L167.956 289.648C169.001 289.307 169.919 288.635 170.708 287.632C171.497 286.629 172.201 285.328 172.82 283.728L173.748 281.424L173.94 280.912L176.756 273.072L179.412 265.296H180.692L173.908 283.44C173.268 285.168 172.596 286.565 171.892 287.632C171.188 288.699 170.452 289.467 169.684 289.936C168.937 290.427 168.127 290.672 167.252 290.672ZM173.332 283.824L165.812 265.296H169.236L174.548 279.76L174.74 280.144L173.332 283.824ZM164.244 266.192V265.296H172.532V266.192L169.172 266.544H167.444L164.244 266.192ZM175.924 266.192V265.296H182.42V266.192L179.796 266.512H179.316L175.924 266.192ZM200.226 282.48C198.732 282.48 197.367 282.149 196.13 281.488C194.892 280.805 193.9 279.803 193.154 278.48C192.428 277.157 192.066 275.547 192.066 273.648C192.066 271.728 192.45 270.117 193.218 268.816C193.986 267.493 194.988 266.501 196.226 265.84C197.484 265.157 198.818 264.816 200.226 264.816C201.676 264.816 203.02 265.157 204.258 265.84C205.516 266.501 206.53 267.493 207.298 268.816C208.066 270.117 208.45 271.728 208.45 273.648C208.45 275.547 208.066 277.157 207.298 278.48C206.551 279.803 205.559 280.805 204.322 281.488C203.084 282.149 201.719 282.48 200.226 282.48ZM200.226 281.456C201.74 281.456 202.924 280.795 203.778 279.472C204.631 278.149 205.058 276.219 205.058 273.68C205.058 271.141 204.631 269.211 203.778 267.888C202.924 266.544 201.74 265.872 200.226 265.872C198.732 265.872 197.559 266.544 196.706 267.888C195.852 269.211 195.426 271.141 195.426 273.68C195.426 276.219 195.852 278.149 196.706 279.472C197.559 280.795 198.732 281.456 200.226 281.456ZM211.186 282V281.104L214.642 280.752H215.954L219.314 281.104V282H211.186ZM213.714 282C213.736 281.467 213.746 280.763 213.746 279.888C213.768 279.013 213.778 278.096 213.778 277.136C213.8 276.176 213.81 275.344 213.81 274.64V272.56C213.81 271.472 213.8 270.523 213.778 269.712C213.778 268.88 213.757 268.08 213.714 267.312L210.994 267.12V266.32L216.306 264.912L216.722 265.168L216.914 268.88V268.912V274.64C216.914 275.344 216.914 276.176 216.914 277.136C216.936 278.096 216.946 279.013 216.946 279.888C216.968 280.763 216.989 281.467 217.01 282H213.714ZM222.13 282V281.104L225.522 280.752H226.866L230.226 281.104V282H222.13ZM224.626 282C224.648 281.467 224.658 280.773 224.658 279.92C224.68 279.045 224.69 278.128 224.69 277.168C224.712 276.208 224.722 275.365 224.722 274.64V270.736C224.722 269.243 224.477 268.197 223.986 267.6C223.496 266.981 222.802 266.672 221.906 266.672C221.202 266.672 220.36 266.917 219.378 267.408C218.397 267.877 217.352 268.731 216.242 269.968L216.018 268.816H216.37C217.544 267.365 218.696 266.341 219.826 265.744C220.957 265.125 222.088 264.816 223.218 264.816C224.648 264.816 225.768 265.296 226.578 266.256C227.389 267.195 227.794 268.731 227.794 270.864V274.64C227.794 275.365 227.794 276.208 227.794 277.168C227.816 278.128 227.837 279.045 227.858 279.92C227.88 280.773 227.901 281.467 227.922 282H224.626ZM241.105 282.48C239.484 282.48 238.044 282.149 236.785 281.488C235.527 280.827 234.535 279.845 233.809 278.544C233.105 277.221 232.753 275.6 232.753 273.68C232.753 271.845 233.127 270.267 233.873 268.944C234.62 267.621 235.612 266.608 236.849 265.904C238.087 265.179 239.42 264.816 240.849 264.816C242.3 264.816 243.527 265.115 244.529 265.712C245.553 266.309 246.321 267.12 246.833 268.144C247.367 269.147 247.633 270.299 247.633 271.6C247.633 272.368 247.569 273.008 247.441 273.52H234.161V272.496H243.121C243.719 272.496 244.124 272.336 244.337 272.016C244.551 271.696 244.657 271.184 244.657 270.48C244.657 269.093 244.316 267.984 243.633 267.152C242.951 266.299 241.991 265.872 240.753 265.872C239.879 265.872 239.079 266.16 238.353 266.736C237.649 267.291 237.084 268.123 236.657 269.232C236.231 270.32 236.017 271.664 236.017 273.264C236.017 274.992 236.273 276.421 236.785 277.552C237.319 278.661 238.033 279.472 238.929 279.984C239.825 280.496 240.86 280.752 242.033 280.752C243.164 280.752 244.135 280.549 244.945 280.144C245.777 279.739 246.503 279.163 247.121 278.416L247.665 278.832C246.983 279.984 246.087 280.88 244.977 281.52C243.889 282.16 242.599 282.48 241.105 282.48ZM258.404 290.32V289.424L261.956 289.104H263.556L267.236 289.424V290.32H258.404ZM261.028 290.32C261.05 289.531 261.06 288.699 261.06 287.824C261.082 286.949 261.092 286.064 261.092 285.168C261.114 284.293 261.124 283.483 261.124 282.736V272.624C261.124 271.536 261.114 270.576 261.092 269.744C261.092 268.891 261.071 268.08 261.028 267.312L258.276 267.12V266.32L263.556 264.912L263.972 265.168L264.196 267.824L264.228 268.016V279.504L264.196 279.856V282.736C264.196 283.461 264.196 284.261 264.196 285.136C264.218 286.032 264.228 286.917 264.228 287.792C264.25 288.688 264.271 289.531 264.292 290.32H261.028ZM269.156 282.48C268.175 282.48 267.204 282.267 266.244 281.84C265.306 281.392 264.442 280.603 263.652 279.472H263.236L263.716 278.704C264.463 279.515 265.178 280.069 265.86 280.368C266.564 280.667 267.343 280.816 268.196 280.816C269.092 280.816 269.903 280.581 270.628 280.112C271.375 279.643 271.962 278.875 272.388 277.808C272.836 276.741 273.06 275.333 273.06 273.584C273.06 271.109 272.623 269.307 271.748 268.176C270.895 267.024 269.754 266.448 268.324 266.448C267.578 266.448 266.82 266.629 266.052 266.992C265.306 267.333 264.484 268.016 263.588 269.04L263.204 268.272H263.524C264.356 267.056 265.306 266.181 266.372 265.648C267.439 265.093 268.527 264.816 269.636 264.816C270.959 264.816 272.122 265.168 273.124 265.872C274.127 266.576 274.927 267.579 275.524 268.88C276.122 270.16 276.42 271.707 276.42 273.52C276.42 275.355 276.1 276.944 275.46 278.288C274.82 279.632 273.956 280.667 272.868 281.392C271.78 282.117 270.543 282.48 269.156 282.48ZM283.829 282.48C282.549 282.48 281.483 282.117 280.629 281.392C279.776 280.667 279.349 279.632 279.349 278.288C279.349 277.435 279.531 276.677 279.893 276.016C280.277 275.355 280.907 274.768 281.781 274.256C282.656 273.723 283.829 273.243 285.301 272.816C286.176 272.56 287.115 272.304 288.117 272.048C289.12 271.792 290.048 271.557 290.901 271.344V272.144C290.048 272.357 289.184 272.592 288.309 272.848C287.456 273.083 286.688 273.328 286.005 273.584C284.704 274.075 283.765 274.672 283.189 275.376C282.635 276.059 282.357 276.88 282.357 277.84C282.357 278.821 282.613 279.557 283.125 280.048C283.659 280.539 284.352 280.784 285.205 280.784C285.653 280.784 286.101 280.699 286.549 280.528C286.997 280.357 287.509 280.048 288.085 279.6C288.661 279.131 289.344 278.491 290.133 277.68L290.453 279.248H289.589C288.949 279.952 288.341 280.549 287.765 281.04C287.189 281.509 286.592 281.861 285.973 282.096C285.355 282.352 284.64 282.48 283.829 282.48ZM292.469 282.448C291.488 282.448 290.741 282.128 290.229 281.488C289.739 280.848 289.451 279.973 289.365 278.864V278.768V270.32C289.365 269.125 289.237 268.208 288.981 267.568C288.725 266.928 288.331 266.48 287.797 266.224C287.285 265.968 286.613 265.84 285.781 265.84C285.184 265.84 284.576 265.925 283.957 266.096C283.36 266.245 282.699 266.512 281.973 266.896L283.541 266.032L283.061 268.56C282.997 269.221 282.805 269.691 282.485 269.968C282.187 270.245 281.824 270.384 281.397 270.384C280.544 270.384 280.021 269.968 279.829 269.136C280.107 267.792 280.832 266.736 282.005 265.968C283.2 265.2 284.768 264.816 286.709 264.816C288.651 264.816 290.08 265.275 290.997 266.192C291.915 267.109 292.373 268.592 292.373 270.64V278.672C292.373 279.589 292.48 280.219 292.693 280.56C292.928 280.901 293.248 281.072 293.653 281.072C293.909 281.072 294.144 281.008 294.357 280.88C294.571 280.752 294.816 280.528 295.093 280.208L295.605 280.656C295.264 281.275 294.827 281.723 294.293 282C293.781 282.299 293.173 282.448 292.469 282.448ZM303.75 290.32C302.086 290.32 300.753 290.128 299.75 289.744C298.769 289.381 298.054 288.88 297.606 288.24C297.179 287.621 296.966 286.907 296.966 286.096C296.966 285.136 297.318 284.293 298.022 283.568C298.747 282.843 299.814 282.213 301.222 281.68L301.382 281.936C300.614 282.555 300.049 283.12 299.686 283.632C299.323 284.165 299.142 284.816 299.142 285.584C299.142 286.736 299.547 287.611 300.358 288.208C301.19 288.805 302.353 289.104 303.846 289.104C306.043 289.104 307.697 288.72 308.806 287.952C309.937 287.205 310.502 286.245 310.502 285.072C310.502 284.411 310.257 283.813 309.766 283.28C309.275 282.768 308.379 282.512 307.078 282.512H303.238C302.641 282.512 302.129 282.501 301.702 282.48C301.297 282.459 300.913 282.384 300.55 282.256V282.192C298.865 281.744 298.022 280.773 298.022 279.28C298.022 278.576 298.235 277.904 298.662 277.264C299.089 276.603 299.814 275.899 300.838 275.152V274.864L301.542 275.216C301.03 275.771 300.646 276.251 300.39 276.656C300.155 277.061 300.038 277.52 300.038 278.032C300.038 278.587 300.219 279.024 300.582 279.344C300.966 279.664 301.595 279.824 302.47 279.824H307.174C308.561 279.824 309.691 280.005 310.566 280.368C311.441 280.709 312.081 281.211 312.486 281.872C312.913 282.533 313.126 283.312 313.126 284.208C313.126 285.232 312.763 286.213 312.038 287.152C311.334 288.091 310.278 288.848 308.87 289.424C307.483 290.021 305.777 290.32 303.75 290.32ZM304.23 276.304C302.865 276.304 301.691 276.059 300.71 275.568C299.75 275.077 299.014 274.405 298.502 273.552C297.99 272.699 297.734 271.707 297.734 270.576C297.734 268.848 298.299 267.461 299.43 266.416C300.582 265.349 302.182 264.816 304.23 264.816C305.297 264.816 306.235 264.965 307.046 265.264C307.878 265.541 308.561 265.957 309.094 266.512L309.19 266.608C310.193 267.568 310.694 268.891 310.694 270.576C310.694 271.707 310.438 272.699 309.926 273.552C309.414 274.405 308.667 275.077 307.686 275.568C306.726 276.059 305.574 276.304 304.23 276.304ZM304.198 275.312C305.329 275.312 306.214 274.885 306.854 274.032C307.515 273.157 307.846 271.995 307.846 270.544C307.846 269.093 307.515 267.941 306.854 267.088C306.193 266.213 305.329 265.776 304.262 265.776C303.131 265.776 302.235 266.213 301.574 267.088C300.934 267.963 300.614 269.125 300.614 270.576C300.614 272.005 300.934 273.157 301.574 274.032C302.214 274.885 303.089 275.312 304.198 275.312ZM308.102 266.896V266.384H308.294L312.774 264.912L313.318 265.264V267.152L308.102 266.896ZM323.73 282.48C322.109 282.48 320.669 282.149 319.41 281.488C318.152 280.827 317.16 279.845 316.434 278.544C315.73 277.221 315.378 275.6 315.378 273.68C315.378 271.845 315.752 270.267 316.498 268.944C317.245 267.621 318.237 266.608 319.474 265.904C320.712 265.179 322.045 264.816 323.474 264.816C324.925 264.816 326.152 265.115 327.154 265.712C328.178 266.309 328.946 267.12 329.458 268.144C329.992 269.147 330.258 270.299 330.258 271.6C330.258 272.368 330.194 273.008 330.066 273.52H316.786V272.496H325.746C326.344 272.496 326.749 272.336 326.962 272.016C327.176 271.696 327.282 271.184 327.282 270.48C327.282 269.093 326.941 267.984 326.258 267.152C325.576 266.299 324.616 265.872 323.378 265.872C322.504 265.872 321.704 266.16 320.978 266.736C320.274 267.291 319.709 268.123 319.282 269.232C318.856 270.32 318.642 271.664 318.642 273.264C318.642 274.992 318.898 276.421 319.41 277.552C319.944 278.661 320.658 279.472 321.554 279.984C322.45 280.496 323.485 280.752 324.658 280.752C325.789 280.752 326.76 280.549 327.57 280.144C328.402 279.739 329.128 279.163 329.746 278.416L330.29 278.832C329.608 279.984 328.712 280.88 327.602 281.52C326.514 282.16 325.224 282.48 323.73 282.48ZM336.279 282.48C335.661 282.48 335.149 282.267 334.743 281.84C334.338 281.413 334.135 280.912 334.135 280.336C334.135 279.739 334.338 279.237 334.743 278.832C335.149 278.405 335.661 278.192 336.279 278.192C336.898 278.192 337.41 278.405 337.815 278.832C338.242 279.237 338.455 279.739 338.455 280.336C338.455 280.912 338.242 281.413 337.815 281.84C337.41 282.267 336.898 282.48 336.279 282.48Z" fill="#926D3C"/>
<path d="M124.81 336.7H126.09C126.53 336.7 126.95 336.68 127.37 336.64C127.45 336.7 127.45 338.1 127.37 338.16C127.05 338.12 126.53 338.1 126.09 338.1H124.81H123.53C123.09 338.1 122.67 338.12 122.25 338.16C122.17 338.1 122.17 336.7 122.25 336.64C122.57 336.68 123.09 336.7 123.53 336.7H124.81ZM139.736 334.74L140.776 335.18C142.476 335.92 143.796 336.92 143.796 339.1C143.796 341.42 141.876 343.26 138.816 343.26C136.736 343.26 134.956 342.42 133.696 341.1L134.796 339.82C135.836 340.92 137.316 341.64 138.836 341.64C140.776 341.64 141.916 340.68 141.916 339.26C141.916 337.74 140.856 337.26 139.456 336.64L138.396 336.18L137.356 335.72C135.996 335.14 134.376 334.1 134.376 331.96C134.376 329.7 136.336 328.08 138.996 328.08C140.736 328.08 142.276 328.82 143.296 329.88L142.336 331.06C141.436 330.22 140.356 329.7 138.996 329.7C137.336 329.7 136.256 330.52 136.256 331.82C136.256 333.26 137.556 333.8 138.696 334.28L139.736 334.74ZM148.084 336.66V339.7C148.084 341.02 148.504 341.78 149.764 341.78C150.164 341.78 150.644 341.64 151.004 341.48L151.364 342.86C150.744 343.06 150.024 343.26 149.344 343.26C147.044 343.26 146.264 341.82 146.264 339.64V333.62H144.644V332.24L146.364 332.14L146.564 329.08H148.084V332.14H149.564C150.084 332.14 150.564 332.12 151.044 332.08C151.124 332.14 151.124 333.62 151.044 333.66C150.864 333.64 150.564 333.62 150.304 333.62H149.564H148.084V336.66ZM153.619 340.86C153.859 340.62 154.199 340.48 154.559 340.48C154.919 340.48 155.259 340.62 155.499 340.86C155.739 341.1 155.879 341.46 155.879 341.88C155.879 342.7 155.279 343.26 154.559 343.26C153.819 343.26 153.239 342.7 153.239 341.88C153.239 341.46 153.379 341.1 153.619 340.86ZM171.398 335.68L173.898 343H171.938L170.538 338.52H167.858H165.178L163.758 343H161.898L166.858 328.34H168.918L171.398 335.68ZM165.998 335.94L165.638 337.06H167.858H170.078L169.378 334.8C168.838 333.14 168.378 331.54 167.898 329.84H167.818C167.358 331.56 166.878 333.14 166.358 334.8L165.998 335.94ZM184.17 337.58V343H182.65L182.51 341.3H182.45C181.43 342.48 180.35 343.26 178.87 343.26C176.57 343.26 175.53 341.8 175.53 339.02V332.14H176.45H177.37V338.8C177.37 340.82 177.97 341.68 179.41 341.68C180.53 341.68 181.31 341.12 182.35 339.84V332.14H184.17V337.58ZM195.678 333.54H194.578C195.098 334.04 195.458 334.84 195.458 335.78C195.458 338.1 193.718 339.56 191.478 339.56C190.958 339.56 190.358 339.42 189.878 339.18C189.478 339.52 189.178 339.88 189.178 340.48C189.178 341.16 189.618 341.66 191.078 341.66H193.218C195.718 341.66 196.998 342.44 196.998 344.24C196.998 346.26 194.858 348 191.498 348C188.858 348 187.018 346.96 187.018 345.1C187.018 344.16 187.598 343.26 188.618 342.64V342.54C188.058 342.2 187.638 341.62 187.638 340.76C187.638 339.86 188.258 339.14 188.838 338.74V338.66C188.118 338.1 187.418 337.04 187.418 335.74C187.418 333.36 189.298 331.86 191.478 331.86C192.098 331.86 192.638 331.98 193.018 332.14H194.898H195.858C196.198 332.14 196.498 332.12 196.798 332.1C196.878 332.14 196.878 333.54 196.798 333.58C196.658 333.56 196.438 333.54 196.238 333.54H195.678ZM193.118 337.62C193.538 337.18 193.798 336.52 193.798 335.74C193.798 334.14 192.778 333.2 191.478 333.2C190.218 333.2 189.178 334.14 189.178 335.74C189.178 336.52 189.438 337.18 189.858 337.62C190.278 338.06 190.858 338.32 191.478 338.32C192.118 338.32 192.698 338.06 193.118 337.62ZM194.258 346.06C194.858 345.66 195.198 345.1 195.198 344.54C195.198 343.52 194.438 343.16 192.998 343.16H192.058H191.118C190.718 343.16 190.198 343.12 189.718 343C188.938 343.56 188.618 344.22 188.618 344.84C188.618 346 189.778 346.74 191.758 346.74C192.818 346.74 193.678 346.48 194.258 346.06ZM207.607 337.58V343H206.087L205.947 341.3H205.887C204.867 342.48 203.787 343.26 202.307 343.26C200.007 343.26 198.967 341.8 198.967 339.02V332.14H199.887H200.807V338.8C200.807 340.82 201.407 341.68 202.847 341.68C203.967 341.68 204.747 341.12 205.787 339.84V332.14H207.607V337.58ZM211.656 332.76C212.296 332.2 213.236 331.86 214.416 331.86C215.756 331.86 216.956 332.42 217.776 333.1L216.896 334.24C216.156 333.7 215.396 333.28 214.436 333.28C213.056 333.28 212.416 334 212.416 334.86C212.416 335.88 213.536 336.28 214.756 336.74C216.336 337.34 218.056 337.98 218.056 340.04C218.056 340.92 217.716 341.72 217.056 342.3C216.376 342.9 215.396 343.26 214.116 343.26C212.576 343.26 211.096 342.62 210.076 341.76L210.956 340.54C211.916 341.32 212.876 341.84 214.176 341.84C215.616 341.84 216.316 341.08 216.316 340.14C216.316 339.04 215.036 338.52 213.836 338.08C212.316 337.52 210.676 336.8 210.676 334.94C210.676 334.08 211.016 333.3 211.656 332.76ZM222.322 336.66V339.7C222.322 341.02 222.742 341.78 224.002 341.78C224.402 341.78 224.882 341.64 225.242 341.48L225.602 342.86C224.982 343.06 224.262 343.26 223.582 343.26C221.282 343.26 220.502 341.82 220.502 339.64V333.62H218.882V332.24L220.602 332.14L220.802 329.08H222.322V332.14H223.802C224.322 332.14 224.802 332.12 225.282 332.08C225.362 332.14 225.362 333.62 225.282 333.66C225.102 333.64 224.802 333.62 224.542 333.62H223.802H222.322V336.66ZM229.561 337.58V343H228.641H227.721V332.14H229.561V337.58ZM227.781 329.56C227.561 329.36 227.441 329.04 227.441 328.68C227.441 327.98 227.921 327.5 228.641 327.5C229.361 327.5 229.861 327.98 229.861 328.68C229.861 329.04 229.741 329.36 229.521 329.56C229.301 329.78 229.001 329.9 228.641 329.9C228.281 329.9 227.981 329.78 227.781 329.56ZM233.229 337.58V332.14H234.729L234.909 333.72H234.949C235.969 332.68 237.109 331.86 238.589 331.86C240.869 331.86 241.909 333.36 241.909 336.12V343H240.089V336.36C240.089 334.32 239.469 333.46 238.029 333.46C236.909 333.46 236.149 334.02 235.069 335.12V343H234.149H233.229V337.58ZM251.916 338H250.096H246.436C246.556 340.32 247.976 341.8 250.036 341.8C251.096 341.8 251.936 341.48 252.756 340.94L253.396 342.16C252.456 342.78 251.296 343.26 249.836 343.26C246.936 343.26 244.636 341.16 244.636 337.58C244.636 334.04 247.016 331.86 249.496 331.86C252.276 331.86 253.836 333.86 253.836 336.96C253.836 337.36 253.796 337.72 253.756 338H251.916ZM250.776 336.7H252.236C252.236 334.5 251.236 333.32 249.536 333.32C247.996 333.32 246.636 334.54 246.416 336.7H249.316H250.776Z" fill="#926D3C"/>
</svg>
