<svg width="183" height="533" viewBox="0 0 183 533" fill="none" xmlns="http://www.w3.org/2000/svg">
<path d="M78.9811 19.1942L84.03 19.2533L86.3197 16.4358L95.1275 18.4311L108.396 31.2851L111.095 38.2696L120.196 41.8491L123.367 49.0682L112.797 71.4885L106.282 71.8996L101.409 69.0821L92.7768 71.5476L87.728 75.7729L86.0259 85.1046L86.3197 104.59L47.7491 108.464L38.884 102.771L26.7294 58.459L29.1983 46.9556L37.3575 42.0837L44.3449 41.0279L45.402 64.9742L55.6753 62.5678L58.9039 46.7792L59.6062 35.6868L56.8471 30.0528L49.8632 25.7094L45.8105 18.2556L51.6226 6.22379L62.3689 1L71.6425 17.0815L78.9811 19.1942ZM25.0274 73.6011L25.9089 80.9967L19.6273 79.1187L14.754 81.6423L11.4681 90.7394L4.30513 87.4527L1.42773 74.3641L6.77044 54.7613L19.5091 53.9982L25.0274 73.6011ZM181.428 121.904L180.138 129.711L166.693 131.412L161.057 124.487L148.494 125.367L146.322 121.904L151.547 114.979L161.526 110.636L174.559 112.397L181.428 121.904Z" fill="white" fill-opacity="0.2" stroke="white" stroke-width="0.5"/>
</svg>
