<svg width="183" height="533" viewBox="0 0 183 533" fill="none" xmlns="http://www.w3.org/2000/svg">
<path d="M74.0349 8.55052L76.3369 8.44576L78.6673 7.39029L78.8571 5.66909L78.705 2.45479L78.9524 1.98901L82.4817 2.9017L86.0198 4.34721L86.5144 7.54235L87.466 9.11148L88.5883 10.5474L89.6536 11.194L91.5086 11.2987L96.3123 13.1909L98.6236 13.5713L100.992 14.8836L102.99 16.2151L104.445 16.5004L105.121 17.9552L106.015 18.9537L107.594 18.1835L113.358 17.1089L115.432 18.5448L116.83 20.0664L117.02 20.5417L116.288 21.8825L115.936 22.9191L115.337 23.6133L113.358 24.3454L112.245 25.5248L111.427 26.818L111.979 28.0542L113.596 28.9861L114.738 29.1953L115.175 30.0987L118.837 34.1308L121.748 39.3893L122.88 40.2071L123.945 40.4068L125.182 39.6366L126.609 37.9249L128.292 36.6982L129.719 36.061L132.24 34.6062L132.345 33.6647L130.233 30.0987L129.025 27.2077L129.31 26.6848L132.002 27.1413L136.568 28.72L143.598 33.8644H144.863L147.317 33.4747L149.99 32.6377L151.264 31.6867L151.74 32.0387L152.149 34.863L151.445 36.413L148.249 37.9154L148.43 38.6571L149.257 39.6177L150.694 40.2643L152.444 42.0899L153.652 44.1727L154.708 45.133L155.868 45.5895L158.779 44.4769L159.597 43.6022L159.968 42.9841L160.529 43.117L161.547 44.144L161.861 44.7433L164.686 45.9032L166.322 47.3299L167.359 47.9953L168.51 47.3487L172.99 48.4805L174.227 49.4312L174.617 51.0099L174.398 51.9702L175.083 54.4428L180.753 60.3673L181.342 63.3912L181.428 64.5987L180.753 64.6559L179.221 65.2836L177.261 65.5117L175.14 65.3881L173.485 66.4816L171.925 68.2695L170.308 69.5058L169.442 70.5993L168.948 71.7403L163.507 74.9546L162.746 76.2954L162.147 78.121L161.889 80.5747L161.509 82.7809L160.567 83.9408L157.628 84.9394L156.896 85.4719L156.344 86.5941L154.698 88.3153L152.767 89.9509L149.21 91.8242L145.395 92.3947L140.439 91.7862L137.538 91.054L136.14 91.8622L134.199 94.2967L132.126 98.4809L131.26 101.628L130.594 100.735L129.405 97.4062L128.064 96.9782L126.228 96.6645L124.849 96.17L121.862 94.2491L120.331 93.669L118.571 93.5169L116.897 94.6484L115.622 95.9799L111.674 95.9607L107.346 95.3426L101.154 90.9112L99.5461 90.8732L97.834 91.0728L95.1233 90.0174L89.8818 87.1455L87.4184 86.4705L85.8677 86.8794L84.4505 87.526L83.4327 87.602L82.8527 86.6606L80.9025 85.5099L78.9431 85.3767L78.3817 86.0709L77.7157 92.3947L77.0597 94.6769L74.3675 94.5724L73.4067 95.6375L71.2951 98.6901L70.8864 101.609L67.2142 101.048L65.4736 100.554L63.9327 100.925L62.2392 102.541L57.4929 102.446L53.7354 101.486L52.1278 97.8627L50.4064 96.4172L48.2373 95.143L47.4861 94.8481L46.2872 92.8704L44.0142 90.4167L40.3519 87.0506L37.4983 87.2215L36.4423 86.3277L35.9761 85.0915L34.787 82.9521L33.4366 81.4686L31.8098 80.8884L29.4794 78.9864L26.3593 74.8403L23.5058 71.9684L20.7471 72.016L19.0063 70.5136L17.2181 68.5356L15.9054 66.6243L13.8699 61.9648L12.3859 59.3019L11.2349 57.657L9.93179 56.2876L9.456 55.1941L11.0541 52.7024L11.6343 51.4664L12.3191 50.5154L12.7189 49.5073L12.6997 48.7562L11.2538 46.2837L9.29431 44.496L6.41231 42.6892L4.57622 40.3975L3.91059 38.3054L3.71058 37.1452L2.44549 35.5856L1.42773 33.2939V31.9151L1.68464 31.5251H2.63592L3.70129 32.4665L5.20412 34.2733L6.44076 36.9171L7.19203 35.9089L8.60952 33.0942L11.1208 29.9086L13.689 28.0827L16.0006 27.9306L17.8933 27.4265L19.4629 26.5135L22.2119 26.8844L24.2001 27.5406L24.8469 27.1317L25.6557 25.4677L26.1689 24.0317L30.5639 23.1948L32.0763 20.4181L32.9228 20.4277L33.9028 20.0188L34.8346 18.9633L35.7287 18.5257L36.4423 19.0582L37.3747 19.4007L38.3448 18.7349L39.7905 15.5398L40.5893 15.0453L44.4514 14.5508L49.7213 12.6679L52.385 10.9943L55.0005 10.0813L57.8163 8.45533L62.2775 6.87691L62.4865 6.23005L60.4226 4.60404L59.7282 3.57701L59.2527 2.52154L59.9848 1.35173L60.9648 1L62.2299 1.48493L65.9683 2.1791L66.9953 2.8544L67.3663 4.49957L68.3179 6.03039L69.079 6.20161L68.8027 8.69301L69.9917 9.66316L71.7421 10.4142L72.8934 10.2621L73.7208 9.25426L74.0349 8.55052Z" fill="white" fill-opacity="0.2" stroke="white" stroke-width="0.5"/>
</svg>
