<svg width="183" height="533" viewBox="0 0 183 533" fill="none" xmlns="http://www.w3.org/2000/svg">
<path d="M144.086 15.9265L145.302 16.6988L148.162 19.315L147.49 23.7615L144.215 30.9102L142.484 36.6862L142.298 41.1044L142.627 43.1773L143.214 43.1485L146.331 43.4631H147.933L152.953 44.6499L156.972 46.3943L157.759 48.2387L158.273 50.4831L163.065 53.543L168.542 55.53L170.401 54.8869L177.209 47.7238L179.84 48.9106L181.428 52.7136L181.356 54.7438L179.482 62.3357L179.154 66.4105L180.77 69.0983L180.942 71.2L180.469 73.1015L177.752 73.2734L174.105 72.2437L171.03 68.9695L168.699 69.3701L166.683 70.2135L165.639 73.3018L164.723 76.9904L165.024 79.035L166.468 80.6219L167.584 83.9676L168.399 88.3138L169.014 90.3012L168.342 91.1878L166.425 91.7882L164.823 91.2022L162.049 86.0122L160.747 84.0392L158.545 83.6818L154.669 84.9541L148.72 87.8565L146.303 87.8421L144.272 87.2562L142.356 84.7971L140.725 80.0359L140.21 77.0476L139.081 77.1335L135.262 76.2757L133.488 77.4625L133.474 82.3236L133.131 88.3854L131.215 92.2887L125.895 99.0368L123.949 101.968L123.163 104.084L123.005 105.914L123.821 109.074L124.922 112.091L123.992 113.806L121.189 114.707L119.201 112.877L118.443 109.617L114.138 105.156L116.098 101.425L115.769 100.495L108.661 98.5508L105.601 95.7199L101.31 90.7445L100.509 88.6144L100.695 81.6656L100.438 79.9788L99.8656 79.1493L97.7916 79.2065L94.8888 81.6228L92.2142 85.226L86.7512 89.3003L86.179 90.1586L88.0239 94.1186L87.9379 95.6483L83.476 101.954L82.632 104.027L76.983 107.959L74.3944 109.431L66.557 106.543L64.3831 106.2L60.8937 108.13L55.9452 109.974L47.9507 111.819L45.0047 110.475L43.6172 109.217L42.9307 107.301L40.9143 103.941L38.6548 101.954L37.0814 99.7803L34.979 97.4072L33.6203 95.4197L35.4224 89.0433L34.107 86.8129L33.4344 83.6103L33.7779 81.437L33.0625 80.9081L25.8406 79.6498L19.8481 80.0503L15.5574 82.1805L12.0536 85.726L11.6245 86.4983L11.8537 87.1274L13.5982 90.3728L10.6377 93.804L6.1043 96.4634L2.90075 96.7352L1.48491 96.2204L1.42773 92.5605L4.0879 91.2022L6.49056 88.8143L7.29145 85.4402L7.57732 83.0671L5.06031 80.193L5.36059 78.4202L6.93356 75.0745L7.83483 72.115L9.09311 69.556L14.0844 65.3668L19.09 61.135L19.8481 56.6452L20.2483 51.1694L20.9493 49.8544L27.7138 46.5658L29.4016 45.2647L30.2596 43.406L35.58 37.2438L40.8427 31.1244L41.9155 29.0659L42.8019 27.8507V26.8498L42.1298 26.0775L39.6272 25.5771L38.7691 23.6184L41.5009 20.13L44.9187 17.9995L48.2366 17.9567L49.5669 18.9432L49.4953 20.1012L50.9256 21.3452L53.4426 21.7457L56.5462 21.3168L59.6349 20.0157L61.5374 16.913L62.6386 14.5539L67.4867 11.8661L70.7902 13.2244L79.9862 13.5817L86.6796 12.8526L90.8699 11.0227H96.0615L99.5509 12.052L100.166 11.8949L101.138 11.6659L102.082 10.6793L105.371 10.0074L105.801 9.19235L105.672 8.34894L105.086 7.93444L101.038 8.36334L99.5082 7.71977L99.1075 6.23279L100.409 3.63101L103.384 1.51486L105.901 1L107.717 1.57202L112.136 5.4893L113.209 5.61801L113.824 4.91772L114.739 4.51718L116.27 5.28946L117.986 7.71977L118.286 8.09151L128.169 7.23371H130.385L137.093 11.5088L144.086 15.9265Z" fill="white" fillOpacity="0.2" stroke="white" strokeWidth="0.5"/>
</svg>
