<svg width="686" height="401" viewBox="0 0 686 401" fill="none" xmlns="http://www.w3.org/2000/svg">
<g transform="translate(171.5, 50)">
<path d="M181.029 198.556V48.7889L186.472 4.55652V154.323L181.029 198.556Z" fill="#F7F4EC" stroke="#333333" stroke-width="1.25" stroke-miterlimit="10"/>
<path d="M188.893 199.13V49.3571L200.988 5.13074V154.897L188.893 199.13Z" fill="#F7F4EC" stroke="#333333" stroke-width="1.25" stroke-miterlimit="10"/>
<path d="M197.375 200.308V50.5418L218.544 7.5V157.273L197.375 200.308Z" fill="#F7F4EC" stroke="#333333" stroke-width="1.25" stroke-miterlimit="10"/>
<path d="M206.478 202.696V52.9231L239.737 10.4916V160.258L206.478 202.696Z" fill="#F7F4EC" stroke="#333333" stroke-width="1.25" stroke-miterlimit="10"/>
<path d="M215.582 206.321V56.5488L264.572 16.4985V166.271L215.582 206.321Z" fill="#F7F4EC" stroke="#333333" stroke-width="1.25" stroke-miterlimit="10"/>
<path d="M224.708 209.983V60.2105L291.231 26.7416V176.508L224.708 209.983Z" fill="#F7F4EC" stroke="#333333" stroke-width="1.25" stroke-miterlimit="10"/>
<path d="M230.187 216.708V66.9412L314.254 42.4288V192.201L230.187 216.708Z" fill="#F7F4EC" stroke="#333333" stroke-width="1.25" stroke-miterlimit="10"/>
<path d="M326.299 209.091L233.939 220.871V72.4928L326.299 60.7135V209.091Z" fill="#F7F4EC" stroke="#333333" stroke-width="0.625"/>
<path d="M326.675 209.42L233.563 221.295V72.1577L326.675 60.2827V209.42ZM326.196 60.4751L233.969 72.2378L233.695 72.272V221.149L234.048 221.104L326.275 209.341L326.549 209.307V60.4302L326.196 60.4751Z" fill="#333333" stroke="#333333" stroke-width="0.625"/>
<path d="M233.281 225.688V75.9157L329.139 75.6226V225.389L233.281 225.688Z" fill="#F7F4EC" stroke="#333333" stroke-width="1.25" stroke-miterlimit="10"/>
<path d="M233.281 75.2996V225.066L329.139 225.365V75.5927L233.281 75.2996Z" fill="#F7F4EC" stroke="#333333" stroke-width="1.25" stroke-miterlimit="10"/>
<path d="M167.736 198.693V48.9265L162.293 4.69409V154.467L167.736 198.693Z" fill="#F7F4EC" stroke="#333333" stroke-width="1.25" stroke-miterlimit="10"/>
<path d="M159.873 199.268V49.5008L147.771 5.26843V155.041L159.873 199.268Z" fill="#F7F4EC" stroke="#333333" stroke-width="1.25" stroke-miterlimit="10"/>
<path d="M151.39 196.808V47.0358L130.221 4V153.773L151.39 196.808Z" fill="#F7F4EC" stroke="#333333" stroke-width="1.25" stroke-miterlimit="10"/>
<path d="M142.287 202.833V53.0666L109.029 10.6292V160.402L142.287 202.833Z" fill="#F7F4EC" stroke="#333333" stroke-width="1.25" stroke-miterlimit="10"/>
<path d="M133.184 206.459V56.6924L84.1936 16.6421V166.409L133.184 206.459Z" fill="#F7F4EC" stroke="#333333" stroke-width="1.25" stroke-miterlimit="10"/>
<path d="M124.057 210.731V60.9582L57.5344 27.4893V177.256L124.057 210.731Z" fill="#F7F4EC" stroke="#333333" stroke-width="1.25" stroke-miterlimit="10"/>
<path d="M118.578 216.852V67.0789L34.5117 42.5725V192.339L118.578 216.852Z" fill="#F7F4EC" stroke="#333333" stroke-width="1.25" stroke-miterlimit="10"/>
<path d="M114.827 72.6305V221.008L22.4663 209.229V60.8512L114.827 72.6305Z" fill="#F7F4EC" stroke="#333333" stroke-width="0.625"/>
<path d="M115.202 72.2954V221.439L22.0906 209.564V60.4263L115.202 72.2954ZM115.069 72.4155L114.797 72.3813L22.5691 60.6187L22.2166 60.5737V209.451L22.49 209.485L114.718 221.248L115.069 221.292V72.4155Z" fill="#333333" stroke="#333333" stroke-width="0.625"/>
<path d="M115.479 225.826V76.0594L19.6265 75.7603V225.533L115.479 225.826Z" fill="#F7F4EC" stroke="#333333" stroke-width="1.25" stroke-miterlimit="10"/>
<path d="M115.479 75.4371V225.21L19.6265 225.503V75.7363L115.479 75.4371Z" fill="#F7F4EC" stroke="#333333" stroke-width="1.25" stroke-miterlimit="10"/>
<path d="M115.514 79.4696V229.242L21.7781 241.196V91.4237L115.514 79.4696Z" fill="#F7F4EC" stroke="#333333" stroke-width="1.25" stroke-miterlimit="10"/>
<path d="M85.0667 51.3573V201.13L1 225.636V75.8697L85.0667 51.3573Z" fill="#E5D9BF" stroke="#333333" stroke-width="1.25" stroke-miterlimit="10"/>
<path d="M124.057 90.5383V240.305L57.5344 273.78V124.007L124.057 90.5383Z" fill="#F7F4EC" stroke="#333333" stroke-width="1.25" stroke-miterlimit="10"/>
<path d="M129.837 95.8289V245.602L80.8472 285.652V135.879L129.837 95.8289Z" fill="#F7F4EC" stroke="#333333" stroke-width="1.25" stroke-miterlimit="10"/>
<path d="M142.287 98.4298V248.196L109.029 290.634V140.861L142.287 98.4298Z" fill="#F7F4EC" stroke="#333333" stroke-width="1.25" stroke-miterlimit="10"/>
<path d="M151.39 100.817V250.584L130.221 293.619V143.853L151.39 100.817Z" fill="#F7F4EC" stroke="#333333" stroke-width="1.25" stroke-miterlimit="10"/>
<path d="M159.873 101.996V251.762L147.771 295.995V146.228L159.873 101.996Z" fill="#F7F4EC" stroke="#333333" stroke-width="1.25" stroke-miterlimit="10"/>
<path d="M167.736 102.57V252.337L162.293 296.569V146.802L167.736 102.57Z" fill="#F7F4EC" stroke="#333333" stroke-width="1.25" stroke-miterlimit="10"/>
<path d="M233.429 79.4696V229.242L327.165 241.196V91.4237L233.429 79.4696Z" fill="#F7F4EC" stroke="#333333" stroke-width="1.25" stroke-miterlimit="10"/>
<path d="M259.933 94.6885V244.461L344 268.968V119.201L259.933 94.6885Z" fill="#B7B8C2" stroke="#333333" stroke-width="1.25" stroke-miterlimit="10"/>
<path d="M224.887 90.5383V240.305L291.409 273.78V124.007L224.887 90.5383Z" fill="#F7F4EC" stroke="#333333" stroke-width="1.25" stroke-miterlimit="10"/>
<path d="M215.76 94.8042V244.577L264.75 284.627V134.854L215.76 94.8042Z" fill="#F7F4EC" stroke="#333333" stroke-width="1.25" stroke-miterlimit="10"/>
<path d="M206.657 98.4298V248.196L239.916 290.634V140.861L206.657 98.4298Z" fill="#F7F4EC" stroke="#333333" stroke-width="1.25" stroke-miterlimit="10"/>
<path d="M197.554 100.817V250.584L218.723 293.619V143.853L197.554 100.817Z" fill="#F7F4EC" stroke="#333333" stroke-width="1.25" stroke-miterlimit="10"/>
<path d="M189.071 101.996V251.762L201.173 295.995V146.228L189.071 101.996Z" fill="#F7F4EC" stroke="#333333" stroke-width="1.25" stroke-miterlimit="10"/>
<path d="M181.208 102.57V252.337L186.651 296.569V146.802L181.208 102.57Z" fill="#F7F4EC" stroke="#333333" stroke-width="1.25" stroke-miterlimit="10"/>
</g>
</svg>