<svg width="375" height="33" viewBox="0 0 375 33" fill="none" xmlns="http://www.w3.org/2000/svg">
<g clip-path="url(#clip0_1958_9152)">
<path d="M0 32.4404V0.264038H7.31207V26.9703H25.4875V32.4404H0Z" fill="#BDA05E"/>
<path d="M33.9414 0H41.2535V17.5718C41.2535 20.3597 41.3373 22.1654 41.5154 22.9891C41.8296 24.3197 42.5734 25.3862 43.7572 26.1888C44.9305 26.9914 46.5437 27.3926 48.5865 27.3926C50.6293 27.3926 52.2216 27.0125 53.2796 26.2522C54.3377 25.4918 54.9662 24.5626 55.1757 23.4538C55.3852 22.345 55.5005 20.5075 55.5005 17.9414V0H62.8125V17.0438C62.8125 20.9405 62.624 23.6966 62.2154 25.3018C61.8173 26.9069 61.0945 28.2691 60.0365 29.3674C58.9784 30.4762 57.5537 31.3632 55.7728 32.0179C53.992 32.6726 51.6768 33 48.817 33C45.36 33 42.7305 32.641 40.9497 31.9229C39.1583 31.2048 37.7441 30.2755 36.7175 29.135C35.6699 27.9946 34.9995 26.8013 34.6642 25.5446C34.1823 23.6861 33.9519 20.9405 33.9519 17.3078V0H33.9414Z" fill="#BDA05E"/>
<path d="M70.125 32.4403L82.4968 15.5126L71.2773 0H79.836L87.0957 10.4227L94.2087 0H102.684L91.4222 15.7555L103.794 32.4403H94.9735L86.949 21.215L78.8932 32.4403H70.1355H70.125Z" fill="#BDA05E"/>
<path d="M110.824 32.4403V0H137.674V5.4912H118.136V12.6826H136.312V18.1526H118.136V26.9808H138.365V32.4509H110.824V32.4403Z" fill="#BDA05E"/>
<path d="M173.354 32.4403V5.4912H162.605V0H191.382V5.4912H180.655V32.4509H173.343L173.354 32.4403Z" fill="#BDA05E"/>
<path d="M199.415 32.4403V0H214.804C218.68 0 221.477 0.29568 223.237 0.87648C224.997 1.45728 226.391 2.49216 227.449 3.98112C228.507 5.47008 229.03 7.1808 229.03 9.09216C229.03 11.5315 228.224 13.5379 226.621 15.1219C225.039 16.7059 222.64 17.7091 219.466 18.121C221.037 18.9446 222.347 19.8528 223.373 20.8454C224.411 21.8275 225.793 23.591 227.543 26.1149L231.964 32.4403H223.216L217.926 25.3757C216.051 22.8518 214.773 21.2678 214.082 20.6131C213.38 19.9478 212.657 19.5043 211.871 19.2614C211.096 19.0186 209.87 18.8918 208.194 18.8918H206.707V32.4403H199.395H199.415ZM206.717 13.7174H212.123C215.632 13.7174 217.821 13.5907 218.701 13.3162C219.571 13.0522 220.252 12.5875 220.755 11.9434C221.247 11.2992 221.488 10.4755 221.488 9.504C221.488 8.40576 221.163 7.52928 220.514 6.85344C219.864 6.1776 218.942 5.76576 217.758 5.58624C217.172 5.51232 215.391 5.47008 212.416 5.47008H206.717V13.7069V13.7174Z" fill="#BDA05E"/>
<path d="M271.855 32.4403H263.903L260.75 25.0694H246.273L243.287 32.4403H235.535L249.615 0H257.346L271.844 32.4403H271.855ZM258.393 19.6099L253.407 7.57152L248.515 19.6099H258.393Z" fill="#BDA05E"/>
<path d="M284.5 32.4403L271.562 0H279.482L288.648 24.0134L297.521 0H305.273L292.315 32.4403H284.5Z" fill="#BDA05E"/>
<path d="M312.293 32.4403V0H339.142V5.4912H319.605V12.6826H337.78V18.1526H319.605V26.9808H339.834V32.4509H312.293V32.4403Z" fill="#BDA05E"/>
<path d="M349.512 32.4404V0.264038H356.824V26.9703H374.999V32.4404H349.512Z" fill="#BDA05E"/>
</g>
<defs>
<clipPath id="clip0_1958_9152">
<rect width="375" height="33" fill="white"/>
</clipPath>
</defs>
</svg>
