<svg preserveAspectRatio="none" width="100%" height="100%" overflow="visible" style="display: block;" viewBox="0 0 527 140" fill="none" xmlns="http://www.w3.org/2000/svg">
<g id="_&#229;&#156;&#150;&#229;&#177;&#164;_1" clip-path="url(#clip0_1848_6631)">
<path id="Vector" d="M21.1238 120.229V41.6696H0.144613V140H105.919V120.229H21.1238Z" fill="var(--fill-0, #383841)"/>
<path id="Vector_2" d="M127.951 0H0V19.7817H84.7947V97.0295H105.764V19.7817H127.951V0Z" fill="var(--fill-0, #BDA05E)"/>
<g id="&#229;&#133;&#184;&#232;&#151;&#143;&#230;&#151;&#133;&#233;&#129;&#138;">
<path id="Vector_3" d="M230.544 49.6401C230.699 49.1858 231.04 48.9793 231.556 48.9793C232.073 48.9793 233.064 50.1357 234.531 52.5103C236.039 54.8024 236.783 56.2065 236.783 56.7434C236.783 57.4144 236.597 57.7758 236.266 57.7758H167.41C162.658 57.7758 159.053 58.0029 156.554 58.4572L154.984 54.2242C158.186 55.0708 161.285 55.4941 164.29 55.4941H164.735V25.6563C164.735 20.7006 164.373 16.2817 163.681 12.3894C166.749 13.4528 169.92 14.9189 173.225 16.736H183.049V12.2861C183.049 7.23746 182.842 3.56195 182.439 1.19764C190.827 2.5708 195.031 3.75811 195.031 4.73894C195.031 5.28614 194.731 5.62684 194.143 5.77139C191.829 6.60767 190.672 7.30973 190.672 7.83628V16.7566H200.371V12.3068C200.371 7.35103 200.196 3.61357 199.865 1.08407C208.253 2.60177 212.447 3.78909 212.447 4.63569C212.447 5.24484 212.147 5.62684 211.579 5.77139C209.224 6.76254 208.015 7.44395 208.015 7.83628V16.7566H217.136C219.811 13.7832 221.495 12.3068 222.187 12.3068C222.776 12.3068 224.212 13.174 226.526 14.9292C228.85 16.6121 230.007 17.7891 230.007 18.4705C230.007 18.9248 229.81 19.3171 229.397 19.6165C227.249 21.2891 226.174 22.2183 226.174 22.3525V55.5147H226.608C228.53 52.5413 229.831 50.59 230.544 49.6711V49.6401ZM181.024 60.5221C189.071 63.5678 193.089 65.4779 193.089 66.2419C193.089 67.0678 192.593 67.4911 191.612 67.4911C188.782 67.646 187.274 67.7596 187.098 67.8422C178.762 74.1401 168.732 79.0236 157.029 82.472L156.347 81.0885C167.389 75.8333 175.632 68.9882 181.024 60.5324V60.5221ZM183.018 19.0074H172.678V34.7729H183.018V19.0074ZM183.018 36.9513H172.678V55.7109H183.018V36.9513ZM200.382 19.0074H190.651V34.7729H200.382V19.0074ZM190.651 36.9513V55.7109H200.382V36.9513H190.651ZM203.326 63.4749L204.111 61.9882C211.135 63.1445 217.663 65.1578 223.747 68.059C229.79 70.8053 232.785 73.7994 232.785 77.0826C232.785 80.3658 231.422 81.8938 228.715 81.8938C227.476 81.8938 225.844 80.6652 223.757 78.2286C217.921 71.59 211.114 66.6755 203.336 63.4749H203.326ZM218.293 19.0074H208.015V34.7729H218.293V19.0074ZM208.015 36.9513V55.7109H218.293V36.9513H208.015Z" fill="var(--fill-0, #383841)"/>
<path id="Vector_4" d="M269.62 53.708H264.063V55.4218C264.063 65.0959 260.582 72.0649 253.63 76.3392L252.773 75.6475C256.13 71.3938 257.803 64.941 257.803 56.3201C257.803 55.267 257.762 54.3997 257.721 53.6976C255.737 53.6976 254.271 53.9041 253.289 54.2552L251.988 50.7139C254.229 51.3437 257.132 51.6327 260.665 51.6327H269.693V41.5767H262.751V42.8363C262.751 44.292 261.253 45.0044 258.32 45.0044C256.874 45.0044 256.151 44.5088 256.151 43.5074C256.192 41.7729 256.223 39.6254 256.223 37.1165V33.9159C256.223 29.2596 256.089 26.1003 255.789 24.4174C262.668 25.5737 266.139 26.5236 266.139 27.2876C266.139 27.7419 265.84 28.0723 265.272 28.2994C263.588 29.1357 262.761 29.59 262.761 29.6726V39.2847H269.61V34.1534C269.61 29.0531 269.434 25.0782 269.083 22.2596C272.068 23.1785 275.054 24.4277 278.132 26.0383H307.746C307.643 24.8201 307.529 23.6018 307.488 22.3835C307.426 20.9277 307.343 19.5649 307.23 18.264C314.337 19.4204 317.911 20.3702 317.911 21.1342C317.911 21.6504 317.683 22.0015 317.208 22.146C315.535 22.9926 314.698 23.5192 314.698 23.7463C314.698 24.2729 314.719 25.0472 314.781 26.028H323.034C325.286 22.3732 326.701 20.5457 327.279 20.5457C328.044 20.5457 329.201 21.5782 330.75 23.6327C332.393 25.708 333.198 26.9159 333.198 27.2979C333.198 27.969 332.992 28.3097 332.568 28.3097H314.605C314.708 35.9395 315.803 44.4779 317.9 53.9248C319.884 46.6976 321.133 40.2035 321.722 34.4941C328.56 37.0029 331.979 38.6549 331.979 39.3982C331.979 40.0177 331.153 40.4307 329.531 40.6578C328.261 40.8127 327.631 41.0088 327.631 41.236C326.071 49.0826 323.788 55.9484 320.772 61.823C320.772 62.6593 321.619 64.559 323.292 67.5324C325.017 70.4233 326.329 71.8687 327.197 71.8687C327.713 71.8687 329.108 68.2552 331.36 61.028L332.826 61.4823C331.618 67.4189 330.998 71.2699 330.998 73.0251C330.998 74.6254 331.566 76.5251 332.651 78.7345C332.94 79.2817 333.085 79.7669 333.085 80.2212C333.085 81.6667 332.093 82.3894 330.13 82.3894C324.635 82.3894 319.78 77.5162 315.545 67.7699C310.628 74.0885 303.759 78.4661 294.938 80.9026L294.246 79.6431C302.427 75.5959 308.779 69.6593 313.366 61.823C310.535 53.5118 308.604 42.2891 307.622 28.1962H276.944V41.1121C276.944 56.1445 275.632 66.1903 272.967 71.2906C270.302 76.5457 266.831 80.3554 262.545 82.7301L261.594 82.028C266.862 75.792 269.517 66.3451 269.579 53.6873L269.62 53.708ZM318.789 10.6032C321.867 6.33923 323.705 4.19174 324.346 4.19174C325.152 4.19174 326.68 5.30678 328.953 7.51622C331.205 9.73599 332.331 11.1298 332.331 11.7596C332.331 12.441 332.052 12.7714 331.473 12.7714H307.426V16.323C307.478 17.2522 307.509 17.7788 307.509 17.944C307.509 19.2345 305.546 19.8953 301.59 19.8953C299.968 19.8953 299.163 19.4307 299.163 18.5118V18.3982C299.266 16.8805 299.338 15.6106 299.338 14.6298V12.7817H283.772V14.2788C283.772 15.2802 283.813 16.767 283.865 18.7493V18.8628C283.865 20.236 281.933 20.9174 278.049 20.9174C276.355 20.9174 275.529 20.3909 275.529 19.2965V19.0796C275.704 17.5619 275.777 15.9617 275.777 14.2684V12.7714H265.788C260.169 12.7714 256.295 13.0605 254.147 13.5767L252.329 9.24041C256.378 10.1593 261.171 10.6136 266.738 10.6136H275.766V8.4351C275.766 5.22419 275.57 2.72566 275.167 0.887906C283.751 2.03392 288.027 3.14897 288.027 4.19174C288.027 4.74926 287.79 5.07965 287.325 5.22419C284.949 6.16372 283.761 6.80383 283.761 7.18584V10.6136H299.328V8.8997C299.328 6.0708 299.152 3.36578 298.801 0.784661C307.261 2.08555 311.475 3.17994 311.475 4.09882C311.475 4.5531 311.248 4.88348 310.773 5.13127C308.521 5.88496 307.405 6.4115 307.405 6.73156V10.6032H318.778H318.789ZM287.253 69.7109V73.1386C287.253 74.5118 285.569 75.2139 282.202 75.2139C281.055 75.2139 280.477 74.6667 280.477 73.5929C280.704 67.9661 280.817 64.2286 280.817 62.3909V44.1062C280.817 38.531 280.652 34.5767 280.291 32.2124C281.685 32.6667 282.935 33.1313 284.04 33.5855C285.373 34.2566 286.664 34.8451 287.945 35.2891H297.314C299.235 32.2434 300.454 30.7257 300.97 30.7257C301.724 30.7257 302.912 31.5619 304.534 33.2345C306.218 34.8451 307.054 35.826 307.054 36.208C307.054 36.8068 306.806 37.1165 306.352 37.1165H297.148V45.3555H298.987C300.536 43.1357 301.6 42.031 302.179 42.031C302.757 42.031 303.831 42.6298 305.391 43.8687C306.899 45.0147 307.653 45.882 307.653 46.5015C307.653 46.8732 307.127 47.4513 306.083 48.2153C305.391 48.5354 305.04 48.7419 305.04 48.8968V54.6165C305.112 56.5265 305.133 57.5487 305.133 57.7035C305.133 58.9941 303.77 59.6445 301.053 59.6445C300.072 59.6445 299.576 59.2316 299.576 58.3953V57.4764H297.231V67.7699H298.202C300.113 64.559 301.332 62.9587 301.828 62.9587C302.365 62.9587 303.398 63.8053 304.957 65.4882C306.589 67.1711 307.405 68.2242 307.405 68.6785C307.405 69.2257 307.178 69.4838 306.703 69.4838L287.253 69.7109ZM292.035 45.3658V37.1268H287.253V45.3658H292.035ZM299.762 55.6386V47.3068H287.253V55.6386H299.762ZM287.253 67.7699H292.283V57.4764H287.253V67.7699ZM315.235 14.2581L315.752 13.3392C321.65 13.7316 324.594 15.7345 324.594 19.41C324.594 21.7743 323.623 22.9616 321.65 22.9616C320.565 22.9616 319.491 21.6298 318.437 18.9454C317.745 17.2006 316.671 15.6416 315.235 14.2478V14.2581Z" fill="var(--fill-0, #383841)"/>
<path id="Vector_5" d="M366.562 21.6917L366.397 36.7758H374.289C376.665 33.9572 378.183 32.5531 378.885 32.5531C379.691 32.5531 381.106 33.4204 383.152 35.1858C385.228 37.0133 386.271 38.3038 386.271 39.0678C386.271 39.5221 386.095 39.8732 385.755 40.1003C384.773 40.6372 384.019 41.0398 383.503 41.3392C383.038 41.649 382.78 42.2581 382.718 43.1873C382.49 52.6445 381.902 60.6357 380.993 67.2021C380.001 73.5 378.193 77.5782 375.601 79.4056C372.987 81.233 370.798 82.1622 369 82.1622C368.246 82.1622 367.812 81.5428 367.688 80.3348C367.399 77.4336 365.23 75.2139 361.191 73.6962L361.708 72.2094C363.443 72.5192 365.168 72.736 366.914 72.9012C367.957 72.9734 368.742 73.0251 369.258 73.0251C371.056 73.0251 372.151 71.9616 372.554 69.8038C373.018 67.677 373.432 65.3643 373.783 62.8348C374.588 55.7522 374.991 48.2463 374.991 40.3068V38.944H366.294V40.2035C366.294 60.8628 360.737 74.9867 349.632 82.6268L348.661 81.6976C355.21 72.8599 358.474 57.2493 358.474 34.8245V21.6917C354.198 21.6917 351.337 21.9292 349.891 22.3732L348.496 18.264C352.215 19.028 356.491 19.4204 361.356 19.4204H374.289C376.954 15.1357 378.596 12.9985 379.247 12.9985C379.939 12.9985 381.334 14.1549 383.41 16.4366C385.548 18.646 386.612 20.0501 386.612 20.6593C386.612 21.351 386.343 21.7021 385.744 21.7021H366.562V21.6917ZM358.464 1.68289L359.445 0.877581C362.73 1.64159 365.643 3.12832 368.205 5.34808C370.746 7.47493 372.027 9.68437 372.027 11.9764C372.027 15.2493 370.457 16.9012 367.337 16.9012C365.488 16.9012 364.311 15.3732 363.784 12.3171C363.133 8.20796 361.367 4.66667 358.464 1.68289ZM413.902 15.177C417.198 10.5929 419.16 8.32153 419.821 8.32153C420.544 8.32153 422.207 9.53982 424.759 11.9661C427.3 14.4027 428.57 15.9307 428.57 16.5295C428.57 17.0767 428.312 17.3348 427.796 17.3348H396.952C393.14 23.4366 388.699 27.8864 383.658 30.705L382.707 29.91C384.959 27.3909 387.273 23.292 389.659 17.5723C392.025 11.9248 393.522 6.47345 394.09 1.19764C402.199 3.95428 406.248 5.75074 406.248 6.5767C406.248 7.18584 405.835 7.56785 404.957 7.72271C402.519 8.17699 401.321 8.45575 401.321 8.52802C400.67 10.6445 399.679 12.854 398.264 15.1563H413.902V15.177ZM408.779 33.2242C408.779 37.9631 409.874 43.91 412.074 51.0752C415.028 48.4735 417.652 44.2611 419.883 38.3864C425.502 42.5059 428.312 45.0147 428.312 45.9336C428.312 46.6873 427.827 47.0796 426.845 47.0796H426.763C426.184 47.0796 425.461 46.997 424.583 46.8422C424.067 46.6873 423.746 46.615 423.633 46.615H423.364C420.586 49.2994 416.991 51.3746 412.601 52.8923C412.601 54.7198 414.295 58.0029 417.714 62.7212C421.081 67.295 425.234 70.7227 430.14 73.0251L429.779 74.8422C427.754 75.4513 426.463 77.1858 425.885 79.9838C425.637 81.2743 425.244 81.9248 424.666 81.9248C422.93 81.9248 420.255 79.4469 416.66 74.4911C413.128 69.6903 410.556 63.5575 408.944 56.0929C407.374 48.6283 406.476 41.1121 406.238 33.5855C404.503 33.885 402.106 34.1018 399.028 34.2566V70.382C403.139 70 407.054 69.4322 410.773 68.6681L411.113 70.0413C405.081 73.6342 398.253 76.3392 390.609 78.1667C390.558 78.1667 390.31 79.2714 389.917 81.4705C389.731 82.1622 389.36 82.5133 388.791 82.5133C387.8 82.5133 386.013 78.6003 383.41 70.8466C384.443 70.9086 385.848 70.9705 387.655 70.9705C389.463 70.8879 390.64 70.8466 391.209 70.8466V45.8097C391.209 38.2625 390.94 32.3982 390.351 28.2065C393.657 29.1873 396.838 30.5708 399.916 32.326C406.744 29.5796 411.857 25.7802 415.266 20.9071C421.484 25.3982 424.573 28.0619 424.573 28.8982C424.573 29.5074 424.129 29.8068 423.271 29.8068C423.147 29.8068 422.373 29.7655 420.926 29.7035C419.945 29.5383 419.408 29.4661 419.284 29.4661C416.082 31.149 412.611 32.3569 408.862 33.1209L408.769 33.2242H408.779Z" fill="var(--fill-0, #383841)"/>
<path id="Vector_6" d="M459.414 45.3038C461.955 42.5575 463.567 41.1844 464.29 41.1844C465.085 41.1844 467.13 42.7434 470.374 45.8717C470.766 46.3363 470.973 46.7906 470.973 47.2448C470.973 47.7817 470.797 48.1534 470.446 48.3908C468.401 49.3717 467.409 49.9189 467.409 50.0015C466.19 55.6386 464.166 61.1932 461.325 66.6652C468.39 70.2684 478.896 72.0546 492.851 72.0546C507.735 72.0546 519.036 71.3732 526.721 70L526.804 71.3628C524.201 72.8702 522.796 74.8732 522.548 77.2994C522.445 78.8997 521.226 79.6947 518.912 79.6947C498.924 79.6947 486.674 79.3023 482.149 78.559C477.635 77.795 473.473 76.4218 469.661 74.4395C465.767 72.3849 462.771 70.3201 460.633 68.2655C458.309 73.056 453.454 77.9498 446.027 82.8953L445.066 81.8525C453.65 72.4159 458.67 61.0177 460.117 47.6785H456.284C455.417 49.6608 454.663 50.7655 454.022 50.9926C453.454 51.2404 452.566 51.3333 451.409 51.3333C448.227 51.3333 446.637 50.6932 446.637 49.3923C446.637 49.0826 446.709 48.8658 446.823 48.7006C448.785 45.7375 449.859 43.941 450.014 43.3319L458.546 26.2965H455.84C451.853 26.2965 448.899 26.5546 446.988 27.0914L445.418 22.972C447.742 23.6637 451.398 23.9941 456.367 23.9941H458.02C460.333 21.5575 461.831 20.3496 462.523 20.3496C463.06 20.3496 464.331 21.1445 466.356 22.7448C468.308 24.3451 469.31 25.4499 469.31 26.0693C469.31 26.6888 469.021 27.0914 468.442 27.3186C466.356 28.0826 465.261 28.5782 465.147 28.8053L457.224 45.2729H459.404L459.414 45.3038ZM448.919 3.23156L449.601 2.18879C453.371 2.9528 456.667 4.49115 459.507 6.77286C462.337 8.99262 463.763 11.2743 463.763 13.6283C463.763 16.9115 462.193 18.5531 459.063 18.5531C457.503 18.5531 456.284 17.1593 455.417 14.4233C453.981 10.149 451.791 6.42183 448.919 3.22124V3.23156ZM487.552 32.1608H481.747C481.333 46.4086 476.53 58.0339 467.316 67.0265L466.18 66.3451C471.458 56.3614 474.092 43.2183 474.092 26.8953V18.7802C472.285 18.7802 470.188 18.9764 467.812 19.3584L466.356 15.7035C468.773 16.3127 472.605 16.6121 477.821 16.6121H485.455C488.068 12.885 489.69 11.0162 490.33 11.0162C490.971 11.0162 492.231 12.0383 494.152 14.0929C496.063 16.0855 497.013 17.2316 497.013 17.5413C497.013 18.3053 496.766 18.6873 496.228 18.6873H481.901L481.747 30.0029H486.684C488.967 26.9572 490.423 25.4292 491.126 25.4292C491.756 25.4292 493.223 26.2242 495.557 27.8348C497.809 29.5074 498.935 30.6431 498.935 31.2625C498.935 31.882 498.098 32.677 496.414 33.6578C495.598 34.1947 495.185 34.4941 495.185 34.5767C494.266 47.7611 493.398 55.7006 492.582 58.354C491.725 60.9454 490.268 62.9793 488.254 64.4144C486.157 65.8599 484.215 66.5929 482.418 66.5929C481.674 66.5929 481.23 65.9734 481.127 64.7552C480.817 62.0295 478.916 59.8097 475.394 58.1268L475.817 56.5162C477.212 56.764 478.751 56.9085 480.424 56.9808C481.23 57.0634 481.808 57.1047 482.149 57.1047C484.174 57.1047 485.455 55.7006 485.982 52.882C486.508 49.9705 486.911 46.8525 487.211 43.497C487.51 40.1416 487.655 36.8687 487.655 33.6681C487.655 32.9145 487.624 32.4189 487.552 32.1814V32.1608ZM472.801 1.29056L473.844 0.59882C480.724 2.72566 484.174 6.12242 484.174 10.7788C484.174 14.1342 482.573 15.7965 479.402 15.7965C477.594 15.7965 476.489 14.1342 476.024 10.7788C475.497 7.4233 474.423 4.26401 472.801 1.29056ZM497.478 23.9218C496.951 24.4587 496.528 24.8717 496.239 25.1711C495.908 25.4086 495.402 25.7389 494.782 26.2035L493.739 25.2847C498.067 16.8186 500.66 8.64159 501.465 0.712389C508.985 2.07522 512.745 3.14897 512.745 3.90265C512.745 4.60472 511.63 5.16224 509.368 5.62684C508.748 5.77139 508.407 5.87463 508.407 5.96755C507.725 8.24926 506.796 10.6032 505.639 13.0501H514.935C517.528 9.31268 519.15 7.44395 519.79 7.44395C520.43 7.44395 521.763 8.4764 523.798 10.531C525.812 12.5133 526.824 13.7522 526.824 14.1858C526.824 14.8673 526.576 15.2183 526.05 15.2183H504.513C502.116 19.3378 500.009 22.0118 498.15 23.2094C499.782 23.674 503.759 23.9115 510.06 23.9115H514.935C517.425 21.1652 518.984 19.792 519.614 19.792C520.152 19.792 521.494 20.7006 523.705 22.5487C525.905 24.4484 526.99 25.6976 526.99 26.3171C526.99 26.9985 525.864 27.4734 523.602 27.6799C522.806 27.7625 522.331 27.8348 522.217 27.9174C519.78 30.1372 517.063 32.0265 514.047 33.6268C516.371 33.6268 517.518 34.2153 517.518 35.3407C517.518 35.8053 517.28 36.146 516.836 36.3732C514.801 37.292 513.789 37.8083 513.789 37.9631V44.7153H515.1C517.703 40.9159 519.325 39.0059 519.976 39.0059C520.596 39.0059 521.928 40.028 523.953 42.0929C525.977 44.0649 526.99 45.3245 526.99 45.8613C526.99 46.4808 526.721 46.7802 526.205 46.7802H513.789V59.6962C513.789 62.587 512.539 64.8068 510.049 66.3245C507.57 67.7802 505.928 68.4926 505.184 68.4926C504.595 68.4926 504.223 68.1416 504.058 67.4705C503.645 65.7876 503.108 64.5693 502.405 63.8053C501.775 63.0413 499.761 61.9779 496.332 60.5944L496.414 59.2212C499.193 59.3761 501.249 59.438 502.571 59.438H504.492C505.546 59.3761 506.052 58.8702 506.052 57.9513V46.7596H505.701C504.533 46.7596 503.242 46.7906 501.786 46.8628H500.732C498.945 46.9351 497.582 47.1313 496.673 47.441L495.01 43.4351C497.788 44.2714 501.362 44.6947 505.701 44.6947H506.052V43.208C506.052 41.236 505.969 38.6342 505.773 35.4336C505.773 34.4425 505.67 33.2552 505.432 31.882L512.57 33.2655C513.778 31.2935 514.811 28.8466 515.679 25.9454H510.142C509.016 25.9454 508.014 25.9867 507.074 26.0693C505.979 26.0693 504.947 26.1003 503.945 26.1829C501.982 26.2552 500.236 26.4823 498.749 26.8643L497.458 23.9012L497.478 23.9218Z" fill="var(--fill-0, #383841)"/>
</g>
<g id="Group">
<path id="Vector_7" d="M156.171 139.463V108.004H163.381V134.115H181.303V139.463H156.171Z" fill="var(--fill-0, #BDA05E)"/>
<path id="Vector_8" d="M189.639 107.736H196.849V124.916C196.849 127.642 196.932 129.407 197.107 130.212C197.417 131.513 198.151 132.556 199.318 133.341C200.475 134.125 202.065 134.518 204.08 134.518C206.094 134.518 207.664 134.146 208.707 133.403C209.751 132.659 210.37 131.751 210.577 130.667C210.783 129.583 210.897 127.786 210.897 125.277V107.726H218.107V124.389C218.107 128.199 217.921 130.894 217.518 132.463C217.126 134.032 216.413 135.364 215.37 136.438C214.326 137.522 212.922 138.389 211.166 139.029C209.41 139.67 207.127 139.99 204.307 139.99C200.898 139.99 198.305 139.639 196.549 138.937C194.783 138.235 193.389 137.326 192.376 136.211C191.343 135.096 190.682 133.929 190.352 132.701C189.877 130.883 189.649 128.199 189.649 124.647V107.726L189.639 107.736Z" fill="var(--fill-0, #BDA05E)"/>
<path id="Vector_9" d="M225.327 139.463L237.527 122.913L226.464 107.746H234.903L242.061 117.937L249.075 107.746H257.431L246.327 123.15L258.526 139.463H249.829L241.917 128.488L233.973 139.463H225.338H225.327Z" fill="var(--fill-0, #BDA05E)"/>
<path id="Vector_10" d="M265.447 139.463V107.746H291.922V113.115H272.657V120.146H290.579V125.494H272.657V134.125H292.603V139.473H265.447V139.463Z" fill="var(--fill-0, #BDA05E)"/>
<path id="Vector_11" d="M327.104 139.463V113.105H316.506V107.736H344.881V113.105H334.303V139.463H327.093H327.104Z" fill="var(--fill-0, #BDA05E)"/>
<path id="Vector_12" d="M352.804 139.463V107.746H367.978C371.799 107.746 374.557 108.035 376.293 108.603C378.028 109.171 379.402 110.183 380.445 111.639C381.489 113.094 382.005 114.767 382.005 116.636C382.005 119.021 381.21 120.982 379.629 122.531C378.069 124.08 375.704 125.06 372.574 125.463C374.124 126.268 375.415 127.156 376.427 128.127C377.45 129.087 378.813 130.811 380.538 133.279L384.897 139.463H376.272L371.056 132.556C369.207 130.088 367.947 128.54 367.265 127.9C366.573 127.249 365.86 126.816 365.085 126.578C364.321 126.341 363.112 126.217 361.46 126.217H359.993V139.463H352.783H352.804ZM360.003 121.158H365.333C368.794 121.158 370.952 121.034 371.82 120.765C372.677 120.507 373.349 120.053 373.845 119.423C374.33 118.794 374.568 117.988 374.568 117.038C374.568 115.965 374.248 115.108 373.607 114.447C372.967 113.786 372.058 113.383 370.89 113.208C370.312 113.136 368.556 113.094 365.622 113.094H360.003V121.147V121.158Z" fill="var(--fill-0, #BDA05E)"/>
<path id="Vector_13" d="M424.232 139.463H416.392L413.283 132.257H399.007L396.063 139.463H388.42L402.323 107.746H409.946L424.242 139.463H424.232ZM410.959 126.909L406.042 115.139L401.218 126.909H410.959Z" fill="var(--fill-0, #BDA05E)"/>
<path id="Vector_14" d="M436.7 139.463L423.943 107.746H431.752L440.79 131.224L449.539 107.746H457.183L444.405 139.463H436.7Z" fill="var(--fill-0, #BDA05E)"/>
<path id="Vector_15" d="M464.104 139.463V107.746H490.578V113.115H471.314V120.146H489.235V125.494H471.314V134.125H491.26V139.473H464.104V139.463Z" fill="var(--fill-0, #BDA05E)"/>
<path id="Vector_16" d="M500.804 139.463V108.004H508.014V134.115H525.936V139.463H500.804Z" fill="var(--fill-0, #BDA05E)"/>
</g>
</g>
<defs>
<clipPath id="clip0_1848_6631">
<rect width="527" height="140" fill="white"/>
</clipPath>
</defs>
</svg>
