<svg width="97" height="104" viewBox="0 0 97 104" fill="none" xmlns="http://www.w3.org/2000/svg">
<path d="M54.5424 1.87046L55.5021 2.25808L58.6801 4.02441L60.8793 6.01334L62.0997 8.21809L63.752 9.921L65.8367 11.1283L67.4893 12.7612L68.7098 14.8199L70.4194 15.9764L72.6124 16.2242L73.9977 16.9295L74.5827 18.0923L75.7775 19.1406L77.5764 20.0811L80.3664 20.5957L85.718 20.7229L86.1948 20.7483L87.4024 21.0405L88.8133 20.6721L90.5361 19.9413L91.0889 19.5028L92.894 17.1011L93.8918 17.3107L95.8749 17.0185L97.0763 16.4846H97.1652L97.0887 17.1011L96.9553 18.175L95.9831 18.931L96.9681 20.6783L97.9088 23.5123L97.3812 24.9102L98.0233 25.9967L99.8283 26.7783L99.9936 27.0896L99.4408 27.4136L98.983 28.335L98.9322 30.0124L100.508 31.6009L103.712 33.0878L104.735 33.3356L105.129 33.9074L105.663 34.2824L105.981 34.7399L106 35.3307L105.765 35.7373L104.246 35.8771L102.517 35.8645L101.284 35.1465L101.169 35.6739L101.15 36.2712L99.9556 36.6334L100.617 40.7445L100.349 41.9262L99.911 42.3266L99.504 42.1614L99.002 42.117L98.7542 42.5044L98.964 43.3812L97.7882 43.4831L95.9195 43.0318L95.0614 42.2376L94.9151 41.4307L94.9023 40.6745L94.3049 39.4354L92.8176 38.1519L89.7098 37.9423L88.5592 37.5357L87.3706 37.0718L86.0741 36.7222L84.8793 36.754L83.4365 37.0972L80.9196 36.5316L80.0677 37.2878L78.7456 38.1583L77.6462 38.1393L75.4598 36.1188L74.805 35.9916L72.8921 37.021L72.11 37.078L71.5126 36.754L68.9258 35.9789L67.7562 35.8137L66.8981 36.1822L65.3793 35.7883L61.6928 33.1386L59.411 35.1529L54.7713 34.6509L53.3918 36.0298L51.8156 38.6411L50.5381 39.8866L49.4259 39.4418L48.11 38.2917L45.8092 35.3371L44.6462 34.8035L43.3113 34.6763L42.1483 35.0067L41.5256 35.6039L41.0488 39.9184L40.6291 43.7117L40.6039 45.98L43.1588 48.077L46.1781 51.6796L47.1441 52.0926L47.6271 53.2681L48.3327 56.2991L49.1272 59.6985L50.6588 61.9477L52.0383 63.549L53.7223 64.9595L55.8389 67.1644L57.5679 69.5854L58.0253 70.4749L61.3879 73.6647L64.6485 76.9115L67.5591 78.049L68.0169 78.6462L68.0425 81.137L68.3602 82.071L70.3049 84.6762L74.2774 88.4823L74.7352 89.3591L74.8686 90.0072L74.6145 90.5028L73.5721 91.0238L72.7202 90.4456L69.0213 86.7348L65.443 84.3902L61.4069 79.9677L56.0041 78.2142L52.3242 76.2699L50.0932 76.5621L47.6336 77.1721L46.1145 77.1911L45.0341 76.8417L44.271 75.6344L44.3855 74.7003L44.252 73.4867L42.0974 71.5359L39.1546 69.6806L36.3707 67.2789L30.7775 60.7722L29.6525 58.6691L30.7523 58.2688L31.5848 58.3069L32.5255 57.8748L34.0509 57.8684L35.8559 58.2943L34.2608 56.8964L32.271 55.5239L27.1228 50.0595L25.5846 47.4669L25.4069 44.6711L25.7883 40.8333L24.8603 38.0757L20.8879 34.4985L19.4323 32.6113L16.5023 31.4866L15.1864 31.5947L14.3985 32.9925L13.8263 36.0932L11.2267 40.1724L10.3624 41.9389L9.00232 44.2327L7.81989 44.3915L7.12704 44.1883L5.01707 40.325L3.00213 37.3894L2.72243 35.998L2.53816 34.2824L1 27.9474L2.0804 27.0578L2.74803 28.0744L7.44515 29.3007L8.46193 28.7607L9.07836 27.9284V27.401L9.4787 27.2484L11.1313 28.049L12.479 27.8648L14.6526 27.8266L16.2036 27.96L17.2331 27.3438L18.6188 25.0754L19.1336 23.8045L19.7563 23.4995L20.1632 23.6521L20.4619 24.7004L21.1928 25.6791L22.6929 27.2738L23.7543 28.0426L24.7141 28.3158L25.6548 27.6742L26.627 27.49L29.4112 28.7353L31.7628 28.9705L33.4981 28.3222L33.2692 27.4264L32.6334 26.4287L32.4999 25.463L32.6144 24.6242L33.8092 23.7919L33.7522 23.4233L32.3094 21.9556L32.3793 21.5744L35.5382 19.9159L38.5827 18.9882L39.0719 18.2702L39.3516 17.1901L39.4851 15.1632L39.3198 13.5046L38.087 11.9479L38.0105 11.1601L38.303 10.3404L38.786 9.59698L40.0065 9.27916L41.4364 8.74552L42.568 8.12908L44.0934 7.62085L45.2944 6.9092L46.4702 5.21268L47.1821 4.93307L49.3367 5.17448L49.801 4.75525L49.5019 2.31529L49.8899 1.69245L50.6526 1.34303L51.0083 1L52.9088 1.26682L54.5424 1.87046ZM24.1166 40.6555L21.9174 41.1955L20.8689 40.2296L20.5954 39.4354L18.7841 39.1814L17.6909 38.0821L17.4682 37.5929L19.0192 36.3792L19.8455 34.4158L20.8941 35.5977L22.1653 37.8153L22.8454 38.4315L24.1166 40.6555ZM18.3644 48.598L18.2247 49.5639L17.1443 48.3374L16.5973 46.139L15.231 42.5744L15.0529 41.5703L15.7586 40.5793L15.7202 39.569L14.7542 36.43L15.5615 35.9153L16.0445 35.8517L16.2416 38.0313L16.6799 39.283L17.9958 40.8207L17.7289 43.3558L17.9958 46.9587L18.2627 47.7591L18.3644 48.598ZM24.4914 46.1262L24.943 47.2319L23.2647 46.2342L21.7584 45.853L21.4407 45.1032L21.6568 44.4869L21.9811 43.8897L23.1185 43.9723L23.2903 44.5567L24.4914 46.1262ZM30.8601 56.6803L30.4027 57.3412L29.2459 56.1275L28.1845 55.2632L27.4281 54.234L25.9407 52.9505L25.4387 51.4828L23.2205 48.4836L22.89 47.6703L23.9956 48.8838L24.9173 49.6465L25.68 49.8307L27.6123 51.7432L29.5128 54.1958L31.7753 56.3245L31.3051 56.3879L30.8601 56.6803ZM30.8667 66.9166L31.1208 67.2789L31.0952 67.5267L30.1673 67.177L29.9194 67.2915L25.5532 61.8969L25.0826 60.8422L26.6464 62.1003L30.8667 66.9166ZM31.6166 63.46L31.8963 64.3305L29.6715 62.6911L28.8262 61.5919L28.6737 61.0964L31.6166 63.46ZM34.1207 65.6457L35.2965 67.4821L34.1715 67.1008L33.0023 65.97L32.3157 64.7373L34.1207 65.6457ZM59.3411 82.9033L56.5255 82.9669L54.0784 82.5221L52.8836 81.766L52.9724 81.1242L53.3409 80.0567L56.0677 80.1839L60.2183 80.94L61.235 81.8232L60.9173 82.2299L59.3411 82.9033ZM66.6312 86.4361L65.3855 86.6904L57.4468 86.4997L55.1398 85.9915L52.5721 84.6888L52.0507 84.2886L54.6312 83.9074L57.0337 84.2886L57.7712 85.2353L64.2605 85.9915L66.6312 86.4361ZM75.0785 91.9959L76.375 91.5513L77.4744 91.8753L78.1738 93.2604L79.5529 94.1755L81.7967 95.7766L83.2139 97.0029L86.4236 99.2014L87.1863 99.5064L88.7881 100.161L88.8199 101.051L89.5062 102.061L90.2308 103.223L86.9384 100.936L83.8687 98.3753L77.8623 94.4233L73.604 93.4638L67.7752 90.2804L63.9808 89.1493L65.4302 88.8889L67.0952 88.8825L76.0825 93.1334L75.0785 91.9959ZM56.9449 89.5814L60.2435 90.2614L62.6588 89.95L64.8452 90.3694L66.2056 91.1383L66.5296 91.5195L64.7691 91.5703L62.7732 91.2589L60.5108 92.0405L58.5148 91.6275L57.7584 91.1129L57.2246 90.4774L56.9449 89.5814ZM74.0171 95.0967L76.4514 96.7552L69.3134 94.5757L70.1207 94.3787L70.8772 94.3343L74.0171 95.0967Z" fill="white" fill-opacity="0.2" stroke="white" stroke-width="0.5"/>
</svg>
