<svg width="224" height="533" viewBox="0 0 224 533" fill="none" xmlns="http://www.w3.org/2000/svg">
<path d="M118.918 10.2754L119.838 10.0055L121.397 9.0361L122.697 8.72766L123.441 9.47129L123.86 9.89539L124.675 11.5697L124.907 13.3103L125.27 14.7589L125.932 15.3427L128.416 15.5355L130.251 16.0699L130.736 16.5545L131.364 19.7602L131.706 20.2118L132.163 19.8373L132.615 19.3085L133.243 19.226L134.317 19.4297L135.733 19.4957L137.193 19.8484L139.21 21.655L139.133 22.2498L138.741 23.2909L138.604 24.1226L138.951 24.4585L139.485 25.3178L139.358 26.3092L138.841 27.0032L138.631 27.5761V27.9452L138.824 28.2536L139.237 28.5234L142.218 28.887L144.945 28.5234L146.664 27.51L146.956 26.4414L147.441 25.2406L148.466 24.2272L149.171 23.8858L149.821 24.2988L148.731 28.5345L149.529 29.614L149.645 31.2225L149.932 32.6324L150.907 32.6048L152.086 32.8637L152.923 33.3816L153.898 34.2187L155.303 34.9899L156.29 35.2597L156.648 35.8988L157.447 36.6422L158.703 38.1956L159.827 39.231H160.372L161.419 38.8234L162.973 38.5645L164.196 38.5865L164.719 39.3742L165.926 39.7378L166.35 40.0298L166.824 40.5751L167.629 40.7953L168.598 40.5751L169.303 39.8534L170.246 39.523L171.193 39.6331L171.739 40.0298L172.775 40.6191L173.359 40.4924L174.532 40.8559L175.711 42.0015L176.207 43.1472L176.334 43.7752L176.841 44.4581L178.819 47.5317L179.447 47.6803L180.135 47.2177L180.582 46.5567L181.226 46.4245L182.262 46.7329L182.929 47.08L183.248 48.4074L183.474 48.6607L183.921 48.3743L184.719 48.3138L185.998 48.6387L187.75 48.2642L189.155 47.7078L189.871 47.7299L191.028 49.2776L192.35 49.856L195.259 50.3242L198.383 51.0512L199.612 51.6405L200.45 51.9325L200.538 53.976L200.284 54.2844L197.171 58.3714L195.86 59.8311L195.193 61.9075L194.736 65.0912L193.816 68.104L192.439 70.9572L191.937 73.0943L192.312 74.5154L192.075 76.7461L191.232 79.781L191.089 82.0669L191.651 83.6091L192.428 83.9231L190.56 84.9585L190.135 85.8674L189.403 87.0627L188.213 87.5638L187.017 87.729L186.047 87.5749L185.496 87.0956L185.524 86.6495L185.012 86.2695L183.739 86.2804L182.422 87.1012L181.37 88.4451L181.695 89.1943L182.664 89.3924L182.918 89.69V90.0756L182.576 90.5381L182.169 91.3314L180.135 93.6887L178.086 96.0626L177.755 96.7787L177.105 97.2799L174.499 98.5469L174.229 99.0535L174.08 101.163L173.788 102.893L171.854 104.517L169.932 106.131L169.452 107.117L169.105 108.257L168.505 109.546L168.383 110.229L169.359 111.336L169.243 112.251L168.934 113.551L168.014 114.47L166.989 114.994L167.012 116.404L167.557 116.602L168.791 116.497L170.538 115.473L171.678 114.151L171.006 112.901L170.923 112.658L171.089 112.361L172.438 110.995L174.091 110.174L176.4 110.02L179.182 110.505L179.458 110.709L179.326 111.546L179.584 112.779L180.086 113.644L179.397 116.095L179.921 116.861L180.73 117.781L181.337 118.618L182.207 119.384L182.984 120.678L183.248 121.411L182.003 122.677L179.899 123.867L179.662 124.633L179.689 125.498L179.926 126.181L181.089 127.056L182.339 129.034L183.133 130.796L184.868 132.482L185.293 132.983L185.182 133.402L184.725 134.118L184.13 136.508L183.419 136.883L182.626 137.037L180.477 138.783L179.518 138.568L178.157 138.59L177.16 139.163L177.27 140.248L178.146 141.239L178.659 142.319L178.868 143.443L179.838 144.274L181.204 144.77L181.987 144.803L182.494 145.101L182.802 145.486L183.392 147.888L183.039 148.488L182.301 148.741L181.86 149.727L180.984 151.176L180.488 152.338L181.039 153.363L181.27 154.123L180.979 154.905L181.37 156.117L182.406 157.317L185.221 159.003L187.838 160.374L188.648 160.6L192.185 159.719L192.769 159.796L193.199 160.842L193.386 161.547L192.99 162.605L192.014 164.098L190.979 165.26L190.35 166.246L190.483 167.144L190.521 168.333L189.678 168.686L189.651 168.454L189.304 168.251L189.006 168.366L188.775 168.625L188.742 169.082L186.945 169.843L185.706 170.63L180.808 175.323L178.516 176.694L178.064 177.521L177.596 179.063L176.251 180.385L175.072 181.013L172.157 181.657L169.226 183.056L167.904 182.45L164.488 182.516L162.356 180.831L158.257 179.762L156.923 177.3L155.055 177.141L153.832 177.218L153.1 176.843L152.912 176L152.896 175.191L151.601 175.565H150.609L150.02 175.89L149.557 176.265L149.006 176.028L148.686 176.111L148.714 176.584L147.524 176.706L146.229 176.414L142.841 175.141L142.323 174.943L139.97 174.453L139.022 173.94L138.251 172.679L137.667 172.283L137.32 172.046L135.127 172.685L134.367 173.676L133.182 174.838L125.05 180.523L123.562 182.897L121.843 186.383L121.711 188.008L122.449 193.186L124.102 195.895L124.312 196.523L123.392 196.529L121.854 196.187L120.582 195.769L119.364 196L118.196 196.562L117.171 196.903L116.433 196.997L115.942 197.322L115.706 197.966L115.661 198.418L114.367 198.308L111.375 197.383L108.686 196.744L107.105 197.471L106.091 198.148L105.38 198.044L104.835 197.327L104.471 196.628L103.419 195.984L101.039 195.02L101.16 194.557L101.568 193.907L101.557 193.505L101.099 192.91L98.9067 192.271L97.8708 192.111L97.2152 192.552L96.7414 193.092L95.5237 191.109L94.6532 190.701L93.3419 190.635L91.8377 190.029L90.273 189.253L86.4768 188.013L85.4355 187.865L85.0167 188.063L84.7357 188.807L84.5871 190.9L84.4272 191.131L82.6642 191.203L80.4934 190.911L79.4961 191.054L78.609 191.059L77.7717 190.503L74.0196 191.137L73.397 190.828L72.4934 189.886L71.4795 189.121L70.6971 188.729L70.0251 188.278L69.4189 188.206L68.4933 188.641L67.2151 188.829L66.1573 188.773L65.5897 188.834L63.2096 186.51L62.8624 185.876L61.6778 185.7L60.2123 185.673L56.4767 184.163L54.7743 183.354L54.5263 182.869L54.5483 182.478L54.2564 182.566L53.733 183.255L53.4574 183.816L53.0939 183.921L52.5594 183.833L52.0635 183.513L51.7605 183.106L52.0855 182.395L52.6586 181.464L52.8955 180.451L52.8403 179.542L51.8982 178.958L50.5097 178.716L49.4905 178.644L48.1682 178.127L47.5402 177.752L46.934 176.739L46.912 176L49.4299 175.351L51.6945 172.679L53.8431 162.941L55.3969 151.325L56.5484 149.121L58.0029 148.515L56.8293 146.907L56.0966 147.722L55.788 148.587L55.4023 149.022L56.2674 138.254L56.8845 134.288L57.9369 130.124L60.0911 131.777L61.8763 133.457L62.7963 134.911L63.9644 139.736L64.8515 140.749L66.1738 141.763L65.6504 140.656L64.7412 139.807L63.3197 133.368L62.4272 131.534L61.0387 129.992L56.5648 126.737L56.1626 126.103L55.9424 124.859L57.4244 124.914L58.7026 125.52L58.5539 124.826L58.1738 124.099L57.5787 121.449L57.0829 115.242L57.149 114.178L56.9285 112.868L55.496 112.576L54.3501 112.526L53.1159 112.008L47.0221 108.329L44.9395 104.517L42.8073 101.697L42.2948 100.464L42.328 99.2133L43.4353 96.5694L42.4601 94.8951L41.5071 94.5646L40.6805 93.7329L41.4299 92.3503L42.0526 91.4635L43.3032 91.2266L44.9395 91.5186L46.4933 92.3228L47.7108 92.5376L44.1131 90.384L38.2729 91.111L37.0112 90.8357L35.9532 90.3564L35.5346 88.7702L36.3665 88.0596L37.1158 86.7376L36.2673 85.8123L35.1655 85.4598L33.4353 85.4762L31.821 85.7571L31.4134 85.2229L32.3996 83.7468L31.562 83.207L30.4436 83.4603L28.8239 83.7632L27.2756 83.3006L25.8101 81.6207L24.8403 81.6317L24.1736 81.8409L23.1874 81.1911L22.1461 81.0314L21.4023 81.2461L20.4161 80.2822L14.3334 78.3435L11.7108 78.1066L9.30316 78.9824L7.97518 78.6795L7.00012 77.4237L6.18464 75.3195L2.30579 73.6947L3.07167 72.6262L4.87885 72.3727L6.9559 71.6346L7.70531 70.6817L6.07989 69.5747L4.87885 69.2993L4.383 68.9026L3.87606 67.9057L4.59234 67.4486L5.09929 67.6909L6.56481 67.8341L9.06625 67.5919L8.13508 66.5838L7.16541 66.3581L6.71899 66.1046L4.68045 65.9945L3.75483 66.3414L1.67223 66.2093L1.22043 65.1243L1 64.1878L1.64465 62.1059L4.57586 60.2385L11.8816 58.195L15.0221 58.4926L17.1984 58.1234L19.81 56.8347L20.9616 55.7275L24.675 55.0776L28.2012 56.2507L31.4519 60.6793L33.0057 62.1775L36.8128 59.5776L42.4822 59.6548L43.6502 61.1198L44.1241 59.886L45.1654 58.4374L45.9973 59.0984L46.4217 59.9963L52.4052 59.7428L53.3473 59.484L51.7385 58.4319L50.4272 55.9093L50.1518 46.5841L48.4932 43.968L46.5924 39.7763L45.7164 37.2811L45.6338 36.4165L45.9257 35.166L48.2618 35.2323L50.069 35.5517L53.5126 34.6098L55.1654 35.2543L55.0664 37.2042L55.5731 39.6606L56.1462 40.8504L57.0222 42.1998L59.7937 42.0786L62.7854 42.8719L66.5704 42.993L72.0966 44.359L74.4492 43.5659L76.7302 41.8749L81.0719 40.7623L81.419 40.1784L78.9175 40.4098L76.6256 39.3357L76.3171 38.1735L76.5816 37.127L77.5126 34.7144L84.1573 30.8974L88.9176 29.7683L93.8873 27.6588L96.3888 25.4941L98.0416 22.6905L98.576 22.0736L99.2647 21.5559L98.6256 20.5478L99.0553 9.75217L99.5182 7.79677L100.488 6.19402L101.965 4.95468L104.201 3.61079L112.449 1.75456L113.673 1L113.843 2.16756L114.444 3.66021L114.857 4.47545L114.51 5.53846L114.78 6.41422L115.898 7.98957L117.292 9.47129L118.538 10.4187L118.918 10.2754ZM56.4382 121.901L55.8928 123.84L54.8569 122.055L53.4905 120.491L53.1764 119.042V118.657L54.7798 119.714L56.4382 121.901ZM221.249 188.685L220.846 191.764L221.138 192.662L221.7 193.29L221.959 193.979L222.428 202.141L222.339 202.791L220.45 206.058L220.025 207.011L219.932 211.042L219.612 212.122L218.94 213.185L217.744 216.622L216.709 218.164L213.877 216.281L212.207 215.465L211.392 214.59L210.857 213.984L211.204 213.174L211.965 212.331L212.086 211.665L210.295 210.916L209.474 210.415L209.485 209.533L210.102 208.162L209.821 207.027L208.786 207.082L207.981 206.911L207.877 206.322L208.466 205.567L209.226 204.582L209.204 203.491L208.284 203.023L207.452 202.136L207.116 200.93L207.761 200.104L208.808 199.575L208.036 198.336L207.518 198.308L207.105 198.038L207.447 197.465L208.257 196.606L209.386 194.034L210.956 192.816L213.744 192.034L214.499 191.687L215.188 190.778L215.954 190.195L216.885 190.272L217.744 190.619L218.273 190.993L218.67 190.602L219.056 189.473L218.819 188.482L218.94 185.755L219.436 184.207L220.24 184.119L220.979 184.973L220.946 185.728L221.221 187.512L221.249 188.685Z" fill="white" fillOpacity="0.2" stroke="white" strokeWidth="0.5"/>
</svg>
