<svg width="183" height="533" viewBox="0 0 183 533" fill="none" xmlns="http://www.w3.org/2000/svg">
<path d="M140.967 1.85148L142.842 2.41897L143.933 3.33768L144.613 4.18164L145.651 4.90594L146.428 5.07026L147.026 7.55723L147.34 10.634L146.869 11.9634L145.487 12.2695L141.169 15.1672L141.064 17.8185L141.124 19.0955L141.214 20.0066L141.67 20.7683V21.8662L141.191 23.0461L139.309 25.0177L138.002 26.5787L136.537 28.6996L135.716 28.9611L135.066 29.3344L134.476 28.1693L131.226 26.1008L123.703 24.8908L120.11 23.3599L118.534 23.6437L115.478 21.9334L113.387 22.6878L108.949 25.7272L106.551 25.3986L103.989 23.5689L102.323 23.233L100.365 24.1963L97.2357 27.6914L94.0458 29.4016L91.192 28.737L87.3524 28.7518L86.9411 30.7012L87.6806 32.0529L89.7799 34.353L88.7941 36.0783L89.5259 37.8033L90.8933 38.1543L92.9625 38.0572L96.7797 40.2903L98.4531 42.6428L99.5214 45.2118L97.1906 43.3671L95.6444 41.5896L93.4855 40.9474L90.4898 39.4313L88.6071 39.1774L86.605 40.2306L86.4482 41.418L88.6071 43.636L90.5792 45.0026L91.6251 46.1079L92.32 48.5651L91.9242 49.394L91.192 50.1707L88.8538 48.6248L85.2755 43.1207L80.285 42.0229L79.4483 43.1729L80.4346 46.0856L81.144 47.2133L85.4847 50.3498L85.141 51.0146L84.5058 51.2984L79.6503 49.5059L78.2382 46.7801L77.9022 43.3224L73.4196 40.9175L69.1915 38.2963L68.2427 35.8093L69.1168 34.8833L69.7369 33.0536L67.4138 33.3896L65.957 34.5472L63.6038 35.6673L63.5066 37.5045L63.8801 39.2073L63.1031 41.6794L62.3412 45.9735L62.8191 48.2214L67.929 54.6516L69.6771 59.3117L70.9319 61.0742L73.5469 63.016L76.2735 66.6231L77.4239 68.4977L78.2455 71.567L75.9525 73.4639L74.6225 73.5386L73.8829 72.7022L74.9138 70.6111L74.7643 69.3341L71.2233 67.355L69.7296 68.0195L68.0038 69.3041L68.99 71.6939L70.0952 73.2697L70.6556 75.4355L72.7772 75.2489L69.9238 77.6759L67.2419 78.9157L64.6046 78.9905L62.9239 79.2145L62.3412 79.8342L63.7082 80.2823L64.8212 80.3272L66.6368 81.634L71.7987 83.195L74.2641 85.174L76.6843 85.3533L79.1123 88.9753L83.318 89.9387L85.7159 93.5907L88.8985 94.3077L91.6475 95.6519L92.4468 96.9289L92.8503 99.2441L93.0295 104.136L93.6273 107.765L93.6496 108.908L93.5005 110.618L92.7532 111.455L91.7446 111.484L89.7653 108.818L86.7395 106.01L83.5424 102.665L82.6309 102.074L81.8836 102.022L80.1733 103.15L75.4218 104.024L73.1958 105.249L72.3591 105.517L72.1274 106.16L73.1734 106.824L74.4506 108.355V110.439L75.5116 112.971L76.8785 113.62L78.6568 113.568L79.6799 114.039L79.9417 115.047L80.9799 116.219L81.6597 117.093L81.6374 117.713L76.6693 119.363L75.631 120.118L74.757 120.506L73.4648 119.722L73.39 117.706L71.6865 116.623L70.1253 115.689L68.2504 115.293L66.6591 113.897L65.6205 115.024L66.4499 118.938L68.2504 121.626L71.2684 128.826L72.6354 133.06L72.9117 135.106L72.2319 138.504L73.7187 141.021L74.7346 143.605L73.6216 143.508L72.6504 142.597L71.0218 141.522L67.8693 137.392L66.7713 134.815L65.4563 134.614L63.1706 134.987L60.6751 140.491L60.6829 143.635L59.3903 142.888L58.2846 141.91L58.4191 138.467L58.3074 137.018L55.2743 132.313L53.8846 131.783L53.2348 130.192L52.1141 128.49L50.6723 128.811L49.4919 129.498L49.1709 132.067L49.0514 134.367L48.1696 136.092L44.935 132.814L41.6781 127.123L41.596 124.001L43.9789 121.141L43.6948 119.095L41.4387 115.047L38.1818 112.44L36.3589 111.664L35.4999 108.886L33.7595 107.452L32.3474 106.779L32.0711 105.794L32.4969 105.062L35.9184 102.202L37.9206 97.7057L38.9141 97.4967L40.9609 98.5644L43.2616 98.2882L45.1443 95.6519L46.7429 94.2182L49.4399 94.4048L55.5283 97.9222L62.0722 99.9312L65.3369 101.686L67.1894 103.426L68.1679 103.785L69.7218 104.031L69.6548 102.732L69.1614 101.582L70.4541 100.954L73.9577 100.984L74.5928 100.372L75.2426 99.386L74.518 98.2583L73.3599 97.7207L72.1202 97.5712L71.3058 97.2127L69.9835 97.5712L67.929 96.6974L66.8607 95.9806L66.2406 95.2413L62.6622 93.7699L59.2708 91.2756L58.5016 92.6871L57.1269 93.4487L55.1772 93.5609L49.6939 91.9776L46.3248 93.1875L44.4868 93.5012L43.0825 93.531L41.3567 94.0686L39.3623 94.3898L37.6365 92.0897L36.912 90.3047L36.404 89.9688L36.3812 91.6489L35.8286 92.9934L33.2962 93.7475L31.8394 92.7021L30.7187 89.543L29.307 85.5177L26.8193 82.2615L24.7949 81.41L24.623 79.6177L24.8022 78.1839L27.2302 77.8254L31.0251 79.3264L31.8093 79.0277L32.6611 78.3332L32.4969 76.8023L31.9439 75.4355L30.8983 75.3758L30.1734 75.5326L27.8352 75.2489L24.8396 76.0106L23.4503 75.2936L22.987 74.42L20.477 72.2617L18.3107 69.364L14.7994 67.4297L12.5059 61.5147L10.5786 58.9309L8.52447 57.0787L8.97267 57.0488L9.74963 57.3624L11.2433 58.3782L12.8273 58.5947L13.6937 57.9226L14.1943 57.3027L14.5158 56.2871L14.6498 55.0997L14.9115 54.7038L16.1289 54.8458L16.5174 54.547L16.5028 53.479L15.7181 52.1496L15.031 50.5141V49.7374L15.6064 49.4238L16.5548 48.7143L17.0627 47.833L18.0713 47.3925L19.5582 47.3104L21.2165 46.922L22.2921 45.9735L22.449 45.04L23.1215 42.4561L23.5624 41.1864L24.2719 40.0289L24.6531 38.4679L25.415 36.9967L26.9985 36.3768L28.433 35.6525L29.5163 33.7556L30.1287 32.1349V31.1417L29.2172 29.5137L28.5451 27.9304L28.7243 25.8692L31.5704 25.6974L32.564 25.5032L36.2618 25.3913L37.9502 24.2859L39.1156 24.3905L41.5509 25.3464L42.6415 24.592L45.8241 23.0985L48.9693 18.752L50.3062 18.1022L53.3616 17.8333L54.3177 17.333L55.4312 17.4301L58.8527 18.3114L60.7946 18.4457L63.1031 17.8408L65.6433 16.7803L66.278 13.0538L66.883 12.5161L68.4593 12.3666L69.6548 12.3965L71.9556 12.6953L74.6899 12.7923L76.4454 11.0447L79.2167 10.9178L80.5016 10.6639L82.646 11.0149L84.7301 11.0001L87.397 10.268L89.8847 9.06577L91.8271 9.17039L92.6187 8.95364L93.0669 8.69975L93.5525 7.07907L97.2056 6.97469L98.4458 7.13149L100.485 7.17616L102.607 6.28754L103.242 6.36229L104.31 8.73713L104.87 9.42428L106.021 10.059L108.59 11.8365L109.054 11.3659L110.129 10.7685L113.207 11.5826L116.143 12.9492L118.608 14.9582L121.35 14.3756L124.39 13.3897L126.37 13.106L128.522 12.9642L129.799 12.5385L132.705 13.0538L135.701 11.971L137.143 11.0001L137.561 9.62575L137.322 7.21354L136.642 4.79381L135.925 3.89766L135.693 2.97166L136.104 2.10537L136.567 1.50801L138.525 1L140.967 1.85148ZM108.538 32.4039L105.849 33.3821L103.115 31.5225L103.137 30.4172L104.579 28.1693L105.371 27.5047L107.38 27.6838L108.523 29.2298L108.792 29.9618L108.419 31.2014L108.538 32.4039ZM127.655 37.5868L125.279 38.3036L122.665 36.0409L125.19 35.1297L126.363 35.787L127.199 36.5637L127.655 37.5868ZM122.448 49.7001L121.656 50.6188L121.066 52.2021L120.752 54.4648L119.527 54.5172L118.787 54.0616L118.541 53.2028L118.496 52.1198L117.959 52.1647L117.525 53.3371L117.144 53.8674L115.912 53.9795L114.559 53.255L114.627 51.6943L114.358 49.8794L114.477 49.2447L118.175 49.0877L119.258 50.4246L120.566 49.6479L121.103 48.8114L122.687 48.2886L122.448 49.7001ZM10.0779 64.644L10.5339 66.16L7.91896 65.219L6.01442 63.8672L4.43817 60.5142L1.08369 56.6978L1.03125 55.5852L2.30885 54.7412L5.06557 54.1436L6.17856 54.7636L6.89578 55.4058L7.11966 56.1376L5.55846 57.6015L5.23746 58.2661L6.43983 59.5807L6.42524 60.1108L6.92542 62.6575L7.51589 63.6133L9.0324 64.3825L10.0779 64.644ZM142.835 67.4297L142.469 69.0278L145.368 71.6791L146.353 73.3593L146.719 74.9875L146.473 75.4579L145.375 74.5768L144.471 74.2928L144.777 75.4579L145.704 76.4586L144.06 77.0337L142.417 77.0038L137.606 75.6074L136.5 74.1212L139.376 71.8881L139.959 70.9844L137.927 71.074L135.753 73.7253L132.272 72.5602L131.204 71.4922L130.964 70.9172L132.339 68.5574L134.789 68.6395L136.082 68.1093L137.688 67.3625L137.703 66.2423L141.527 65.9882L142.835 67.4297ZM89.9595 72.0449L88.9806 72.3587L89.9595 70.2077L91.6926 69.0951L91.0424 70.9024L89.9595 72.0449ZM87.6884 73.225L86.7546 74.136L85.3051 73.7403L83.7886 70.6932L87.6884 73.225ZM80.0534 77.4072L81.2411 80.3197L82.3546 81.2981L84.685 82.4557L85.7834 82.6049L89.7653 84.696L94.3892 85.1143L94.9869 85.7194L95.5546 87.325L96.4961 88.5869L96.7351 89.5654L96.2417 90.6557L96.9215 93.9791L98.087 97.1306L99.8429 98.6542L102.031 99.1171L104.116 99.0499L104.639 99.6773L104.429 102.426L103.548 103.501L102.831 103.762L102.211 103.479L101.643 102.836L101.031 102.53L99.8351 102.478L98.9611 101.373L96.7424 99.8565L96.3315 98.9455L96.2568 97.5489L95.3157 96.5182L94.4489 94.5616L93.6273 94.0165L93.1717 93.0305L93.1344 92.6123L89.9071 92.321L87.2402 92.3137L84.9764 91.2008L84.2742 88.2808L82.9296 87.4966L81.921 86.6677L81.0843 85.5177L78.9627 83.404L76.6173 81.634L74.3461 80.4617L71.9405 79.6925L69.9835 80.5961L68.8404 80.3869L68.6088 79.7745L71.0441 78.5573L74.3908 76.2271L76.744 75.4579L77.8871 75.3608L80.0534 77.4072ZM106.454 81.4175L104.243 82.0673L103.652 81.9627L104.146 81.1413L104.183 80.7976L101.972 79.2891L102.233 77.3325L102.495 76.8322L104.138 77.8553L104.497 79.558L106.454 81.4175ZM22.8452 86.7798L22.0309 86.9888L21.3287 86.8468L20.6935 86.9665L20.0734 87.4743L20.1409 85.3608L20.8654 82.7246L21.7468 81.186L22.9943 80.4692L23.525 81.6789L23.4279 85.9805L22.8452 86.7798ZM136.209 97.1828L134.207 98.6841L131.973 96.5107L131.607 95.8088L133.25 94.9274L134.065 93.5757L133.407 91.9103L131.129 89.4459L131.017 87.6983L134.505 86.959L136.56 88.4826L137.606 88.5869L137.202 90.0433L137.381 90.5139L137.538 94.9201L136.567 95.5398L136.41 96.7498L136.209 97.1828ZM24.3467 94.2255L23.308 94.5167L21.9935 91.97L21.5152 90.2076L22.0683 90.1105L22.5912 90.3122L23.1439 90.9768V91.6564L23.3682 92.3883L23.9432 93.2621L24.3467 94.2255ZM21.2835 92.7917L21.5453 95.8685L23.0244 96.4435L24.9891 99.2069L24.8245 100.618L24.4137 101.104L21.1568 99.7967L20.3798 100.387L19.431 100.148L18.841 98.6168L18.908 98.0792L18.3777 97.1605L17.9295 96.7498L16.6519 97.9671L15.8453 98.1911V97.0784L17.0331 94.0165L17.5857 93.5012L18.5569 94.5092L19.3562 94.1359L19.9613 92.4781L19.9987 90.8275L20.2754 90.3421L21.2835 92.7917ZM82.8922 104.935L82.0632 105.585L81.1294 105.555L80.4642 105.316L80.1359 104.793L80.5467 104.547L81.0323 103.493L81.4805 103.21L82.1453 103.344L82.5561 103.77L82.8922 104.935ZM113.095 109.326L112.475 111.096L110.839 109.035L109.046 107.623L108.374 106.384L107.283 105.637L106.985 103.972L108.307 103.292L108.874 103.225L110.234 105.249L112.356 105.48L112.191 106.727L112.864 108.333L113.095 109.326ZM27.0733 108.124L29.2847 110.693L27.4992 110.058L25.6015 111.835L23.1963 109.759L21.7546 107.653L21.4331 106.809L22.9423 104.838L24.3467 106.862L26.0497 107.183L27.0733 108.124ZM151.523 107.96L154.101 108.833L154.817 108.736L156.035 109.05L156.357 110.648L154.743 110.88L151.949 112.351L150.761 112.03L149.342 110.753L147.086 110.618L146.421 110.267L147.631 108.759L149.827 107.997L151.523 107.96ZM99.7681 114.143L98.3637 115.42L98.1244 113.501L99.0285 111.477L100.261 111.35L100.717 112.239L99.7681 114.143ZM118.638 113.546L117.861 115.248L116.554 114.987L114.365 113.157L113.618 112.328L113.207 111.514L114.104 111.417L115.202 112.284L118.003 112.739L118.638 113.546ZM134.849 115.398L133.871 115.502L134.169 114.449L136.044 112.62L138.674 112.53L141.064 111.611L141.602 111.582L140.459 113.023L138.532 114.367L134.849 115.398ZM121.716 118.296L119.707 118.46L119.826 116.451L120.573 115.928L122.979 116.929L122.859 117.556L121.716 118.296ZM112.079 116.339L111.975 119.065L111.422 119.042L111.1 118.624L111.085 117.579L111.325 115.936L112.079 116.339ZM101.441 120.26L100.246 121.059L100.642 119.236L100.052 118.288L100.575 117.482L101.344 116.832L101.703 117.504L102.39 118.594L101.441 120.26ZM103.279 126.01L102.502 126.406L101.21 125.831L101.554 124.397L102.45 123.785L103.398 124.255L103.541 124.905L103.279 126.01ZM124.719 130.133L122.851 131.118L121.574 129.692L120.864 127.444L124.286 124.143L125.108 124.442L125.601 125.293L125.526 128.258L124.719 130.133ZM119.124 127.496L117.458 129.513L116.069 129.296L115.486 128.37L116.345 126.473L118.205 125.398L119.049 125.682L118.967 127.085L119.124 127.496ZM155.617 130.349L153.525 130.708L153.899 128.631L152.875 126.996L154.504 127.915L155.542 129.02L156.05 129.229L155.931 129.894L155.617 130.349ZM107.425 131.335L107.044 131.447L106.491 130.349L106.379 129.326L106.596 128.721L107.321 128.661L108.307 130.611L107.425 131.335ZM131.286 134.748L129.433 134.965L128.843 134.77L129.971 134.322L130.755 133.844L131.136 133.269L133.012 132.254L134.244 130.924L135.581 131.828L133.908 132.433L131.286 134.748ZM154.145 136.398L153.495 136.428L154.272 135.174L156.483 133.449L159.703 131.925L160.771 131.761L162.587 132.702L159.255 134.263L158.366 135.084L155.908 135.263L154.145 136.398ZM121.275 137.78L120.909 138.191L119.326 136.548L118.72 135.592L119.475 134.793L121.806 136.66L121.275 137.78ZM103.541 135.443L103.578 136.973L103.429 137.519L99.1402 138.258L99.5365 136.503L99.7977 135.95L101.217 136.764L101.74 136.346L101.949 135.868L103.541 135.443ZM173.239 140.902L172.784 141.313L171.731 140.125L171.678 139.505L172.754 138.796L173.292 138.631L173.449 139.117L173.434 140.155L173.239 140.902ZM143.896 140.088L142.237 140.707L141.184 142.015L139.899 141.088V139.834L141.304 140.222L142.289 139.513L141.991 138.713L143.066 139.087L143.896 140.088ZM123.389 145.091L122.418 146.458L121.044 145.973L121.604 145.457L121.933 144.785L121.97 143.814L121.597 143.217L121.851 143L123.076 144.001L123.389 145.091ZM172.874 157.063L171.364 157.608L170.842 157.541L170.214 156.346L171.088 153.463L170.281 151.604L170.229 150.819L171.454 149.729L172.306 148.094L174.382 146.324L179.769 144.225L181.031 144.031L180.994 145.674L179.193 149.826L177.595 151.902L178.021 153.56L175.458 154.023L172.874 157.063ZM72.4712 150.342L72.2246 151.462L70.0656 150.692L69.4678 149.535L69.3557 146.966L69.9238 145.711L70.2972 145.315L71.2908 146.764L73.375 148.878L72.4712 150.342ZM158.896 168.99L158.097 170.431L157.283 169.214L157.634 167.81L156.693 165.591L158.478 162.291L158.516 160.685L159.883 159.863L159.547 162.589L158.501 164.77L159.583 166.585L160.099 168.646L158.896 168.99ZM89.2122 167.19L90.6467 167.376L92.589 167.347L93.0295 167.19L94.2697 165.689L95.7935 165.659L96.4587 167.137L94.9121 167.817L94.5984 168.205L94.8971 168.519L96.0552 169.139L97.6689 168.907L97.7135 170.072L98.0724 171.021L98.8639 171.589L99.7307 171.701L101.636 171.536L103.511 171.163L105.446 170.416L107.425 170.035L113.334 170.416L115.456 172.029L119.497 172.223L123.248 173.075L125.22 172.515L128.589 171.992L129.127 172.559L128.694 176.196L128.902 177.257L129.874 177.765L130.83 177.518L132.01 176.323L134.834 175.405H137.763L140.235 172.985L140.96 172.843L140.504 174.031L140.13 176.824L139.608 178.459L139.369 179.744L137.717 180.408L135.23 180.521L130.681 180.237L126.094 180.692L117.6 181.917L109.091 182.544L107.948 182.134L107.926 180.513L107.746 179.393L107.193 178.609L104.564 177.937L102.054 176.786L92.2156 175.218L89.892 174.598L86.1272 174.919L84.7452 174.875L83.7963 174.314L83.1388 173.343L82.8402 170.259L83.3107 167.205L84.1251 166.398L84.4985 167.317L85.462 167.742L86.3584 166.816L86.3511 165.412L86.8066 164.113L87.5165 164.658L87.987 166.659L89.2122 167.19Z" fill="white" fillOpacity="0.2" stroke="white" strokeWidth="0.5"/>
</svg>
