<svg width="183" height="533" viewBox="0 0 183 533" fill="none" xmlns="http://www.w3.org/2000/svg">
<path d="M176.842 15.3746L176.75 15.7363L176.615 17.0736L175.698 18.7642L174.705 20.9681L174.772 22.9024L177.305 29.5809L179.56 33.6265L179.981 35.1658L181.428 36.3517L180.056 37.8405L179.787 40.0441L178.895 41.0283L178.66 42.2817L179.038 43.4255L179.03 44.8554L179.526 46.8152L177.322 47.2442L174.705 47.1769L173.772 47.2945L172.897 47.833L171.996 47.5637L169.623 45.7218L168.294 45.3095L167.352 45.4189L166.645 46.2264L165.425 47.2526L164.289 47.976L164.542 48.6066L169.447 50.2638L170.314 52.8037L169.371 54.8728L169.051 55.8906L167.899 56.6814L166.493 57.3794L164.794 57.556L164.592 58.6749L165.257 61.9466L164.718 62.6532L164.18 63.671L164.685 66.3541L165.737 66.5474L165.972 67.1532L165.787 68.2467L165.602 69.3989L165.232 70.6184L165.046 71.1652L164.348 71.5017L162.177 71.3251L160.301 72.368L156.532 76.1025L155.22 76.7417L153.789 78.2389L153.873 81.5109L153.68 81.8135L153.335 82.4865L148.833 81.3258L148.682 81.351L145.662 81.7714L143.601 83.2686L141.102 84.135L135.852 83.6724L130.745 84.2528L129.533 84.6902L128.212 84.9425L126.967 85.8173L126.252 87.0453L124.981 88.5928L123.172 89.8126L121.212 90.7546L120.741 91.5367L120.101 91.9911L118.999 91.4022L118.115 91.4359L117.03 91.0321L113.421 90.5947L109.467 89.8714L107.573 89.1816L105.437 88.6264L103.131 88.1808L101.07 88.0797L100.027 87.8695L95.0711 86.6666L91.7979 86.5827L87.4817 86.0781L78.9084 84.2613L76.4096 83.521L74.0287 83.2938L71.2015 82.6631L69.0562 81.6284L67.6846 79.6604L66.2123 77.053L63.5284 73.6296L62.973 71.9221L63.7977 70.4249L64.6389 69.2896L64.5465 68.8101L63.8902 68.5578L59.1701 70.0214L54.5931 71.8718L52.7927 71.9221L51.0511 71.5184L48.7289 71.4847L46.5077 71.9809L42.0485 72.2335L39.4403 73.596L37.7744 76.2455L36.8742 78.3819L36.117 79.0716L34.5605 79.3324L32.2384 79.1304L30.6061 78.5164L28.9403 76.6913L26.3572 76.4306L23.9845 76.3885L23.3536 76.0519L23.3958 74.8576L22.4617 72.6203L20.9136 71.9221L16.9089 76.1361L15.8151 76.5145L12.5928 75.3455L9.77403 73.5454L9.47131 72.225L9.00837 71.14L6.64436 70.1138L3.69109 69.4156H2.74877L3.11902 68.7765L3.46386 67.6914L3.24509 66.8334L2.55518 65.9334L2.17671 64.9832L2.05885 64.0578L1.84857 63.3008L1.72224 62.586L1.50348 62.0308L3.43022 57.8252L3.82563 55.2094L2.14307 53.6703L1.42773 53.2159L2.01675 52.8712L4.41464 53.1572L5.9375 52.2908L6.7368 51.4245L8.86535 52.2403L11.9953 53.872L13.4676 54.9822L14.0735 55.8318L14.4183 56.5467L14.2332 57.7747L14.9401 58.2542L16.4124 58.4308L17.3968 58.8094L17.0519 60.4242L16.9847 61.7448L18.3391 61.5597L20.0471 60.5505L21.3763 58.7252L22.201 56.9505L22.8234 52.6271L23.0422 52.2654L24.0687 52.6019L28.2167 52.4169L30.1771 53.2244L33.2816 53.3589L33.2228 54.0319L33.7697 55.0915L35.1495 56.6139L35.8225 57.6065L37.2612 57.7831L39.4909 57.2364L40.7865 56.6645L41.2828 57.0683L43.3107 56.673L45.1111 55.445L45.5571 54.5112L47.3745 53.8469L49.8312 52.3245L53.205 51.1553L64.2689 49.8937L64.6979 48.9432L64.538 46.7647L64.8325 46.4451L66.2208 46.9834L68.4587 47.4965L70.1837 48.2619L71.2857 49.2712L72.3207 49.3133L73.9193 48.6066L76.0815 48.1526L78.1006 49.2039L78.6897 50.3311L78.3364 50.9114L78.37 51.828L79.0009 52.5935L80.6416 53.8384L82.745 54.9065L83.8388 54.8225L84.2424 53.7878L84.6296 51.3067L84.7729 48.6487L84.2932 47.1263L83.1573 46.7562L81.8026 46.6302L81.0791 46.3106L81.34 45.4779L82.4168 43.3076L82.4086 40.4058L79.9601 37.092L77.8316 33.8873L77.8398 32.7938L79.1187 30.8931L81.0791 29.3791L85.4456 26.8556L86.8172 26.3343L88.5842 25.9136L91.1251 24.8707L92.3448 23.8024L93.1695 22.6416L94.3639 16.5941L94.6418 16.3334L94.9951 15.9802L99.4458 18.0744L99.8412 17.7212L100.599 17.3847L102.046 15.7784L102.366 14.5671L102.332 12.2541L102.466 10.0756L102.744 9.37744L103.409 9.63823L105.327 10.7653L106.85 12.0439L108.272 15.2483L111.595 16.098L115.793 16.1822L117.291 14.7522L118.654 14.4241L120.194 14.8615L123.442 15.3577L123.803 12.7757L125.671 10.0756L126.521 9.13359L128.902 9.22599L129.482 7.20742L130.071 1.61399L130.568 1L132.301 1.11782L134.026 2.13558L134.539 2.96826L135.439 2.90101L136.693 2.32912L138.064 1.96745L140.243 2.5645L144.879 5.10465L147.277 6.03822L148.791 5.86162L150.213 5.89524L155.69 9.81483L159.519 10.3616L163.01 10.3785L164.138 9.20084L165.618 8.20002L167.175 8.33452L168.53 8.84764L171.172 10.5466L172.392 10.984L174.016 11.2615L175.202 11.6401L176.253 14.584L176.842 15.3746Z" fill="white" fill-opacity="0.2" stroke="white" stroke-width="0.5"/>
</svg>
