<svg width="183" height="533" viewBox="0 0 183 533" fill="none" xmlns="http://www.w3.org/2000/svg">
<path d="M161.677 6.90748L164.201 6.58615L164.305 6.63345L164.901 6.82239L165.326 8.67511L165.393 8.79799L166.007 10.0173L166.574 11.6335L167.463 12.8528L169.421 13.3538L171.973 14.8566L173.628 17.6924L176.115 18.8644L176.294 18.8926L176.786 18.7602L178.582 18.6564L178.932 19.2235L180.36 20.613L180.918 21.8227L180.634 23.1084L180.889 24.5639L181.428 25.0742L180.776 26.048L176.133 30.9251L174.308 32.2104L173.107 32.4752L171.207 31.9647L169.25 32.3524L167.501 33.3919L165.884 33.7228L164.665 34.9611L163.085 37.6077L161.138 39.8382L159.181 41.2277L158.16 42.466L158.046 46.7383L156.959 47.9671L155.503 49.2051L154.699 50.292L152.478 56.7761L150.794 58.846L149.187 60.434L148.922 61.8803L148.951 63.5438L147.136 66.852L144.753 70.2736L144.299 71.6818L144.829 73.5723L142.54 75.7464L141.226 76.7955L140.129 77.287L139.448 78.6479L138.333 81.9657L138.626 83.4403L138.654 84.8012L136.726 85.5953L136.159 87.0886L135.667 88.9413L134.863 89.7729L132.698 91.3138L127.309 90.6426L125.276 91.1624L124.671 92.2588L124.548 93.138L123.867 93.9696L122.647 94.9999L121.39 95.4632L118.582 94.1871L112.559 95.4915L111.519 96.4177L110.678 95.7467L109.382 95.1511L103.36 94.3951L100.977 94.9904L97.7911 94.7637L94.8504 94.102L92.6477 94.6408L90.7093 97.2305L89.745 98.1002L88.9884 98.6578L87.334 99.4707L85.9438 100.444L84.1 101.144L82.4456 101.049L80.8857 99.9339L80.3277 100.189L79.836 101.219L78.9854 102.089L76.65 103.167L76.0545 103.148H75.9217L74.1351 103.942L71.1851 104.386L69.7009 104.074L67.0157 107.647L66.1928 108.299L63.6306 109.386L61.541 109.934L59.7446 109.499L59.0354 109.461L51.0746 109.282L46.9145 108.516L44.2484 107.118L42.471 105.558L41.6008 103.828L39.5401 102.788L36.2779 102.42L33.7439 100.699L31.9192 97.637L29.4707 95.2079L26.3597 93.412L23.9019 90.8788L22.0864 87.5992L18.815 84.6405L14.0876 82.013L12.6599 81.4364L12.376 80.5857L10.0694 77.3153L9.07628 76.1055L9.17092 74.4798L8.70753 73.5533L7.86616 72.9106L7.41258 70.5572L7.1477 68.799L6.48579 67.6649L1.42773 67.4286L5.66346 63.2319L7.77152 62.06L10.2114 62.2584L10.9956 61.8803L11.204 61.2659L11.62 59.8954L11.8278 58.6006L12.0361 57.3718L11.7712 56.691L10.5894 56.4738L10.0221 53.4586L10.6269 52.3149L11.2322 51.5208L10.4855 47.8442L10.7123 46.5869L12.6218 46.3884L14.2013 45.6041L15.4962 44.7154L15.8558 43.5717L16.9147 41.2465L15.9406 38.3922L10.4284 36.53L10.145 35.8213L11.4215 35.0084L12.7921 33.8552L13.5867 32.9477L14.6456 32.8248L16.1391 33.2881L18.8058 35.358L19.8174 35.6606L20.8007 35.0554L21.8498 34.9233L24.7906 34.9989L27.2674 34.5169L26.71 32.3146L26.7192 30.7076L26.2939 29.4223L26.5582 28.0138L27.5606 26.9078L27.863 24.4315L29.4043 22.7585L30.1326 22.5127L32.8552 22.8248L33.4981 23.2595L33.9142 23.3541L38.2538 27.4279L42.3573 30.4901L45.7136 32.0593L50.6493 32.1822L55.8967 32.3238L64.6705 31.7853L71.2515 31.3881L71.686 30.6225L72.6792 28.7983L71.8845 27.2295L71.9318 25.3863L73.0381 22.9855L76.2905 20.9816L85.6039 20.1024L90.9551 18.6091L91.7682 16.577L93.5364 14.5636L95.1626 14.1571L97.3843 15.0836L100.06 16.851L102.414 17.7962L103.785 17.1914L108.513 14.2044L113.958 11.2743L117.703 3.33473L118.109 2.05862L122.165 1.15144L128.093 1.3121L131.138 2.35168L133.426 2.90003L136.849 2.7108L141.784 1L143.609 1.04731L145.027 2.25707L146.578 3.30646L147.627 4.58228L148.421 6.38769L148.847 7.05892L149.537 7.98514L150.785 9.25173L151.986 9.58258L161.129 7.38026L161.677 6.90748Z" fill="white" fill-opacity="0.2" stroke="white" stroke-width="0.5"/>
</svg>
