<svg width="183" height="533" viewBox="0 0 183 533" fill="none" xmlns="http://www.w3.org/2000/svg">
<path d="M72.9526 24.568L74.1111 25.1567L77.3106 24.9998L83.0033 22.2133L86.87 19.8778L88.2245 20.8395L99.4324 19.5244L102.083 20.5844L103.849 21.7815L109.365 23.3907L115.372 23.5673L122.811 21.3102L126.07 19.034L126.698 16.5224L126.854 14.6186L127.817 13.4023L129.505 12.7154L132.155 13.9515L135.943 14.9522L145.032 15.3642L146.817 13.9712L149.899 14.3833L153.963 16.1493L158.654 15.5804L161.029 17.7387L162.011 20.6042L162.286 26.8245L161.932 33.1041L162.855 35.4193L166.034 36.0278L171.158 35.9493L175.771 37.6369L179.343 40.6L180.521 43.6219L181.031 45.7023L179.284 46.8796L176.811 51.3537L170.53 57.1818L161.559 62.4212L154.708 68.9361L149.998 76.7069L144.089 80.0036L142.283 81.7697L141.576 83.8699L145.483 93.3671L146.68 100.687L147.642 109.635L147.014 112.147L146.68 121.958L145.777 124.823L146.013 127.159L147.446 129.651L148.093 132.045L145.404 135.087L140.477 138.619L136.827 141.719L135.845 144.623L136.12 146.429L142.263 152.571L143.382 155.083L142.558 161.146L139.025 171.056L135.648 177.081L135.059 177.669L131.193 179.376L112.663 179.435L108.168 180.789L108.796 182.006L113.153 189.738L117.688 193.839L119.199 194.781L120.829 203.788L128.19 218.152L135.315 220.134L137.788 223.725L137.336 228.749L135.138 234.263L130.761 239.915L125.559 243.878L122.163 247.823L121.888 252.395L120.809 258.184L119.18 262.756L118.767 265.837L131.801 285.166L139.064 284.224L140.006 284.676L138.711 289.267L136.414 294.644L133.666 295.665L127.443 297.313L121.555 304.259L116.785 312.599L113.193 316.642L109.915 326.532L110.327 330.81L111.917 337.403L115.273 354.554L110.445 355.319L91.679 366.485L85.8691 366.505L75.0139 361.599L55.8562 360.009L49.6136 358.537L41.8207 361.756L35.795 361.677L31.0052 365.779L27.5703 364.66L31.5155 355.457L37.6988 337.207L37.4436 326.041L38.9161 316.308L37.2279 306.654L34.1261 300.609L38.3463 284.93L37.8755 276.826L34.0088 266.543L45.727 268.113L42.0957 264.032L38.523 261.539L35.0685 262.108L32.1439 261.951L22.1724 265.935L17.1669 267.132L15.7141 266.425L16.2635 260.067L13.6726 251.806L17.6772 249.628L22.3293 249L26.2943 245.468L28.7479 241.524L27.4523 234.479L30.8877 227.787L38.9549 222.116L34.7743 222.98L29.9845 226.512L22.4468 239.306L19.9931 245.782L13.5744 247.882L7.82311 248.921L4.87887 248.235L1.34566 246.606L1.03125 241.838L1.3062 238.031L3.70105 230.456L4.64338 219.742L8.03937 210.126L7.78416 207.555L6.82209 203.729L9.84487 199.981L13.5942 197.508L19.2868 189.227L27.2366 169.427L36.4031 148.293L35.6573 145.703L33.7139 143.701L34.4993 137.971L40.0152 112.99L42.2526 109.714L44.8441 102.355L45.433 90.4633L46.4537 82.2607L46.2176 78.1394L45.3934 73.1749L41.88 63.677L38.1894 43.5434L37.8953 36.7931L40.9377 33.379L35.9322 32.8879L33.6553 28.5121L34.1657 23.5476L39.7403 15.5217L44.9423 10.5374L50.0851 7.27962L52.9311 6.04357L64.8069 2.64865L67.928 1L70.8525 1.27488L71.343 2.90377L73.0317 6.04357L74.9157 8.22162L75.426 9.83075L70.8332 16.5613L70.2048 18.8573L72.5998 23.1942L72.9526 24.568Z" fill="white" fill-opacity="0.2" stroke="white" stroke-width="0.5"/>
</svg>
